<?xml version="1.0" encoding="UTF-8" standalone="no"?>
<!-- Created with Inkscape (http://www.inkscape.org/) -->

<svg
   version="1.1"
   id="svg1"
   width="3200"
   height="2400"
   viewBox="0 0 3200 2400"
   sodipodi:docname="boromir-path.svg"
   inkscape:version="1.3.2 (091e20e, 2023-11-25, custom)"
   xmlns:inkscape="http://www.inkscape.org/namespaces/inkscape"
   xmlns:sodipodi="http://sodipodi.sourceforge.net/DTD/sodipodi-0.dtd"
   xmlns="http://www.w3.org/2000/svg"
   xmlns:svg="http://www.w3.org/2000/svg">
  <defs
     id="defs1" />
  <sodipodi:namedview
     id="namedview1"
     pagecolor="#ffffff"
     bordercolor="#999999"
     borderopacity="1"
     inkscape:showpageshadow="2"
     inkscape:pageopacity="0"
     inkscape:pagecheckerboard="0"
     inkscape:deskcolor="#d1d1d1"
     showgrid="false"
     inkscape:zoom="0.22715816"
     inkscape:cx="1481.3467"
     inkscape:cy="640.52289"
     inkscape:window-width="1920"
     inkscape:window-height="974"
     inkscape:window-x="-11"
     inkscape:window-y="-11"
     inkscape:window-maximized="1"
     inkscape:current-layer="g1" />
  <g
     inkscape:groupmode="layer"
     inkscape:label="Image"
     id="g1">
    <g
       id="g2">
      <path
         style="fill:#00d485;fill-opacity:0;stroke:#23ffde;stroke-width:5.02299;stroke-linecap:square;stroke-miterlimit:0;stroke-dasharray:none;stroke-opacity:1;paint-order:fill markers stroke"
         d="m 1541.0014,645.06089 c 0.4421,4.26659 -0.6062,8.74732 0,12.99053 0.2203,1.54259 0.8545,3.01233 1.2178,4.4655 0.1274,0.50943 -0.1273,1.11438 0,1.62381 0.3815,1.52607 1.3734,2.34082 2.0298,3.65359 0.6481,1.29616 0.035,1.32279 0.4059,2.43572 0.1624,0.48715 1.0555,0.73072 1.2179,1.21786 0.5859,1.75763 -0.7761,-0.1492 0.406,1.62382 0.2123,0.31846 0.6407,0.46958 0.8119,0.81191 0.121,0.24206 -0.1211,0.56984 0,0.81191 0.1711,0.34233 0.6611,0.46011 0.8119,0.8119 0.5582,1.30255 1.212,4.05072 2.0297,5.27741 0.5359,0.80377 1.7204,2.72533 2.0298,3.65358 0.1218,0.36536 -0.1218,0.8525 0,1.21786 0.5787,1.73614 1.2543,3.32046 2.0298,4.87145 0.4472,0.89443 0.071,0.953 0.4059,1.62382 0.1712,0.34233 0.6408,0.46957 0.8119,0.81191 0.2421,0.48405 0.4461,1.66396 0.812,2.02977 0.096,0.0957 0.3102,-0.0957 0.4059,0 0.2871,0.28705 -0.1284,0.83274 0,1.21786 0.1836,0.55089 1.2374,2.43572 1.6238,2.43572"
         id="path10" />
      <path
         style="fill:#00d485;fill-opacity:0;stroke:#23ffde;stroke-width:5.02299;stroke-linecap:square;stroke-miterlimit:0;stroke-dasharray:none;stroke-opacity:1;paint-order:fill markers stroke"
         d="m 1558.4574,699.86468 c 0.3638,3.04529 0.7592,6.3002 0,9.33694 -0.2484,0.99341 0.083,1.05256 -0.406,2.02977 -0.1948,0.38962 0.13,1.23397 0,1.62382 -0.2732,0.81965 -1.609,1.5943 -2.0297,2.43572 -0.2082,0.4163 -0.1979,1.20753 -0.406,1.62382 -1.2042,2.40849 -3.0619,4.38984 -4.4655,6.49526 -0.5394,0.8091 -0.121,1.74482 -0.8119,2.43573 -0.096,0.0957 -0.3103,-0.0957 -0.406,0 -0.3666,0.3666 -0.57,1.54608 -0.8119,2.02977 -0.1711,0.34233 -0.6908,0.44881 -0.8119,0.81191 -0.4801,1.44045 0.6579,0.2054 -0.4059,1.62381 -0.3581,0.47743 -1.3381,1.05233 -1.6238,1.62382 -0.1776,0.35519 -0.2312,1.36168 -0.406,1.62381 -0.1678,0.25177 -0.5601,0.23812 -0.8119,0.40596 -0.9099,0.6066 -0.5318,1.34366 -1.2179,2.02977 -0.096,0.0957 -0.3102,-0.0957 -0.4059,0 -0.3548,0.3548 -0.2051,1.62793 -0.406,2.02977 -0.1353,0.27063 -0.6766,0.13532 -0.8119,0.40595 -0.121,0.24207 0.121,0.56985 0,0.81191 -0.8088,1.61758 -0.8123,0.002 -1.2178,1.62382 -0.5478,2.19084 1.3457,-1.16038 -0.812,2.43572 -0.3938,0.65648 -0.9325,0.0987 -1.2178,0.81191 -0.2563,0.64064 0.082,1.54187 -0.406,2.02977 -0.8399,0.83993 0.033,-1.28353 -0.8119,0.40595 -0.4205,0.84108 -1.3011,1.87368 -1.6238,2.84168 -0.086,0.25675 0.121,0.56984 0,0.81191 -0.3875,0.77498 -1.1432,1.30883 -1.6238,2.02977 -0.4314,0.64711 -1.0371,3.47283 -1.2179,3.65358 -0.096,0.0957 -0.3102,-0.0957 -0.4059,0 -0.1672,0.16722 -0.3158,0.94723 -0.406,1.21787 -0.811,2.43305 0.1039,-1.01964 -1.2178,1.62381 -0.1624,0.32477 0.1623,0.8931 0,1.21786 -0.6172,1.23433 -1.7984,2.3788 -2.4358,3.65359 -0.061,0.12103 0,0.27064 0,0.40595 -0.1353,0.27064 -0.2244,0.56985 -0.4059,0.81191 -0.3445,0.45929 -0.9611,0.70437 -1.2179,1.21786 -0.121,0.24207 0.1211,0.56985 0,0.81191 -0.1711,0.34233 -0.6407,0.46958 -0.8119,0.81191 -0.061,0.12103 0,0.27064 0,0.40595 -0.1353,0.27064 -0.2381,0.56015 -0.4059,0.81191 -0.2123,0.31846 -0.6408,0.46958 -0.812,0.81191 -0.061,0.12103 0.1211,0.34544 0,0.40595 -0.242,0.12104 -0.5698,-0.12103 -0.8119,0 -0.242,0.12104 0.1914,0.62054 0,0.81191 -0.5412,0.54127 -0.4059,-0.67659 -0.4059,0.40596"
         id="path11" />
      <path
         style="fill:#00d485;fill-opacity:0;stroke:#23ffde;stroke-width:5.02299;stroke-linecap:square;stroke-miterlimit:0;stroke-dasharray:none;stroke-opacity:1;paint-order:fill markers stroke"
         d="m 1522.3275,771.31259 c -0.4643,1.05361 0.3636,2.56262 0,3.65358 -0.3104,0.93104 -0.8727,0.58814 -1.2179,1.62382 -0.086,0.25675 0.121,0.56984 0,0.81191 -0.1712,0.34233 -0.6407,0.46957 -0.8119,0.8119 -0.2156,0.43114 -0.044,1.26194 -0.406,1.62382 -0.096,0.0957 -0.3102,-0.0957 -0.4059,0 -0.096,0.0957 0.061,0.28492 0,0.40595 -0.4132,0.82638 -1.2357,1.6595 -1.6238,2.43573 -0.2398,0.47958 -0.9193,0.77003 -1.2179,1.21786 -0.8944,0.20444 -0.2146,0.83512 -0.4059,1.21786 -0.1712,0.34233 -0.6408,0.46958 -0.8119,0.81191 -0.4402,0.88023 -0.8624,2.08017 -1.6239,2.84168 -0.2139,0.21395 -0.5979,0.19199 -0.8119,0.40595 -0.1913,0.19137 0.1211,0.56985 0,0.81191 -0.8447,1.68948 0.028,-0.43398 -0.8119,0.40595 -0.2353,0.23529 -0.5766,1.38853 -0.8119,1.62382 -0.5413,0.54127 -0.3895,-0.86116 -0.8119,0.40595 -0.086,0.25675 0.086,0.55516 0,0.81191 -0.121,0.3631 -0.6407,0.46958 -0.8119,0.81191 -0.061,0.12103 0.096,0.31027 0,0.40595 -0.2494,0.24941 -0.946,0.2682 -1.2179,0.81191 -0.1705,0.34116 -0.17,1.38789 -0.4059,1.62382 -0.096,0.0957 -0.2707,0 -0.406,0 -0.1353,0.13532 -0.2998,0.24672 -0.4059,0.40595 -0.2374,0.35605 -0.1686,0.86182 -0.406,1.21786 -0.2123,0.31846 -0.6407,0.46958 -0.8119,0.81191 -0.121,0.24207 0.086,0.55516 0,0.81191 -0.1818,0.54534 -1.6647,1.25879 -2.0298,1.62382 -0.8865,0.88651 -0.084,0.6591 -0.4059,1.62381 -0.2151,0.64527 -1.3172,1.01052 -1.6238,1.62382 -0.615,1.22988 -1.1673,2.50356 -2.0298,3.65358 0.041,0.80422 -0.5979,0.192 -0.8119,0.40596 -0.51,0.51 -0.1156,1.44904 -0.406,2.02977 -0.06,0.12103 -0.2933,-0.0751 -0.4059,0 -0.3185,0.2123 -0.5996,0.49345 -0.8119,0.81191 -0.1985,0.29764 -0.1745,1.3923 -0.406,1.62381 -0.096,0.0957 -0.3102,-0.0957 -0.4059,0 -0.2472,0.24714 -0.9301,3.48403 -1.2179,4.05954 -0.8447,1.68948 0.028,-0.43398 -0.8119,0.40595 -0.582,0.58203 -0.1798,1.64429 -0.406,2.43573 0.2447,0.73475 -0.6576,0.755 -0.8119,1.21786 -0.085,0.25675 0.086,0.55516 0,0.81191 -0.061,0.18155 -0.3075,0.24186 -0.4059,0.40595 -0.055,0.091 -0.902,2.52581 -1.2179,2.84168 -0.096,0.0957 -0.3102,-0.0957 -0.4059,0 -0.1582,0.15818 0,1.37609 0,1.62382"
         id="path13" />
      <path
         style="fill:#00d485;fill-opacity:0;stroke:#23ffde;stroke-width:5.02299;stroke-linecap:square;stroke-miterlimit:0;stroke-dasharray:none;stroke-opacity:1;paint-order:fill markers stroke"
         d="m 1492.6928,828.14614 c 1.3838,0.47548 -0.5038,2.08595 0,2.84168 1.2021,1.80303 3.5038,3.33301 5.6834,4.05954 0.6009,0.2003 1.4074,-0.12447 2.0298,0 1.5535,0.3107 2.613,1.33453 4.0595,1.62382 1.2226,0.24452 2.1783,0.27724 3.2476,0.81191 1.2932,0.6466 3.4872,-0.46142 4.8715,0 0.1815,0.0605 0.2183,0.36842 0.4059,0.40595 2.3926,0.47851 4.8851,0.002 7.3072,0.40595 1.9179,0.31966 3.2977,0.40596 5.2774,0.40596 0.1353,0 0.3103,-0.0957 0.406,0 0.096,0.0957 -0.096,0.31027 0,0.40595 0.3379,0.33797 2.5385,0 3.2476,0"
         id="path14" />
      <path
         style="fill:#00d485;fill-opacity:0;stroke:#23ffde;stroke-width:5.02299;stroke-linecap:square;stroke-miterlimit:0;stroke-dasharray:none;stroke-opacity:1;paint-order:fill markers stroke"
         d="m 1529.6346,839.51286 c 3.2477,0 6.4953,0 9.7429,0"
         id="path15" />
      <path
         style="fill:#00d485;fill-opacity:0;stroke:#23ffde;stroke-width:5.02299;stroke-linecap:square;stroke-miterlimit:0;stroke-dasharray:none;stroke-opacity:1;paint-order:fill markers stroke"
         d="m 1539.7835,839.1069 c -0.5413,0 -1.0931,-0.10615 -1.6238,0 -0.8916,0.17832 -2.7075,1.96266 -3.6536,2.43573 -0.4311,0.21556 -1.2619,0.0441 -1.6238,0.40595 -0.096,0.0957 0,0.27064 0,0.40595 -0.1353,0.13532 -0.2467,0.29981 -0.406,0.40596 -1.3634,0.90896 -2.7453,1.7786 -4.0595,2.43572 -1.6895,0.84474 0.434,-0.028 -0.406,0.81191 -0.6531,0.65317 -1.6695,0.30113 -2.4357,0.81191 -0.6634,0.44229 -2.2456,1.73174 -2.8417,2.02977 -0.242,0.12103 -0.6205,-0.19137 -0.8119,0 -0.096,0.0957 0.096,0.31027 0,0.40595 -0.096,0.0957 -0.2849,-0.0605 -0.4059,0 -0.9006,0.45029 -1.6081,1.47797 -2.4358,2.02977 -0.3875,0.25839 -1.1541,0.49878 -1.6238,0.81191 -0.5548,0.36987 -0.5813,0.75669 -0.8119,1.21786 -0.2797,0.55945 -0.9521,0.54612 -1.2178,0.81191 -0.2917,0.29168 -0.489,1.70683 -0.812,2.02977 -0.096,0.0957 -0.3102,-0.0957 -0.4059,0 -0.096,0.0957 0.061,0.28492 0,0.40595 -0.1442,0.28832 -0.6678,0.5236 -0.8119,0.81191 -0.3381,0.67619 -0.3048,2.74053 -0.8119,3.24763 -0.096,0.0957 -0.3103,-0.0957 -0.406,0 -0.3603,0.36037 -0.1549,1.93362 -0.4059,2.43573 -0.4297,0.8594 -0.5711,1.47244 -0.8119,2.43572 -0.1899,0.75954 -0.8949,2.3033 -1.2179,2.84168 -0.3869,0.64475 -1.2179,0.8023 -1.2179,1.62382 0,0.24715 -1.7802,3.56053 -2.0297,4.05954 -0.4872,0.97429 -1.9486,1.46143 -2.4358,2.43572 -0.4736,0.94723 0.5075,0.81191 -0.4059,0.81191"
         id="path16" />
      <path
         style="fill:#00d485;fill-opacity:0;stroke:#23ffde;stroke-width:5.02299;stroke-linecap:square;stroke-miterlimit:0;stroke-dasharray:none;stroke-opacity:1;paint-order:fill markers stroke"
         d="m 1502.8417,876.86062 c -1.8526,3.12109 -3.9448,4.6265 -6.0893,7.30718 -0.189,0.23627 -0.192,0.59795 -0.406,0.8119 -0.1914,0.19137 -0.6205,-0.19136 -0.8119,0 -0.3009,0.3009 0.098,1.11995 -0.4059,1.62382 -0.3858,0.38575 -1.7795,0.46687 -2.0298,1.21786 -0.086,0.25675 0.086,0.55516 0,0.81191 -0.2319,0.69573 -1.6405,1.44583 -2.0298,2.02977 -0.6952,1.04278 -1.0669,2.69076 -2.0298,3.65359 -0.096,0.0957 -0.3102,-0.0957 -0.4059,0 -1.0406,0.11408 -0.1492,0.87553 -0.406,1.21786 -1.3467,1.79561 -1.0831,0.54237 -2.0297,2.43572 -0.6355,1.2709 -3.253,6.08931 -4.8715,6.08931"
         id="path17" />
      <path
         style="fill:#00d485;fill-opacity:0;stroke:#23ffde;stroke-width:5.02299;stroke-linecap:square;stroke-miterlimit:0;stroke-dasharray:none;stroke-opacity:1;paint-order:fill markers stroke"
         d="m 1480.9202,903.65359 c 0,0.54127 0,1.08254 0,1.62381 -0.1354,0.27064 -0.3562,0.51345 -0.406,0.81191 -0.1313,0.7881 -0.2274,5.407 0,6.08931 0.2702,0.81049 1.3808,1.05751 1.6238,2.02977 0.1042,0.41674 0.094,1.31147 0.406,1.62382 0.096,0.0957 0.3103,-0.0957 0.4059,0 0.2543,0.25422 -0.016,0.79549 0.406,1.21786"
         id="path18" />
      <path
         style="fill:#00d485;fill-opacity:0;stroke:#23ffde;stroke-width:5.02299;stroke-linecap:square;stroke-miterlimit:0;stroke-dasharray:none;stroke-opacity:1;paint-order:fill markers stroke"
         d="m 1482.9499,917.86198 c 1.1791,3.08156 2.5454,3.24763 8.5251,3.24763 1.0584,0 4.5476,0.32377 5.2774,-0.40595 0.096,-0.0957 -0.096,-0.31027 0,-0.40596 0.287,-0.28705 0.8547,0.18155 1.2178,0 0.1211,-0.0605 -0.096,-0.31027 0,-0.40595 0.406,-0.40596 2.0298,0.40595 2.4358,0 0.096,-0.0957 -0.096,-0.31027 0,-0.40596 0.1192,-0.11927 3.6677,-1.89917 4.0595,-2.02977 0.7277,-0.24258 2.1748,-0.0725 2.8417,-0.40595 0.121,-0.0605 -0.096,-0.31027 0,-0.40595 0.287,-0.28706 0.824,0.0984 1.2178,0 1.1053,-0.27633 1.6884,-0.92953 2.8417,-1.21787 0.6271,-0.15678 1.4188,0.20367 2.0298,0 0.1815,-0.0605 0.2244,-0.34543 0.4059,-0.40595 0.3271,-0.10901 5.4306,-0.1264 5.6834,0 0.9053,0.45264 1.9613,0.77766 2.8417,1.21786 0.5118,0.2559 1.4852,0.13371 2.0297,0.40596 0.1712,0.0856 0.2244,0.34543 0.406,0.40595 0.5806,0.19352 1.8898,-0.091 2.4357,0 1.1155,0.18591 1.5884,0.79419 2.4357,1.21786 0.9698,0.48489 5.2431,0 6.4953,0 4.8715,0 9.7429,0 14.6144,0"
         id="path19" />
      <path
         style="fill:#00d485;fill-opacity:0;stroke:#23ffde;stroke-width:5.02299;stroke-linecap:square;stroke-miterlimit:0;stroke-dasharray:none;stroke-opacity:1;paint-order:fill markers stroke"
         d="m 1551.1502,917.86198 c 0.2706,0.54127 0.2706,1.89445 0.8119,1.62381 0.5413,-0.27063 -1.2398,-2.05173 -0.8119,-1.62381 0.14,0.14002 1.8898,3.10761 2.0298,3.24763 0.2583,0.25832 1.1055,0.55279 1.6238,0.81191 0.6529,0.32646 0.9006,1.71252 1.2179,2.02977 0.1913,0.19137 0.6205,-0.19137 0.8119,0 0.096,0.0957 -0.061,0.28492 0,0.40595 0.023,0.0465 2.3113,1.98832 2.4357,2.02977 0.2567,0.0856 0.6205,-0.19137 0.8119,0 1.1618,1.16181 -1.0129,0.50844 0.4059,1.21786 0.2302,0.11506 1.9409,1.1289 2.0298,1.21786 0.1914,0.19137 -0.121,0.56985 0,0.81191 0.2719,0.54372 0.9685,0.5625 1.2179,0.81191 0.2775,0.27751 1.0569,2.27478 1.2178,2.43572 0.096,0.0957 0.285,-0.0605 0.406,0 1.6895,0.84475 -0.434,-0.028 0.4059,0.81191 0.214,0.21396 0.598,0.192 0.812,0.40596 0.1701,0.17011 0.2829,0.97183 0.4059,1.21786 0.3222,0.64436 1.3559,0.94997 1.6238,1.21786 2.5589,2.55888 -3.4057,-1.74239 1.6238,2.02977 0.1083,0.0812 0.3103,-0.0957 0.406,0 0.096,0.0957 -0.096,0.31027 0,0.40595 0.214,0.21396 0.5979,0.192 0.8119,0.40596 0.214,0.21396 0.2381,0.56014 0.406,0.81191 0.3635,0.5453 1.5285,0.96723 2.0297,1.21786 0.7149,0.35745 0.5252,1.16202 1.2179,1.62381 0.2252,0.15013 0.5552,-0.0856 0.8119,0 0.373,0.12433 1.8616,1.5229 2.0298,1.62382 0.8361,0.50168 1.6507,0.69456 2.4357,1.21786 0.6006,0.40038 0.9811,1.30247 1.6238,1.62382 0.7548,0.37738 1.6259,0.81295 2.4357,1.21786"
         id="path20" />
      <path
         style="fill:#00d485;fill-opacity:0;stroke:#23ffde;stroke-width:5.02299;stroke-linecap:square;stroke-miterlimit:0;stroke-dasharray:none;stroke-opacity:1;paint-order:fill markers stroke"
         d="m 1586.8742,949.52639 c -0.2195,2.29743 0.8941,3.49437 1.6238,5.68335 0.1543,0.46286 0.6576,0.75501 0.8119,1.21787 0.2282,0.68472 -0.3206,1.79456 0,2.43572 0.061,0.12103 0.3103,-0.0957 0.4059,0 0.2828,0.28273 0.1501,2.05189 0.406,2.43572 0.1678,0.25177 0.5979,0.192 0.8119,0.40596 0.2359,0.23593 0.2354,1.28266 0.406,1.62381 0.3495,0.69909 1.3315,1.85123 1.6238,2.43573 0.121,0.24206 -0.086,0.55516 0,0.81191 0.1543,0.46285 0.6576,0.755 0.8119,1.21786 0.043,0.12837 -0.096,0.31027 0,0.40595 0.096,0.0957 0.3102,-0.0957 0.4059,0 0.3219,0.32184 -0.2065,1.61673 0,2.02977 0.929,1.85789 -0.1682,-1.72263 0.8119,1.21786 0.043,0.12838 0,0.27064 0,0.40596 0,0.27063 -0.085,0.55516 0,0.81191 0.1789,0.53662 0.9592,1.10636 1.2179,1.62381 0.3843,0.76868 0.3318,2.04156 0.8119,2.84168 0.1969,0.32819 0.5996,0.49345 0.8119,0.81191 0.6911,1.03664 0.8057,2.417 1.2179,3.65358 0.121,0.3631 0.5996,0.49346 0.8119,0.81191 0.4381,0.65711 0.5039,1.41376 0.8119,2.02977 0.8447,1.68949 -0.028,-0.43398 0.8119,0.40596 0.3026,0.30258 0.1686,0.86181 0.406,1.21786 0.432,0.64808 1.1266,0.72068 1.6238,1.21786 0.5161,0.51611 0.802,1.75585 1.6238,2.02977 0.2567,0.0856 0.6205,-0.19137 0.8119,0 0.1914,0.19137 -0.1914,0.62054 0,0.81191 0.3026,0.30258 0.8351,0.21458 1.2179,0.40595 0.6051,0.30258 1.0186,0.91528 1.6238,1.21786 0.5771,0.28858 3.101,0.66533 3.2476,0.81191 0.096,0.0957 -0.096,0.31027 0,0.40596 0.435,0.43499 2.6174,-0.21007 3.2476,0 0.1816,0.0605 0.2348,0.32037 0.406,0.40595 0.2421,0.12103 0.5698,-0.12103 0.8119,0 0.8416,0.4208 1.9811,0.78756 2.8417,1.21786 1.0741,0.53706 1.0971,0.97642 1.6238,2.02977 0.3916,0.78313 0.6871,0.14057 1.2179,0.40596 0.4653,0.23269 0.5646,0.84702 0.8119,1.21786 0.3698,0.5548 0.7566,0.58132 1.2178,0.81191 0.7048,0.35238 0.5853,1.21782 1.2179,1.21782"
         id="path21" />
      <path
         style="fill:#00d485;fill-opacity:0;stroke:#23ffde;stroke-width:5.02299;stroke-linecap:square;stroke-miterlimit:0;stroke-dasharray:none;stroke-opacity:1;paint-order:fill markers stroke"
         d="m 1625.8457,1000.6766 c 1.7536,0.7667 1.9598,3.2126 3.6536,4.0595 0.2461,0.123 1.0478,0.2359 1.2179,0.406 0.096,0.096 -0.096,0.3103 0,0.4059 0.096,0.096 0.3103,-0.096 0.4059,0 0.096,0.096 -0.096,0.3103 0,0.406 0.47,0.4699 1.814,0.9692 2.4358,1.2179 0.9574,0.3829 2.3542,0.3651 3.2476,0.8119 0.121,0.061 -0.096,0.3102 0,0.4059 0.1914,0.1914 0.5698,-0.121 0.8119,0 0.1712,0.086 0.2348,0.3204 0.406,0.406 0.9634,0.4817 2.5591,0.999 3.6535,1.2178 0.2654,0.053 0.5699,-0.121 0.812,0 0.121,0.06 -0.096,0.3103 0,0.406 0.1913,0.1914 0.5698,-0.121 0.8119,0 1.2403,0.6202 2.5952,1.2577 4.0595,1.6238 0.8832,0.2208 1.9807,-0.287 2.8417,0 0.9248,0.3083 3.086,0.3251 3.2476,0.406 0.121,0.061 -0.121,0.3454 0,0.4059 0.5413,0.2706 1.4885,-0.2706 2.0298,0 0.1711,0.086 0.2244,0.3454 0.4059,0.406 0.2568,0.086 0.5607,-0.1005 0.8119,0 0.6887,0.2754 6.1936,3.8621 6.4953,4.4655 0.3453,0.6906 -0.3938,0.824 0.406,1.6238 0.1913,0.1913 0.5698,-0.1211 0.8119,0 0.8366,0.4183 0.8466,1.6412 1.6238,2.0297 0.6638,0.332 1.4452,0.5197 2.0298,0.812 0.696,0.348 0.1664,0.7875 0.8119,1.2178 1.3081,0.8721 3.3859,0.9503 4.4655,2.0298 0.9585,0.9585 -2.2643,-0.2135 0.8119,0.8119 2.7011,0.9004 5.6273,0.8119 8.525,0.8119 1.4027,0 3.559,0.4375 4.8714,0 0.1816,-0.061 0.2348,-0.3204 0.406,-0.406 0.6141,-0.307 1.7648,-0.2382 2.4357,-0.4059 0.5871,-0.1468 1.0497,-0.6205 1.6238,-0.8119 0.2568,-0.086 0.6206,0.1914 0.8119,0 0.096,-0.096 -0.121,-0.3455 0,-0.406 0.2421,-0.121 0.5552,0.086 0.812,0 0.1815,-0.06 0.2244,-0.3454 0.4059,-0.4059 0.497,-0.1657 1.1161,0.1269 1.6238,0 1.5741,-0.3936 4.7798,-1.3838 6.4953,-0.8119 0.5741,0.1913 1.0367,0.6651 1.6238,0.8119 0.2626,0.066 0.5552,-0.086 0.8119,0 0.3631,0.121 0.4696,0.6407 0.8119,0.8119 0.2421,0.121 0.6206,-0.1914 0.8119,0 0.096,0.096 -0.096,0.3103 0,0.4059 0.6229,0.6229 1.2179,0.036 1.2179,0.8119"
         id="path22" />
      <path
         style="fill:#00d485;fill-opacity:0;stroke:#23ffde;stroke-width:5.02299;stroke-linecap:square;stroke-miterlimit:0;stroke-dasharray:none;stroke-opacity:1;paint-order:fill markers stroke"
         d="m 1707.8484,1028.2815 c 1.9771,1.4796 2.267,3.8345 3.6536,5.6833 0.2297,0.3062 0.5996,0.4935 0.8119,0.8119 0.1624,0.2436 -0.2029,1.0149 0,1.2179 0.096,0.096 0.3103,-0.096 0.406,0 0.3658,0.3658 0.5699,1.5457 0.8119,2.0298 0.1712,0.3423 0.6909,0.4488 0.8119,0.8119 0.1284,0.3851 -0.287,0.9308 0,1.2178 0.096,0.096 0.2849,-0.061 0.406,0 1.6894,0.8448 -0.434,-0.028 0.4059,0.8119 0.096,0.096 0.3103,-0.096 0.406,0 0.8044,0.8045 1.184,1.9622 1.6238,2.8417 0.2436,0.4872 0.9743,0.7307 1.2179,1.2179 0.061,0.121 -0.096,0.3102 0,0.4059 0.096,0.096 0.3102,-0.096 0.4059,0 0.1914,0.1914 -0.1914,0.6206 0,0.8119 0.096,0.096 0.3103,-0.096 0.406,0 0.2706,0.2707 -0.2707,1.3532 0,1.6239 0.096,0.096 0.3102,-0.096 0.4059,0 0.1877,0.1876 -0.1225,0.9727 0,1.2178 0.086,0.1712 0.3204,0.2348 0.406,0.406 0.3006,0.6013 0,2.1602 0,2.8416 0,0.5879 0.2572,1.9212 0,2.4358 -0.086,0.1711 -0.3204,0.2348 -0.406,0.4059 -0.1988,0.3977 -0.1698,6.3917 0,6.9012 0.5031,1.5092 1.1866,2.3889 2.0298,3.6536 0.4701,0.7051 1.221,0.6137 1.6238,1.2179 0.3978,0.5967 0.5859,1.2025 1.2179,1.6238 0.8024,0.535 0.9942,0.091 1.6238,0.406 0.696,0.348 0.1664,0.7875 0.8119,1.2178 1.1963,0.7976 3.0561,1.8383 4.0595,2.8417 1.1386,1.1386 -1.7059,-0.4552 0.406,0.8119 0.5189,0.3114 1.1512,0.4339 1.6238,0.8119 0.2363,0.189 0.2706,0.5413 0.4059,0.8119 0.2707,0.2707 0.4935,0.5996 0.812,0.8119 0.4874,0.325 1.3293,-0.4774 1.6238,0.406 0.086,0.2567 -0.1501,0.5867 0,0.8119 0.069,0.1031 5.8232,2.9116 6.4952,3.2476 0.2451,0.1226 1.0302,-0.1876 1.2179,0 0.096,0.096 -0.096,0.3103 0,0.406 0.2661,0.2661 1.4204,0.2026 1.6238,0.4059 0.096,0.096 -0.096,0.3103 0,0.406 0.4875,0.4875 2.9638,0.9879 3.6536,1.2179 0.9892,0.3297 1.7323,1.3464 2.8417,1.6238 0.2625,0.066 0.5698,-0.1211 0.8119,0 0.121,0.061 -0.096,0.3102 0,0.4059 0.2444,0.2445 2.4764,0.2234 2.8417,0.406 1.0112,0.5056 1.5725,0.1773 2.0297,0.4059 0.7471,0.3736 1.7122,0.8561 2.4358,1.2179 1.6894,0.8447 -0.434,-0.028 0.4059,0.8119 0.203,0.203 1.0149,-0.203 1.2179,0 0.2658,0.2658 0.2524,0.9381 0.8119,1.2179 0.6596,0.3298 3.733,2.1886 4.0595,2.8416 0.06,0.1211 -0.096,0.3103 0,0.406 0.096,0.096 0.2849,-0.061 0.406,0 0.4364,0.2182 0.8275,0.5192 1.2178,0.8119 0.2967,0.2225 0.722,1.1579 0.8119,1.2179 0.4757,0.317 1.563,0.3451 2.0298,0.8119 0.214,0.2139 0.2169,0.5756 0.406,0.8119 0.4059,0.4059 0.8119,0.8119 1.2178,1.2178 0.1353,0 0.2934,-0.075 0.406,0 2.3537,1.5692 0.3006,0.1953 0.8119,1.2179 0.3284,0.6567 1.1136,0.9627 1.6238,1.2179 1.6895,0.8447 -0.434,-0.028 0.406,0.8119 0.096,0.096 0.3102,-0.096 0.4059,0 0.2871,0.287 -0.1815,0.8547 0,1.2178 0.061,0.1211 0.2849,-0.061 0.406,0 1.6895,0.8448 -0.434,-0.028 0.4059,0.8119 0.096,0.096 0.3103,-0.096 0.406,0 0.1758,0.1759 0.6372,1.3619 0.8119,1.6239 0.5881,0.8821 1.8249,2.6368 2.4357,3.2476 0.214,0.2139 0.598,0.192 0.8119,0.4059 0.214,0.214 0.192,0.598 0.406,0.812 0.3026,0.3025 0.9153,0.1033 1.2178,0.4059 0.096,0.096 -0.096,0.3103 0,0.406 0.214,0.2139 0.5602,0.2381 0.8119,0.4059 0.6099,0.4066 0.9737,1.2988 1.6239,1.6238 0.444,0.2221 1.2048,0.393 1.6238,0.8119 0.096,0.096 -0.096,0.3103 0,0.406 0.096,0.096 0.3102,-0.096 0.4059,0 0.096,0.096 -0.096,0.3103 0,0.4059 0.096,0.096 0.3103,-0.096 0.406,0 0.1625,0.1625 0.2198,0.5159 0.8119,0.812 0.3631,0.1815 0.8327,-0.1284 1.2179,0 0.5982,0.1994 1.0401,1.0233 1.6238,1.2178 0.3851,0.1284 0.8327,-0.1284 1.2178,0 0.9882,0.3294 1.5924,0.7962 2.4358,1.2179 0.4259,0.2129 1.7057,-0.324 2.0297,0 0.096,0.096 0,0.2706 0,0.4059"
         id="path23" />
      <path
         style="fill:#00d485;fill-opacity:0;stroke:#23ffde;stroke-width:5.02299;stroke-linecap:square;stroke-miterlimit:0;stroke-dasharray:none;stroke-opacity:1;paint-order:fill markers stroke"
         d="m 1796.7524,1116.3735 c 0.7952,0.1459 2.862,0.8323 3.2476,1.2178 0.096,0.096 -0.121,0.3455 0,0.406 0.3248,0.1624 0.8931,-0.1624 1.2179,0 0.6443,0.3222 0.9499,1.3559 1.2178,1.6238 0.1353,0.1353 1.0826,0.2706 1.2179,0.406 0.096,0.096 -0.121,0.3454 0,0.4059 0.2421,0.1211 0.5551,-0.086 0.8119,0 0.7535,0.2512 0.103,0.8634 0.8119,1.2179 0.3827,0.1913 0.8351,0.2146 1.2179,0.4059 0.3423,0.1712 0.4695,0.6408 0.8119,0.8119 0.3631,0.1816 0.8327,-0.1283 1.2178,0 0.3631,0.1211 0.4488,0.6909 0.8119,0.812 0.5151,0.1717 2.0432,0.4193 2.4358,0.8119 0.096,0.096 -0.1284,0.3631 0,0.4059 0.3851,0.1284 0.8198,-0.08 1.2178,0 0.2967,0.059 0.5249,0.3103 0.8119,0.406 1.0513,0.3504 1.6661,-0.1819 2.8417,0.4059 1.0826,0.5413 2.977,-0.5413 4.0596,0 1.2009,0.6005 2.6896,0.6699 4.0595,1.2179 0.5619,0.2247 1.0367,0.6651 1.6238,0.8119 0.65,0.1625 1.5419,-0.082 2.0298,0.4059 0.096,0.096 -0.096,0.3103 0,0.406 0.096,0.096 0.3103,-0.096 0.4059,0 0.096,0.096 -0.061,0.2849 0,0.406 0.2719,0.5437 0.9685,0.5625 1.2179,0.8119 0.2494,0.2494 0.2682,0.946 0.8119,1.2178 0.3804,0.1902 1.3635,0.843 1.6238,1.6238 0.079,0.2372 -0.1186,0.8621 0,1.2179 0.337,1.0111 0.9375,3.4025 0.406,4.4655 -0.929,1.8579 0.1682,-1.7226 -0.8119,1.2179 -0.043,0.1283 0.096,0.3102 0,0.4059 -0.214,0.214 -0.6563,0.1465 -0.8119,0.406 -0.2871,0.4784 -0.1565,1.1248 -0.406,1.6238 -0.1712,0.3423 -0.5996,0.4934 -0.8119,0.8119 -0.1403,0.2105 -0.2423,1.0542 -0.406,1.2179 -0.096,0.096 -0.3102,-0.096 -0.4059,0 -0.1332,0.1331 -0.6604,1.3208 -0.8119,1.6238 -0.121,0.242 0.121,0.5698 0,0.8119 -0.3293,0.6585 -0.8727,1.3395 -1.2179,2.0297 -0.061,0.1211 0.096,0.3103 0,0.406 -0.096,0.096 -0.3102,-0.096 -0.4059,0 -0.096,0.096 0.061,0.2849 0,0.406 -0.2182,0.4363 -0.6307,0.7648 -0.8119,1.2178 -0.2801,0.7001 0.2388,1.7191 0,2.4357 -0.2761,0.8282 -0.8697,1.3334 -1.2179,2.0298 -0.4999,0.9999 1.1784,-0.3665 -0.406,1.2179 -0.096,0.096 -0.3102,-0.096 -0.4059,0 -0.3792,0.3792 -0.4327,1.6505 -0.8119,2.0297 -0.84,0.84 0.033,-1.2835 -0.8119,0.406 -0.2421,0.484 -0.4461,1.664 -0.8119,2.0298 -0.096,0.096 -0.3103,-0.096 -0.406,0 -0.1914,0.1913 0.121,0.5698 0,0.8119 -0.1515,0.3029 -0.6787,1.4906 -0.8119,1.6238 -0.096,0.096 -0.3103,-0.096 -0.406,0 -1.0229,1.0229 -1.0102,2.8324 -1.6238,4.0595 -0.2182,0.4364 -0.4669,0.8729 -0.8119,1.2179 -0.096,0.096 -0.3102,-0.096 -0.4059,0 -0.1959,0.1959 -0.2875,2.4863 -0.406,2.8417 -0.061,0.1815 -0.3204,0.2348 -0.4059,0.4059 -0.1211,0.2421 0.1913,0.6206 0,0.8119 -0.096,0.096 -0.3455,-0.121 -0.406,0 -0.1272,0.2544 -0.4059,4.1922 -0.4059,4.8715"
         id="path24" />
      <path
         style="fill:#00d485;fill-opacity:0;stroke:#23ffde;stroke-width:5.02299;stroke-linecap:square;stroke-miterlimit:0;stroke-dasharray:none;stroke-opacity:1;paint-order:fill markers stroke"
         d="m 1815.0203,1176.8606 c -0.4095,2.1514 0.7464,3.7975 1.2179,5.6834 0.066,0.2625 -0.1211,0.5698 0,0.8119 0.061,0.121 0.3102,-0.096 0.4059,0 0.1034,0.1033 0.2595,2.5487 0.406,2.8417 1.3276,2.6551 3.1127,5.4136 4.4655,8.119 0.061,0.1225 1.9325,2.3871 2.0297,2.4358 0.1211,0.06 0.3455,-0.1211 0.406,0 0.121,0.242 -0.086,0.5551 0,0.8119 0.2512,0.7535 0.8634,0.103 1.2179,0.8119 0.061,0.121 -0.096,0.3103 0,0.4059 0.7982,0.7983 3.1903,0.1163 4.0595,0.406 0.287,0.096 0.5184,0.3326 0.8119,0.4059 0.3938,0.099 0.8548,-0.1815 1.2179,0 0.9988,0.4995 1.5485,0.1654 2.0297,0.406 0.1211,0.061 -0.121,0.3454 0,0.406 0.433,0.2165 1.1908,-0.2166 1.6238,0 1.8195,0.9097 7.3648,1.392 9.337,0.4059 0.2451,-0.1225 1.0302,0.1877 1.2179,0 0.3109,-0.311 -0.132,-0.362 1.2178,-0.8119 0.6089,-0.203 0.406,0.406 1.2179,0 0.121,-0.061 -0.1211,-0.3454 0,-0.406 0.5412,-0.2706 1.4885,0.2707 2.0297,0 0.1211,-0.061 -0.096,-0.3102 0,-0.4059 0.3626,-0.3625 1.1376,-0.2439 1.6239,-0.406 1.1335,-0.3778 2.2691,-1.1345 3.2476,-1.6238 0.5118,-0.2559 1.4853,-0.1337 2.0298,-0.4059 0.5594,-0.2798 0.5461,-0.9521 0.8119,-1.2179 0.154,-0.154 2.0277,-1.0139 2.4357,-1.2179 0.2874,-1.2377 1.1248,-0.1564 1.6238,-0.4059 0.5518,-0.2759 1.0721,-0.942 1.6238,-1.2179 0.2421,-0.121 0.5699,0.1211 0.8119,0 0.303,-0.1514 1.4907,-0.6787 1.6238,-0.8119 0.096,-0.096 -0.096,-0.3102 0,-0.4059 0.1983,-0.1982 2.0743,-1.0372 2.4358,-1.2179 0.242,-0.121 0.5698,0.121 0.8119,0 0.4027,-0.2014 0.7973,-0.6717 1.2178,-0.8119 0.2568,-0.086 0.5552,0.086 0.812,0 0.9215,-0.3072 1.9618,-1.1839 2.8416,-1.6238 0.4577,-0.2289 1.4796,0 2.0298,0"
         id="path25" />
      <path
         style="fill:#00d485;fill-opacity:0;stroke:#23ffde;stroke-width:5.02299;stroke-linecap:square;stroke-miterlimit:0;stroke-dasharray:none;stroke-opacity:1;paint-order:fill markers stroke"
         d="m 1877.1313,1187.8214 c 0.4059,0.5413 0.7952,1.0955 1.2178,1.6238 0.4586,0.5732 1.2396,0.4495 1.6238,1.2179 0.2892,0.5782 1.3099,3.3396 1.6239,3.6535 0.096,0.096 0.3102,-0.096 0.4059,0 0.1653,0.1653 0.682,1.364 0.8119,1.6239 0.1226,0.2451 -0.1876,1.0302 0,1.2178 0.096,0.096 0.3103,-0.096 0.406,0 0.024,0.024 0.2956,5.4628 0.8119,6.4953 0.5064,1.0127 1.1174,2.2349 1.6238,3.2476 0.121,0.2421 -0.121,0.5699 0,0.8119 0.2603,0.5207 1.0377,1.0833 1.2179,1.6238 0.1283,0.3852 -0.2871,0.9309 0,1.2179 0.096,0.096 0.3102,-0.096 0.4059,0 0.1914,0.1914 0,0.5413 0,0.8119 0,1.002 0.3186,2.6979 0,3.6536 -0.01,0.028 -2.0247,2.4323 -2.0298,2.4357 -0.3708,0.2472 -0.9851,0.3465 -1.2178,0.8119 -0.061,0.1211 0.096,0.3103 0,0.406 -0.096,0.096 -0.3103,-0.096 -0.406,0 -0.096,0.096 0.096,0.3103 0,0.4059 -0.096,0.096 -0.3102,-0.096 -0.4059,0 -0.2658,0.2658 -0.2525,0.9382 -0.8119,1.2179 -0.1211,0.06 -0.2707,0 -0.406,0 -0.2706,0.1353 -0.5601,0.2381 -0.8119,0.406 -0.9099,0.6066 -1.4809,1.5523 -2.4357,2.0297 -0.1211,0.06 -0.3103,-0.096 -0.406,0 -0.096,0.096 0.096,0.3103 0,0.406 -0.1913,0.1913 -0.5698,-0.1211 -0.8119,0 -0.7772,0.3886 -0.7872,1.6114 -1.6238,2.0297 -0.5532,0.2766 -1.5164,0.2986 -2.0298,0.812 -0.096,0.096 0.096,0.3102 0,0.4059 -0.096,0.096 -0.2706,0 -0.4059,0 -0.1353,0.1353 -0.2998,0.2467 -0.406,0.406 -0.1678,0.2517 -0.1542,0.644 -0.4059,0.8119 -0.2252,0.1501 -0.5552,-0.086 -0.8119,0 -0.8008,0.2669 -0.9727,1.2178 -1.6239,1.2178"
         id="path26" />
      <path
         style="fill:#00d485;fill-opacity:0;stroke:#23ffde;stroke-width:5.02299;stroke-linecap:square;stroke-miterlimit:0;stroke-dasharray:none;stroke-opacity:1;paint-order:fill markers stroke"
         d="m 1869.0122,1229.2287 c -2.4504,-0.2075 0.082,1.5419 -0.406,2.0298 -0.096,0.096 -0.2849,-0.061 -0.4059,0 -0.6847,0.3423 -1.1457,1.026 -1.6238,1.6238 -0.1891,0.2363 -0.1697,0.6229 -0.406,0.8119 -0.6798,0.5438 -2.1687,0.9508 -2.8417,1.6238 -0.096,0.096 0.096,0.3103 0,0.406 -0.1913,0.1913 -0.5698,-0.1211 -0.8119,0 -0.4364,0.2181 -0.8728,0.4669 -1.2178,0.8119 -0.096,0.096 0.1125,0.3309 0,0.4059 -0.3561,0.2374 -0.8619,0.1686 -1.2179,0.406 -0.1126,0.075 0.096,0.3102 0,0.4059 -0.3619,0.3619 -1.1927,0.1904 -1.6238,0.406 -0.4287,0.2143 -0.8204,0.6132 -1.2179,0.8119 -0.5437,0.2718 -0.5625,0.9684 -0.8119,1.2178 -0.096,0.096 -0.3103,-0.096 -0.4059,0 -0.096,0.096 0.061,0.285 0,0.406 -0.1712,0.3423 -0.5996,0.4935 -0.812,0.8119 -1.0451,1.5678 -0.8119,4.2425 -0.8119,6.0893 0,0.2233 -0.027,4.8439 0,4.8715 0.096,0.096 0.3309,-0.1126 0.406,0 0.737,1.1055 0.9542,2.5375 1.6238,3.6536 1.0514,1.7523 0.9074,0.5492 1.6238,1.6238 0.3978,0.5966 0.5859,1.2025 1.2179,1.6238 0.8826,0.5884 3.5243,2.122 4.4655,2.4357 0.4718,0.1573 1.1939,0.191 1.6238,0.406 0.8083,0.4041 1.593,1.2024 2.4357,1.6238 0.829,0.4145 1.752,0.064 2.4357,0.4059 0.079,0.04 0.3179,0.7239 0.406,0.8119 0.1914,0.1914 0.5698,-0.121 0.8119,0 0.7324,0.3662 1.3179,1.2679 2.0298,1.6239 0.9998,0.4999 -0.3665,-1.1784 1.2178,0.4059 0.096,0.096 -0.096,0.3103 0,0.406 0.096,0.096 0.285,-0.061 0.406,0 0.4871,0.2435 0.7307,0.9743 1.2179,1.2178 0.8575,0.4288 1.5524,0.5113 2.4357,1.2179 0.2777,0.2221 1.1832,1.4769 1.6238,1.6238 0.3851,0.1284 0.8548,-0.1815 1.2179,0 0.2165,0.1083 1.1688,1.5257 1.2178,1.6238 0.3171,0.6341 1.2429,0.456 1.6238,1.2179 0.1211,0.242 -0.121,0.5698 0,0.8119 0.381,0.7618 1.3068,0.5838 1.6238,1.2179 0.1231,0.246 0.2359,1.0477 0.406,1.2178 0.096,0.096 0.3454,-0.121 0.406,0 0.4059,0.8119 -0.203,0.6089 0,1.2179 0.2524,0.7573 0.5056,1.0112 0.8119,1.6238 0.2165,0.433 -0.2165,1.1908 0,1.6238 0.061,0.121 0.3102,-0.096 0.4059,0 0.3994,0.3994 0.1678,1.5534 0.406,2.0298 1.4852,2.9704 0.8119,9.6932 0.8119,13.3965 0,1.9177 0.5014,14.0174 0,15.0203 -0.4561,0.9121 0.05,0.3056 -0.406,1.2178 -0.061,0.1211 -0.3102,-0.096 -0.4059,0 -0.1914,0.1914 0.121,0.5699 0,0.8119 -0.2707,0.5413 -0.4763,1.1203 -0.8119,1.6238 -0.075,0.1126 -0.3455,-0.121 -0.406,0 -0.121,0.2421 0.086,0.5552 0,0.812 -0.3071,0.9214 -1.6028,1.5818 -2.0298,2.4357 -0.2449,0.4899 -0.42,1.1013 -0.8119,1.6238 -0.4957,0.661 -1.6528,1.2759 -2.0297,2.0298 -0.2043,0.4085 -0.3584,1.9821 -0.8119,2.4357 -0.3345,0.3344 -0.812,-0.022 -0.812,0.8119"
         id="path27" />
      <path
         style="fill:#00d485;fill-opacity:0;stroke:#23ffde;stroke-width:5.02299;stroke-linecap:square;stroke-miterlimit:0;stroke-dasharray:none;stroke-opacity:1;paint-order:fill markers stroke"
         d="m 1880.3789,1326.2517 c 0,0.6766 0.096,1.36 0,2.0298 -0.082,0.574 -0.6272,1.4757 -0.8119,2.0297 -0.2554,0.7663 -0.02,1.6637 -0.406,2.4358 0.086,0.8439 -0.6303,0.1638 -0.8119,0.4059 -1.2291,1.6389 -0.21,1.638 -0.8119,2.8417 -0.3247,0.6495 -1.299,0.9743 -1.6238,1.6238 -0.3447,0.6893 -0.4475,1.7069 -0.8119,2.4357 -0.5931,1.1862 -1.4367,2.4675 -2.0298,3.6536 -0.6572,1.3145 -0.1135,1.2661 -0.4059,2.4357 -0.4901,1.9604 -0.1929,-0.02 -0.8119,1.2179 -0.1211,0.2421 0.085,0.5552 0,0.8119 -0.096,0.2871 -0.3103,0.5249 -0.406,0.8119 -0.086,0.2568 0.1914,0.6206 0,0.8119 -0.096,0.096 -0.3454,-0.121 -0.4059,0 -0.2236,0.4471 0.1586,1.1478 0,1.6238 -0.096,0.2871 -0.3326,0.5184 -0.406,0.8119 -0.2126,0.8503 0.1732,9.9162 0.406,10.1489 0.096,0.096 0.3454,-0.121 0.4059,0 0.2092,0.4184 -0.029,0.7539 0.406,1.6238 0.121,0.2421 -0.1914,0.6206 0,0.8119 0.096,0.096 0.3102,-0.096 0.4059,0 0.4367,0.4367 -0.1995,2.649 0,3.2477 0.061,0.1815 0.3455,0.2244 0.406,0.4059 0.5368,1.6106 -0.7536,4.1763 0,5.6834 0.4399,0.8798 0.5504,2.2015 0.8119,3.2476 0.098,0.3938 -0.1284,0.8327 0,1.2179 0.2881,0.8643 0.5238,1.5714 0.8119,2.4357 0.1565,0.4697 -0.2181,1.1876 0,1.6238 0.086,0.1712 0.3595,0.2203 0.4059,0.406 0.053,0.2112 -0.1858,1.658 0,2.0297 0.6579,1.3157 1.0317,2.9851 1.6239,4.4655 0.1803,0.451 0.5928,0.7798 0.8119,1.2179 0.2746,0.5493 -0.1968,1.4394 0,2.0297 0.5105,1.5317 1.3497,3.1054 2.0297,4.4655 0.2082,0.4163 0.1978,1.2076 0.406,1.6239 0.6661,1.3323 2.1223,2.4926 2.4357,4.0595 0.1913,0.9564 0.034,1.2851 0.406,2.0298 0.3755,0.751 1.4425,2.1163 1.6238,2.8416 0.1015,0.4061 0.2604,2.9567 0.4059,3.2477 0.4592,0.9183 0.4974,1.4921 0.8119,2.4357 0.061,0.1816 0.3455,0.2244 0.406,0.406 0.086,0.2567 -0.086,0.5551 0,0.8119 0.06,0.1815 0.2706,0.2706 0.4059,0.4059 0.1354,0.2707 0.3326,0.5184 0.406,0.8119 0.1313,0.5251 -0.1712,1.1103 0,1.6238 0.121,0.3631 0.6909,0.4489 0.8119,0.8119 0.086,0.2568 -0.086,0.5552 0,0.812 -0.1517,0.8843 0.6766,0.1353 0.8119,0.4059 0.1211,0.2421 -0.1005,0.5606 0,0.8119 0.1812,0.453 0.5937,0.7815 0.8119,1.2179 0.2573,0.5146 0.4322,2.056 0.8119,2.4357 0.096,0.096 0.3103,-0.096 0.406,0 0.096,0.096 -0.06,0.2849 0,0.406 0.3026,0.6051 0.8425,1.0608 1.2179,1.6238"
         id="path28" />
      <path
         style="fill:#00d485;fill-opacity:0;stroke:#23ffde;stroke-width:5.02299;stroke-linecap:square;stroke-miterlimit:0;stroke-dasharray:none;stroke-opacity:1;paint-order:fill markers stroke"
         d="m 1892.1516,1428.1461 c 0.6891,0.5027 0.5594,3.9606 0.8119,4.4655 0.1711,0.3424 0.6407,0.4696 0.8119,0.8119 0.206,0.412 0.3244,1.9483 0.4059,2.0298 0.096,0.096 0.3103,-0.096 0.406,0 0.3286,0.3287 0.7027,1.9988 0.8119,2.4357 0.4446,1.7786 -0.5794,9.3961 0,10.5548 0.5493,1.0988 0.075,1.4426 0.4059,2.4358 0.061,0.1815 0.3455,0.2244 0.406,0.4059 0.3248,0.9743 -0.3248,2.2734 0,3.2477 0.3429,1.0286 0.406,1.7549 0.406,2.8416"
         id="path29" />
    </g>
  </g>
</svg>
