<?xml version="1.0" encoding="UTF-8" standalone="no"?>
<!-- Created with Inkscape (http://www.inkscape.org/) -->

<svg
   version="1.1"
   id="svg1"
   width="3200"
   height="2400"
   viewBox="0 0 3200 2400"
   sodipodi:docname="frodo-path.svg"
   inkscape:version="1.3.2 (091e20e, 2023-11-25, custom)"
   xmlns:inkscape="http://www.inkscape.org/namespaces/inkscape"
   xmlns:sodipodi="http://sodipodi.sourceforge.net/DTD/sodipodi-0.dtd"
   xmlns="http://www.w3.org/2000/svg"
   xmlns:svg="http://www.w3.org/2000/svg">
  <defs
     id="defs1" />
  <sodipodi:namedview
     id="namedview1"
     pagecolor="#ffffff"
     bordercolor="#999999"
     borderopacity="1"
     inkscape:showpageshadow="2"
     inkscape:pageopacity="0"
     inkscape:pagecheckerboard="0"
     inkscape:deskcolor="#d1d1d1"
     showgrid="false"
     inkscape:zoom="0.25192952"
     inkscape:cx="1339.6604"
     inkscape:cy="990.35635"
     inkscape:window-width="1920"
     inkscape:window-height="974"
     inkscape:window-x="-11"
     inkscape:window-y="-11"
     inkscape:window-maximized="1"
     inkscape:current-layer="g1" />
  <g
     inkscape:groupmode="layer"
     inkscape:label="Image"
     id="g1">
    <g
       id="g2">
      <path
         style="fill:#d4aa00;fill-opacity:0;stroke:#5823ff;stroke-width:5.02299;stroke-linecap:square;stroke-miterlimit:0;stroke-dasharray:none;stroke-opacity:1;paint-order:fill markers stroke"
         d="m 820.97107,668.83307 c 1.7672,2.4281 2.13105,5.41031 3.44463,8.03748 0.66852,1.33704 2.30973,2.61675 2.87053,4.01874 0.8401,2.10025 0.13327,1.92222 1.14821,3.44463 1.14821,1.72232 0,-1.14821 1.72232,1.72232 0.31135,0.51892 0.25337,1.20914 0.5741,1.72232 1.18951,1.90321 2.50777,3.29322 3.44464,5.16695 0.34446,0.68893 1.37785,1.03339 1.72231,1.72232 0.92721,1.85441 1.23611,3.53252 2.87053,5.16695 0.30258,0.30258 0.84563,0.27152 1.14821,0.5741 0.27064,0.27064 -0.17116,0.80588 0,1.14821 0.48413,0.96826 1.62017,1.4511 2.29643,2.29643 1.79255,2.24069 3.1357,3.60374 5.74105,5.16695 0.3282,0.19691 0.80588,-0.17117 1.14821,0 1.72415,0.86207 3.21479,0.18367 5.16695,0.5741 5.68979,1.13796 10.77923,1.14821 16.64907,1.14821 4.97558,0 9.95116,0 14.92675,0 2.07612,0 4.83023,0.41181 6.88926,0 1.533,-0.30659 2.93358,-0.9408 4.59285,-1.14821 1.51912,-0.18989 3.07372,0.18989 4.59284,0 2.87529,-0.35941 5.73632,-0.7888 8.61159,-1.14821 1.13934,-0.14242 2.35534,0.3631 3.44463,0 0.25675,-0.0856 0.31736,-0.48852 0.57411,-0.5741 1.62643,-0.54215 4.07541,0.2776 5.74105,0 0.42209,-0.0703 0.73308,-0.47033 1.14822,-0.57411 0.92827,-0.23207 1.93226,0.18765 2.87052,0 0.41961,-0.0839 0.72612,-0.50376 1.14821,-0.5741 1.13259,-0.18877 2.31872,0.22518 3.44464,0 1.95721,-0.39145 3.79869,-0.66263 5.74105,-1.14822 1.69957,-0.42489 4.11062,-0.0306 5.74106,-0.5741 0.25675,-0.0856 0.30873,-0.52103 0.57411,-0.57411 3.97177,-0.79435 8.51303,0 12.63032,0 0.38431,0 9.7731,-0.57078 12.05622,0 4.62292,1.15573 9.62009,1.11329 14.35264,2.29643 2.61733,0.65433 6.6636,2.3661 9.18569,2.87052 0.93826,0.18766 1.91954,-0.10566 2.87053,0 1.93965,0.21552 3.85824,0.63472 5.74106,1.14821 1.40606,0.38348 2.58959,1.4365 4.01869,1.72232 1.8952,0.37903 3.0819,0.11075 5.167,0.57411 1.6857,0.3746 3.5387,0.74114 5.1669,1.14821 3.7205,0.93012 -2.7086,0.46451 3.4447,1.14821 0.951,0.10567 1.9248,-0.1455 2.8705,0 1.5597,0.23996 3.0402,0.86592 4.5929,1.14821 1.243,0.22601 9.1098,0.40802 10.3339,0 0.4357,-0.14526 2.7884,-1.64022 2.8705,-1.72232 1.7621,-1.76216 -0.3354,-0.47735 0.5741,-2.29642 0.086,-0.17116 0.4149,0.10615 0.5741,0 0.4504,-0.30024 0.848,-0.69784 1.1482,-1.14821 0.2123,-0.31846 -0.1712,-0.80588 0,-1.14821 0.6082,-1.2164 1.4048,-1.85713 1.7223,-3.44463 0.5479,-2.73942 0,-6.41847 0,-9.1857 0,-6.31516 0,-12.63032 0,-18.94548"
         id="path2" />
      <path
         style="fill:#d4aa00;fill-opacity:0;stroke:#5823ff;stroke-width:5.02299;stroke-linecap:square;stroke-miterlimit:0;stroke-dasharray:none;stroke-opacity:1;paint-order:fill markers stroke"
         d="m 1040.4601,674.28958 c 0.9072,-1.16615 0.7414,-2.88303 1.6238,-4.05954 0.2296,-0.30619 0.615,-0.48371 0.8119,-0.81191 0.8983,-1.49711 1.365,-3.03785 2.4357,-4.46549 0.5576,-0.74337 1.5133,-1.25506 2.0298,-2.02977 0.4443,-0.66649 1.2845,-1.35104 1.6238,-2.02977 0.06,-0.12103 -0.096,-0.31027 0,-0.40595 0.6911,-0.6911 1.4117,-0.69667 2.0298,-1.62382 0.075,-0.11259 -0.06,-0.28492 0,-0.40595 0.8447,-1.68949 -0.028,0.43398 0.8119,-0.40596 0.096,-0.0957 -0.096,-0.31027 0,-0.40595 0.096,-0.0957 0.2977,0.0812 0.4059,0 0.6976,-0.52314 1.2763,-1.52745 2.0298,-2.02977 0.8885,-0.59231 1.5615,-1.44697 2.4357,-2.02977 0.19,-0.12661 2.0172,-0.78676 2.0298,-0.81191 0.121,-0.24206 -0.1624,-0.5954 0,-0.81191 0.5676,-0.75678 1.7979,-0.98594 2.4357,-1.62381 0.096,-0.0957 -0.096,-0.31027 0,-0.40596 0.6401,-0.64006 1.8129,-1.001 2.4358,-1.62381 0.2139,-0.21396 0.192,-0.59796 0.4059,-0.81191 0.2379,-0.23786 1.2732,-0.9841 1.6238,-1.21786 0.9611,-0.64068 1.0234,-0.21146 2.0298,-1.21787 0.085,-0.0854 0.7831,-1.60943 0.8119,-1.62381 0.2421,-0.12103 0.5552,0.0856 0.8119,0 0.7549,-0.25165 1.3089,-1.26337 2.0298,-1.62382 0.2543,-0.12717 13.9152,-0.17479 14.6143,0 0.1857,0.0464 0.2203,0.35954 0.406,0.40596 1.7336,0.4334 4.2993,0.048 6.0893,0.40595 0.5471,0.10942 1.0735,0.31423 1.6238,0.40595 0.996,0.166 2.2949,-0.31758 3.2476,0 0.1816,0.0605 0.2348,0.32038 0.406,0.40596 0.9838,0.49189 9.2998,0 10.9608,0 7.9837,0 15.9675,0 23.9512,0 4.3449,0 8.7182,-0.20439 12.9906,0.40595 0.7649,0.10928 1.6689,-0.15336 2.4357,0 2.0177,0.40354 3.056,1.3036 4.8714,2.02977 3.3833,1.35331 6.7397,2.78108 10.1489,4.05954 0.7638,0.28642 1.3556,0.88079 2.0298,1.21786 2.3584,1.17923 5.5341,1.62382 8.119,1.62382"
         id="path4" />
      <path
         style="fill:#d4aa00;fill-opacity:0;stroke:#5823ff;stroke-width:5.02299;stroke-linecap:square;stroke-miterlimit:0;stroke-dasharray:none;stroke-opacity:1;paint-order:fill markers stroke"
         d="m 1174.4249,653.17997 c 0.7837,0.77496 2.3488,-0.44944 3.2476,0 0.3424,0.17117 0.4696,0.64075 0.8119,0.81191 1.2736,0.63679 2.795,0.79632 4.0596,1.21786 1.5502,0.51675 0.5431,0.81191 2.8417,0.81191"
         id="path5" />
      <path
         style="fill:#d4aa00;fill-opacity:0;stroke:#5823ff;stroke-width:5.02299;stroke-linecap:square;stroke-miterlimit:0;stroke-dasharray:none;stroke-opacity:1;paint-order:fill markers stroke"
         d="m 1186.1976,655.6157 c 0,5.68335 0,11.36671 0,17.05007 0,1.14571 -0.4956,3.4743 0,4.46549 0.6469,1.29388 1.2372,2.91898 1.6238,4.46549 0.098,0.39384 -0.1816,0.85477 0,1.21787 0.3335,0.66713 1.1306,0.56531 1.6238,0.8119 1.7799,0.88997 3.0112,1.97066 4.8714,2.43573 1.6563,0.41405 3.6014,-0.33521 5.2774,0 0.6495,0.1299 1.3988,0.60157 2.0298,0.81191 1.6342,0.54472 3.8246,0.49144 5.2774,1.21786 1.2259,0.61296 3.5506,-0.33022 4.8715,0 1.8058,0.45145 14.0281,0.87201 15.4262,0.40595 1.7138,-0.57125 3.4781,-0.51202 5.2774,-0.81191 0.2985,-0.0497 0.5124,-0.36316 0.8119,-0.40595 0.6698,-0.0957 1.3624,0.11123 2.0298,0 0.1888,-0.0315 0.2203,-0.35954 0.406,-0.40595 0.3938,-0.0985 0.8174,0.0667 1.2178,0 0.9591,-0.15985 1.5519,-0.59095 2.4357,-0.81191 1.079,-0.26973 2.6481,0.0968 3.6536,-0.40596 0.926,-0.463 1.8382,-0.56103 2.8417,-0.8119 0.5871,-0.14678 1.0304,-0.69323 1.6238,-0.81191 0.3981,-0.0796 0.8198,0.0796 1.2179,0 1.2963,-0.25927 2.1202,-1.24802 3.2476,-1.62382 0.2568,-0.0856 0.5699,0.12103 0.8119,0 0.1211,-0.0605 0,-0.27063 0,-0.40595 0.2707,-0.13532 0.5249,-0.31027 0.8119,-0.40596 0.4872,-0.16238 1.1367,0.16239 1.6238,0 0.1284,-0.0428 -0.096,-0.31027 0,-0.40595 0.4853,-0.48525 3.2199,-0.93797 4.0596,-1.21786 0.2706,-0.13532 0.5413,-0.27064 0.8119,-0.40596 0,-0.13531 -0.121,-0.34543 0,-0.40595 0.2421,-0.12103 0.5493,0.0656 0.8119,0 0.8409,-0.21021 1.7052,-0.97437 2.4357,-1.21786 0.2568,-0.0856 0.5552,0.0856 0.8119,0 0.5983,-0.19943 1.0402,-1.02332 1.6238,-1.21786 0.2568,-0.0856 0.5494,0.0656 0.812,0 0.803,-0.20076 2.1391,-0.8666 2.8416,-1.21787 0.3424,-0.17116 0.4488,-0.69087 0.8119,-0.8119 0.2568,-0.0856 0.5552,0.0856 0.812,0 0.1815,-0.0605 0.2244,-0.34544 0.4059,-0.40596 0.2568,-0.0856 0.5698,0.12103 0.8119,0 0.121,-0.0605 -0.1126,-0.33089 0,-0.40595 0.8969,-0.59794 2.3219,-0.66244 3.2476,-1.21786 0.3282,-0.19692 0.4696,-0.64075 0.812,-0.81191 1.051,-0.52555 1.8837,-0.49259 2.8416,-0.81191 0.1816,-0.0605 0.2244,-0.34544 0.406,-0.40595 0.2567,-0.0856 0.5698,0.12103 0.8119,0 0.3423,-0.17117 0.4837,-0.615 0.8119,-0.81191 1.1836,-0.71019 2.9158,-0.93759 4.0595,-1.62382 0.743,-0.44579 1.2548,-1.23632 2.0298,-1.62381 0.6274,-0.31371 1.4024,-0.49821 2.0298,-0.81191 1.1291,-0.56457 2.1185,-1.87116 3.2476,-2.43573 0.4841,-0.24206 1.0987,0.13128 1.6238,0 0.3713,-0.0928 0.4406,-0.71908 0.8119,-0.8119 0.3939,-0.0985 0.8198,0.0796 1.2179,0 0.7146,-0.14292 1.3291,-0.61172 2.0298,-0.81191 0.4714,-0.13471 4.4318,-0.79509 4.4655,-0.81191 1.4017,-0.70085 2.9454,-1.11712 4.4655,-1.62382 0.3653,-0.12178 0.8525,0.12179 1.2178,0 0.5413,-0.18042 1.104,-0.552 1.6238,-0.8119 0.5394,-0.2697 1.4309,0.14972 2.0298,0 0.8303,-0.20757 1.6703,-0.42918 2.4357,-0.81191 1.6895,-0.84474 -0.434,0.028 0.406,-0.81191 0.1914,-0.19137 0.5698,0.12103 0.8119,0 0.1712,-0.0856 0.2706,-0.27064 0.4059,-0.40595 0.2707,-0.13532 0.531,-0.29358 0.812,-0.40596 0.7946,-0.31784 1.7018,-0.37159 2.4357,-0.81191 0.3282,-0.19691 0.4934,-0.5996 0.8119,-0.8119 3.5971,-2.39807 -0.3225,0.56719 3.2476,-1.21787 0.6052,-0.30258 1.0187,-0.91528 1.6238,-1.21786 0.2421,-0.12103 0.5552,0.0856 0.8119,0 0.3255,-0.10847 0.4865,-0.70343 0.8119,-0.81191 0.2568,-0.0856 0.5552,0.0856 0.812,0 1.6177,-0.53924 3.3227,-2.0673 4.8714,-2.84167 0.3248,-0.16239 0.8931,0.16238 1.2179,0 0.5517,-0.27588 1.072,-0.94199 1.6238,-1.21787 1.0916,-0.54582 2.1217,-0.93638 3.2476,-1.21786 0.8803,-0.22007 0.9506,-0.8139 1.6238,-1.21786 1.4071,-0.84425 2.9676,-1.38782 4.4655,-2.02977 1.0455,-0.44805 1.8022,-1.68327 2.8417,-2.02977 0.2567,-0.0856 0.5698,0.12103 0.8119,0 0.6847,-0.34233 1.0114,-1.16453 1.6238,-1.62382 1.1668,-0.8751 2.5826,-1.3647 3.6536,-2.43572 0.214,-0.21396 0.1542,-0.64407 0.406,-0.81191 0.2251,-0.15012 0.5698,0.12103 0.8119,0 0.2351,-0.11754 -0.1933,-0.91824 0.4059,-1.21786 1.5004,-0.75019 3.197,-2.38505 4.4655,-3.65359"
         id="path6" />
      <path
         style="fill:#d4aa00;fill-opacity:0;stroke:#5823ff;stroke-width:5.02299;stroke-linecap:square;stroke-miterlimit:0;stroke-dasharray:none;stroke-opacity:1;paint-order:fill markers stroke"
         d="m 1359.5399,632.07037 c 0.2707,-0.54128 0.5413,-1.08255 0.8119,-1.62382 0.1353,0 0.3103,0.0957 0.406,0 0.096,-0.0957 -0.096,-0.31027 0,-0.40595 0.1914,-0.19137 0.5698,0.12103 0.8119,0 2.4196,-1.2098 5.2885,-0.81191 8.525,-0.81191 1.0038,0 3.1968,-0.4314 4.0596,0 0.8143,0.40717 1.6214,0.40474 2.4357,0.81191 0.2421,0.12103 0.5698,-0.12104 0.8119,0 1.4111,0.70553 3.0888,0.93548 4.4655,1.62381 0.6465,0.32326 1.7441,-0.23054 2.4357,0 2.6029,0.86762 9.4324,1.90443 12.1786,1.21786 0.5871,-0.14677 1.0304,-0.69322 1.6239,-0.8119 0.398,-0.0796 0.824,0.0984 1.2178,0 0.6405,-0.16013 1.0288,-0.92036 1.6238,-1.21787 1.2357,-0.61782 2.7883,-1.54366 3.6536,-2.84167 0.1679,-0.25177 0.192,-0.59796 0.406,-0.81191 0.3078,-0.30788 0.6345,-0.0512 1.2178,-1.21786 0.2593,-0.51849 0.8138,-0.40777 1.2179,-0.81191 0.3208,-0.32086 0.3718,-1.07117 0.8119,-1.21786 1.5049,-0.50164 0.2658,0.54608 1.2179,-0.40596 0.2139,-0.21395 0.192,-0.59795 0.4059,-0.81191 0.4279,-0.42791 1.1203,-0.47622 1.6238,-0.8119 0.4798,-0.31983 0.5683,-0.97418 0.8119,-1.21787 1.5844,-1.58433 0.2181,0.094 1.2179,-0.40595 0.8119,-0.40595 1.2179,-1.62382 2.0298,-2.02977 0.121,-0.0605 0.3102,0.0957 0.4059,0 0.096,-0.0957 -0.096,-0.31027 0,-0.40595 0.1914,-0.19137 0.6206,0.19137 0.8119,0 0.3926,-0.39261 0.7025,-1.92036 1.2179,-2.43573 0.096,-0.0957 0.3103,0.0957 0.4059,0 0.096,-0.0957 -0.096,-0.31027 0,-0.40595 0.096,-0.0957 0.3103,0.0957 0.406,0 0.1031,-0.10306 1.6238,-2.59835 1.6238,-2.84168"
         id="path7" />
      <path
         style="fill:#d4aa00;fill-opacity:0;stroke:#5823ff;stroke-width:5.02299;stroke-linecap:square;stroke-miterlimit:0;stroke-dasharray:none;stroke-opacity:1;paint-order:fill markers stroke"
         d="m 1421.2449,612.58457 c -0.4663,2.07596 0.3826,1.33907 0.8119,2.84168 0.4796,1.67832 0.8342,3.29222 1.6239,4.87145 0.4153,0.83061 1.3316,1.96519 1.6238,2.84168 0.086,0.25675 -0.066,0.54935 0,0.81191 0.2776,1.11051 0.5708,0.65326 1.2178,1.62381 0.1882,0.28232 0.2487,0.90324 0.406,1.21786 0.1711,0.34233 0.6407,0.46958 0.8119,0.81191 0.061,0.12103 0,0.27064 0,0.40596 0.1353,0.40595 0.1858,0.85093 0.4059,1.21786 1.0951,1.82501 0.415,0.009 1.6239,1.21786 0.3945,0.39452 0.071,1.17747 0.4059,1.62382 0.7435,0.99135 1.1257,0.35988 2.0298,0.8119 1.6895,0.84475 -0.434,-0.028 0.4059,0.81191 0.096,0.0957 0.2934,-0.0751 0.406,0 1.079,0.71933 2.1886,1.64143 3.2476,2.43573 0.4407,0.33049 0.5784,0.98433 0.8119,1.21786 0.042,0.0416 1.5482,0.35554 1.6238,0.40595 0.4798,0.31983 0.5683,0.97418 0.812,1.21786 0.8865,0.88652 0.6591,0.0844 1.6238,0.40596 1.4168,0.47226 3.2429,1.89287 4.8714,2.43572 2.1954,0.73179 4.6524,1.0616 6.9012,1.62382 0.2165,0.0541 1.0691,-0.14885 1.2179,0 0.096,0.0957 -0.096,0.31027 0,0.40595 0.3485,0.34851 1.5618,0.28895 2.0298,0.40596 0.7446,-0.2767 0.7487,0.67787 1.2178,0.8119 2.0674,0.59068 4.1178,-0.0869 6.0893,0.40596 1.7698,0.44244 3.0252,0.91015 4.8715,1.21786 1.157,0.19283 2.5331,0.12583 3.6536,0.40595 0.1856,0.0464 0.2203,0.35954 0.4059,0.40596 1.7157,0.42892 4.2735,0.0428 6.0893,0.40595 0.1877,0.0375 0.2244,0.34544 0.406,0.40596 0.5945,0.19817 1.4212,-0.15214 2.0298,0 1.9066,0.47667 3.6517,0.8119 5.6833,0.8119 0.8133,0 4.9263,0.43339 5.6834,0.81191 0.5198,0.2599 1.0825,0.63148 1.6238,0.81191 0.2567,0.0856 0.5698,-0.12103 0.8119,0 0.121,0.0605 0,0.27064 0,0.40595 0.406,0.13532 0.7983,0.32204 1.2179,0.40596 0.8628,0.17256 2.0038,-0.27927 2.8416,0 1.0961,0.36537 2.0424,0.61103 3.2477,0.81191 0.2706,0 0.5412,0 0.8119,0 0,0.13531 -0.1211,0.34543 0,0.40595 0.6368,0.31841 2.4357,-0.54808 2.4357,0.40595"
         id="path8" />
      <path
         style="fill:#d4aa00;fill-opacity:0;stroke:#5823ff;stroke-width:5.02299;stroke-linecap:square;stroke-miterlimit:0;stroke-dasharray:none;stroke-opacity:1;paint-order:fill markers stroke"
         d="m 1508.1191,653.99188 c -0.1557,0.87967 2.4531,1.25268 2.8417,2.02977 0.061,0.12103 -0.096,0.31027 0,0.40596 0.096,0.0957 0.3102,-0.0957 0.4059,0 0.096,0.0957 -0.096,0.31027 0,0.40595 0.3819,0.38193 2.414,-0.0217 2.8417,0.40595 0.096,0.0957 -0.121,0.34544 0,0.40596 0.3631,0.18155 0.9308,-0.28705 1.2179,0 0.096,0.0957 -0.096,0.31027 0,0.40595 0.1913,0.19137 0.6205,-0.19137 0.8119,0 0.096,0.0957 -0.096,0.31027 0,0.40596 0.1876,0.18765 0.9727,-0.12256 1.2178,0 0.1712,0.0856 0.2244,0.34543 0.406,0.40595 1.2082,0.40275 6.252,0.12163 7.3071,-0.40595 0.4872,-0.24358 0.7308,-0.97429 1.2179,-1.21787 0.2421,-0.12103 0.6206,0.19137 0.8119,0 0.7498,-0.74974 1.1251,-1.71201 2.0298,-2.43572 0.6292,-0.5034 2.0201,-1.19852 2.4357,-2.02977 0.061,-0.12103 -0.096,-0.31027 0,-0.40595 0.986,-0.98599 0.5961,0.12071 1.2179,-0.81191 0.871,-1.30657 1.7955,-2.3732 2.4357,-3.65359 0.2779,-0.55576 1.4852,-0.80693 2.0298,-1.62381 0.2373,-0.35605 0.1033,-0.91529 0.4059,-1.21787 0.1914,-0.19136 0.5699,0.12104 0.8119,0 0.5437,-0.27185 0.5625,-0.96845 0.8119,-1.21786 0.096,-0.0957 0.3103,0.0957 0.406,0 0.1914,-0.19137 -0.121,-0.56984 0,-0.81191 0.2797,-0.55944 0.9521,-0.54611 1.2179,-0.8119 0.4338,-0.43382 -0.5771,-0.81191 0.4059,-0.81191"
         id="path9" />
      <path
         style="fill:#d4aa00;fill-opacity:0;stroke:#5823ff;stroke-width:5.02299;stroke-linecap:square;stroke-miterlimit:0;stroke-dasharray:none;stroke-opacity:1;paint-order:fill markers stroke"
         d="m 1541.0014,645.06089 c 0.4421,4.26659 -0.6062,8.74732 0,12.99053 0.2203,1.54259 0.8545,3.01233 1.2178,4.4655 0.1274,0.50943 -0.1273,1.11438 0,1.62381 0.3815,1.52607 1.3734,2.34082 2.0298,3.65359 0.6481,1.29616 0.035,1.32279 0.4059,2.43572 0.1624,0.48715 1.0555,0.73072 1.2179,1.21786 0.5859,1.75763 -0.7761,-0.1492 0.406,1.62382 0.2123,0.31846 0.6407,0.46958 0.8119,0.81191 0.121,0.24206 -0.1211,0.56984 0,0.81191 0.1711,0.34233 0.6611,0.46011 0.8119,0.8119 0.5582,1.30255 1.212,4.05072 2.0297,5.27741 0.5359,0.80377 1.7204,2.72533 2.0298,3.65358 0.1218,0.36536 -0.1218,0.8525 0,1.21786 0.5787,1.73614 1.2543,3.32046 2.0298,4.87145 0.4472,0.89443 0.071,0.953 0.4059,1.62382 0.1712,0.34233 0.6408,0.46957 0.8119,0.81191 0.2421,0.48405 0.4461,1.66396 0.812,2.02977 0.096,0.0957 0.3102,-0.0957 0.4059,0 0.2871,0.28705 -0.1284,0.83274 0,1.21786 0.1836,0.55089 1.2374,2.43572 1.6238,2.43572"
         id="path10" />
      <path
         style="fill:#d4aa00;fill-opacity:0;stroke:#5823ff;stroke-width:5.02299;stroke-linecap:square;stroke-miterlimit:0;stroke-dasharray:none;stroke-opacity:1;paint-order:fill markers stroke"
         d="m 1558.4574,699.86468 c 0.3638,3.04529 0.7592,6.3002 0,9.33694 -0.2484,0.99341 0.083,1.05256 -0.406,2.02977 -0.1948,0.38962 0.13,1.23397 0,1.62382 -0.2732,0.81965 -1.609,1.5943 -2.0297,2.43572 -0.2082,0.4163 -0.1979,1.20753 -0.406,1.62382 -1.2042,2.40849 -3.0619,4.38984 -4.4655,6.49526 -0.5394,0.8091 -0.121,1.74482 -0.8119,2.43573 -0.096,0.0957 -0.3103,-0.0957 -0.406,0 -0.3666,0.3666 -0.57,1.54608 -0.8119,2.02977 -0.1711,0.34233 -0.6908,0.44881 -0.8119,0.81191 -0.4801,1.44045 0.6579,0.2054 -0.4059,1.62381 -0.3581,0.47743 -1.3381,1.05233 -1.6238,1.62382 -0.1776,0.35519 -0.2312,1.36168 -0.406,1.62381 -0.1678,0.25177 -0.5601,0.23812 -0.8119,0.40596 -0.9099,0.6066 -0.5318,1.34366 -1.2179,2.02977 -0.096,0.0957 -0.3102,-0.0957 -0.4059,0 -0.3548,0.3548 -0.2051,1.62793 -0.406,2.02977 -0.1353,0.27063 -0.6766,0.13532 -0.8119,0.40595 -0.121,0.24207 0.121,0.56985 0,0.81191 -0.8088,1.61758 -0.8123,0.002 -1.2178,1.62382 -0.5478,2.19084 1.3457,-1.16038 -0.812,2.43572 -0.3938,0.65648 -0.9325,0.0987 -1.2178,0.81191 -0.2563,0.64064 0.082,1.54187 -0.406,2.02977 -0.8399,0.83993 0.033,-1.28353 -0.8119,0.40595 -0.4205,0.84108 -1.3011,1.87368 -1.6238,2.84168 -0.086,0.25675 0.121,0.56984 0,0.81191 -0.3875,0.77498 -1.1432,1.30883 -1.6238,2.02977 -0.4314,0.64711 -1.0371,3.47283 -1.2179,3.65358 -0.096,0.0957 -0.3102,-0.0957 -0.4059,0 -0.1672,0.16722 -0.3158,0.94723 -0.406,1.21787 -0.811,2.43305 0.1039,-1.01964 -1.2178,1.62381 -0.1624,0.32477 0.1623,0.8931 0,1.21786 -0.6172,1.23433 -1.7984,2.3788 -2.4358,3.65359 -0.061,0.12103 0,0.27064 0,0.40595 -0.1353,0.27064 -0.2244,0.56985 -0.4059,0.81191 -0.3445,0.45929 -0.9611,0.70437 -1.2179,1.21786 -0.121,0.24207 0.1211,0.56985 0,0.81191 -0.1711,0.34233 -0.6407,0.46958 -0.8119,0.81191 -0.061,0.12103 0,0.27064 0,0.40595 -0.1353,0.27064 -0.2381,0.56015 -0.4059,0.81191 -0.2123,0.31846 -0.6408,0.46958 -0.812,0.81191 -0.061,0.12103 0.1211,0.34544 0,0.40595 -0.242,0.12104 -0.5698,-0.12103 -0.8119,0 -0.242,0.12104 0.1914,0.62054 0,0.81191 -0.5412,0.54127 -0.4059,-0.67659 -0.4059,0.40596"
         id="path11" />
      <path
         style="fill:#d4aa00;fill-opacity:0;stroke:#5823ff;stroke-width:5.02299;stroke-linecap:square;stroke-miterlimit:0;stroke-dasharray:none;stroke-opacity:1;paint-order:fill markers stroke"
         d="m 1522.3275,771.31259 c -0.4643,1.05361 0.3636,2.56262 0,3.65358 -0.3104,0.93104 -0.8727,0.58814 -1.2179,1.62382 -0.086,0.25675 0.121,0.56984 0,0.81191 -0.1712,0.34233 -0.6407,0.46957 -0.8119,0.8119 -0.2156,0.43114 -0.044,1.26194 -0.406,1.62382 -0.096,0.0957 -0.3102,-0.0957 -0.4059,0 -0.096,0.0957 0.061,0.28492 0,0.40595 -0.4132,0.82638 -1.2357,1.6595 -1.6238,2.43573 -0.2398,0.47958 -0.9193,0.77003 -1.2179,1.21786 -0.8944,0.20444 -0.2146,0.83512 -0.4059,1.21786 -0.1712,0.34233 -0.6408,0.46958 -0.8119,0.81191 -0.4402,0.88023 -0.8624,2.08017 -1.6239,2.84168 -0.2139,0.21395 -0.5979,0.19199 -0.8119,0.40595 -0.1913,0.19137 0.1211,0.56985 0,0.81191 -0.8447,1.68948 0.028,-0.43398 -0.8119,0.40595 -0.2353,0.23529 -0.5766,1.38853 -0.8119,1.62382 -0.5413,0.54127 -0.3895,-0.86116 -0.8119,0.40595 -0.086,0.25675 0.086,0.55516 0,0.81191 -0.121,0.3631 -0.6407,0.46958 -0.8119,0.81191 -0.061,0.12103 0.096,0.31027 0,0.40595 -0.2494,0.24941 -0.946,0.2682 -1.2179,0.81191 -0.1705,0.34116 -0.17,1.38789 -0.4059,1.62382 -0.096,0.0957 -0.2707,0 -0.406,0 -0.1353,0.13532 -0.2998,0.24672 -0.4059,0.40595 -0.2374,0.35605 -0.1686,0.86182 -0.406,1.21786 -0.2123,0.31846 -0.6407,0.46958 -0.8119,0.81191 -0.121,0.24207 0.086,0.55516 0,0.81191 -0.1818,0.54534 -1.6647,1.25879 -2.0298,1.62382 -0.8865,0.88651 -0.084,0.6591 -0.4059,1.62381 -0.2151,0.64527 -1.3172,1.01052 -1.6238,1.62382 -0.615,1.22988 -1.1673,2.50356 -2.0298,3.65358 0.041,0.80422 -0.5979,0.192 -0.8119,0.40596 -0.51,0.51 -0.1156,1.44904 -0.406,2.02977 -0.06,0.12103 -0.2933,-0.0751 -0.4059,0 -0.3185,0.2123 -0.5996,0.49345 -0.8119,0.81191 -0.1985,0.29764 -0.1745,1.3923 -0.406,1.62381 -0.096,0.0957 -0.3102,-0.0957 -0.4059,0 -0.2472,0.24714 -0.9301,3.48403 -1.2179,4.05954 -0.8447,1.68948 0.028,-0.43398 -0.8119,0.40595 -0.582,0.58203 -0.1798,1.64429 -0.406,2.43573 0.2447,0.73475 -0.6576,0.755 -0.8119,1.21786 -0.085,0.25675 0.086,0.55516 0,0.81191 -0.061,0.18155 -0.3075,0.24186 -0.4059,0.40595 -0.055,0.091 -0.902,2.52581 -1.2179,2.84168 -0.096,0.0957 -0.3102,-0.0957 -0.4059,0 -0.1582,0.15818 0,1.37609 0,1.62382"
         id="path13" />
      <path
         style="fill:#d4aa00;fill-opacity:0;stroke:#5823ff;stroke-width:5.02299;stroke-linecap:square;stroke-miterlimit:0;stroke-dasharray:none;stroke-opacity:1;paint-order:fill markers stroke"
         d="m 1492.6928,828.14614 c 1.3838,0.47548 -0.5038,2.08595 0,2.84168 1.2021,1.80303 3.5038,3.33301 5.6834,4.05954 0.6009,0.2003 1.4074,-0.12447 2.0298,0 1.5535,0.3107 2.613,1.33453 4.0595,1.62382 1.2226,0.24452 2.1783,0.27724 3.2476,0.81191 1.2932,0.6466 3.4872,-0.46142 4.8715,0 0.1815,0.0605 0.2183,0.36842 0.4059,0.40595 2.3926,0.47851 4.8851,0.002 7.3072,0.40595 1.9179,0.31966 3.2977,0.40596 5.2774,0.40596 0.1353,0 0.3103,-0.0957 0.406,0 0.096,0.0957 -0.096,0.31027 0,0.40595 0.3379,0.33797 2.5385,0 3.2476,0"
         id="path14" />
      <path
         style="fill:#d4aa00;fill-opacity:0;stroke:#5823ff;stroke-width:5.02299;stroke-linecap:square;stroke-miterlimit:0;stroke-dasharray:none;stroke-opacity:1;paint-order:fill markers stroke"
         d="m 1529.6346,839.51286 c 3.2477,0 6.4953,0 9.7429,0"
         id="path15" />
      <path
         style="fill:#d4aa00;fill-opacity:0;stroke:#5823ff;stroke-width:5.02299;stroke-linecap:square;stroke-miterlimit:0;stroke-dasharray:none;stroke-opacity:1;paint-order:fill markers stroke"
         d="m 1539.7835,839.1069 c -0.5413,0 -1.0931,-0.10615 -1.6238,0 -0.8916,0.17832 -2.7075,1.96266 -3.6536,2.43573 -0.4311,0.21556 -1.2619,0.0441 -1.6238,0.40595 -0.096,0.0957 0,0.27064 0,0.40595 -0.1353,0.13532 -0.2467,0.29981 -0.406,0.40596 -1.3634,0.90896 -2.7453,1.7786 -4.0595,2.43572 -1.6895,0.84474 0.434,-0.028 -0.406,0.81191 -0.6531,0.65317 -1.6695,0.30113 -2.4357,0.81191 -0.6634,0.44229 -2.2456,1.73174 -2.8417,2.02977 -0.242,0.12103 -0.6205,-0.19137 -0.8119,0 -0.096,0.0957 0.096,0.31027 0,0.40595 -0.096,0.0957 -0.2849,-0.0605 -0.4059,0 -0.9006,0.45029 -1.6081,1.47797 -2.4358,2.02977 -0.3875,0.25839 -1.1541,0.49878 -1.6238,0.81191 -0.5548,0.36987 -0.5813,0.75669 -0.8119,1.21786 -0.2797,0.55945 -0.9521,0.54612 -1.2178,0.81191 -0.2917,0.29168 -0.489,1.70683 -0.812,2.02977 -0.096,0.0957 -0.3102,-0.0957 -0.4059,0 -0.096,0.0957 0.061,0.28492 0,0.40595 -0.1442,0.28832 -0.6678,0.5236 -0.8119,0.81191 -0.3381,0.67619 -0.3048,2.74053 -0.8119,3.24763 -0.096,0.0957 -0.3103,-0.0957 -0.406,0 -0.3603,0.36037 -0.1549,1.93362 -0.4059,2.43573 -0.4297,0.8594 -0.5711,1.47244 -0.8119,2.43572 -0.1899,0.75954 -0.8949,2.3033 -1.2179,2.84168 -0.3869,0.64475 -1.2179,0.8023 -1.2179,1.62382 0,0.24715 -1.7802,3.56053 -2.0297,4.05954 -0.4872,0.97429 -1.9486,1.46143 -2.4358,2.43572 -0.4736,0.94723 0.5075,0.81191 -0.4059,0.81191"
         id="path16" />
      <path
         style="fill:#d4aa00;fill-opacity:0;stroke:#5823ff;stroke-width:5.02299;stroke-linecap:square;stroke-miterlimit:0;stroke-dasharray:none;stroke-opacity:1;paint-order:fill markers stroke"
         d="m 1502.8417,876.86062 c -1.8526,3.12109 -3.9448,4.6265 -6.0893,7.30718 -0.189,0.23627 -0.192,0.59795 -0.406,0.8119 -0.1914,0.19137 -0.6205,-0.19136 -0.8119,0 -0.3009,0.3009 0.098,1.11995 -0.4059,1.62382 -0.3858,0.38575 -1.7795,0.46687 -2.0298,1.21786 -0.086,0.25675 0.086,0.55516 0,0.81191 -0.2319,0.69573 -1.6405,1.44583 -2.0298,2.02977 -0.6952,1.04278 -1.0669,2.69076 -2.0298,3.65359 -0.096,0.0957 -0.3102,-0.0957 -0.4059,0 -1.0406,0.11408 -0.1492,0.87553 -0.406,1.21786 -1.3467,1.79561 -1.0831,0.54237 -2.0297,2.43572 -0.6355,1.2709 -3.253,6.08931 -4.8715,6.08931"
         id="path17" />
      <path
         style="fill:#d4aa00;fill-opacity:0;stroke:#5823ff;stroke-width:5.02299;stroke-linecap:square;stroke-miterlimit:0;stroke-dasharray:none;stroke-opacity:1;paint-order:fill markers stroke"
         d="m 1480.9202,903.65359 c 0,0.54127 0,1.08254 0,1.62381 -0.1354,0.27064 -0.3562,0.51345 -0.406,0.81191 -0.1313,0.7881 -0.2274,5.407 0,6.08931 0.2702,0.81049 1.3808,1.05751 1.6238,2.02977 0.1042,0.41674 0.094,1.31147 0.406,1.62382 0.096,0.0957 0.3103,-0.0957 0.4059,0 0.2543,0.25422 -0.016,0.79549 0.406,1.21786"
         id="path18" />
      <path
         style="fill:#d4aa00;fill-opacity:0;stroke:#5823ff;stroke-width:5.02299;stroke-linecap:square;stroke-miterlimit:0;stroke-dasharray:none;stroke-opacity:1;paint-order:fill markers stroke"
         d="m 1482.9499,917.86198 c 1.1791,3.08156 2.5454,3.24763 8.5251,3.24763 1.0584,0 4.5476,0.32377 5.2774,-0.40595 0.096,-0.0957 -0.096,-0.31027 0,-0.40596 0.287,-0.28705 0.8547,0.18155 1.2178,0 0.1211,-0.0605 -0.096,-0.31027 0,-0.40595 0.406,-0.40596 2.0298,0.40595 2.4358,0 0.096,-0.0957 -0.096,-0.31027 0,-0.40596 0.1192,-0.11927 3.6677,-1.89917 4.0595,-2.02977 0.7277,-0.24258 2.1748,-0.0725 2.8417,-0.40595 0.121,-0.0605 -0.096,-0.31027 0,-0.40595 0.287,-0.28706 0.824,0.0984 1.2178,0 1.1053,-0.27633 1.6884,-0.92953 2.8417,-1.21787 0.6271,-0.15678 1.4188,0.20367 2.0298,0 0.1815,-0.0605 0.2244,-0.34543 0.4059,-0.40595 0.3271,-0.10901 5.4306,-0.1264 5.6834,0 0.9053,0.45264 1.9613,0.77766 2.8417,1.21786 0.5118,0.2559 1.4852,0.13371 2.0297,0.40596 0.1712,0.0856 0.2244,0.34543 0.406,0.40595 0.5806,0.19352 1.8898,-0.091 2.4357,0 1.1155,0.18591 1.5884,0.79419 2.4357,1.21786 0.9698,0.48489 5.2431,0 6.4953,0 4.8715,0 9.7429,0 14.6144,0"
         id="path19" />
      <path
         style="fill:#d4aa00;fill-opacity:0;stroke:#5823ff;stroke-width:5.02299;stroke-linecap:square;stroke-miterlimit:0;stroke-dasharray:none;stroke-opacity:1;paint-order:fill markers stroke"
         d="m 1551.1502,917.86198 c 0.2706,0.54127 0.2706,1.89445 0.8119,1.62381 0.5413,-0.27063 -1.2398,-2.05173 -0.8119,-1.62381 0.14,0.14002 1.8898,3.10761 2.0298,3.24763 0.2583,0.25832 1.1055,0.55279 1.6238,0.81191 0.6529,0.32646 0.9006,1.71252 1.2179,2.02977 0.1913,0.19137 0.6205,-0.19137 0.8119,0 0.096,0.0957 -0.061,0.28492 0,0.40595 0.023,0.0465 2.3113,1.98832 2.4357,2.02977 0.2567,0.0856 0.6205,-0.19137 0.8119,0 1.1618,1.16181 -1.0129,0.50844 0.4059,1.21786 0.2302,0.11506 1.9409,1.1289 2.0298,1.21786 0.1914,0.19137 -0.121,0.56985 0,0.81191 0.2719,0.54372 0.9685,0.5625 1.2179,0.81191 0.2775,0.27751 1.0569,2.27478 1.2178,2.43572 0.096,0.0957 0.285,-0.0605 0.406,0 1.6895,0.84475 -0.434,-0.028 0.4059,0.81191 0.214,0.21396 0.598,0.192 0.812,0.40596 0.1701,0.17011 0.2829,0.97183 0.4059,1.21786 0.3222,0.64436 1.3559,0.94997 1.6238,1.21786 2.5589,2.55888 -3.4057,-1.74239 1.6238,2.02977 0.1083,0.0812 0.3103,-0.0957 0.406,0 0.096,0.0957 -0.096,0.31027 0,0.40595 0.214,0.21396 0.5979,0.192 0.8119,0.40596 0.214,0.21396 0.2381,0.56014 0.406,0.81191 0.3635,0.5453 1.5285,0.96723 2.0297,1.21786 0.7149,0.35745 0.5252,1.16202 1.2179,1.62381 0.2252,0.15013 0.5552,-0.0856 0.8119,0 0.373,0.12433 1.8616,1.5229 2.0298,1.62382 0.8361,0.50168 1.6507,0.69456 2.4357,1.21786 0.6006,0.40038 0.9811,1.30247 1.6238,1.62382 0.7548,0.37738 1.6259,0.81295 2.4357,1.21786"
         id="path20" />
      <path
         style="fill:#d4aa00;fill-opacity:0;stroke:#5823ff;stroke-width:5.02299;stroke-linecap:square;stroke-miterlimit:0;stroke-dasharray:none;stroke-opacity:1;paint-order:fill markers stroke"
         d="m 1586.8742,949.52639 c -0.2195,2.29743 0.8941,3.49437 1.6238,5.68335 0.1543,0.46286 0.6576,0.75501 0.8119,1.21787 0.2282,0.68472 -0.3206,1.79456 0,2.43572 0.061,0.12103 0.3103,-0.0957 0.4059,0 0.2828,0.28273 0.1501,2.05189 0.406,2.43572 0.1678,0.25177 0.5979,0.192 0.8119,0.40596 0.2359,0.23593 0.2354,1.28266 0.406,1.62381 0.3495,0.69909 1.3315,1.85123 1.6238,2.43573 0.121,0.24206 -0.086,0.55516 0,0.81191 0.1543,0.46285 0.6576,0.755 0.8119,1.21786 0.043,0.12837 -0.096,0.31027 0,0.40595 0.096,0.0957 0.3102,-0.0957 0.4059,0 0.3219,0.32184 -0.2065,1.61673 0,2.02977 0.929,1.85789 -0.1682,-1.72263 0.8119,1.21786 0.043,0.12838 0,0.27064 0,0.40596 0,0.27063 -0.085,0.55516 0,0.81191 0.1789,0.53662 0.9592,1.10636 1.2179,1.62381 0.3843,0.76868 0.3318,2.04156 0.8119,2.84168 0.1969,0.32819 0.5996,0.49345 0.8119,0.81191 0.6911,1.03664 0.8057,2.417 1.2179,3.65358 0.121,0.3631 0.5996,0.49346 0.8119,0.81191 0.4381,0.65711 0.5039,1.41376 0.8119,2.02977 0.8447,1.68949 -0.028,-0.43398 0.8119,0.40596 0.3026,0.30258 0.1686,0.86181 0.406,1.21786 0.432,0.64808 1.1266,0.72068 1.6238,1.21786 0.5161,0.51611 0.802,1.75585 1.6238,2.02977 0.2567,0.0856 0.6205,-0.19137 0.8119,0 0.1914,0.19137 -0.1914,0.62054 0,0.81191 0.3026,0.30258 0.8351,0.21458 1.2179,0.40595 0.6051,0.30258 1.0186,0.91528 1.6238,1.21786 0.5771,0.28858 3.101,0.66533 3.2476,0.81191 0.096,0.0957 -0.096,0.31027 0,0.40596 0.435,0.43499 2.6174,-0.21007 3.2476,0 0.1816,0.0605 0.2348,0.32037 0.406,0.40595 0.2421,0.12103 0.5698,-0.12103 0.8119,0 0.8416,0.4208 1.9811,0.78756 2.8417,1.21786 1.0741,0.53706 1.0971,0.97642 1.6238,2.02977 0.3916,0.78313 0.6871,0.14057 1.2179,0.40596 0.4653,0.23269 0.5646,0.84702 0.8119,1.21786 0.3698,0.5548 0.7566,0.58132 1.2178,0.81191 0.7048,0.35238 0.5853,1.21782 1.2179,1.21782"
         id="path21" />
      <path
         style="fill:#d4aa00;fill-opacity:0;stroke:#5823ff;stroke-width:5.02299;stroke-linecap:square;stroke-miterlimit:0;stroke-dasharray:none;stroke-opacity:1;paint-order:fill markers stroke"
         d="m 1625.8457,1000.6766 c 1.7536,0.7667 1.9598,3.2126 3.6536,4.0595 0.2461,0.123 1.0478,0.2359 1.2179,0.406 0.096,0.096 -0.096,0.3103 0,0.4059 0.096,0.096 0.3103,-0.096 0.4059,0 0.096,0.096 -0.096,0.3103 0,0.406 0.47,0.4699 1.814,0.9692 2.4358,1.2179 0.9574,0.3829 2.3542,0.3651 3.2476,0.8119 0.121,0.061 -0.096,0.3102 0,0.4059 0.1914,0.1914 0.5698,-0.121 0.8119,0 0.1712,0.086 0.2348,0.3204 0.406,0.406 0.9634,0.4817 2.5591,0.999 3.6535,1.2178 0.2654,0.053 0.5699,-0.121 0.812,0 0.121,0.06 -0.096,0.3103 0,0.406 0.1913,0.1914 0.5698,-0.121 0.8119,0 1.2403,0.6202 2.5952,1.2577 4.0595,1.6238 0.8832,0.2208 1.9807,-0.287 2.8417,0 0.9248,0.3083 3.086,0.3251 3.2476,0.406 0.121,0.061 -0.121,0.3454 0,0.4059 0.5413,0.2706 1.4885,-0.2706 2.0298,0 0.1711,0.086 0.2244,0.3454 0.4059,0.406 0.2568,0.086 0.5607,-0.1005 0.8119,0 0.6887,0.2754 6.1936,3.8621 6.4953,4.4655 0.3453,0.6906 -0.3938,0.824 0.406,1.6238 0.1913,0.1913 0.5698,-0.1211 0.8119,0 0.8366,0.4183 0.8466,1.6412 1.6238,2.0297 0.6638,0.332 1.4452,0.5197 2.0298,0.812 0.696,0.348 0.1664,0.7875 0.8119,1.2178 1.3081,0.8721 3.3859,0.9503 4.4655,2.0298 0.9585,0.9585 -2.2643,-0.2135 0.8119,0.8119 2.7011,0.9004 5.6273,0.8119 8.525,0.8119 1.4027,0 3.559,0.4375 4.8714,0 0.1816,-0.061 0.2348,-0.3204 0.406,-0.406 0.6141,-0.307 1.7648,-0.2382 2.4357,-0.4059 0.5871,-0.1468 1.0497,-0.6205 1.6238,-0.8119 0.2568,-0.086 0.6206,0.1914 0.8119,0 0.096,-0.096 -0.121,-0.3455 0,-0.406 0.2421,-0.121 0.5552,0.086 0.812,0 0.1815,-0.06 0.2244,-0.3454 0.4059,-0.4059 0.497,-0.1657 1.1161,0.1269 1.6238,0 1.5741,-0.3936 4.7798,-1.3838 6.4953,-0.8119 0.5741,0.1913 1.0367,0.6651 1.6238,0.8119 0.2626,0.066 0.5552,-0.086 0.8119,0 0.3631,0.121 0.4696,0.6407 0.8119,0.8119 0.2421,0.121 0.6206,-0.1914 0.8119,0 0.096,0.096 -0.096,0.3103 0,0.4059 0.6229,0.6229 1.2179,0.036 1.2179,0.8119"
         id="path22" />
      <path
         style="fill:#d4aa00;fill-opacity:0;stroke:#5823ff;stroke-width:5.02299;stroke-linecap:square;stroke-miterlimit:0;stroke-dasharray:none;stroke-opacity:1;paint-order:fill markers stroke"
         d="m 1707.8484,1028.2815 c 1.9771,1.4796 2.267,3.8345 3.6536,5.6833 0.2297,0.3062 0.5996,0.4935 0.8119,0.8119 0.1624,0.2436 -0.2029,1.0149 0,1.2179 0.096,0.096 0.3103,-0.096 0.406,0 0.3658,0.3658 0.5699,1.5457 0.8119,2.0298 0.1712,0.3423 0.6909,0.4488 0.8119,0.8119 0.1284,0.3851 -0.287,0.9308 0,1.2178 0.096,0.096 0.2849,-0.061 0.406,0 1.6894,0.8448 -0.434,-0.028 0.4059,0.8119 0.096,0.096 0.3103,-0.096 0.406,0 0.8044,0.8045 1.184,1.9622 1.6238,2.8417 0.2436,0.4872 0.9743,0.7307 1.2179,1.2179 0.061,0.121 -0.096,0.3102 0,0.4059 0.096,0.096 0.3102,-0.096 0.4059,0 0.1914,0.1914 -0.1914,0.6206 0,0.8119 0.096,0.096 0.3103,-0.096 0.406,0 0.2706,0.2707 -0.2707,1.3532 0,1.6239 0.096,0.096 0.3102,-0.096 0.4059,0 0.1877,0.1876 -0.1225,0.9727 0,1.2178 0.086,0.1712 0.3204,0.2348 0.406,0.406 0.3006,0.6013 0,2.1602 0,2.8416 0,0.5879 0.2572,1.9212 0,2.4358 -0.086,0.1711 -0.3204,0.2348 -0.406,0.4059 -0.1988,0.3977 -0.1698,6.3917 0,6.9012 0.5031,1.5092 1.1866,2.3889 2.0298,3.6536 0.4701,0.7051 1.221,0.6137 1.6238,1.2179 0.3978,0.5967 0.5859,1.2025 1.2179,1.6238 0.8024,0.535 0.9942,0.091 1.6238,0.406 0.696,0.348 0.1664,0.7875 0.8119,1.2178 1.1963,0.7976 3.0561,1.8383 4.0595,2.8417 1.1386,1.1386 -1.7059,-0.4552 0.406,0.8119 0.5189,0.3114 1.1512,0.4339 1.6238,0.8119 0.2363,0.189 0.2706,0.5413 0.4059,0.8119 0.2707,0.2707 0.4935,0.5996 0.812,0.8119 0.4874,0.325 1.3293,-0.4774 1.6238,0.406 0.086,0.2567 -0.1501,0.5867 0,0.8119 0.069,0.1031 5.8232,2.9116 6.4952,3.2476 0.2451,0.1226 1.0302,-0.1876 1.2179,0 0.096,0.096 -0.096,0.3103 0,0.406 0.2661,0.2661 1.4204,0.2026 1.6238,0.4059 0.096,0.096 -0.096,0.3103 0,0.406 0.4875,0.4875 2.9638,0.9879 3.6536,1.2179 0.9892,0.3297 1.7323,1.3464 2.8417,1.6238 0.2625,0.066 0.5698,-0.1211 0.8119,0 0.121,0.061 -0.096,0.3102 0,0.4059 0.2444,0.2445 2.4764,0.2234 2.8417,0.406 1.0112,0.5056 1.5725,0.1773 2.0297,0.4059 0.7471,0.3736 1.7122,0.8561 2.4358,1.2179 1.6894,0.8447 -0.434,-0.028 0.4059,0.8119 0.203,0.203 1.0149,-0.203 1.2179,0 0.2658,0.2658 0.2524,0.9381 0.8119,1.2179 0.6596,0.3298 3.733,2.1886 4.0595,2.8416 0.06,0.1211 -0.096,0.3103 0,0.406 0.096,0.096 0.2849,-0.061 0.406,0 0.4364,0.2182 0.8275,0.5192 1.2178,0.8119 0.2967,0.2225 0.722,1.1579 0.8119,1.2179 0.4757,0.317 1.563,0.3451 2.0298,0.8119 0.214,0.2139 0.2169,0.5756 0.406,0.8119 0.4059,0.4059 0.8119,0.8119 1.2178,1.2178 0.1353,0 0.2934,-0.075 0.406,0 2.3537,1.5692 0.3006,0.1953 0.8119,1.2179 0.3284,0.6567 1.1136,0.9627 1.6238,1.2179 1.6895,0.8447 -0.434,-0.028 0.406,0.8119 0.096,0.096 0.3102,-0.096 0.4059,0 0.2871,0.287 -0.1815,0.8547 0,1.2178 0.061,0.1211 0.2849,-0.061 0.406,0 1.6895,0.8448 -0.434,-0.028 0.4059,0.8119 0.096,0.096 0.3103,-0.096 0.406,0 0.1758,0.1759 0.6372,1.3619 0.8119,1.6239 0.5881,0.8821 1.8249,2.6368 2.4357,3.2476 0.214,0.2139 0.598,0.192 0.8119,0.4059 0.214,0.214 0.192,0.598 0.406,0.812 0.3026,0.3025 0.9153,0.1033 1.2178,0.4059 0.096,0.096 -0.096,0.3103 0,0.406 0.214,0.2139 0.5602,0.2381 0.8119,0.4059 0.6099,0.4066 0.9737,1.2988 1.6239,1.6238 0.444,0.2221 1.2048,0.393 1.6238,0.8119 0.096,0.096 -0.096,0.3103 0,0.406 0.096,0.096 0.3102,-0.096 0.4059,0 0.096,0.096 -0.096,0.3103 0,0.4059 0.096,0.096 0.3103,-0.096 0.406,0 0.1625,0.1625 0.2198,0.5159 0.8119,0.812 0.3631,0.1815 0.8327,-0.1284 1.2179,0 0.5982,0.1994 1.0401,1.0233 1.6238,1.2178 0.3851,0.1284 0.8327,-0.1284 1.2178,0 0.9882,0.3294 1.5924,0.7962 2.4358,1.2179 0.4259,0.2129 1.7057,-0.324 2.0297,0 0.096,0.096 0,0.2706 0,0.4059"
         id="path23" />
      <path
         style="fill:#d4aa00;fill-opacity:0;stroke:#5823ff;stroke-width:5.02299;stroke-linecap:square;stroke-miterlimit:0;stroke-dasharray:none;stroke-opacity:1;paint-order:fill markers stroke"
         d="m 1796.7524,1116.3735 c 0.7952,0.1459 2.862,0.8323 3.2476,1.2178 0.096,0.096 -0.121,0.3455 0,0.406 0.3248,0.1624 0.8931,-0.1624 1.2179,0 0.6443,0.3222 0.9499,1.3559 1.2178,1.6238 0.1353,0.1353 1.0826,0.2706 1.2179,0.406 0.096,0.096 -0.121,0.3454 0,0.4059 0.2421,0.1211 0.5551,-0.086 0.8119,0 0.7535,0.2512 0.103,0.8634 0.8119,1.2179 0.3827,0.1913 0.8351,0.2146 1.2179,0.4059 0.3423,0.1712 0.4695,0.6408 0.8119,0.8119 0.3631,0.1816 0.8327,-0.1283 1.2178,0 0.3631,0.1211 0.4488,0.6909 0.8119,0.812 0.5151,0.1717 2.0432,0.4193 2.4358,0.8119 0.096,0.096 -0.1284,0.3631 0,0.4059 0.3851,0.1284 0.8198,-0.08 1.2178,0 0.2967,0.059 0.5249,0.3103 0.8119,0.406 1.0513,0.3504 1.6661,-0.1819 2.8417,0.4059 1.0826,0.5413 2.977,-0.5413 4.0596,0 1.2009,0.6005 2.6896,0.6699 4.0595,1.2179 0.5619,0.2247 1.0367,0.6651 1.6238,0.8119 0.65,0.1625 1.5419,-0.082 2.0298,0.4059 0.096,0.096 -0.096,0.3103 0,0.406 0.096,0.096 0.3103,-0.096 0.4059,0 0.096,0.096 -0.061,0.2849 0,0.406 0.2719,0.5437 0.9685,0.5625 1.2179,0.8119 0.2494,0.2494 0.2682,0.946 0.8119,1.2178 0.3804,0.1902 1.3635,0.843 1.6238,1.6238 0.079,0.2372 -0.1186,0.8621 0,1.2179 0.337,1.0111 0.9375,3.4025 0.406,4.4655 -0.929,1.8579 0.1682,-1.7226 -0.8119,1.2179 -0.043,0.1283 0.096,0.3102 0,0.4059 -0.214,0.214 -0.6563,0.1465 -0.8119,0.406 -0.2871,0.4784 -0.1565,1.1248 -0.406,1.6238 -0.1712,0.3423 -0.5996,0.4934 -0.8119,0.8119 -0.1403,0.2105 -0.2423,1.0542 -0.406,1.2179 -0.096,0.096 -0.3102,-0.096 -0.4059,0 -0.1332,0.1331 -0.6604,1.3208 -0.8119,1.6238 -0.121,0.242 0.121,0.5698 0,0.8119 -0.3293,0.6585 -0.8727,1.3395 -1.2179,2.0297 -0.061,0.1211 0.096,0.3103 0,0.406 -0.096,0.096 -0.3102,-0.096 -0.4059,0 -0.096,0.096 0.061,0.2849 0,0.406 -0.2182,0.4363 -0.6307,0.7648 -0.8119,1.2178 -0.2801,0.7001 0.2388,1.7191 0,2.4357 -0.2761,0.8282 -0.8697,1.3334 -1.2179,2.0298 -0.4999,0.9999 1.1784,-0.3665 -0.406,1.2179 -0.096,0.096 -0.3102,-0.096 -0.4059,0 -0.3792,0.3792 -0.4327,1.6505 -0.8119,2.0297 -0.84,0.84 0.033,-1.2835 -0.8119,0.406 -0.2421,0.484 -0.4461,1.664 -0.8119,2.0298 -0.096,0.096 -0.3103,-0.096 -0.406,0 -0.1914,0.1913 0.121,0.5698 0,0.8119 -0.1515,0.3029 -0.6787,1.4906 -0.8119,1.6238 -0.096,0.096 -0.3103,-0.096 -0.406,0 -1.0229,1.0229 -1.0102,2.8324 -1.6238,4.0595 -0.2182,0.4364 -0.4669,0.8729 -0.8119,1.2179 -0.096,0.096 -0.3102,-0.096 -0.4059,0 -0.1959,0.1959 -0.2875,2.4863 -0.406,2.8417 -0.061,0.1815 -0.3204,0.2348 -0.4059,0.4059 -0.1211,0.2421 0.1913,0.6206 0,0.8119 -0.096,0.096 -0.3455,-0.121 -0.406,0 -0.1272,0.2544 -0.4059,4.1922 -0.4059,4.8715"
         id="path24" />
      <path
         style="fill:#d4aa00;fill-opacity:0;stroke:#5823ff;stroke-width:5.02299;stroke-linecap:square;stroke-miterlimit:0;stroke-dasharray:none;stroke-opacity:1;paint-order:fill markers stroke"
         d="m 1815.0203,1176.8606 c -0.4095,2.1514 0.7464,3.7975 1.2179,5.6834 0.066,0.2625 -0.1211,0.5698 0,0.8119 0.061,0.121 0.3102,-0.096 0.4059,0 0.1034,0.1033 0.2595,2.5487 0.406,2.8417 1.3276,2.6551 3.1127,5.4136 4.4655,8.119 0.061,0.1225 1.9325,2.3871 2.0297,2.4358 0.1211,0.06 0.3455,-0.1211 0.406,0 0.121,0.242 -0.086,0.5551 0,0.8119 0.2512,0.7535 0.8634,0.103 1.2179,0.8119 0.061,0.121 -0.096,0.3103 0,0.4059 0.7982,0.7983 3.1903,0.1163 4.0595,0.406 0.287,0.096 0.5184,0.3326 0.8119,0.4059 0.3938,0.099 0.8548,-0.1815 1.2179,0 0.9988,0.4995 1.5485,0.1654 2.0297,0.406 0.1211,0.061 -0.121,0.3454 0,0.406 0.433,0.2165 1.1908,-0.2166 1.6238,0 1.8195,0.9097 7.3648,1.392 9.337,0.4059 0.2451,-0.1225 1.0302,0.1877 1.2179,0 0.3109,-0.311 -0.132,-0.362 1.2178,-0.8119 0.6089,-0.203 0.406,0.406 1.2179,0 0.121,-0.061 -0.1211,-0.3454 0,-0.406 0.5412,-0.2706 1.4885,0.2707 2.0297,0 0.1211,-0.061 -0.096,-0.3102 0,-0.4059 0.3626,-0.3625 1.1376,-0.2439 1.6239,-0.406 1.1335,-0.3778 2.2691,-1.1345 3.2476,-1.6238 0.5118,-0.2559 1.4853,-0.1337 2.0298,-0.4059 0.5594,-0.2798 0.5461,-0.9521 0.8119,-1.2179 0.154,-0.154 2.0277,-1.0139 2.4357,-1.2179 0.2874,-1.2377 1.1248,-0.1564 1.6238,-0.4059 0.5518,-0.2759 1.0721,-0.942 1.6238,-1.2179 0.2421,-0.121 0.5699,0.1211 0.8119,0 0.303,-0.1514 1.4907,-0.6787 1.6238,-0.8119 0.096,-0.096 -0.096,-0.3102 0,-0.4059 0.1983,-0.1982 2.0743,-1.0372 2.4358,-1.2179 0.242,-0.121 0.5698,0.121 0.8119,0 0.4027,-0.2014 0.7973,-0.6717 1.2178,-0.8119 0.2568,-0.086 0.5552,0.086 0.812,0 0.9215,-0.3072 1.9618,-1.1839 2.8416,-1.6238 0.4577,-0.2289 1.4796,0 2.0298,0"
         id="path25" />
      <path
         style="fill:#d4aa00;fill-opacity:0;stroke:#5823ff;stroke-width:5.02299;stroke-linecap:square;stroke-miterlimit:0;stroke-dasharray:none;stroke-opacity:1;paint-order:fill markers stroke"
         d="m 1877.1313,1187.8214 c 0.4059,0.5413 0.7952,1.0955 1.2178,1.6238 0.4586,0.5732 1.2396,0.4495 1.6238,1.2179 0.2892,0.5782 1.3099,3.3396 1.6239,3.6535 0.096,0.096 0.3102,-0.096 0.4059,0 0.1653,0.1653 0.682,1.364 0.8119,1.6239 0.1226,0.2451 -0.1876,1.0302 0,1.2178 0.096,0.096 0.3103,-0.096 0.406,0 0.024,0.024 0.2956,5.4628 0.8119,6.4953 0.5064,1.0127 1.1174,2.2349 1.6238,3.2476 0.121,0.2421 -0.121,0.5699 0,0.8119 0.2603,0.5207 1.0377,1.0833 1.2179,1.6238 0.1283,0.3852 -0.2871,0.9309 0,1.2179 0.096,0.096 0.3102,-0.096 0.4059,0 0.1914,0.1914 0,0.5413 0,0.8119 0,1.002 0.3186,2.6979 0,3.6536 -0.01,0.028 -2.0247,2.4323 -2.0298,2.4357 -0.3708,0.2472 -0.9851,0.3465 -1.2178,0.8119 -0.061,0.1211 0.096,0.3103 0,0.406 -0.096,0.096 -0.3103,-0.096 -0.406,0 -0.096,0.096 0.096,0.3103 0,0.4059 -0.096,0.096 -0.3102,-0.096 -0.4059,0 -0.2658,0.2658 -0.2525,0.9382 -0.8119,1.2179 -0.1211,0.06 -0.2707,0 -0.406,0 -0.2706,0.1353 -0.5601,0.2381 -0.8119,0.406 -0.9099,0.6066 -1.4809,1.5523 -2.4357,2.0297 -0.1211,0.06 -0.3103,-0.096 -0.406,0 -0.096,0.096 0.096,0.3103 0,0.406 -0.1913,0.1913 -0.5698,-0.1211 -0.8119,0 -0.7772,0.3886 -0.7872,1.6114 -1.6238,2.0297 -0.5532,0.2766 -1.5164,0.2986 -2.0298,0.812 -0.096,0.096 0.096,0.3102 0,0.4059 -0.096,0.096 -0.2706,0 -0.4059,0 -0.1353,0.1353 -0.2998,0.2467 -0.406,0.406 -0.1678,0.2517 -0.1542,0.644 -0.4059,0.8119 -0.2252,0.1501 -0.5552,-0.086 -0.8119,0 -0.8008,0.2669 -0.9727,1.2178 -1.6239,1.2178"
         id="path26" />
      <path
         style="fill:#d4aa00;fill-opacity:0;stroke:#5823ff;stroke-width:5.02299;stroke-linecap:square;stroke-miterlimit:0;stroke-dasharray:none;stroke-opacity:1;paint-order:fill markers stroke"
         d="m 1869.0122,1229.2287 c -2.4504,-0.2075 0.082,1.5419 -0.406,2.0298 -0.096,0.096 -0.2849,-0.061 -0.4059,0 -0.6847,0.3423 -1.1457,1.026 -1.6238,1.6238 -0.1891,0.2363 -0.1697,0.6229 -0.406,0.8119 -0.6798,0.5438 -2.1687,0.9508 -2.8417,1.6238 -0.096,0.096 0.096,0.3103 0,0.406 -0.1913,0.1913 -0.5698,-0.1211 -0.8119,0 -0.4364,0.2181 -0.8728,0.4669 -1.2178,0.8119 -0.096,0.096 0.1125,0.3309 0,0.4059 -0.3561,0.2374 -0.8619,0.1686 -1.2179,0.406 -0.1126,0.075 0.096,0.3102 0,0.4059 -0.3619,0.3619 -1.1927,0.1904 -1.6238,0.406 -0.4287,0.2143 -0.8204,0.6132 -1.2179,0.8119 -0.5437,0.2718 -0.5625,0.9684 -0.8119,1.2178 -0.096,0.096 -0.3103,-0.096 -0.4059,0 -0.096,0.096 0.061,0.285 0,0.406 -0.1712,0.3423 -0.5996,0.4935 -0.812,0.8119 -1.0451,1.5678 -0.8119,4.2425 -0.8119,6.0893 0,0.2233 -0.027,4.8439 0,4.8715 0.096,0.096 0.3309,-0.1126 0.406,0 0.737,1.1055 0.9542,2.5375 1.6238,3.6536 1.0514,1.7523 0.9074,0.5492 1.6238,1.6238 0.3978,0.5966 0.5859,1.2025 1.2179,1.6238 0.8826,0.5884 3.5243,2.122 4.4655,2.4357 0.4718,0.1573 1.1939,0.191 1.6238,0.406 0.8083,0.4041 1.593,1.2024 2.4357,1.6238 0.829,0.4145 1.752,0.064 2.4357,0.4059 0.079,0.04 0.3179,0.7239 0.406,0.8119 0.1914,0.1914 0.5698,-0.121 0.8119,0 0.7324,0.3662 1.3179,1.2679 2.0298,1.6239 0.9998,0.4999 -0.3665,-1.1784 1.2178,0.4059 0.096,0.096 -0.096,0.3103 0,0.406 0.096,0.096 0.285,-0.061 0.406,0 0.4871,0.2435 0.7307,0.9743 1.2179,1.2178 0.8575,0.4288 1.5524,0.5113 2.4357,1.2179 0.2777,0.2221 1.1832,1.4769 1.6238,1.6238 0.3851,0.1284 0.8548,-0.1815 1.2179,0 0.2165,0.1083 1.1688,1.5257 1.2178,1.6238 0.3171,0.6341 1.2429,0.456 1.6238,1.2179 0.1211,0.242 -0.121,0.5698 0,0.8119 0.381,0.7618 1.3068,0.5838 1.6238,1.2179 0.1231,0.246 0.2359,1.0477 0.406,1.2178 0.096,0.096 0.3454,-0.121 0.406,0 0.4059,0.8119 -0.203,0.6089 0,1.2179 0.2524,0.7573 0.5056,1.0112 0.8119,1.6238 0.2165,0.433 -0.2165,1.1908 0,1.6238 0.061,0.121 0.3102,-0.096 0.4059,0 0.3994,0.3994 0.1678,1.5534 0.406,2.0298 1.4852,2.9704 0.8119,9.6932 0.8119,13.3965 0,1.9177 0.5014,14.0174 0,15.0203 -0.4561,0.9121 0.05,0.3056 -0.406,1.2178 -0.061,0.1211 -0.3102,-0.096 -0.4059,0 -0.1914,0.1914 0.121,0.5699 0,0.8119 -0.2707,0.5413 -0.4763,1.1203 -0.8119,1.6238 -0.075,0.1126 -0.3455,-0.121 -0.406,0 -0.121,0.2421 0.086,0.5552 0,0.812 -0.3071,0.9214 -1.6028,1.5818 -2.0298,2.4357 -0.2449,0.4899 -0.42,1.1013 -0.8119,1.6238 -0.4957,0.661 -1.6528,1.2759 -2.0297,2.0298 -0.2043,0.4085 -0.3584,1.9821 -0.8119,2.4357 -0.3345,0.3344 -0.812,-0.022 -0.812,0.8119"
         id="path27" />
      <path
         style="fill:#d4aa00;fill-opacity:0;stroke:#5823ff;stroke-width:5.02299;stroke-linecap:square;stroke-miterlimit:0;stroke-dasharray:none;stroke-opacity:1;paint-order:fill markers stroke"
         d="m 1880.3789,1326.2517 c 0,0.6766 0.096,1.36 0,2.0298 -0.082,0.574 -0.6272,1.4757 -0.8119,2.0297 -0.2554,0.7663 -0.02,1.6637 -0.406,2.4358 0.086,0.8439 -0.6303,0.1638 -0.8119,0.4059 -1.2291,1.6389 -0.21,1.638 -0.8119,2.8417 -0.3247,0.6495 -1.299,0.9743 -1.6238,1.6238 -0.3447,0.6893 -0.4475,1.7069 -0.8119,2.4357 -0.5931,1.1862 -1.4367,2.4675 -2.0298,3.6536 -0.6572,1.3145 -0.1135,1.2661 -0.4059,2.4357 -0.4901,1.9604 -0.1929,-0.02 -0.8119,1.2179 -0.1211,0.2421 0.085,0.5552 0,0.8119 -0.096,0.2871 -0.3103,0.5249 -0.406,0.8119 -0.086,0.2568 0.1914,0.6206 0,0.8119 -0.096,0.096 -0.3454,-0.121 -0.4059,0 -0.2236,0.4471 0.1586,1.1478 0,1.6238 -0.096,0.2871 -0.3326,0.5184 -0.406,0.8119 -0.2126,0.8503 0.1732,9.9162 0.406,10.1489 0.096,0.096 0.3454,-0.121 0.4059,0 0.2092,0.4184 -0.029,0.7539 0.406,1.6238 0.121,0.2421 -0.1914,0.6206 0,0.8119 0.096,0.096 0.3102,-0.096 0.4059,0 0.4367,0.4367 -0.1995,2.649 0,3.2477 0.061,0.1815 0.3455,0.2244 0.406,0.4059 0.5368,1.6106 -0.7536,4.1763 0,5.6834 0.4399,0.8798 0.5504,2.2015 0.8119,3.2476 0.098,0.3938 -0.1284,0.8327 0,1.2179 0.2881,0.8643 0.5238,1.5714 0.8119,2.4357 0.1565,0.4697 -0.2181,1.1876 0,1.6238 0.086,0.1712 0.3595,0.2203 0.4059,0.406 0.053,0.2112 -0.1858,1.658 0,2.0297 0.6579,1.3157 1.0317,2.9851 1.6239,4.4655 0.1803,0.451 0.5928,0.7798 0.8119,1.2179 0.2746,0.5493 -0.1968,1.4394 0,2.0297 0.5105,1.5317 1.3497,3.1054 2.0297,4.4655 0.2082,0.4163 0.1978,1.2076 0.406,1.6239 0.6661,1.3323 2.1223,2.4926 2.4357,4.0595 0.1913,0.9564 0.034,1.2851 0.406,2.0298 0.3755,0.751 1.4425,2.1163 1.6238,2.8416 0.1015,0.4061 0.2604,2.9567 0.4059,3.2477 0.4592,0.9183 0.4974,1.4921 0.8119,2.4357 0.061,0.1816 0.3455,0.2244 0.406,0.406 0.086,0.2567 -0.086,0.5551 0,0.8119 0.06,0.1815 0.2706,0.2706 0.4059,0.4059 0.1354,0.2707 0.3326,0.5184 0.406,0.8119 0.1313,0.5251 -0.1712,1.1103 0,1.6238 0.121,0.3631 0.6909,0.4489 0.8119,0.8119 0.086,0.2568 -0.086,0.5552 0,0.812 -0.1517,0.8843 0.6766,0.1353 0.8119,0.4059 0.1211,0.2421 -0.1005,0.5606 0,0.8119 0.1812,0.453 0.5937,0.7815 0.8119,1.2179 0.2573,0.5146 0.4322,2.056 0.8119,2.4357 0.096,0.096 0.3103,-0.096 0.406,0 0.096,0.096 -0.06,0.2849 0,0.406 0.3026,0.6051 0.8425,1.0608 1.2179,1.6238"
         id="path28" />
      <path
         style="fill:#d4aa00;fill-opacity:0;stroke:#5823ff;stroke-width:5.02299;stroke-linecap:square;stroke-miterlimit:0;stroke-dasharray:none;stroke-opacity:1;paint-order:fill markers stroke"
         d="m 1892.1516,1428.1461 c 0.6891,0.5027 0.5594,3.9606 0.8119,4.4655 0.1711,0.3424 0.6407,0.4696 0.8119,0.8119 0.206,0.412 0.3244,1.9483 0.4059,2.0298 0.096,0.096 0.3103,-0.096 0.406,0 0.3286,0.3287 0.7027,1.9988 0.8119,2.4357 0.4446,1.7786 -0.5794,9.3961 0,10.5548 0.5493,1.0988 0.075,1.4426 0.4059,2.4358 0.061,0.1815 0.3455,0.2244 0.406,0.4059 0.3248,0.9743 -0.3248,2.2734 0,3.2477 0.3429,1.0286 0.406,1.7549 0.406,2.8416"
         id="path29" />
      <path
         style="fill:#d4aa00;fill-opacity:0;stroke:#5823ff;stroke-width:5.02299;stroke-linecap:square;stroke-miterlimit:0;stroke-dasharray:none;stroke-opacity:1;paint-order:fill markers stroke"
         d="m 1896.6171,1458.5927 c 0.5412,0.2706 1.0619,0.5872 1.6238,0.8119 1.0733,0.4293 3.3271,0 4.4655,0 0.2706,0 0.6205,0.1914 0.8119,0 0.096,-0.096 -0.096,-0.3103 0,-0.406 0.1913,-0.1913 0.5698,0.1211 0.8119,0 0.7206,-0.3603 1.3091,-0.8575 2.0297,-1.2178 0.2397,-0.1199 1.4892,-0.6773 1.6239,-0.8119 0.2436,-0.2437 0.3321,-0.8981 0.8119,-1.2179 0.7996,-0.5331 1.6293,-1.6266 2.4357,-2.0298 0.121,-0.061 0.3103,0.096 0.406,0 0.096,-0.096 -0.061,-0.2849 0,-0.4059 0.2181,-0.4364 0.5071,-0.8369 0.8119,-1.2179 0.5895,-0.7368 1.4636,-1.2749 2.0297,-2.0297 0.2568,-0.3424 0.1034,-0.9153 0.406,-1.2179 0.2035,-0.2035 1.2543,-0.6636 1.6238,-1.2179 0.143,-0.2144 1.5767,-2.3886 1.6238,-2.4357 0.096,-0.096 0.3103,0.096 0.406,0 0.4944,-0.4944 0.1901,-0.907 0.8119,-1.2178 0.121,-0.061 0.3102,0.096 0.4059,0 0.5637,-0.5638 0.8038,-1.6198 1.6238,-2.0298 0.1211,-0.061 0.3103,0.096 0.406,0 0.6437,-0.6437 0.2479,-1.8717 0.8119,-2.4357 0.096,-0.096 0.2849,0.061 0.406,0 1.6894,-0.8448 -0.434,0.028 0.4059,-0.812 0.214,-0.2139 0.598,-0.1919 0.8119,-0.4059 0.6673,-0.6672 0.8564,-1.7128 1.2179,-2.4357 0.2567,-0.5135 0.8994,-0.7402 1.2178,-1.2179 0.075,-0.1126 -0.075,-0.2934 0,-0.4059 0.5878,-0.8817 1.9607,-1.4856 2.4358,-2.4358 0.1095,-0.219 0.5719,-1.7897 0.8119,-2.0297 0.8399,-0.84 -0.033,1.2835 0.8119,-0.406 0.222,-0.444 0.3929,-1.2049 0.8119,-1.6238 0.8399,-0.8399 -0.033,1.2835 0.8119,-0.406 0.061,-0.121 -0.096,-0.3102 0,-0.4059 0.8399,-0.8399 -0.033,1.2835 0.8119,-0.406 0.061,-0.121 -0.096,-0.3102 0,-0.4059 0.096,-0.096 0.3103,0.096 0.406,0 0.096,-0.096 -0.096,-0.3103 0,-0.406 0.096,-0.096 0.3102,0.096 0.4059,0 0.096,-0.096 -0.096,-0.3102 0,-0.4059 0.3173,-0.3173 1.222,-0.2721 1.6238,-0.406 0.4663,-0.1554 0.5633,-0.9692 0.8119,-1.2178 0.323,-0.323 1.7381,-0.5203 2.0298,-0.812 0.5413,-0.5412 -0.8611,-0.3895 0.406,-0.8119 0.2567,-0.086 0.5551,0.086 0.8119,0 0.5787,-0.1929 0.5845,-0.5845 0.8119,-0.8119 0.21,-0.21 4.3958,-2.1979 4.8714,-2.4357 0.3424,-0.1712 0.4696,-0.6407 0.8119,-0.8119 0.3206,-0.1603 0.8755,0.1141 1.2179,0 0.4743,-0.1581 1.7926,-0.3269 2.0298,-0.406 0.1283,-0.043 -0.1211,-0.3454 0,-0.4059 1.1426,-0.5713 5.2484,0.094 6.4952,0.4059 0.8692,0.2173 1.9935,-0.2827 2.8417,0 0.1816,0.061 0.2348,0.3204 0.406,0.406 0.4294,0.2147 1.8746,0.4059 2.4357,0.4059"
         id="path30" />
      <path
         style="fill:#d4aa00;fill-opacity:0;stroke:#5823ff;stroke-width:5.02299;stroke-linecap:square;stroke-miterlimit:0;stroke-dasharray:none;stroke-opacity:1;paint-order:fill markers stroke"
         d="m 1961.1637,1418.4032 c 0.6041,1.6353 2.0029,-0.013 2.8417,0.406 0.7035,0.3518 2.5637,1.3958 3.2476,1.6238 0.9546,0.3182 5.0626,1.003 5.6834,1.6238 0.096,0.096 -0.1126,0.3309 0,0.406 0.3493,0.2329 3.159,0.7233 3.2476,0.8119 0.096,0.096 -0.121,0.3454 0,0.406 0.3631,0.1815 0.9308,-0.2871 1.2179,0 0.096,0.096 -0.121,0.3454 0,0.4059 0.5373,0.2686 4.134,0.8367 5.2774,1.2179 0.4629,0.1543 0.7394,0.7162 1.2179,0.8119 0.5307,0.1061 1.0899,-0.089 1.6238,0 2.9376,0.4896 -0.6382,0.1932 1.2178,0.8119 0.6546,0.2182 1.3752,0.1877 2.0298,0.4059 0.4629,0.1543 0.7649,0.6307 1.2179,0.8119 0.2112,0.9494 1.1488,0.2477 1.6238,0.406 1.6984,-0.7351 0.4696,0.6407 0.8119,0.8119 0.2421,0.121 0.5552,-0.086 0.8119,0 0.1426,0.047 2.8124,1.1983 2.8417,1.2179 0.1126,0.075 -0.096,0.3102 0,0.4059 0.2117,0.2118 7.1064,3.2477 7.7131,3.2477"
         id="path31" />
      <path
         style="fill:#d4aa00;fill-opacity:0;stroke:#5823ff;stroke-width:5.02299;stroke-linecap:square;stroke-miterlimit:0;stroke-dasharray:none;stroke-opacity:1;paint-order:fill markers stroke"
         d="m 2003.7889,1434.2355 c 3.1734,-0.1749 6.1274,0.111 8.931,0.8119 0.5413,0.1353 2.0433,0.8254 2.4357,1.2178 0.096,0.096 -0.121,0.3455 0,0.406 0.8834,0.4417 1.0475,-0.2489 2.0298,0.4059 0.595,0.3967 2.2465,1.7322 2.8417,2.0298 0.6186,0.3093 1.7669,0.2149 2.4357,0.406 1.3289,0.3797 2.3284,1.4029 3.6536,1.6238 0.4004,0.067 0.8198,-0.08 1.2178,0 0.7146,0.1429 1.3229,0.6351 2.0298,0.8119 0.503,0.1257 1.1347,-0.1631 1.6238,0 2.9256,0.9752 6.0025,1.2976 8.931,2.0298 0.7479,0.1869 1.7063,-0.2432 2.4357,0 0.1816,0.061 0.2348,0.3203 0.406,0.4059 0.6052,0.3026 1.3663,-0.1327 2.0298,0 2.5082,0.5016 -1.2043,0.406 0.8119,0.406"
         id="path32" />
      <path
         style="fill:#d4aa00;fill-opacity:0;stroke:#5823ff;stroke-width:5.02299;stroke-linecap:square;stroke-miterlimit:0;stroke-dasharray:none;stroke-opacity:1;paint-order:fill markers stroke"
         d="m 2046.4141,1445.6022 c 1.1394,0.4526 2.9219,0.1293 4.0595,0.8119 0.3282,0.1969 0.4696,0.6407 0.8119,0.8119 0.2421,0.121 0.5552,-0.086 0.8119,0 0.3631,0.121 0.4488,0.6909 0.8119,0.8119 0.709,0.2363 2.3437,-0.092 2.8417,0.4059 0.096,0.096 -0.1082,0.3248 0,0.406 1.5243,1.1432 3.7371,1.6656 5.2774,2.4357 0.9283,0.4642 -0.063,0.9834 1.2179,1.6238 0.1922,0.096 2.1053,0.4815 2.4357,0.8119 0.096,0.096 0,0.2707 0,0.406 0.1353,0.1353 0.2467,0.2998 0.406,0.406 1.4571,0.9714 2.9997,1.8645 4.4655,2.8416 0.9457,0.6305 1.9932,1.0582 2.8416,1.6238 0.3185,0.2124 0.4696,0.6408 0.8119,0.812 0.2421,0.121 0.5552,-0.086 0.8119,0 2.0326,0.6775 -0.6765,0.09 0.406,0.8119 0.356,0.2373 0.8351,0.2146 1.2179,0.4059 0.6677,0.3339 0.5501,1.29 1.2178,1.6238 0.2421,0.1211 0.6206,-0.1913 0.8119,0 0.4008,0.4008 0.6067,1.6718 1.2179,2.4358 0.189,0.2362 0.5979,0.192 0.8119,0.4059 0.096,0.096 -0.061,0.2849 0,0.406 0.3047,0.6093 4.049,3.8512 4.4655,4.0595 0.2508,0.1254 1.4733,0.2555 1.6238,0.406 0.096,0.096 -0.061,0.2849 0,0.4059 0.191,0.382 1.6409,1.0882 2.0298,1.2179 0.6397,0.2132 1.5266,-0.097 2.0298,0.4059 0.096,0.096 -0.096,0.3103 0,0.406 0.2359,0.2359 1.2826,0.2354 1.6238,0.4059 1.0045,0.5023 1.4309,1.2179 2.4357,1.2179"
         id="path33" />
      <path
         style="fill:#d4aa00;fill-opacity:0;stroke:#5823ff;stroke-width:5.02299;stroke-linecap:square;stroke-miterlimit:0;stroke-dasharray:none;stroke-opacity:1;paint-order:fill markers stroke"
         d="m 2095.1286,1474.8309 c -1.9137,-0.1161 0.4784,1.5513 0,2.0297 -0.096,0.096 -0.3103,-0.096 -0.406,0 -0.1877,0.1877 0.1226,0.9728 0,1.2179 -0.1712,0.3423 -0.6407,0.4696 -0.8119,0.8119 -0.1858,0.3715 0.2754,1.3484 0,1.6238 -0.096,0.096 -0.3103,-0.096 -0.406,0 -0.1977,0.1978 -0.3014,1.7161 -0.4059,2.0298 -0.386,1.158 -1.2192,2.0337 -1.6238,3.2476 -0.1624,0.4872 0.1624,1.1367 0,1.6238 -0.1929,0.5787 -0.5846,0.5846 -0.8119,0.8119 0,0 -1.4576,3.9669 -1.6239,4.4655 -0.1217,0.3654 0.1218,0.8525 0,1.2179 -0.2375,0.7126 -0.8785,1.3511 -1.2178,2.0298 -0.1226,0.2451 0.1876,1.0302 0,1.2178 -0.096,0.096 -0.3103,-0.096 -0.406,0 -0.4922,0.4922 0.01,2.4264 -0.4059,2.8417 -0.096,0.096 -0.3103,-0.096 -0.406,0 -0.4059,0.406 0.406,2.0298 0,2.4357 -0.096,0.096 -0.3102,-0.096 -0.4059,0 -0.1842,0.1842 -0.406,4.5498 -0.406,5.2774"
         id="path34" />
      <path
         style="fill:#d4aa00;fill-opacity:0;stroke:#5823ff;stroke-width:5.02299;stroke-linecap:square;stroke-miterlimit:0;stroke-dasharray:none;stroke-opacity:1;paint-order:fill markers stroke"
         d="m 2085.7916,1507.7131 c -0.043,1.5389 0.2414,3.1709 -0.4059,4.4655 -0.5496,1.0991 0.3933,2.8795 0,4.0596 -0.061,0.1815 -0.2707,0.2706 -0.406,0.4059 -0.1353,0.406 -0.3022,0.8027 -0.4059,1.2179 -0.3599,1.4394 -0.3434,3.0599 -0.812,4.4655 -0.1913,0.5741 -0.6205,1.0497 -0.8119,1.6238 -0.1904,0.5713 0.2684,1.4931 0,2.0298 -0.086,0.1711 -0.3203,0.2347 -0.4059,0.4059 -0.1858,0.3715 0.2754,1.3484 0,1.6238 -0.096,0.096 -0.3455,-0.121 -0.406,0 -0.121,0.2421 0.053,0.5466 0,0.8119 -0.084,0.4196 -0.322,0.7983 -0.4059,1.2179 -0.08,0.3981 0.1815,0.8548 0,1.2179 -0.4252,0.8503 -0.9628,1.8212 -1.2179,2.8416 -0.2865,1.1463 0.2866,2.5074 0,3.6536 -0.1767,0.707 -0.6352,1.3228 -0.8119,2.0298 -0.1142,0.4568 0.2081,1.2076 0,1.6238 -0.5043,1.0087 -0.9203,2.0574 -1.2179,3.2476 -0.1408,0.5636 0.2588,1.5124 0,2.0298 -0.085,0.1712 -0.3454,0.2244 -0.4059,0.406 -0.324,0.9719 0.2489,2.2519 0,3.2476 -0.1038,0.4151 -0.322,0.7983 -0.406,1.2179 -0.1277,0.6385 0.1579,1.3982 0,2.0297 -0.1685,0.6741 -0.6282,1.0727 -0.8119,1.6238 -0.1299,0.3899 0.1948,1.2342 0,1.6239 -1.3806,2.7611 -1.0384,6.3628 -2.0297,9.3369 -0.2336,0.7005 0.3261,1.7834 0,2.4357 -0.086,0.1712 -0.3204,0.2348 -0.406,0.406 -0.1423,0.2846 -0.7373,10.2981 -0.406,10.9607 0.3889,0.7778 0.6121,1.4366 0.812,2.4358 0.08,0.398 -0.2871,0.9308 0,1.2178 0.096,0.096 0.3102,-0.096 0.4059,0 0.3492,0.3492 -0.1653,1.9398 0,2.4357 0.9802,2.9405 -0.117,-0.64 0.8119,1.2179 0.4634,0.9268 -0.061,2.7802 0.8119,3.6536"
         id="path35" />
      <path
         style="fill:#d4aa00;fill-opacity:0;stroke:#5823ff;stroke-width:5.02299;stroke-linecap:square;stroke-miterlimit:0;stroke-dasharray:none;stroke-opacity:1;paint-order:fill markers stroke"
         d="m 2076.4547,1590.1218 c 0.9578,0.6901 0.3467,4.753 0.8119,5.6833 0.061,0.1211 0.3454,-0.121 0.4059,0 0.2698,0.5397 -0.1439,1.3359 0.406,2.4358 0.4112,0.8224 -0.2698,1.422 0.4059,2.4357 0.075,0.1126 0.3103,-0.096 0.406,0 0.2273,0.2273 -0.088,1.7653 0,2.0298 0.06,0.1815 0.3204,0.2348 0.4059,0.4059 0.1966,0.393 -0.021,0.7707 0.406,1.6238 0.433,0.8661 -0.433,2.3816 0,3.2477 0.086,0.1711 0.2706,0.2706 0.406,0.4059 0,0.406 -0.099,0.824 0,1.2179 0.092,0.3682 0.6371,0.8683 0.8119,1.2178 0.4827,0.9655 0.5888,2.9442 0.8119,4.0596 0.2985,1.4924 0,3.3467 0,4.8714 0,3.9243 0,7.8485 0,11.7727"
         id="path36" />
      <path
         style="fill:#d4aa00;fill-opacity:0;stroke:#5823ff;stroke-width:5.02299;stroke-linecap:square;stroke-miterlimit:0;stroke-dasharray:none;stroke-opacity:1;paint-order:fill markers stroke"
         d="m 2081.7321,1632.341 c -0.1618,3.3821 0.4134,6.8713 -0.406,10.1489 -0.1592,0.6367 0.1592,1.3929 0,2.0297 -0.2367,0.947 -0.6215,1.89 -0.8119,2.8417 -0.1061,0.5308 0.2421,1.1397 0,1.6238 -0.267,0.534 -0.6289,1.0748 -0.8119,1.6238 -0.347,1.0411 0.2092,2.6076 0,3.6536 -0.037,0.1877 -0.3204,0.2348 -0.406,0.406 -0.3566,0.7132 0.5356,2.7121 0,3.2476 -0.096,0.096 -0.3631,-0.1284 -0.4059,0 -0.1284,0.3851 0.08,0.8198 0,1.2179 -0.3582,1.791 -0.8399,3.7096 -1.6238,5.2774 -0.2707,0.5412 0.2706,1.4885 0,2.0297 -0.647,1.294 -1.4024,2.8049 -2.0298,4.0596 -0.121,0.242 0.1914,0.6205 0,0.8119 -0.096,0.096 -0.3103,-0.096 -0.4059,0 -0.35,0.35 0.2421,1.5456 0,2.0298 -0.2436,0.4871 -0.9743,0.7307 -1.2179,1.2178 -0.121,0.2421 0.121,0.5699 0,0.8119 -0.2828,0.5656 -1.0685,1.4322 -1.2179,2.0298 -0.098,0.3938 0.1284,0.8327 0,1.2179 -0.043,0.1283 -0.3102,-0.096 -0.4059,0 -0.228,0.2279 -0.8119,1.6658 -0.8119,2.0297"
         id="path37" />
      <path
         style="fill:#d4aa00;fill-opacity:0;stroke:#5823ff;stroke-width:5.02299;stroke-linecap:square;stroke-miterlimit:0;stroke-dasharray:none;stroke-opacity:1;paint-order:fill markers stroke"
         d="m 2070.7713,1681.4614 c 1.1668,-0.2539 2.4828,0.2342 3.6536,0 0.2967,-0.059 0.5134,-0.3562 0.8119,-0.4059 0.7086,-0.1181 2.5537,0.3469 3.2476,0 0.6049,-0.3024 1.3846,-1.0028 2.0298,-1.2179 0.2568,-0.086 0.5552,0.086 0.8119,0 0.3631,-0.121 0.4696,-0.6407 0.8119,-0.8119 0.3248,-0.1624 0.8931,0.1624 1.2179,0 0.6048,-0.3024 1.3845,-1.0028 2.0298,-1.2178 0.2567,-0.086 0.5698,0.121 0.8119,0 0.2236,-0.1119 -0.083,-0.3647 0.8119,-0.812 0.3925,-0.1962 1.9696,-0.3458 2.0297,-0.4059 0.096,-0.096 -0.121,-0.3454 0,-0.406 0.2421,-0.121 0.5552,0.086 0.812,0 0.5366,-0.1788 1.1063,-0.9591 1.6238,-1.2178 0.4311,-0.2156 1.2619,-0.044 1.6238,-0.406 0.096,-0.096 -0.121,-0.3454 0,-0.4059 0.6411,-0.3206 1.751,0.2282 2.4357,0 0.5511,-0.1837 0.9497,-0.6434 1.6238,-0.8119 0.2626,-0.066 0.5699,0.121 0.8119,0 0.1211,-0.061 -0.096,-0.3103 0,-0.406 0.3304,-0.3303 2.0558,-0.026 2.4358,-0.406 0.1624,-0.1624 0.2198,-0.5158 0.8119,-0.8119 0.6722,-0.3361 1.7531,-0.065 2.4357,-0.4059 0.8684,-0.4342 1.5673,-1.1896 2.4357,-1.6238 0.2421,-0.1211 0.6206,0.1913 0.8119,0 0.214,-0.214 0.1542,-0.6441 0.406,-0.8119 0.2252,-0.1502 0.5698,0.121 0.8119,0 0.3423,-0.1712 0.5057,-0.5823 0.8119,-0.8119 0.2421,-0.1816 0.5979,-0.192 0.8119,-0.406 0.096,-0.096 -0.121,-0.3454 0,-0.406 0.2261,-0.113 2.1038,-0.2953 2.4357,-0.4059 0.5366,-0.1789 1.1064,-0.9591 1.6238,-1.2179 0.2461,-0.123 1.0478,-0.2358 1.2179,-0.4059 0.096,-0.096 -0.096,-0.3103 0,-0.406 0.163,-0.163 0.9883,0.077 1.2179,0 1.0627,-0.3542 0.4799,-0.8119 1.2178,-0.8119"
         id="path38" />
      <path
         style="fill:#d4aa00;fill-opacity:0;stroke:#5823ff;stroke-width:5.02299;stroke-linecap:square;stroke-miterlimit:0;stroke-dasharray:none;stroke-opacity:1;paint-order:fill markers stroke"
         d="m 2116.6441,1664.0054 c 0.5413,-0.1353 1.0945,-0.2295 1.6238,-0.4059 1.2842,-0.4281 2.5271,-0.6546 3.6536,-1.2179 0.9178,-0.4589 2.7067,0.068 3.6536,-0.406 0.9728,-0.4864 1.665,-0.8119 2.8417,-0.8119"
         id="path39" />
      <path
         style="fill:#d4aa00;fill-opacity:0;stroke:#5823ff;stroke-width:5.02299;stroke-linecap:square;stroke-miterlimit:0;stroke-dasharray:none;stroke-opacity:1;paint-order:fill markers stroke"
         d="m 2128.4168,1661.5697 c 2.4645,-0.9244 3.0648,-3.288 4.0595,-5.2774 0.469,-0.938 -0.2541,-2.6373 0,-3.6536 0.073,-0.2935 0.3326,-0.5184 0.406,-0.8119 0.098,-0.3938 -0.1816,-0.8548 0,-1.2179 0.086,-0.1711 0.3454,-0.2244 0.4059,-0.4059 0.2479,-0.7436 0.1015,-1.5223 0.406,-2.4357 0.5162,-1.5487 0,-4.5012 0,-6.0894 0,-3.7889 0,-7.5778 0,-11.3667 0,-2.4358 -0.4749,-5.3387 0,-7.7131 0.2123,-1.0616 0.5053,-4.2583 0.8119,-4.8714 0.086,-0.1712 0.3454,-0.2244 0.4059,-0.406 0.2432,-0.7295 0.054,-2.9492 0.406,-3.6536 0.3062,-0.6123 1.4976,-2.7426 1.6238,-3.2476 0.099,-0.3938 -0.098,-0.824 0,-1.2179 0.046,-0.1856 0.3455,-0.2244 0.406,-0.4059 0.3645,-1.0935 -0.2801,-2.5333 0,-3.6536 0.826,-3.3039 0.4059,-7.0873 0.4059,-10.5548 0,-3.9242 0,-7.8485 0,-11.7727 0,-1.0203 -0.3203,-5.0427 0,-5.6833 0.06,-0.1211 0.3103,0.096 0.406,0 0,0 0.035,-2.0644 0.8119,-2.8417"
         id="path40" />
      <path
         style="fill:#d4aa00;fill-opacity:0;stroke:#5823ff;stroke-width:5.02299;stroke-linecap:square;stroke-miterlimit:0;stroke-dasharray:none;stroke-opacity:1;paint-order:fill markers stroke"
         d="m 2138.9716,1575.1015 c 0.5247,-3.0719 -0.7141,-8.1043 0,-10.9608 0.1183,-0.4733 0.6307,-0.7648 0.8119,-1.2178 0.2072,-0.5181 0.011,-1.2293 0.4059,-1.6238 0.096,-0.096 0.3103,0.096 0.406,0 0.1353,-0.1354 0.2706,-1.0826 0.406,-1.2179 1.3577,-1.3577 2.8947,-0.8252 4.4655,-1.2179 2.2597,-0.5649 7.4044,-0.9662 9.3369,0 0.4841,0.2421 1.093,-0.1061 1.6238,0 1.6336,0.3268 0.1865,0.2963 1.2179,0.8119 0.5603,0.2802 1.4736,0.1279 2.0297,0.406 0.3424,0.1712 0.4566,0.6698 0.8119,0.8119 1.5205,0 0.8548,-0.1815 2.0298,0.406"
         id="path41" />
      <path
         style="fill:#d4aa00;fill-opacity:0;stroke:#5823ff;stroke-width:5.02299;stroke-linecap:square;stroke-miterlimit:0;stroke-dasharray:none;stroke-opacity:1;paint-order:fill markers stroke"
         d="m 2162.9229,1561.2991 c 1.4762,0.1802 7.3448,1.1801 8.525,0 0.1914,-0.1914 -0.1914,-0.6206 0,-0.812 0.096,-0.096 0.3309,0.1126 0.406,0 1.2377,-0.2873 0.1564,-1.1247 0.4059,-1.6238 0.2365,-0.4729 0.5755,-0.7449 0.8119,-1.2178 0.1705,-0.3411 0.1828,-1.8066 0.406,-2.0298 0.096,-0.096 0.3102,0.096 0.4059,0 0.406,-0.406 -0.4059,-2.0298 0,-2.4357 0.096,-0.096 0.3103,0.096 0.406,0 0.5133,-0.5134 0.5353,-1.4766 0.8119,-2.0298 0.8447,-1.6895 -0.028,0.434 0.8119,-0.4059 0.1353,-0.1354 0.2706,-1.0826 0.406,-1.2179 0.3449,-0.345 0.7814,-0.5937 1.2178,-0.8119 0.2421,-0.1211 0.6206,0.1914 0.8119,0 0.096,-0.096 -0.096,-0.3103 0,-0.406 0.3074,-0.3073 1.2022,-0.3216 1.6238,-0.4059 3.418,-0.6836 0.013,-0.01 1.6239,-0.8119 0.4311,-0.2156 1.6941,0.1118 2.0297,0 0.1284,-0.043 -0.1327,-0.3795 0,-0.406 1.4252,-0.285 3.3754,0 4.8715,0"
         id="path42" />
      <path
         style="fill:#d4aa00;fill-opacity:0;stroke:#5823ff;stroke-width:5.02299;stroke-linecap:square;stroke-miterlimit:0;stroke-dasharray:none;stroke-opacity:1;paint-order:fill markers stroke"
         d="m 2189.7158,1546.6847 c 7.7855,0.5334 15.855,-0.8758 23.5454,0.406 0.4224,0.07 3.1675,0.3258 3.2476,0.4059 0.096,0.096 -0.121,0.3455 0,0.406 0.9146,0.4573 0.3033,-0.051 1.2179,0.4059 0.8634,0.4318 2.3241,-0.3078 3.2476,0 0.3631,0.1211 0.4488,0.6909 0.8119,0.8119 1.3747,0.4583 3.0569,0.6545 4.4655,1.2179 0.1777,0.071 0.2244,0.3454 0.4059,0.406 0.6419,0.2139 1.3664,-0.1327 2.0298,0 0.6973,0.1394 1.0643,0.6253 1.6238,0.8119 0.2568,0.085 0.5552,-0.086 0.8119,0 0.1816,0.061 0.2244,0.3454 0.406,0.4059 0.2567,0.086 0.5493,-0.066 0.8119,0 0.5871,0.1468 1.0497,0.6206 1.6238,0.8119 1.6705,0.5568 3.2771,0.4207 4.8715,1.2179 0.9213,0.4607 1.6088,0.8044 2.4357,1.2178 0.047,0.023 2.0145,0.3907 2.0298,0.406 0.096,0.096 -0.1126,0.3309 0,0.406 0.7346,0.4897 2.0583,0.8261 2.8416,1.2178 0.047,0.024 2.0145,0.3907 2.0298,0.406 0.034,0.034 0.406,0.698 0.406,0.8119"
         id="path43" />
      <path
         style="fill:#d4aa00;fill-opacity:0;stroke:#5823ff;stroke-width:5.02299;stroke-linecap:square;stroke-miterlimit:0;stroke-dasharray:none;stroke-opacity:1;paint-order:fill markers stroke"
         d="m 2248.5792,1559.2693 c 2.0195,0.8321 1.0631,2.9381 1.6238,4.0595 0.061,0.1211 0.3103,-0.096 0.4059,0 0.1914,0.1914 -0.1913,0.6206 0,0.8119 0.1625,0.1625 0.5159,0.2199 0.8119,0.8119 0.1624,0.3248 -0.1623,0.8931 0,1.2179 0.086,0.1712 0.3204,0.2348 0.406,0.406 0.121,0.242 -0.1914,0.6205 0,0.8119 0.096,0.096 0.3103,-0.096 0.406,0 0.2575,0.2575 -0.169,1.2858 0,1.6238 0.085,0.1711 0.3203,0.2348 0.4059,0.4059 0.3248,0.6496 -0.3248,1.7862 0,2.4358 0.6021,1.2041 1.1458,2.6255 1.6238,4.0595 0.203,0.6089 -0.203,1.4208 0,2.0298 0.061,0.1815 0.3596,0.2203 0.406,0.4059 0.473,1.892 0,5.7605 0,7.7131 0,1.9492 0.4513,5.5019 0,7.3072 -0.3477,1.3909 -0.406,2.5664 -0.406,4.0596"
         id="path44" />
    </g>
  </g>
</svg>
