<?xml version="1.0" encoding="UTF-8" standalone="no"?>
<!-- Created with Inkscape (http://www.inkscape.org/) -->

<svg
   version="1.1"
   id="svg1"
   width="3200"
   height="2400"
   viewBox="0 0 3200 2400"
   sodipodi:docname="gandalf-grey-path.svg"
   inkscape:version="1.3.2 (091e20e, 2023-11-25, custom)"
   xmlns:inkscape="http://www.inkscape.org/namespaces/inkscape"
   xmlns:sodipodi="http://sodipodi.sourceforge.net/DTD/sodipodi-0.dtd"
   xmlns="http://www.w3.org/2000/svg"
   xmlns:svg="http://www.w3.org/2000/svg">
  <defs
     id="defs1" />
  <sodipodi:namedview
     id="namedview1"
     pagecolor="#ffffff"
     bordercolor="#999999"
     borderopacity="1"
     inkscape:showpageshadow="2"
     inkscape:pageopacity="0"
     inkscape:pagecheckerboard="0"
     inkscape:deskcolor="#d1d1d1"
     showgrid="false"
     inkscape:zoom="0.30791667"
     inkscape:cx="959.67523"
     inkscape:cy="985.65628"
     inkscape:window-width="1920"
     inkscape:window-height="974"
     inkscape:window-x="-11"
     inkscape:window-y="-11"
     inkscape:window-maximized="1"
     inkscape:current-layer="g1" />
  <g
     inkscape:groupmode="layer"
     inkscape:label="Image"
     id="g1">
    <g
       id="g2">
      <path
         style="fill:#d4aa00;fill-opacity:0;stroke:#06bd3d;stroke-width:5.02299;stroke-linecap:square;stroke-miterlimit:0;stroke-dasharray:none;stroke-opacity:1;paint-order:fill markers stroke"
         d="m 1508.1191,653.99188 c -0.1557,0.87967 2.4531,1.25268 2.8417,2.02977 0.061,0.12103 -0.096,0.31027 0,0.40596 0.096,0.0957 0.3102,-0.0957 0.4059,0 0.096,0.0957 -0.096,0.31027 0,0.40595 0.3819,0.38193 2.414,-0.0217 2.8417,0.40595 0.096,0.0957 -0.121,0.34544 0,0.40596 0.3631,0.18155 0.9308,-0.28705 1.2179,0 0.096,0.0957 -0.096,0.31027 0,0.40595 0.1913,0.19137 0.6205,-0.19137 0.8119,0 0.096,0.0957 -0.096,0.31027 0,0.40596 0.1876,0.18765 0.9727,-0.12256 1.2178,0 0.1712,0.0856 0.2244,0.34543 0.406,0.40595 1.2082,0.40275 6.252,0.12163 7.3071,-0.40595 0.4872,-0.24358 0.7308,-0.97429 1.2179,-1.21787 0.2421,-0.12103 0.6206,0.19137 0.8119,0 0.7498,-0.74974 1.1251,-1.71201 2.0298,-2.43572 0.6292,-0.5034 2.0201,-1.19852 2.4357,-2.02977 0.061,-0.12103 -0.096,-0.31027 0,-0.40595 0.986,-0.98599 0.5961,0.12071 1.2179,-0.81191 0.871,-1.30657 1.7955,-2.3732 2.4357,-3.65359 0.2779,-0.55576 1.4852,-0.80693 2.0298,-1.62381 0.2373,-0.35605 0.1033,-0.91529 0.4059,-1.21787 0.1914,-0.19136 0.5699,0.12104 0.8119,0 0.5437,-0.27185 0.5625,-0.96845 0.8119,-1.21786 0.096,-0.0957 0.3103,0.0957 0.406,0 0.1914,-0.19137 -0.121,-0.56984 0,-0.81191 0.2797,-0.55944 0.9521,-0.54611 1.2179,-0.8119 0.4338,-0.43382 -0.5771,-0.81191 0.4059,-0.81191"
         id="path9" />
      <path
         style="fill:#d4aa00;fill-opacity:0;stroke:#06bd3d;stroke-width:5.02299;stroke-linecap:square;stroke-miterlimit:0;stroke-dasharray:none;stroke-opacity:1;paint-order:fill markers stroke"
         d="m 1541.0014,645.06089 c 0.4421,4.26659 -0.6062,8.74732 0,12.99053 0.2203,1.54259 0.8545,3.01233 1.2178,4.4655 0.1274,0.50943 -0.1273,1.11438 0,1.62381 0.3815,1.52607 1.3734,2.34082 2.0298,3.65359 0.6481,1.29616 0.035,1.32279 0.4059,2.43572 0.1624,0.48715 1.0555,0.73072 1.2179,1.21786 0.5859,1.75763 -0.7761,-0.1492 0.406,1.62382 0.2123,0.31846 0.6407,0.46958 0.8119,0.81191 0.121,0.24206 -0.1211,0.56984 0,0.81191 0.1711,0.34233 0.6611,0.46011 0.8119,0.8119 0.5582,1.30255 1.212,4.05072 2.0297,5.27741 0.5359,0.80377 1.7204,2.72533 2.0298,3.65358 0.1218,0.36536 -0.1218,0.8525 0,1.21786 0.5787,1.73614 1.2543,3.32046 2.0298,4.87145 0.4472,0.89443 0.071,0.953 0.4059,1.62382 0.1712,0.34233 0.6408,0.46957 0.8119,0.81191 0.2421,0.48405 0.4461,1.66396 0.812,2.02977 0.096,0.0957 0.3102,-0.0957 0.4059,0 0.2871,0.28705 -0.1284,0.83274 0,1.21786 0.1836,0.55089 1.2374,2.43572 1.6238,2.43572"
         id="path10" />
      <path
         style="fill:#d4aa00;fill-opacity:0;stroke:#06bd3d;stroke-width:5.02299;stroke-linecap:square;stroke-miterlimit:0;stroke-dasharray:none;stroke-opacity:1;paint-order:fill markers stroke"
         d="m 1558.4574,699.86468 c 0.3638,3.04529 0.7592,6.3002 0,9.33694 -0.2484,0.99341 0.083,1.05256 -0.406,2.02977 -0.1948,0.38962 0.13,1.23397 0,1.62382 -0.2732,0.81965 -1.609,1.5943 -2.0297,2.43572 -0.2082,0.4163 -0.1979,1.20753 -0.406,1.62382 -1.2042,2.40849 -3.0619,4.38984 -4.4655,6.49526 -0.5394,0.8091 -0.121,1.74482 -0.8119,2.43573 -0.096,0.0957 -0.3103,-0.0957 -0.406,0 -0.3666,0.3666 -0.57,1.54608 -0.8119,2.02977 -0.1711,0.34233 -0.6908,0.44881 -0.8119,0.81191 -0.4801,1.44045 0.6579,0.2054 -0.4059,1.62381 -0.3581,0.47743 -1.3381,1.05233 -1.6238,1.62382 -0.1776,0.35519 -0.2312,1.36168 -0.406,1.62381 -0.1678,0.25177 -0.5601,0.23812 -0.8119,0.40596 -0.9099,0.6066 -0.5318,1.34366 -1.2179,2.02977 -0.096,0.0957 -0.3102,-0.0957 -0.4059,0 -0.3548,0.3548 -0.2051,1.62793 -0.406,2.02977 -0.1353,0.27063 -0.6766,0.13532 -0.8119,0.40595 -0.121,0.24207 0.121,0.56985 0,0.81191 -0.8088,1.61758 -0.8123,0.002 -1.2178,1.62382 -0.5478,2.19084 1.3457,-1.16038 -0.812,2.43572 -0.3938,0.65648 -0.9325,0.0987 -1.2178,0.81191 -0.2563,0.64064 0.082,1.54187 -0.406,2.02977 -0.8399,0.83993 0.033,-1.28353 -0.8119,0.40595 -0.4205,0.84108 -1.3011,1.87368 -1.6238,2.84168 -0.086,0.25675 0.121,0.56984 0,0.81191 -0.3875,0.77498 -1.1432,1.30883 -1.6238,2.02977 -0.4314,0.64711 -1.0371,3.47283 -1.2179,3.65358 -0.096,0.0957 -0.3102,-0.0957 -0.4059,0 -0.1672,0.16722 -0.3158,0.94723 -0.406,1.21787 -0.811,2.43305 0.1039,-1.01964 -1.2178,1.62381 -0.1624,0.32477 0.1623,0.8931 0,1.21786 -0.6172,1.23433 -1.7984,2.3788 -2.4358,3.65359 -0.061,0.12103 0,0.27064 0,0.40595 -0.1353,0.27064 -0.2244,0.56985 -0.4059,0.81191 -0.3445,0.45929 -0.9611,0.70437 -1.2179,1.21786 -0.121,0.24207 0.1211,0.56985 0,0.81191 -0.1711,0.34233 -0.6407,0.46958 -0.8119,0.81191 -0.061,0.12103 0,0.27064 0,0.40595 -0.1353,0.27064 -0.2381,0.56015 -0.4059,0.81191 -0.2123,0.31846 -0.6408,0.46958 -0.812,0.81191 -0.061,0.12103 0.1211,0.34544 0,0.40595 -0.242,0.12104 -0.5698,-0.12103 -0.8119,0 -0.242,0.12104 0.1914,0.62054 0,0.81191 -0.5412,0.54127 -0.4059,-0.67659 -0.4059,0.40596"
         id="path11" />
      <path
         style="fill:#d4aa00;fill-opacity:0;stroke:#06bd3d;stroke-width:5.02299;stroke-linecap:square;stroke-miterlimit:0;stroke-dasharray:none;stroke-opacity:1;paint-order:fill markers stroke"
         d="m 1522.3275,771.31259 c -0.4643,1.05361 0.3636,2.56262 0,3.65358 -0.3104,0.93104 -0.8727,0.58814 -1.2179,1.62382 -0.086,0.25675 0.121,0.56984 0,0.81191 -0.1712,0.34233 -0.6407,0.46957 -0.8119,0.8119 -0.2156,0.43114 -0.044,1.26194 -0.406,1.62382 -0.096,0.0957 -0.3102,-0.0957 -0.4059,0 -0.096,0.0957 0.061,0.28492 0,0.40595 -0.4132,0.82638 -1.2357,1.6595 -1.6238,2.43573 -0.2398,0.47958 -0.9193,0.77003 -1.2179,1.21786 -0.8944,0.20444 -0.2146,0.83512 -0.4059,1.21786 -0.1712,0.34233 -0.6408,0.46958 -0.8119,0.81191 -0.4402,0.88023 -0.8624,2.08017 -1.6239,2.84168 -0.2139,0.21395 -0.5979,0.19199 -0.8119,0.40595 -0.1913,0.19137 0.1211,0.56985 0,0.81191 -0.8447,1.68948 0.028,-0.43398 -0.8119,0.40595 -0.2353,0.23529 -0.5766,1.38853 -0.8119,1.62382 -0.5413,0.54127 -0.3895,-0.86116 -0.8119,0.40595 -0.086,0.25675 0.086,0.55516 0,0.81191 -0.121,0.3631 -0.6407,0.46958 -0.8119,0.81191 -0.061,0.12103 0.096,0.31027 0,0.40595 -0.2494,0.24941 -0.946,0.2682 -1.2179,0.81191 -0.1705,0.34116 -0.17,1.38789 -0.4059,1.62382 -0.096,0.0957 -0.2707,0 -0.406,0 -0.1353,0.13532 -0.2998,0.24672 -0.4059,0.40595 -0.2374,0.35605 -0.1686,0.86182 -0.406,1.21786 -0.2123,0.31846 -0.6407,0.46958 -0.8119,0.81191 -0.121,0.24207 0.086,0.55516 0,0.81191 -0.1818,0.54534 -1.6647,1.25879 -2.0298,1.62382 -0.8865,0.88651 -0.084,0.6591 -0.4059,1.62381 -0.2151,0.64527 -1.3172,1.01052 -1.6238,1.62382 -0.615,1.22988 -1.1673,2.50356 -2.0298,3.65358 0.041,0.80422 -0.5979,0.192 -0.8119,0.40596 -0.51,0.51 -0.1156,1.44904 -0.406,2.02977 -0.06,0.12103 -0.2933,-0.0751 -0.4059,0 -0.3185,0.2123 -0.5996,0.49345 -0.8119,0.81191 -0.1985,0.29764 -0.1745,1.3923 -0.406,1.62381 -0.096,0.0957 -0.3102,-0.0957 -0.4059,0 -0.2472,0.24714 -0.9301,3.48403 -1.2179,4.05954 -0.8447,1.68948 0.028,-0.43398 -0.8119,0.40595 -0.582,0.58203 -0.1798,1.64429 -0.406,2.43573 0.2447,0.73475 -0.6576,0.755 -0.8119,1.21786 -0.085,0.25675 0.086,0.55516 0,0.81191 -0.061,0.18155 -0.3075,0.24186 -0.4059,0.40595 -0.055,0.091 -0.902,2.52581 -1.2179,2.84168 -0.096,0.0957 -0.3102,-0.0957 -0.4059,0 -0.1582,0.15818 0,1.37609 0,1.62382"
         id="path13" />
      <path
         style="fill:#d4aa00;fill-opacity:0;stroke:#06bd3d;stroke-width:5.02299;stroke-linecap:square;stroke-miterlimit:0;stroke-dasharray:none;stroke-opacity:1;paint-order:fill markers stroke"
         d="m 1492.6928,828.14614 c 1.3838,0.47548 -0.5038,2.08595 0,2.84168 1.2021,1.80303 3.5038,3.33301 5.6834,4.05954 0.6009,0.2003 1.4074,-0.12447 2.0298,0 1.5535,0.3107 2.613,1.33453 4.0595,1.62382 1.2226,0.24452 2.1783,0.27724 3.2476,0.81191 1.2932,0.6466 3.4872,-0.46142 4.8715,0 0.1815,0.0605 0.2183,0.36842 0.4059,0.40595 2.3926,0.47851 4.8851,0.002 7.3072,0.40595 1.9179,0.31966 3.2977,0.40596 5.2774,0.40596 0.1353,0 0.3103,-0.0957 0.406,0 0.096,0.0957 -0.096,0.31027 0,0.40595 0.3379,0.33797 2.5385,0 3.2476,0"
         id="path14" />
      <path
         style="fill:#d4aa00;fill-opacity:0;stroke:#06bd3d;stroke-width:5.02299;stroke-linecap:square;stroke-miterlimit:0;stroke-dasharray:none;stroke-opacity:1;paint-order:fill markers stroke"
         d="m 1529.6346,839.51286 c 3.2477,0 6.4953,0 9.7429,0"
         id="path15" />
      <path
         style="fill:#d4aa00;fill-opacity:0;stroke:#06bd3d;stroke-width:5.02299;stroke-linecap:square;stroke-miterlimit:0;stroke-dasharray:none;stroke-opacity:1;paint-order:fill markers stroke"
         d="m 1539.7835,839.1069 c -0.5413,0 -1.0931,-0.10615 -1.6238,0 -0.8916,0.17832 -2.7075,1.96266 -3.6536,2.43573 -0.4311,0.21556 -1.2619,0.0441 -1.6238,0.40595 -0.096,0.0957 0,0.27064 0,0.40595 -0.1353,0.13532 -0.2467,0.29981 -0.406,0.40596 -1.3634,0.90896 -2.7453,1.7786 -4.0595,2.43572 -1.6895,0.84474 0.434,-0.028 -0.406,0.81191 -0.6531,0.65317 -1.6695,0.30113 -2.4357,0.81191 -0.6634,0.44229 -2.2456,1.73174 -2.8417,2.02977 -0.242,0.12103 -0.6205,-0.19137 -0.8119,0 -0.096,0.0957 0.096,0.31027 0,0.40595 -0.096,0.0957 -0.2849,-0.0605 -0.4059,0 -0.9006,0.45029 -1.6081,1.47797 -2.4358,2.02977 -0.3875,0.25839 -1.1541,0.49878 -1.6238,0.81191 -0.5548,0.36987 -0.5813,0.75669 -0.8119,1.21786 -0.2797,0.55945 -0.9521,0.54612 -1.2178,0.81191 -0.2917,0.29168 -0.489,1.70683 -0.812,2.02977 -0.096,0.0957 -0.3102,-0.0957 -0.4059,0 -0.096,0.0957 0.061,0.28492 0,0.40595 -0.1442,0.28832 -0.6678,0.5236 -0.8119,0.81191 -0.3381,0.67619 -0.3048,2.74053 -0.8119,3.24763 -0.096,0.0957 -0.3103,-0.0957 -0.406,0 -0.3603,0.36037 -0.1549,1.93362 -0.4059,2.43573 -0.4297,0.8594 -0.5711,1.47244 -0.8119,2.43572 -0.1899,0.75954 -0.8949,2.3033 -1.2179,2.84168 -0.3869,0.64475 -1.2179,0.8023 -1.2179,1.62382 0,0.24715 -1.7802,3.56053 -2.0297,4.05954 -0.4872,0.97429 -1.9486,1.46143 -2.4358,2.43572 -0.4736,0.94723 0.5075,0.81191 -0.4059,0.81191"
         id="path16" />
      <path
         style="fill:#d4aa00;fill-opacity:0;stroke:#06bd3d;stroke-width:5.02299;stroke-linecap:square;stroke-miterlimit:0;stroke-dasharray:none;stroke-opacity:1;paint-order:fill markers stroke"
         d="m 1502.8417,876.86062 c -1.8526,3.12109 -3.9448,4.6265 -6.0893,7.30718 -0.189,0.23627 -0.192,0.59795 -0.406,0.8119 -0.1914,0.19137 -0.6205,-0.19136 -0.8119,0 -0.3009,0.3009 0.098,1.11995 -0.4059,1.62382 -0.3858,0.38575 -1.7795,0.46687 -2.0298,1.21786 -0.086,0.25675 0.086,0.55516 0,0.81191 -0.2319,0.69573 -1.6405,1.44583 -2.0298,2.02977 -0.6952,1.04278 -1.0669,2.69076 -2.0298,3.65359 -0.096,0.0957 -0.3102,-0.0957 -0.4059,0 -1.0406,0.11408 -0.1492,0.87553 -0.406,1.21786 -1.3467,1.79561 -1.0831,0.54237 -2.0297,2.43572 -0.6355,1.2709 -3.253,6.08931 -4.8715,6.08931"
         id="path17" />
      <path
         style="fill:#d4aa00;fill-opacity:0;stroke:#06bd3d;stroke-width:5.02299;stroke-linecap:square;stroke-miterlimit:0;stroke-dasharray:none;stroke-opacity:1;paint-order:fill markers stroke"
         d="m 1480.9202,903.65359 c 0,0.54127 0,1.08254 0,1.62381 -0.1354,0.27064 -0.3562,0.51345 -0.406,0.81191 -0.1313,0.7881 -0.2274,5.407 0,6.08931 0.2702,0.81049 1.3808,1.05751 1.6238,2.02977 0.1042,0.41674 0.094,1.31147 0.406,1.62382 0.096,0.0957 0.3103,-0.0957 0.4059,0 0.2543,0.25422 -0.016,0.79549 0.406,1.21786"
         id="path18" />
      <path
         style="fill:#d4aa00;fill-opacity:0;stroke:#06bd3d;stroke-width:5.02299;stroke-linecap:square;stroke-miterlimit:0;stroke-dasharray:none;stroke-opacity:1;paint-order:fill markers stroke"
         d="m 1482.9499,917.86198 c 1.1791,3.08156 2.5454,3.24763 8.5251,3.24763 1.0584,0 4.5476,0.32377 5.2774,-0.40595 0.096,-0.0957 -0.096,-0.31027 0,-0.40596 0.287,-0.28705 0.8547,0.18155 1.2178,0 0.1211,-0.0605 -0.096,-0.31027 0,-0.40595 0.406,-0.40596 2.0298,0.40595 2.4358,0 0.096,-0.0957 -0.096,-0.31027 0,-0.40596 0.1192,-0.11927 3.6677,-1.89917 4.0595,-2.02977 0.7277,-0.24258 2.1748,-0.0725 2.8417,-0.40595 0.121,-0.0605 -0.096,-0.31027 0,-0.40595 0.287,-0.28706 0.824,0.0984 1.2178,0 1.1053,-0.27633 1.6884,-0.92953 2.8417,-1.21787 0.6271,-0.15678 1.4188,0.20367 2.0298,0 0.1815,-0.0605 0.2244,-0.34543 0.4059,-0.40595 0.3271,-0.10901 5.4306,-0.1264 5.6834,0 0.9053,0.45264 1.9613,0.77766 2.8417,1.21786 0.5118,0.2559 1.4852,0.13371 2.0297,0.40596 0.1712,0.0856 0.2244,0.34543 0.406,0.40595 0.5806,0.19352 1.8898,-0.091 2.4357,0 1.1155,0.18591 1.5884,0.79419 2.4357,1.21786 0.9698,0.48489 5.2431,0 6.4953,0 4.8715,0 9.7429,0 14.6144,0"
         id="path19" />
      <path
         style="fill:#0de9e6;fill-opacity:0;stroke:#06bd3d;stroke-width:5.02299;stroke-linecap:square;stroke-miterlimit:0;paint-order:fill markers stroke;stroke-opacity:1"
         d="m 822.11927,662.5179 c 3.30725,1.89029 4.16854,4.09365 7.46337,5.74106 0.17117,0.0856 0.43879,-0.13532 0.57411,0 0.13532,0.13532 -0.13532,0.43879 0,0.57411 0.13532,0.13531 0.38274,0 0.57411,0 0.19136,0.38273 0.27152,0.84563 0.5741,1.14821 0.64433,0.64433 12.36468,0.5741 14.35264,0.5741"
         id="path1" />
      <path
         style="fill:#0de9e6;fill-opacity:0;stroke:#06bd3d;stroke-width:5.02299;stroke-linecap:square;stroke-miterlimit:0;paint-order:fill markers stroke;stroke-opacity:1"
         d="m 845.60216,670.63599 c 2.38,0.0826 4.84695,0.21523 6.90122,-0.81191 0.36309,-0.18155 0.83274,0.12838 1.21786,0 0.98991,-0.32997 2.20061,-1.20501 3.24763,-1.62381 0.25128,-0.10052 0.62054,0.19136 0.81191,0 0.0957,-0.0957 -0.0957,-0.31027 0,-0.40596 0.19137,-0.19137 0.56063,0.10051 0.81191,0 0.26585,-0.10634 6.28436,-3.03673 6.49526,-3.24763 0.0957,-0.0957 -0.11259,-0.33089 0,-0.40595 4.40638,-2.93759 -1.06426,1.14106 2.02977,-0.40596 0.12103,-0.0605 -0.0957,-0.31027 0,-0.40595 1.00641,-1.00641 1.06875,-0.57718 2.02977,-1.21786 0.25176,-0.16785 0.13532,-0.67659 0.40595,-0.81191 0.81191,-0.40596 0.60893,0.20297 1.21787,0 0.77898,-0.25966 1.3546,-0.88028 2.02977,-1.21786 0.61714,-0.30858 1.41262,-0.0974 2.02977,-0.40596 0.34233,-0.17116 0.46957,-0.64074 0.8119,-0.81191 0.24207,-0.12103 0.54653,0.0531 0.81191,0 1.26061,-0.25212 2.91374,-0.64496 4.05954,-1.21786 1.17851,-0.58925 4.45309,-1.61141 5.2774,-2.43572 0.0957,-0.0957 -0.11259,-0.3309 0,-0.40596 1.55842,-1.03894 3.70103,-1.24158 5.27741,-2.02977 0.7176,-0.3588 1.75713,-0.70891 2.43572,-1.21786 0.30619,-0.22964 0.46958,-0.64074 0.81191,-0.81191 0.81191,-0.40595 0.60893,0.20298 1.21786,0 2.43305,-0.81101 -1.01963,0.10387 1.62382,-1.21786 0.88112,-0.44056 1.88596,-0.57298 2.84167,-0.81191 0.39384,-0.0984 0.93081,0.28706 1.21787,0 0.0957,-0.0957 -0.0957,-0.31027 0,-0.40595 0.12682,-0.12683 1.55928,0.0184 1.62381,0 0.70067,-0.20019 1.33846,-0.58147 2.02977,-0.81191 1.10616,-0.36872 2.89114,0.16692 4.05954,0 0.42361,-0.0605 0.79577,-0.3356 1.21786,-0.40595 3.15181,-0.5253 6.5676,0.35281 9.7429,0 0.30073,-0.0334 0.51836,-0.33257 0.81191,-0.40596 0.99541,-0.24885 2.23883,0.14412 3.24763,0 1.64769,-0.23538 3.25108,-0.54184 4.87145,-0.8119 1.84035,-0.30673 3.85489,0.36569 5.68335,0 0.83921,-0.16785 1.59652,-0.64407 2.43573,-0.81191 0.78068,-0.15614 1.65504,0.15613 2.43572,0 1.23069,-0.24614 2.38743,-0.65364 3.65359,-0.81191 1.79517,-0.2244 3.92764,0.43893 5.68335,0 0.29355,-0.0734 0.52486,-0.31027 0.81191,-0.40595 1.447,-0.48234 3.37135,0.30002 4.87145,0 0.2967,-0.0593 0.51836,-0.33257 0.81191,-0.40596 1.01859,-0.25465 2.21703,0.20612 3.24763,0 0.2967,-0.0593 0.5152,-0.34661 0.81191,-0.40595 2.54841,-0.50968 5.15529,0.2335 7.71312,-0.40596 0.89151,-0.22287 1.95017,0.22288 2.84168,0 0.18565,-0.0464 0.2183,-0.36842 0.40595,-0.40595 1.32691,-0.26538 2.71308,0.13465 4.05954,0 2.43634,-0.24363 4.8863,-0.81438 7.30717,-1.21786 1.05429,-0.17572 2.1886,0.15129 3.24764,0 4.94631,-0.70662 10.01143,-0.40596 15.02029,-0.40596 1.78593,0 3.77533,-0.34509 5.27743,0.40596 0.242,0.12103 0.6205,-0.19137 0.8119,0 0.096,0.0957 -0.096,0.31027 0,0.40595 0.9853,0.98532 2.8775,1.03281 4.0595,1.62382 0.6496,0.32476 0.9743,1.29905 1.6238,1.62381 0.2191,0.10954 1.7898,0.57192 2.0298,0.81191 0.096,0.0957 -0.061,0.28492 0,0.40596 0.3109,0.62175 0.7234,0.31746 1.2179,0.8119 0.096,0.0957 -0.096,0.31027 0,0.40596 0.2139,0.21395 0.5979,0.192 0.8119,0.40595 0.4946,0.49467 0.7232,1.53511 1.2178,2.02977 0.214,0.21396 0.598,0.192 0.8119,0.40596 0.4792,0.4791 0.471,1.78078 1.2179,2.02977 0.2568,0.0856 0.5867,-0.15013 0.8119,0 0.5035,0.33568 0.4488,1.13968 0.8119,1.62381 0.5741,0.76548 1.4557,1.2643 2.0298,2.02977 0.3348,0.44635 0.096,1.15959 0.406,1.62382 0.1678,0.25176 0.644,0.15419 0.8119,0.40595 0.4996,0.74946 0.7182,1.68627 1.2178,2.43573 0.2123,0.31845 0.6408,0.46957 0.8119,0.8119 0.06,0.12104 0,0.27064 0,0.40596 0.1353,0.27063 0.2381,0.56014 0.406,0.81191 0.4837,0.72564 1.3062,1.64161 1.6238,2.43572 0.2072,0.51802 0.1987,1.10579 0.406,1.62382 0.191,0.47756 0.9515,0.774 1.2178,1.21786 0.3114,0.51892 0.5006,1.10489 0.8119,1.62381 0.5318,0.88625 1.5544,1.48488 2.0298,2.43573 0.2704,0.54086 0.7326,1.54451 1.2179,2.02977 0.4279,0.42791 1.1202,0.47622 1.6238,0.81191 1.7708,1.18053 1.5523,2.02977 4.0595,2.02977"
         id="path2" />
      <path
         style="fill:#0de9e6;fill-opacity:0;stroke:#06bd3d;stroke-width:5.02299;stroke-linecap:square;stroke-miterlimit:0;paint-order:fill markers stroke;stroke-opacity:1"
         d="m 1039.7053,676.87055 c 0.756,-1.85488 4.9145,-1.02199 6.3152,-1.72232 0.6131,-0.30659 0.535,-0.84163 1.1482,-1.14821 0.3423,-0.17117 0.7851,0.12103 1.1482,0 1.1853,-0.39511 1.3289,-1.23858 2.2964,-1.72232 0.8292,-0.4146 3.7696,-0.32495 4.0188,-0.57411 0.1353,-0.13531 -0.1354,-0.43878 0,-0.5741 0.2706,-0.27064 0.8058,0.17116 1.1482,0 1.1195,-0.55978 2.1397,-0.49576 3.4446,-1.14821 0.1712,-0.0856 -0.1712,-0.48853 0,-0.57411 0.3423,-0.17116 0.7851,0.12103 1.1482,0 0.7655,-0.25516 1.5613,-0.78065 2.2964,-1.14821 0.7655,-0.38274 2.1051,0.38274 2.8706,0 1.5149,-0.75746 5.5065,-1.47771 7.4633,-1.72232 1.1394,-0.14241 2.4177,0.5135 3.4447,0 1.4035,-0.70174 2.2253,-0.5741 4.0187,-0.5741 5.6117,0 11.1092,0.11837 16.6491,-0.57411 1.7919,-0.22399 3.9831,0.43947 5.741,0 0.2626,-0.0656 0.3174,-0.48852 0.5741,-0.5741 1.9673,-0.65577 5.3491,0 7.4634,0 5.9324,0 11.8649,0 17.7973,0 3.4198,0 17.6976,-0.60732 19.5196,0 1.1758,0.39193 2.2487,0.84923 3.4446,1.14821 0.4848,0.1212 1.7945,-0.25094 2.2964,0 2.6107,1.30533 -3.9993,0.003 2.8706,1.14821 1.8374,0.30624 4.6999,-0.80762 6.3151,0 1.7129,0.85642 2.1438,0.10537 4.0188,0.57411 0.2625,0.0656 0.332,0.45307 0.5741,0.5741 1.5766,0.78833 16.3866,-0.24332 18.3713,-0.5741 3.4016,-0.56693 6.3098,-2.95178 9.7598,-3.44464 0.9473,-0.13532 1.9628,0.30258 2.8706,0 1.198,-0.39933 1.6725,-1.32298 2.8705,-1.72232 1.0542,-0.35139 2.4031,-0.62743 3.4446,-1.14821 0.2421,-0.12103 0.3116,-0.50846 0.5741,-0.5741 0.2987,-0.0747 2.3448,0.26286 2.8706,0 1.1588,-0.57941 2.6341,-1.26078 4.0187,-1.72232 0.838,-0.27934 2.0972,0.38666 2.8705,0 0.2421,-0.12103 0.3321,-0.45307 0.5741,-0.5741 0.4213,-0.21065 4.3294,-0.31063 4.5929,-0.57411 0.1353,-0.13532 -0.1816,-0.51359 0,-0.57411 0.8832,-0.45387 1.9628,0.30258 2.8705,0 0.2568,-0.0856 0.3116,-0.50846 0.5741,-0.5741 0.557,-0.13924 1.1654,0.13924 1.7223,0 0.5113,-0.12781 1.7598,-0.87988 2.2965,-1.14821 0.3423,-0.17117 0.8775,0.27063 1.1482,0 0.1353,-0.13532 -0.1712,-0.48853 0,-0.57411 0.2102,-0.10514 2.0549,0.24151 2.2964,0 0.1353,-0.13532 -0.1712,-0.48852 0,-0.5741 1.2088,-0.60442 5.1061,-0.17109 6.3152,-0.57411 0.6545,-0.21819 1.0529,-0.98086 1.7223,-1.14821 0.5569,-0.13924 1.1653,0.13924 1.7223,0 0.2625,-0.0656 0.332,-0.45307 0.5741,-0.57411 0.3423,-0.17116 0.8059,0.17117 1.1482,0 0.7351,-0.36756 1.5309,-0.89305 2.2964,-1.14821 0.9768,-0.32558 2.4967,-0.10014 3.4447,-0.5741 1.3793,-0.6897 2.2733,-0.49369 4.0187,-1.14822 0.8013,-0.3005 1.4845,-0.87757 2.2964,-1.14821 0.9287,-0.30955 2.5865,-0.145 3.4447,-0.5741 0.1711,-0.0856 -0.1712,-0.48853 0,-0.57411 0.4528,-0.51349 1.2088,0.25675 1.7223,0 2.6205,-1.31026 5.9648,-2.12125 8.6116,-3.44463 0.77,-0.38502 2.1467,-0.21221 2.8705,-0.57411 0.8373,-0.41864 0.9184,-0.91841 1.1482,-1.14821 0.287,-0.28705 1.4353,0.28705 1.7223,0 0.1353,-0.13532 -0.1353,-0.43879 0,-0.5741 0.5153,-0.51524 2.9294,-0.63298 3.4446,-1.14822 0.1354,-0.13531 -0.1711,-0.48852 0,-0.5741 0.6847,-0.34233 1.5703,0.24206 2.2965,0 0.2567,-0.0856 0.332,-0.45307 0.5741,-0.57411 0.3423,-0.17116 0.8059,0.17117 1.1482,0 1.3438,-0.67191 2.0615,-0.68716 3.4446,-1.14821 0.5947,-0.19822 1.1528,-0.86343 1.7223,-1.14821 0.5135,-0.25675 1.1777,0.18155 1.7224,0 0.2567,-0.0856 0.3173,-0.48852 0.5741,-0.5741 1.1512,-0.38377 2.3136,-0.1971 3.4446,-0.57411 1.9934,-0.66447 3.6583,-1.77574 5.741,-2.29642 0.9198,-0.22995 2.0138,-0.14573 2.8706,-0.57411 2.4642,-1.23209 5.6288,-2.84809 8.6116,-3.44463 0.5629,-0.11259 1.1593,0.11259 1.7223,0 2.1088,-0.42177 4.2274,-1.77449 6.3151,-2.29642 1.0807,-0.27017 2.364,0.27016 3.4447,0 0.4151,-0.10379 0.7422,-0.43879 1.1482,-0.57411 2.2276,-0.74253 5.1884,0.56874 7.4634,0 2.5101,-0.62754 16.2033,-1.2968 18.3713,-0.57411 0.2568,0.0856 0.3321,0.45308 0.5741,0.57411 1.3149,0.65742 3.2221,0.23141 4.5929,0.57411 1.8789,0.46973 3.8666,1.92153 5.741,2.29642 0.9383,0.18765 1.9628,-0.30258 2.8706,0 0.2567,0.0856 0.3173,0.48852 0.5741,0.5741 1.4137,0.47124 2.0868,0.46932 3.4446,1.14821 0.4534,0.22669 1.2382,-0.16139 1.7223,0 1.3805,0.46016 2.5551,0.78231 4.0188,1.14822 2.4311,0.60779 5.9393,-0.12527 8.0375,0.5741 1.3262,0.44209 2.6668,0.87784 4.0187,1.14821 0.2585,0.0517 3.1348,-0.30981 3.4446,0 0.1353,0.13532 -0.1711,0.48853 0,0.57411 0.7669,0.38346 2.0485,-0.27401 2.8706,0 2.3635,0.78786 5.3899,0.68558 7.4633,1.72232 1.8204,0.9102 4.9435,-0.6486 6.8893,0 0.4059,0.13531 0.7422,0.43878 1.1482,0.5741 0.7279,0.24263 2.3889,-0.48164 2.8705,0 0.1353,0.13532 -0.1711,0.48852 0,0.57411 0.6847,0.34233 1.5458,-0.15013 2.2965,0 2.1291,0.42583 4.2892,1.047 6.3151,1.72231 0.5167,0.17224 1.2056,-0.17223 1.7223,0 0.8985,0.29951 1.8134,0.88393 2.8706,1.14821 1.8011,0.45028 3.9399,-0.45027 5.741,0 0.4152,0.10379 0.7331,0.47033 1.1482,0.57411 1.5916,0.39789 3.6026,0.0526 5.167,0.57411 0.2567,0.0856 0.332,0.45307 0.5741,0.5741 0.2881,0.14406 3.388,0.56782 3.4446,0.57411 2.0922,0.23246 4.2313,-0.2977 6.3152,0 0.4236,0.0605 0.7655,0.38273 1.1482,0.5741 0.5741,0.19137 1.1218,0.49905 1.7223,0.57411 8.8624,1.1078 -0.4736,-0.92334 4.0187,0.5741 1.5525,0.5175 3.55,-0.3234 5.167,0 1.7334,0.34668 3.4484,0.86179 5.167,1.14822 1.1325,0.18876 2.3307,-0.27849 3.4446,0 0.2625,0.0656 0.3071,0.52961 0.5741,0.5741 1.3213,0.22023 2.7479,-0.42361 4.0187,0 0.2568,0.0856 0.3174,0.48852 0.5741,0.57411 0.9078,0.30258 1.9233,-0.13532 2.8706,0 1.5622,0.22317 3.0244,0.97394 4.5928,1.14821 0.951,0.10566 1.9323,-0.18765 2.8705,0 0.1877,0.0375 -0.1815,0.51359 0,0.5741 1.8946,0.63152 4.4206,-0.63151 6.3152,0 0.2567,0.0856 0.332,0.45308 0.5741,0.57411 0.8429,0.42144 2.3139,-0.27832 4.0187,0.5741 0.7655,0.38274 2.1051,-0.38273 2.8706,0 0.89,0.44502 1.7931,0.87887 2.8705,1.14822 0.7426,0.18565 1.5702,-0.24207 2.2964,0 0.2568,0.0856 0.3321,0.45307 0.5741,0.5741 0.6898,0.3449 5.423,0.57411 6.8893,0.57411"
         id="path3" />
      <path
         style="fill:#0de9e6;fill-opacity:0;stroke:#06bd3d;stroke-width:5.02299;stroke-linecap:square;stroke-miterlimit:0;paint-order:fill markers stroke;stroke-opacity:1"
         d="m 820.1099,662.80496 c -0.26477,1.203 -0.79943,2.38491 -1.43526,3.44463 -0.1983,0.3305 -0.68923,0.51729 -0.86116,0.86116 -0.38795,0.77591 -0.92553,1.53182 -1.43526,2.29642 -0.0531,0.0796 0.0676,0.2194 0,0.28706 -0.14353,0.14352 -0.43058,0.14352 -0.57411,0.28705 -0.0677,0.0677 0.0677,0.21939 0,0.28705 -0.13532,0.13532 -0.43879,-0.13532 -0.57411,0 -0.15129,0.15129 -0.11588,0.44573 -0.28705,0.57411 -0.40899,0.30674 -2.16867,0.98229 -2.58347,1.14821 -0.61024,0.24409 -1.79546,-0.21391 -2.29643,0.28705 -0.0677,0.0677 0.0908,0.2568 0,0.28705 -0.74709,0.24903 -1.80334,0.13103 -2.58347,0.28706 -0.59591,0.11918 -1.08626,0.46809 -1.72232,0.5741 -0.74096,0.1235 -1.56026,-0.14723 -2.29642,0 -3.97929,0.79586 -9.37551,0.28705 -13.49148,0.28705"
         id="path4" />
      <path
         style="fill:#0de9e6;fill-opacity:0;stroke:#06bd3d;stroke-width:5.02299;stroke-linecap:square;stroke-miterlimit:0;paint-order:fill markers stroke;stroke-opacity:1"
         d="m 792.55283,674.00002 c -0.39799,0.39548 -1.77158,-0.26242 -2.29642,0 -0.24207,0.12103 -0.33204,0.45307 -0.57411,0.5741 -0.0856,0.0428 -0.21939,-0.0677 -0.28705,0 -0.40595,0.40596 0,1.14821 0,1.72232 0,0.64075 0.59214,3.63325 0.86116,4.30579 0.31082,0.77704 0.9088,1.5782 1.14821,2.29642 0.15429,0.46286 0.11574,0.97844 0.28705,1.43527 0.12114,0.32303 0.38274,0.5741 0.57411,0.86116 0.19137,0.47842 0.41116,0.94643 0.5741,1.43526 0.5915,1.7745 -0.002,1.14399 1.14822,3.15758 0.32564,0.56989 0.9507,1.12981 1.14821,1.72232 0.0605,0.18155 -0.0856,0.40294 0,0.57411 0.23881,0.47763 2.09278,2.79037 2.58347,3.44463 1.54858,2.06476 -0.31874,-0.60579 1.14821,0.86116 0.15129,0.15129 0.13577,0.42281 0.28706,0.5741 1.12986,1.12987 0.58306,0.0119 1.43526,1.14821 0.12837,0.17117 0.0957,0.47843 0.28705,0.57411 0.25675,0.12837 0.59464,-0.10661 0.86116,0 0.57981,0.23192 1.15283,1.10984 1.72232,1.43526 0.6327,0.36155 1.39142,0.47495 2.00937,0.86116 1.34001,0.83751 2.42668,1.51342 3.73169,2.29643 0.62137,0.37282 1.41096,0.50211 2.00936,0.86115 0.58018,0.34811 0.894,1.02931 1.43527,1.43527 0.41222,0.30916 0.99342,0.309 1.43526,0.5741 0.82164,0.49299 1.81167,1.14346 2.58348,1.72232 0.97684,0.73263 1.83451,1.96186 2.87053,2.58348 0.25946,0.15567 0.59052,0.15173 0.86115,0.28705 0.63558,0.31779 1.15634,1.01078 1.72232,1.43526 0.34233,0.25675 0.79217,0.33674 1.14821,0.57411 0.33778,0.22518 0.54416,0.60756 0.86116,0.86116 1.4085,1.1268 3.12509,1.82213 4.59285,2.87052 0.33034,0.23596 0.52338,0.63598 0.86116,0.86116 0.67939,0.45294 1.68404,0.68893 2.29642,1.14821 0.17116,0.12838 0.11998,0.44045 0.28705,0.57411 0.33414,0.26732 0.8,0.32539 1.14821,0.57411 0.33034,0.23595 0.54072,0.61192 0.86116,0.86115 0.1197,0.0931 2.08162,1.38775 2.58348,1.72232 0.15922,0.10615 0.40294,-0.0856 0.5741,0 0.67406,0.33703 0.9123,1.28651 1.43527,1.72232 0.49309,0.41091 1.26844,0.40729 1.72231,0.86116 0.48266,0.48266 0.53253,0.9735 1.14821,1.43526 0.24207,0.18155 0.64721,0.0731 0.86116,0.28705 0.21396,0.21396 0.13138,0.6017 0.28705,0.86116 0.57241,0.95402 3.50878,4.91354 3.73169,6.02811 0.0563,0.28148 -0.0908,0.58884 0,0.86116 0.0876,0.26289 1.40975,1.96684 1.43527,2.00937 0.53024,0.88375 -1.22847,-0.65436 0.28705,0.86116 0.0677,0.0677 0.24426,-0.0856 0.28705,0 0.0856,0.17116 -0.0605,0.39256 0,0.5741 0.25853,0.77558 0.53912,1.545 0.86116,2.29643 0.30532,0.71242 1.15341,1.35171 1.43526,2.00937 0.1922,0.44844 0.15302,0.96614 0.28706,1.43526 0.23283,0.81491 1.31782,2.43339 1.72231,3.44463 0.50053,1.25133 0.39995,2.50179 0.86116,3.73169 0.39324,1.04865 0.69336,2.13415 1.14821,3.15758 0.10992,0.24731 0.46419,0.3268 0.57411,0.57411 0.40572,0.91287 0.54525,1.92282 0.86116,2.87052 0.23622,0.70868 0.55762,1.11524 0.86116,1.72232 0.33124,0.66249 0.51418,1.60247 0.86115,2.29642 0.39728,0.79456 0.92967,1.82508 1.43527,2.58348 0.15012,0.22518 0.48852,0.31736 0.5741,0.57411 0.0605,0.18154 -0.0605,0.39255 0,0.5741 0.19889,0.59667 1.33553,1.2066 1.72232,1.72232 0.0492,0.0656 2.17684,2.78084 2.29642,2.87053 0.24207,0.18154 0.6017,0.13137 0.86116,0.28705 1.29048,0.77429 0.006,0.29339 0.86116,1.14821 0.24395,0.24395 0.59922,0.34959 0.86116,0.57411 0.41096,0.35225 0.71519,0.82344 1.14821,1.14821 0.66002,0.49501 1.58229,0.71973 2.29642,1.14821 1.73845,1.04307 -0.0176,0.0433 1.72232,1.43526 0.67171,0.53737 1.59041,0.72461 2.29642,1.14821 0.23207,0.13924 0.38274,0.38274 0.57411,0.57411 0.28705,0.19137 0.55958,0.40656 0.86116,0.5741 4.97598,2.76444 10.00161,5.29868 14.63969,8.61159 1.67668,1.19763 3.47845,2.31896 5.16695,3.44463 0.23563,0.15709 2.42464,0.98938 2.58348,1.14821 0.24394,0.24395 0.33015,0.61722 0.5741,0.86116 0.57808,0.57808 1.53095,0.57411 2.29642,0.86116 0.92643,0.34741 0.28335,0.21251 1.14822,0.86116 0.46126,0.34595 1.20397,0.36677 1.72231,0.57411 1.55504,0.62201 -0.51178,-0.13484 1.14821,0.86115 0.8301,0.49806 2.01229,0.6466 2.87053,0.86116 0.70597,0.1765 1.04801,0.87849 1.72232,1.14821 0.62364,0.24946 1.01115,0.15 1.43526,0.57411"
         id="path5" />
      <path
         style="fill:#0de9e6;fill-opacity:0;stroke:#06bd3d;stroke-width:5.02299;stroke-linecap:square;stroke-miterlimit:0;paint-order:fill markers stroke;stroke-opacity:1"
         d="m 910.14884,797.29363 c 1.04413,1.31561 6.21503,-0.63468 8.11908,0 0.3631,0.12104 0.44881,0.69088 0.81191,0.81191 1.89193,0.63065 4.57399,0.17149 6.49526,0.81191 0.3631,0.12103 0.44882,0.69088 0.81191,0.81191 2.43573,0.81191 0.81191,-0.40596 2.43573,0 6.75793,1.68948 -0.98006,-0.0561 4.05954,1.62381 3.64812,1.21605 21.82616,-1.26553 24.35723,0 0.24207,0.12104 -0.24206,0.69088 0,0.81191 0.89412,0.44706 2.29561,-0.31734 3.24764,0 0.49547,0.16516 1.94024,1.45866 2.43572,1.62382 0.5135,0.17116 1.11032,-0.17117 1.62382,0 2.03623,0.67874 4.29323,2.51362 6.49526,3.24763 1.21786,0.40595 0.81191,-0.81191 2.43572,0 0.24207,0.12103 -0.24206,0.69088 0,0.81191 1.12132,0.56066 2.85134,0.40917 4.05954,0.81191 0.7262,0.24206 0.89763,1.38175 1.62382,1.62381 0.80359,0.26787 2.6131,0.17737 3.24763,0.81191 0.19137,0.19137 -0.25675,0.72632 0,0.81191 1.54049,0.51349 3.29612,-0.39384 4.87145,0 0.37131,0.0928 0.46958,0.64074 0.81191,0.81191 0.45473,0.22736 8.94292,2.11334 10.5548,2.43572 1.06152,0.2123 2.48219,-0.76548 3.24759,0 0.1914,0.19137 -0.1913,0.62054 0,0.81191 0.6886,0.68856 5.4089,0 6.4953,0 2.3954,0 6.9354,-0.99779 8.931,0 0.3423,0.17116 0.4488,0.69087 0.8119,0.8119 3.6536,1.21787 8.525,-1.21786 12.1786,0 0.5741,0.19137 1.0826,0.54128 1.6238,0.81191 0.8119,0 1.6396,-0.15923 2.4358,0 1.7488,0.34977 9.9056,4.22232 11.3667,5.68336 1.6798,1.67987 -2.5671,-0.0657 0.8119,1.62381 1.9997,0.99985 -0.733,-2.35675 2.4357,0.81191 0.1914,0.19137 -0.1914,0.62054 0,0.81191 1.6799,1.67987 -0.066,-2.56706 1.6238,0.81191 0.5103,1.02047 1.1223,2.59091 2.4357,3.24763 1.7406,0.87027 4.1025,1.66672 5.6834,3.24763 0.4279,0.42792 0.384,1.19591 0.8119,1.62382 0.463,0.46302 2.6524,0.41505 3.2476,0.81191 0.9554,0.63691 1.4088,1.92222 2.4358,2.43572 0.4381,0.21907 3.5795,1.14384 4.0595,1.62382 0.4874,0.48736 0.6643,1.79607 1.6238,2.43572 0.524,0.34934 2.896,1.27219 3.2477,1.62382 1.3457,1.34575 2.1438,3.91358 4.0595,4.87144 1.584,0.79201 2.623,0.99918 4.0595,2.43573"
         id="path6" />
      <path
         style="fill:#0de9e6;fill-opacity:0;stroke:#06bd3d;stroke-width:5.02299;stroke-linecap:square;stroke-miterlimit:0;paint-order:fill markers stroke;stroke-opacity:1"
         d="m 1083.0852,853.31528 c 2.6849,2.01267 8.3193,1.72393 11.3668,3.24764 2.484,1.24204 4.2735,3.39028 6.4952,4.87144 0.4504,0.30025 1.2411,-0.38273 1.6238,0 0.4289,0.42892 2.0068,3.63063 2.4358,4.05954 0.1913,0.19137 0.5698,-0.12103 0.8119,0 0.7846,0.39233 2.8553,2.46297 3.2476,3.24764 0.2421,0.48412 -0.3827,1.24107 0,1.62381 0.4279,0.42791 1.1959,0.384 1.6238,0.81191 2.0396,2.03963 3.1543,5.01766 4.8715,7.30717 1.8652,2.487 -0.5194,-1.33122 2.4357,1.62382 0.1914,0.19137 -0.121,0.56984 0,0.81191 1.5362,3.07251 5.9198,4.53247 7.3072,7.30717 0.8975,1.79517 0.5039,0.25195 1.6238,0.8119 3.3789,1.68949 -0.868,-0.0561 0.8119,1.62382 1.3807,1.38076 2.7817,1.96984 4.0595,3.24763 0.7094,0.70943 1.3068,3.4254 1.6238,4.05954 0.8119,1.62382 3.2477,2.43573 4.0596,4.05954 0.242,0.48413 -0.2421,1.13969 0,1.62382 0.3423,0.68466 1.23,0.96743 1.6238,1.62381 1.7233,2.87214 3.0065,6.13363 4.8714,8.93099 0.4246,0.63692 1.1992,0.98691 1.6239,1.62382 0.1008,0.15125 0.7287,3.16448 0.8119,3.24763 0.1913,0.19137 0.6205,-0.19137 0.8119,0 0.5684,0.56842 1.2056,3.2232 1.6238,4.05954 0.3423,0.68466 1.2815,0.93915 1.6238,1.62382 0.6778,1.35555 0.3324,2.62104 0.8119,4.05954 1.9603,5.88098 -0.2341,-1.28006 1.6238,2.43572 0.9999,1.99969 -2.3567,-0.73294 0.8119,2.43572 0.1914,0.19137 0.6909,-0.24206 0.8119,0 0.2421,0.48413 -0.1711,1.11032 0,1.62382 0.2696,0.80853 1.3544,1.6272 1.6239,2.43572 0.4059,1.21787 -0.406,2.84168 0,4.05954 0.121,0.3631 0.5412,0.54128 0.8119,0.81191 0.2706,0.54127 0.6205,1.04971 0.8119,1.62382 0.2567,0.77024 -0.2568,1.66548 0,2.43572 0.121,0.3631 0.6407,0.46958 0.8119,0.81191 0.7562,1.51251 0.8966,3.41711 1.6238,4.87145 0.7004,1.40085 0.2475,2.93075 0.8119,4.05954 0.3423,0.68466 1.3818,0.89762 1.6238,1.62381 0.2679,0.8036 0.1774,2.6131 0.8119,3.24763 0.4547,0.4547 1.2381,0.46647 1.6238,1.62382 0.1712,0.5135 -0.1312,1.09871 0,1.62382 0.4633,1.85291 2.0924,3.95041 3.2477,5.68335 -0.081,1.60844 1.1959,0.384 1.6238,0.81191 0.3827,0.38274 -0.3002,1.17345 0,1.62382 1.2326,1.84888 1.5175,2.22314 2.4357,4.05954 0.5135,1.02699 1.7988,1.48035 2.4357,2.43572 0.1502,0.22518 -0.1913,0.62054 0,0.81191 0.1914,0.19137 0.6206,-0.19137 0.812,0 0.1913,0.19137 -0.1211,0.56984 0,0.81191 0.8038,1.6077 3.6934,2.8815 4.0595,3.24763 0.1914,0.19137 -0.1501,0.58672 0,0.81191 0.291,0.43658 2.5081,2.87787 3.2476,3.24763 0.2421,0.12103 0.6206,-0.19137 0.8119,0 0.406,0.40595 0.406,1.21786 0.8119,1.62381 0.1914,0.19137 0.6206,-0.19136 0.8119,0 0.1914,0.19137 -0.121,0.56985 0,0.81191 1.6895,3.37897 -0.056,-0.86796 1.6239,0.81191 0.4587,0.45876 1.019,2.64282 1.6238,3.24763 0.1913,0.19137 0.6205,-0.19137 0.8119,0 0.5741,0.57411 -0.2568,1.66548 0,2.43573 0.4362,1.30868 2.6214,1.99514 3.2476,3.2476 0.5645,1.1289 0.025,3.2477 1.6238,3.2477"
         id="path7" />
      <path
         style="fill:#0de9e6;fill-opacity:0;stroke:#06bd3d;stroke-width:5.02299;stroke-linecap:square;stroke-miterlimit:0;paint-order:fill markers stroke;stroke-opacity:1"
         d="m 1195.1285,1004.3302 c 1.9783,1.1471 0.8007,4.8602 2.4358,6.4952 0.4279,0.4279 1.1959,0.384 1.6238,0.8119 0.4202,0.4203 0.3917,2.8274 0.8119,3.2477 1.6799,1.6798 -0.066,-2.5671 1.6238,0.8119 0.4856,0.9712 -0.2556,3.0373 0,4.0595 0.4818,1.9271 1.142,3.7561 1.6238,5.6834 1.2189,4.8755 -0.5768,11.495 0.8119,17.05 0.278,1.1119 1.3923,2.3214 1.6238,3.2477 0.4933,1.973 0.1648,4.5539 0.812,6.4952 0.8361,2.5085 2.4003,4.7654 3.2476,7.3072 2.1748,6.5245 5.0888,12.8307 7.3072,19.4858 0.6323,1.8971 -0.13,4.6115 0.8119,6.4953 1.6289,3.2578 0.8966,6.919 1.6238,10.5548 0.3327,1.6633 1.1101,4.9542 1.6238,6.4952 0.121,0.3631 0.6909,0.4488 0.8119,0.8119 0.7042,2.1128 -0.3657,5.1133 0,7.3072 0.4645,2.7871 1.8228,5.3609 2.4357,8.1191 0.1174,0.5284 -0.1711,1.1103 0,1.6238 0.1211,0.3631 0.5413,0.5413 0.8119,0.8119 0.2707,0.8119 0.6712,1.5916 0.8119,2.4357 0.178,1.0679 -0.3423,2.2207 0,3.2477 0.5543,1.6628 1.201,3.1802 1.6239,4.8714 0.2625,1.0502 -0.2974,2.2068 0,3.2477 1.0881,3.8085 2.5797,7.6672 4.0595,11.3667 0.4495,1.1237 1.4248,2.0537 1.6238,3.2476 0.2225,1.3348 -0.6051,2.8492 0,4.0595 0.3423,0.6847 1.2815,0.9392 1.6238,1.6239 1.1472,2.2942 1.3557,5.147 2.4358,7.3071 0.9762,1.9524 1.4466,4.5171 2.4357,6.4953 0.1711,0.3423 0.6909,0.4488 0.8119,0.8119 0.1712,0.5135 -0.1712,1.1103 0,1.6238 0.5641,1.6925 1.6339,1.6441 2.4357,3.2476 0.3631,0.7262 -0.2567,1.6655 0,2.4358 0.7045,2.1134 2.3611,4.2789 3.2476,6.4952 0.4145,1.0361 0.023,2.4586 0.812,3.2477 0.1913,0.1913 0.6908,-0.2421 0.8119,0 0.3247,0.6495 -0.3248,1.7862 0,2.4357 2.24,4.4801 3.2476,11.6949 3.2476,17.0501"
         id="path8" />
      <path
         style="fill:#0de9e6;fill-opacity:0;stroke:#06bd3d;stroke-width:5.02299;stroke-linecap:square;stroke-miterlimit:0;paint-order:fill markers stroke;stroke-opacity:1"
         d="m 1251.9621,1204.0595 c 1.6798,3.5346 1.732,7.7293 3.2476,11.3667 2.0022,4.8054 4.214,10.0517 6.4953,14.6144 1.0888,2.1777 1.3238,5.0833 2.4357,7.3072 0.1712,0.3423 0.6909,0.4488 0.8119,0.8119 0.2568,0.7702 -0.2567,1.6654 0,2.4357 3.5461,7.0921 -1.417,-3.4393 0.8119,3.2476 0.1211,0.3631 0.6909,0.4488 0.8119,0.8119 0.8777,2.6331 0.3829,6.449 1.6239,8.931 1.5415,3.0832 4.036,9.6488 4.8714,12.9905 0.1313,0.5252 -0.1712,1.1104 0,1.6239 0.121,0.3631 0.5413,0.5412 0.8119,0.8119 0.2707,0.5412 0.6652,1.0367 0.8119,1.6238 0.1714,0.6856 -0.3549,2.5378 0,3.2476 0.4028,0.8055 1.3435,1.5948 1.6238,2.4357 0.2568,0.7703 -0.3631,1.7096 0,2.4358 0.3424,0.6846 1.2815,0.9391 1.6239,1.6238 0.7781,1.5563 0.2674,4.0499 0.8119,5.6833 0.5911,1.7734 3.5379,4.1187 4.0595,5.6834 0.8083,2.4249 -0.076,3.9457 1.6238,6.4953 0.3357,0.5035 1.3532,0.2706 1.6238,0.8119 0.2421,0.4841 -0.242,1.1397 0,1.6238 0.5135,1.027 2.0727,1.3464 2.4358,2.4357 0.4377,1.3133 0.205,3.6578 0.8119,4.8715 0.5893,1.1787 3.1529,4.3234 4.0595,5.6833 1.1754,1.7631 1.5123,3.8365 2.4357,5.6834 0.9672,1.9344 2.547,3.5814 3.2477,5.6833 0.1711,0.5135 -0.3003,1.1735 0,1.6238 0.5412,0.5413 1.0825,1.0826 1.6238,1.6239 0,0.5412 -0.3003,1.1734 0,1.6238 0.2041,0.3062 2.6477,2.0478 3.2476,3.2476 0.7372,1.4744 0.3007,4.3603 1.6238,5.6834 0.8125,0.8124 1.904,0.3089 2.4358,2.4357 0.1312,0.5251 -0.3003,1.1734 0,1.6238 0.3356,0.5035 1.1959,0.384 1.6238,0.8119 0.7616,0.7617 3.2476,3.8322 3.2476,4.8714"
         id="path12" />
      <path
         style="fill:#0de9e6;fill-opacity:0;stroke:#06bd3d;stroke-width:5.02299;stroke-linecap:square;stroke-miterlimit:0;paint-order:fill markers stroke;stroke-opacity:1"
         d="m 1314.479,1348.5791 c 5.6555,-0.3397 0.7494,2.8937 1.6238,4.0596 7.5444,10.0591 -1.0582,-1.8701 4.0596,3.2476 0.1913,0.1914 -0.1914,0.6206 0,0.8119 0.4279,0.4279 1.1203,0.4763 1.6238,0.8119 1.2738,0.8493 2.0521,2.2913 3.2476,3.2477 5.2811,4.2249 -0.5087,-0.6603 2.4357,0.8119 0.6847,0.3423 0.9869,1.1992 1.6239,1.6238 2.1282,1.4188 1.4188,0.3035 4.0595,1.6238 7.6582,3.8291 -0.1778,0.1521 3.2476,2.4357 1.2234,0.8156 3.0172,0.5814 4.0596,1.6238 0.1913,0.1914 -0.2421,0.6909 0,0.812 1.7255,0.8627 11.4048,0 13.8024,0 8.9663,0 35.1858,-1.487 41.4073,1.6238 1.3334,0.6667 3.2454,0 4.8715,0.8119 0.242,0.121 -0.1914,0.6205 0,0.8119 0.5333,0.5333 13.4691,4.7048 15.4262,5.6833 0.9458,0.4729 1.49,1.151 2.4357,1.6239 0.4842,0.242 1.1397,-0.2421 1.6239,0 1.6195,0.8098 3.2518,2.4378 4.8714,3.2476 0.4841,0.2421 1.2411,-0.3827 1.6238,0 0.1914,0.1914 -0.242,0.6909 0,0.8119 0.4841,0.2421 1.1103,-0.1712 1.6238,0 0.7261,0.242 2.8667,1.6739 3.2477,2.4357 0.121,0.2421 -0.1914,0.6206 0,0.8119 0.7203,0.7203 3.0415,0.9452 4.0595,1.6238 0.7897,0.5265 1.546,2.1392 2.4357,2.4358 0.5135,0.1711 1.1103,-0.1712 1.6238,0 2.5343,0.8447 -0.2706,0.5412 0.812,1.6238 1.375,1.375 2.6845,0.2488 4.0595,1.6238 0.1914,0.1914 -0.1914,0.6205 0,0.8119 0.1914,0.1914 0.6205,-0.1914 0.8119,0 0.1914,0.1914 0,0.5413 0,0.8119 0.8119,0.5413 1.5297,1.2614 2.4357,1.6238 0.5026,0.2011 1.1103,-0.1711 1.6238,0 1.7452,0.5818 1.9413,3.6241 3.2477,4.0596 0.5135,0.1711 1.1103,-0.1712 1.6238,0 0.3947,0.1316 3.2898,4.6149 4.0595,4.8714 0.5135,0.1712 1.2411,-0.3827 1.6238,0 0.3828,0.3828 -0.242,1.1397 0,1.6238 0.878,1.7559 1.8672,1.5154 3.2477,2.4358 1.2211,0.8141 1.1224,2.591 2.4357,3.2476 0.2421,0.121 0.6205,-0.1914 0.8119,0 1.8628,1.8628 2.2623,4.698 4.0595,6.4953 0.9202,0.9201 2.5749,1.0901 3.2477,2.4357 0.9998,1.9997 -2.3568,-0.733 0.8119,2.4357 0.3827,0.3827 1.1734,-0.3002 1.6238,0 2.107,1.4047 1.2378,1.4507 2.4357,3.2476 0.8263,1.2395 2.4213,1.1963 3.2477,2.4358 2.0953,3.1429 4.6942,3.7937 6.4952,6.4952 1.1498,1.7247 -1.8174,-0.1291 0.8119,1.6238 1.0181,0.6787 3.3393,0.9036 4.0596,1.6239 0.1913,0.1913 -0.1211,0.5698 0,0.8119 0.8976,1.7951 0.5039,0.2519 1.6238,0.8119 0.9591,0.4796 1.54,1.8386 2.4357,2.4357 0.7121,0.4747 1.8306,0.2067 2.4357,0.8119 0.1914,0.1914 -0.1913,0.6205 0,0.8119 0.69,0.69 1.6551,1.0384 2.4358,1.6238 0.6123,0.4593 0.8976,1.3818 1.6238,1.6238 0.5135,0.1712 1.1397,-0.242 1.6238,0 0.6847,0.3424 0.9869,1.1993 1.6238,1.6239 0.2252,0.1501 0.5413,0 0.8119,0 0.5413,0.2706 1.1959,0.384 1.6238,0.8119 0.1914,0.1913 -0.1913,0.6205 0,0.8119 0.6052,0.6051 1.7237,0.3372 2.4358,0.8119 0.9553,0.6369 1.5171,1.7468 2.4357,2.4357 1.218,0.9135 2.9726,1.7111 4.0595,2.4357 1.2491,0.8328 1.9986,2.4149 3.2476,3.2477 2.5173,1.6782 5.6237,3.6237 8.1191,4.8714 3.379,1.6895 -0.8679,-0.056 0.8119,1.6238 0.5741,0.5741 1.6819,-0.3015 2.4358,0 3.2604,1.3042 5.8922,4.164 8.9309,5.6834 0.4382,0.2191 3.5796,1.1438 4.0596,1.6238 0.1914,0.1914 -0.1914,0.6205 0,0.8119 0.69,0.69 1.4891,1.3872 2.4357,1.6238 0.7877,0.1969 1.6481,-0.1969 2.4357,0 0.856,0.214 2.6939,2.8785 3.2477,3.2477 0.2252,0.1501 0.6205,-0.1914 0.8119,0 0.1913,0.1913 -0.1914,0.6205 0,0.8119 0.7627,0.7627 3.0236,0.8468 4.0595,1.6238 2.1348,1.6011 4.2728,2.9483 6.4953,4.0595 1.898,0.9491 3.6067,3.8331 4.0595,4.0596 1.0463,0.5231 3.4223,0.3492 4.0596,1.6238 0.121,0.242 -0.1914,0.6205 0,0.8119 1.0825,1.0825 0.8119,-1.3532 0.8119,0.8119"
         id="path21" />
      <path
         style="fill:#0de9e6;fill-opacity:0;stroke:#06bd3d;stroke-width:5.02299;stroke-linecap:square;stroke-miterlimit:0;paint-order:fill markers stroke;stroke-opacity:1"
         d="m 1575.1015,1496.3464 c -1.2562,-3.5747 -3.1895,-7.5391 -6.4953,-9.7429 -0.2252,-0.1501 -0.6205,0.1914 -0.8119,0 -0.3827,-0.3827 0.2421,-1.1397 0,-1.6238 -0.8038,-1.6077 -3.6934,-2.8815 -4.0595,-3.2476 -0.9569,-0.9569 -1.4789,-2.2908 -2.4358,-3.2477 -0.5765,-0.5765 -2.2914,-1.4796 -2.4357,-1.6238 -0.128,-0.128 -3.1196,-4.7434 -3.2476,-4.8714 -0.3828,-0.3828 -1.2411,0.3827 -1.6238,0 -0.8559,-0.8559 -0.9525,-2.2406 -1.6238,-3.2477 -0.7391,-1.1085 -2.8407,-2.0287 -3.2477,-2.4357 -0.2706,-0.2706 -0.5413,-2.1651 -0.8119,-2.4357 -0.7368,-0.7368 -2.5002,-0.5026 -3.2476,-1.6238 -1.1544,-1.7316 -2.2254,-3.6487 -4.0596,-4.8715 -0.2251,-0.1501 -0.5412,0 -0.8119,0 -0.5412,-0.2706 -1.1959,-0.384 -1.6238,-0.8119 -1.9719,-1.972 0.2415,-1.1922 -1.6238,-2.4357 -1.007,-0.6714 -2.3918,-0.768 -3.2476,-1.6238 -0.1914,-0.1914 0.1501,-0.5868 0,-0.8119 -0.1497,-0.2246 -7.7994,-7.1473 -8.1191,-7.3072 -0.2421,-0.121 -0.6206,0.1914 -0.8119,0 -0.1914,-0.1914 0.121,-0.5699 0,-0.8119 -1.4348,-2.8696 -5.5278,-4.6382 -7.3072,-7.3072 -1.2961,-1.9442 -3.1145,-5.0897 -4.8714,-6.4953 -0.4227,-0.3381 -1.1735,0.3003 -1.6239,0 -0.6002,-0.4001 -2.7075,-4.0613 -3.2476,-4.8714 0.081,-1.6084 -1.1959,-0.384 -1.6238,-0.8119 -0.4279,-0.4279 -0.384,-1.1959 -0.8119,-1.6238 -1.972,-1.972 -1.1922,0.2414 -2.4357,-1.6238 -0.3357,-0.5036 -0.3084,-1.2882 -0.8119,-1.6239 -0.4504,-0.3002 -1.2411,0.3828 -1.6239,0 -0.3827,-0.3827 0.3003,-1.1734 0,-1.6238 -0.3356,-0.5035 -1.1396,-0.4488 -1.6238,-0.8119 -5.84,-4.38 1.7135,0.9015 -2.4357,-3.2476 -0.1914,-0.1914 -0.5698,0.121 -0.8119,0 -2.1911,-1.0956 0.028,-0.3639 -0.8119,-1.6238 -2.92,-4.3801 -0.2527,0.5592 -3.2476,-2.4358 -1.1574,-1.1573 -1.9623,-3.9074 -3.2477,-4.8714 -0.6846,-0.5135 -1.7674,-0.2773 -2.4357,-0.8119 -0.2608,-0.2086 -3.1792,-4.803 -3.2476,-4.8715 -0.6052,-0.6051 -1.961,-0.1 -2.4358,-0.8119 -0.106,-0.159 -1.0636,-3.6861 -1.6238,-4.0595 -0.4503,-0.3002 -1.1103,0.1712 -1.6238,0 -0.3175,-0.1058 -6.0274,-7.1834 -6.4953,-8.1191 -0.5594,-1.1189 -1.9041,-1.0922 -2.4357,-1.6238 -0.4123,-0.4123 -2.0836,-3.7075 -2.4357,-4.0595 -0.1914,-0.1914 -0.6205,0.1913 -0.8119,0 -0.4279,-0.428 -0.4762,-1.1203 -0.8119,-1.6239 -0.6397,-0.9594 -1.9484,-1.1364 -2.4357,-1.6238 -0.2349,-0.2349 -2.0795,-3.3471 -2.4358,-4.0595 -0.9818,-1.9637 -3.644,-2.2185 -4.8714,-4.0596 -0.4906,-0.7359 -0.4638,-1.8557 -1.6238,-2.4357 -0.2421,-0.121 -0.6206,0.1914 -0.8119,0 -0.913,-0.9129 -1.7129,-2.9752 -2.4358,-4.0595 -0.5412,-0.8119 -1.8944,-0.8119 -2.4357,-1.6238 -0.3002,-0.4504 0.1712,-1.1104 0,-1.6238 -0.691,-2.073 -3.7474,-2.3735 -4.8714,-4.0596 -0.1502,-0.2252 0,-0.5413 0,-0.8119 -0.2707,-0.5413 -0.384,-1.1959 -0.8119,-1.6238 -0.428,-0.4279 -1.1959,-0.384 -1.6239,-0.8119 -1.8596,-1.8597 -3.4129,-5.1195 -4.8714,-7.3072 -1.579,-2.3685 -3.9711,-4.2122 -5.6834,-6.4953 -1.2622,-1.683 -0.1413,-1.9064 -0.8119,-3.2476 -0.6771,-1.3542 -3.6884,-2.5053 -4.8714,-4.8714 -0.2421,-0.4842 0.3827,-1.2411 0,-1.6238 -0.406,-0.406 -1.2179,-0.406 -1.6238,-0.812 -0.2231,-0.223 -0.518,-3.3223 -1.6238,-4.0595 -0.4504,-0.3002 -1.2411,0.3827 -1.6239,0 -0.1417,-0.1417 -0.5235,-2.8151 -0.8119,-3.2476 -1.1771,-1.7657 -3.3323,-1.8778 -4.0595,-4.0596 -0.1712,-0.5135 0.2421,-1.1397 0,-1.6238 -0.3423,-0.6846 -1.1645,-1.0114 -1.6238,-1.6238 -0.5144,-0.6858 -2.9966,-5.742 -3.2477,-6.4953 -0.2282,-0.6847 0.3206,-1.7945 0,-2.4357 -0.6691,-1.3383 -0.9696,-2.7511 -1.6238,-4.0595 -1.6895,-3.379 0.056,0.8679 -1.6238,-0.8119 -0.3827,-0.3828 0,-1.0826 0,-1.6239"
         id="path23" />
    </g>
  </g>
</svg>
