<?xml version="1.0" encoding="UTF-8" standalone="no"?>
<!-- Created with Inkscape (http://www.inkscape.org/) -->

<svg
   version="1.1"
   id="svg1"
   width="3200"
   height="2400"
   viewBox="0 0 3200 2400"
   sodipodi:docname="gandalf-white-path.svg"
   inkscape:version="1.3.2 (091e20e, 2023-11-25, custom)"
   xmlns:inkscape="http://www.inkscape.org/namespaces/inkscape"
   xmlns:sodipodi="http://sodipodi.sourceforge.net/DTD/sodipodi-0.dtd"
   xmlns="http://www.w3.org/2000/svg"
   xmlns:svg="http://www.w3.org/2000/svg">
  <defs
     id="defs1" />
  <sodipodi:namedview
     id="namedview1"
     pagecolor="#ffffff"
     bordercolor="#999999"
     borderopacity="1"
     inkscape:showpageshadow="2"
     inkscape:pageopacity="0"
     inkscape:pagecheckerboard="0"
     inkscape:deskcolor="#d1d1d1"
     showgrid="false"
     inkscape:zoom="0.28277938"
     inkscape:cx="1405.6895"
     inkscape:cy="1211.1916"
     inkscape:window-width="1920"
     inkscape:window-height="974"
     inkscape:window-x="-11"
     inkscape:window-y="-11"
     inkscape:window-maximized="1"
     inkscape:current-layer="g1" />
  <g
     inkscape:groupmode="layer"
     inkscape:label="Image"
     id="g1">
    <g
       id="g2">
      <path
         style="fill:#0de9e6;fill-opacity:0;stroke:#d96b3b;stroke-width:5.02299;stroke-linecap:square;stroke-miterlimit:0;stroke-dasharray:none;stroke-opacity:1;paint-order:fill markers stroke"
         d="m 1551.1502,917.86198 c 0.2706,0.54127 0.2706,1.89445 0.8119,1.62381 0.5413,-0.27063 -1.2398,-2.05173 -0.8119,-1.62381 0.14,0.14002 1.8898,3.10761 2.0298,3.24763 0.2583,0.25832 1.1055,0.55279 1.6238,0.81191 0.6529,0.32646 0.9006,1.71252 1.2179,2.02977 0.1913,0.19137 0.6205,-0.19137 0.8119,0 0.096,0.0957 -0.061,0.28492 0,0.40595 0.023,0.0465 2.3113,1.98832 2.4357,2.02977 0.2567,0.0856 0.6205,-0.19137 0.8119,0 1.1618,1.16181 -1.0129,0.50844 0.4059,1.21786 0.2302,0.11506 1.9409,1.1289 2.0298,1.21786 0.1914,0.19137 -0.121,0.56985 0,0.81191 0.2719,0.54372 0.9685,0.5625 1.2179,0.81191 0.2775,0.27751 1.0569,2.27478 1.2178,2.43572 0.096,0.0957 0.285,-0.0605 0.406,0 1.6895,0.84475 -0.434,-0.028 0.4059,0.81191 0.214,0.21396 0.598,0.192 0.812,0.40596 0.1701,0.17011 0.2829,0.97183 0.4059,1.21786 0.3222,0.64436 1.3559,0.94997 1.6238,1.21786 2.5589,2.55888 -3.4057,-1.74239 1.6238,2.02977 0.1083,0.0812 0.3103,-0.0957 0.406,0 0.096,0.0957 -0.096,0.31027 0,0.40595 0.214,0.21396 0.5979,0.192 0.8119,0.40596 0.214,0.21396 0.2381,0.56014 0.406,0.81191 0.3635,0.5453 1.5285,0.96723 2.0297,1.21786 0.7149,0.35745 0.5252,1.16202 1.2179,1.62381 0.2252,0.15013 0.5552,-0.0856 0.8119,0 0.373,0.12433 1.8616,1.5229 2.0298,1.62382 0.8361,0.50168 1.6507,0.69456 2.4357,1.21786 0.6006,0.40038 0.9811,1.30247 1.6238,1.62382 0.7548,0.37738 1.6259,0.81295 2.4357,1.21786"
         id="path20" />
      <path
         style="fill:#0de9e6;fill-opacity:0;stroke:#d96b3b;stroke-width:5.02299;stroke-linecap:square;stroke-miterlimit:0;stroke-dasharray:none;stroke-opacity:1;paint-order:fill markers stroke"
         d="m 1586.8742,949.52639 c -0.2195,2.29743 0.8941,3.49437 1.6238,5.68335 0.1543,0.46286 0.6576,0.75501 0.8119,1.21787 0.2282,0.68472 -0.3206,1.79456 0,2.43572 0.061,0.12103 0.3103,-0.0957 0.4059,0 0.2828,0.28273 0.1501,2.05189 0.406,2.43572 0.1678,0.25177 0.5979,0.192 0.8119,0.40596 0.2359,0.23593 0.2354,1.28266 0.406,1.62381 0.3495,0.69909 1.3315,1.85123 1.6238,2.43573 0.121,0.24206 -0.086,0.55516 0,0.81191 0.1543,0.46285 0.6576,0.755 0.8119,1.21786 0.043,0.12837 -0.096,0.31027 0,0.40595 0.096,0.0957 0.3102,-0.0957 0.4059,0 0.3219,0.32184 -0.2065,1.61673 0,2.02977 0.929,1.85789 -0.1682,-1.72263 0.8119,1.21786 0.043,0.12838 0,0.27064 0,0.40596 0,0.27063 -0.085,0.55516 0,0.81191 0.1789,0.53662 0.9592,1.10636 1.2179,1.62381 0.3843,0.76868 0.3318,2.04156 0.8119,2.84168 0.1969,0.32819 0.5996,0.49345 0.8119,0.81191 0.6911,1.03664 0.8057,2.417 1.2179,3.65358 0.121,0.3631 0.5996,0.49346 0.8119,0.81191 0.4381,0.65711 0.5039,1.41376 0.8119,2.02977 0.8447,1.68949 -0.028,-0.43398 0.8119,0.40596 0.3026,0.30258 0.1686,0.86181 0.406,1.21786 0.432,0.64808 1.1266,0.72068 1.6238,1.21786 0.5161,0.51611 0.802,1.75585 1.6238,2.02977 0.2567,0.0856 0.6205,-0.19137 0.8119,0 0.1914,0.19137 -0.1914,0.62054 0,0.81191 0.3026,0.30258 0.8351,0.21458 1.2179,0.40595 0.6051,0.30258 1.0186,0.91528 1.6238,1.21786 0.5771,0.28858 3.101,0.66533 3.2476,0.81191 0.096,0.0957 -0.096,0.31027 0,0.40596 0.435,0.43499 2.6174,-0.21007 3.2476,0 0.1816,0.0605 0.2348,0.32037 0.406,0.40595 0.2421,0.12103 0.5698,-0.12103 0.8119,0 0.8416,0.4208 1.9811,0.78756 2.8417,1.21786 1.0741,0.53706 1.0971,0.97642 1.6238,2.02977 0.3916,0.78313 0.6871,0.14057 1.2179,0.40596 0.4653,0.23269 0.5646,0.84702 0.8119,1.21786 0.3698,0.5548 0.7566,0.58132 1.2178,0.81191 0.7048,0.35238 0.5853,1.21782 1.2179,1.21782"
         id="path21" />
      <path
         style="fill:#0de9e6;fill-opacity:0;stroke:#d96b3b;stroke-width:5.02299;stroke-linecap:square;stroke-miterlimit:0;stroke-dasharray:none;stroke-opacity:1;paint-order:fill markers stroke"
         d="m 1625.8457,1000.6766 c 1.7536,0.7667 1.9598,3.2126 3.6536,4.0595 0.2461,0.123 1.0478,0.2359 1.2179,0.406 0.096,0.096 -0.096,0.3103 0,0.4059 0.096,0.096 0.3103,-0.096 0.4059,0 0.096,0.096 -0.096,0.3103 0,0.406 0.47,0.4699 1.814,0.9692 2.4358,1.2179 0.9574,0.3829 2.3542,0.3651 3.2476,0.8119 0.121,0.061 -0.096,0.3102 0,0.4059 0.1914,0.1914 0.5698,-0.121 0.8119,0 0.1712,0.086 0.2348,0.3204 0.406,0.406 0.9634,0.4817 2.5591,0.999 3.6535,1.2178 0.2654,0.053 0.5699,-0.121 0.812,0 0.121,0.06 -0.096,0.3103 0,0.406 0.1913,0.1914 0.5698,-0.121 0.8119,0 1.2403,0.6202 2.5952,1.2577 4.0595,1.6238 0.8832,0.2208 1.9807,-0.287 2.8417,0 0.9248,0.3083 3.086,0.3251 3.2476,0.406 0.121,0.061 -0.121,0.3454 0,0.4059 0.5413,0.2706 1.4885,-0.2706 2.0298,0 0.1711,0.086 0.2244,0.3454 0.4059,0.406 0.2568,0.086 0.5607,-0.1005 0.8119,0 0.6887,0.2754 6.1936,3.8621 6.4953,4.4655 0.3453,0.6906 -0.3938,0.824 0.406,1.6238 0.1913,0.1913 0.5698,-0.1211 0.8119,0 0.8366,0.4183 0.8466,1.6412 1.6238,2.0297 0.6638,0.332 1.4452,0.5197 2.0298,0.812 0.696,0.348 0.1664,0.7875 0.8119,1.2178 1.3081,0.8721 3.3859,0.9503 4.4655,2.0298 0.9585,0.9585 -2.2643,-0.2135 0.8119,0.8119 2.7011,0.9004 5.6273,0.8119 8.525,0.8119 1.4027,0 3.559,0.4375 4.8714,0 0.1816,-0.061 0.2348,-0.3204 0.406,-0.406 0.6141,-0.307 1.7648,-0.2382 2.4357,-0.4059 0.5871,-0.1468 1.0497,-0.6205 1.6238,-0.8119 0.2568,-0.086 0.6206,0.1914 0.8119,0 0.096,-0.096 -0.121,-0.3455 0,-0.406 0.2421,-0.121 0.5552,0.086 0.812,0 0.1815,-0.06 0.2244,-0.3454 0.4059,-0.4059 0.497,-0.1657 1.1161,0.1269 1.6238,0 1.5741,-0.3936 4.7798,-1.3838 6.4953,-0.8119 0.5741,0.1913 1.0367,0.6651 1.6238,0.8119 0.2626,0.066 0.5552,-0.086 0.8119,0 0.3631,0.121 0.4696,0.6407 0.8119,0.8119 0.2421,0.121 0.6206,-0.1914 0.8119,0 0.096,0.096 -0.096,0.3103 0,0.4059 0.6229,0.6229 1.2179,0.036 1.2179,0.8119"
         id="path22" />
      <path
         style="fill:#0de9e6;fill-opacity:0;stroke:#d96b3b;stroke-width:5.02299;stroke-linecap:square;stroke-miterlimit:0;stroke-opacity:1;paint-order:fill markers stroke"
         d="m 1612.4492,1269.0122 c -5.8954,0.4805 -4.1785,2.5547 -4.8714,3.2476 -0.3521,0.3521 -3.6472,2.0234 -4.0595,2.4357 -0.886,0.886 -1.2066,4.4317 -1.6239,5.6834 -0.121,0.3631 -0.6407,0.4696 -0.8119,0.8119 -0.4311,0.8623 -0.088,2.5239 -0.8119,3.2476 -0.1913,0.1914 -0.6909,-0.242 -0.8119,0 -0.4018,0.8037 -0.1023,3.35 -0.8119,4.0596 -0.1914,0.1913 -0.6909,-0.2421 -0.8119,0 -0.2421,0.4841 0.2421,1.1396 0,1.6238 -0.121,0.242 -0.6205,-0.1914 -0.8119,0 -0.9202,0.9201 -1.0901,2.5748 -2.4357,3.2476 -0.2421,0.121 -0.6618,-0.2252 -0.8119,0 -0.9873,1.4809 -0.3403,3.5879 -1.6239,4.8715 -0.1913,0.1913 -0.6205,-0.1914 -0.8119,0 -0.458,0.4579 0.2163,2.5987 0,3.2476 -0.3827,1.1482 -1.3302,2.0734 -1.6238,3.2476 -0.1969,0.7877 0.5741,1.8616 0,2.4357 -0.1913,0.1914 -0.6205,-0.1913 -0.8119,0 -0.1294,0.1294 -0.505,3.1389 -0.8119,4.0596 -0.634,1.9021 0.3922,4.534 0,6.4952 -0.1187,0.5935 -0.6932,1.0305 -0.8119,1.6239 -0.304,1.5197 -0.2887,7.0726 -0.8119,8.119 -1.2093,2.4186 -1.7419,5.3437 -2.4357,8.1191 -0.1165,0.4658 0.4124,3.6471 0,4.0596 -0.1914,0.1913 -0.6206,-0.1914 -0.8119,0 -0.5742,0.5741 0,1.6238 0,2.4357 0,1.7907 -0.3782,2.3247 -0.812,4.0595 -0.7309,2.9238 0,7.4351 0,10.5548 0,10.5548 0,21.1096 0,31.6644 0,3.9769 0.7772,9.1047 0,12.9906 -0.797,3.9854 -0.2723,6.7781 -0.8119,10.5548 -0.3197,2.2381 -1.0936,4.3747 -1.6238,6.4952 -0.2625,1.0503 0.4842,2.2794 0,3.2477 -0.121,0.242 -0.6205,-0.1914 -0.8119,0 -0.6766,0.6766 0.6766,3.3829 0,4.0595 -0.1914,0.1914 -0.6205,-0.1914 -0.8119,0 -0.7364,0.7364 0.4601,3.9512 0,4.8715 -0.1712,0.3423 -0.5413,0.5412 -0.8119,0.8119 0,1.0825 0.2123,2.1861 0,3.2476 -0.075,0.3753 -0.6909,0.4488 -0.8119,0.8119 -1.4602,4.3805 1.1228,10.1233 0,14.6143 -0.1468,0.5871 -0.6932,1.0305 -0.8119,1.6239 -0.602,3.0098 0.9662,6.8442 0,9.7429 -0.121,0.3631 -0.6909,0.4488 -0.8119,0.8119 -0.8677,2.6031 0.452,6.2186 0,8.931 -0.1407,0.8441 -0.6712,1.5915 -0.8119,2.4357 -0.4736,2.8417 0.6315,2.5259 0,5.6833 -0.075,0.3753 -0.6408,0.4696 -0.8119,0.8119 -0.4607,0.9214 -0.3288,8.6023 0,8.931 0.1913,0.1914 0.6205,-0.1913 0.8119,0 0.6622,0.6623 0.054,4.1135 0.8119,4.8715 0.1913,0.1913 0.6205,-0.1914 0.8119,0 0.1178,0.1178 0.8119,3.0354 0.8119,3.2476"
         id="path32" />
      <path
         style="fill:#0de9e6;fill-opacity:0;stroke:#d96b3b;stroke-width:5.02299;stroke-linecap:square;stroke-miterlimit:0;stroke-opacity:1;paint-order:fill markers stroke"
         d="m 1481.7666,1418.0409 c 0.1701,-4.8347 -2.4375,-0.4768 -3.4446,-1.1482 -0.7841,-0.5227 -3.9036,-3.2149 -4.5928,-3.4446 -0.3631,-0.1211 -0.8059,0.1711 -1.1482,0 -0.9552,-0.4776 -1.3952,-1.2717 -2.2965,-1.7223 -0.3466,-0.1734 -1.4569,0.2653 -1.7223,0 -1.1878,-1.1879 1.8152,0.046 -0.5741,-1.1483 -0.3423,-0.1711 -0.8776,0.2707 -1.1482,0 -0.1353,-0.1353 0.1353,-0.4387 0,-0.5741 -0.2706,-0.2706 -0.8059,0.1712 -1.1482,0 -0.4841,-0.242 -0.6979,-0.8479 -1.1482,-1.1482 -0.5174,-1.1398 -1.5907,-0.2212 -2.2964,-0.5741 -0.1712,-0.086 0.085,-0.4029 0,-0.5741 -0.7747,-1.5493 -0.2574,0.02 -1.1483,-0.5741 -0.4503,-0.3002 -0.6978,-0.848 -1.1482,-1.1482 -0.3444,-0.2296 -1.4352,0.2871 -1.7223,0 -0.1353,-0.1353 0.1353,-0.4388 0,-0.5741 -0.9894,-0.9894 -2.4518,-0.6518 -3.4446,-1.1482 -0.1712,-0.086 0.1353,-0.4388 0,-0.5741 -0.1353,-0.1353 -0.4388,0.1353 -0.5741,0 -0.1353,-0.1353 0.1353,-0.4388 0,-0.5741 -0.6766,-0.6766 -1.5003,-1.1916 -2.2964,-1.7223 -0.3185,-0.2123 -0.8776,0.2706 -1.1483,0 -0.1353,-0.1354 0.1354,-0.4388 0,-0.5741 -0.2314,-0.2315 -1.4246,-0.3757 -1.7223,-0.5742 -0.3827,-0.3827 -0.7654,-0.7654 -1.1482,-1.1482 0,-0.1913 0.1353,-0.4388 0,-0.5741 -0.589,-0.589 -2.3893,-0.667 -2.8705,-1.1482 -0.7126,-0.7126 -0.1486,-1.8709 -0.5741,-2.2964 -0.1353,-0.1353 -0.4388,0.1353 -0.5741,0 -0.1353,-0.1353 0.1353,-0.4388 0,-0.5741 -0.1353,-0.1353 -0.4388,0.1353 -0.5741,0 -0.059,-0.059 -1.5684,-2.6396 -1.7223,-2.8705 -0.3003,-0.4504 -0.9062,-0.6641 -1.1483,-1.1482 -0.086,-0.1712 0,-0.3828 0,-0.5742 -0.1913,-0.3827 -0.3367,-0.7921 -0.5741,-1.1482 -0.2317,-0.3476 -1.7103,-1.1242 -1.7223,-1.1482 -0.2157,-0.4314 -0.2206,-2.517 -0.5741,-2.8705 -0.1353,-0.1353 -0.4388,0.1353 -0.5741,0 -1.1878,-1.1878 1.8152,0.046 -0.5741,-1.1482 -0.1712,-0.086 -0.4388,0.1353 -0.5741,0 -0.1914,-0.1914 -0.3827,-1.531 -0.5741,-1.7223 -0.1353,-0.1354 -0.4388,0.1353 -0.5741,0 -0.5463,-0.5464 -1.3191,-3.6155 -1.7223,-4.0188 -0.5181,-0.518 -2.6501,0.1987 -3.4447,0 -0.4151,-0.1038 -0.7422,-0.4388 -1.1482,-0.5741 -0.5816,-0.1938 -2.4607,0.4098 -2.8705,0 -0.1353,-0.1353 0.1353,-0.4388 0,-0.5741 -0.191,-0.191 -2.1806,0.039 -2.2964,0 -0.2568,-0.086 -0.3321,-0.4531 -0.5741,-0.5741 -1.207,-0.6035 -3.3247,-0.067 -4.5929,-0.5741 -0.7946,-0.3178 -1.4735,-0.9131 -2.2964,-1.1482 -0.8609,-0.246 -4.7441,-0.076 -5.7411,-0.5741 -0.4841,-0.2421 -0.684,-0.8697 -1.1482,-1.1482 -1.0378,-0.6227 -2.4068,-0.5255 -3.4446,-1.1482 -0.4641,-0.2785 -0.6978,-0.848 -1.1482,-1.1482 -0.8119,-0.5413 -1.9978,-0.1378 -2.8705,-0.5742 -0.1712,-0.086 0.085,-0.4029 0,-0.5741 -0.5632,-1.1262 -1.1483,0.044 -1.1483,-1.1482"
         id="path35" />
      <path
         style="fill:#0de9e6;fill-opacity:0;stroke:#d96b3b;stroke-width:5.02299;stroke-linecap:square;stroke-miterlimit:0;stroke-opacity:1;paint-order:fill markers stroke"
         d="m 1401.966,1369.816 c 0.7373,-1.5442 -0.7653,-4.2105 0,-5.741 0.4769,-0.9539 0.7697,-1.7351 1.1482,-2.8705 0.121,-0.3631 -0.2707,-0.8776 0,-1.1482 0.1353,-0.1354 0.4388,0.1353 0.5741,0 0.4649,-0.4649 -0.2227,-2.7766 0,-3.4447 0.086,-0.2567 0.4531,-0.332 0.5741,-0.5741 0.385,-0.77 0.2122,-2.1467 0.5741,-2.8705 0.4331,-0.8663 0.7912,-1.2254 1.1482,-2.2964 0.1082,-0.3247 -0.2306,-1.4918 0,-1.7224 0.1353,-0.1353 0.4388,0.1354 0.5741,0 0.2237,-0.2236 0,-1.946 0,-2.2964 0,-2.7282 0.6818,-11.159 0,-13.2044 -0.086,-0.2568 -0.4531,-0.332 -0.5741,-0.5741 -0.3012,-0.6023 0.4582,-2.4123 0,-2.8705 -0.1353,-0.1354 -0.4388,0.1353 -0.5741,0 -0.4457,-0.4457 0.2878,-2.2951 0,-2.8706 -0.086,-0.1711 -0.4388,0.1353 -0.5741,0 -0.2917,-0.2916 0.082,-2.5412 0,-2.8705 -0.3067,-1.2267 -0.5741,-1.6043 -0.5741,-2.8705 0,-2.1558 -0.5725,-11.4855 0,-12.6303 1.3551,-2.7102 1.7223,-5.5813 1.7223,-9.1857"
         id="path36" />
      <path
         style="fill:#0de9e6;fill-opacity:0;stroke:#d96b3b;stroke-width:5.02299;stroke-linecap:square;stroke-miterlimit:0;stroke-opacity:1;paint-order:fill markers stroke"
         d="m 1405.4106,1299.2011 c 0.6579,3.0679 -2.6156,1.6269 -3.4446,2.8705 -1.1482,1.7223 0.5741,0.5741 0,1.7223 -0.4881,0.9762 -1.2567,1.9393 -1.7224,2.8705 -0.3368,0.6737 -0.01,2.3058 -0.5741,2.8706 -0.1353,0.1353 -0.4885,-0.1712 -0.5741,0 -0.2567,0.5135 0.2568,1.2088 0,1.7223 -0.121,0.242 -0.4885,0.3173 -0.5741,0.5741 -0.3201,0.9603 0.4526,2.5395 0,3.4446 -1.1482,2.2965 -1.7591,5.3512 -2.2964,8.0375 -0.1501,0.7506 0.3423,1.6118 0,2.2964 -0.086,0.1712 -0.4388,-0.1353 -0.5741,0 -0.5413,0.5413 0.1501,1.5458 0,2.2964 -0.084,0.4196 -0.4388,0.7423 -0.5741,1.1482 -0.6219,1.8656 0,12.9066 0,15.5009 0,2.7109 0.703,12.8177 0,14.9267 -0.086,0.2568 -0.4885,0.3174 -0.5741,0.5742 -0.6154,1.8461 0,8.5761 0,10.908"
         id="path37" />
      <path
         style="fill:#0de9e6;fill-opacity:0;stroke:#d96b3b;stroke-width:5.02299;stroke-linecap:square;stroke-miterlimit:0;stroke-opacity:1;paint-order:fill markers stroke"
         d="m 2044.9643,1694.7598 c 0.7655,-0.3827 2.6791,-0.3827 2.2964,-1.1482 -0.3827,-0.7654 -3.0085,1.623 -2.2964,1.1482 1.2837,-0.8558 2.6387,-1.6064 4.0187,-2.2964 0.1712,-0.086 0.4388,0.1353 0.5741,0 0.1353,-0.1353 -0.1353,-0.4388 0,-0.5741 0.2707,-0.2706 0.9771,0.3423 1.1482,0 0.9166,-1.8331 -0.6294,-0.5464 1.7224,-1.7223 0.3759,-0.188 2.1347,-1.3989 2.2964,-1.7223 0.086,-0.1712 -0.1353,-0.4388 0,-0.5741 0.6995,-0.6996 2.1709,-1.0228 2.8705,-1.7223 0.1353,-0.1354 -0.1353,-0.4388 0,-0.5742 0.2654,-0.2653 1.3757,0.1734 1.7223,0 0.6172,-0.3085 1.2344,-0.6603 1.7223,-1.1482 0.1354,-0.1353 -0.1353,-0.4388 0,-0.5741 0.5356,-0.5355 2.5418,-1.7223 2.8706,-1.7223"
         id="path50" />
      <path
         style="fill:#0de9e6;fill-opacity:0;stroke:#d96b3b;stroke-width:5.02299;stroke-linecap:square;stroke-miterlimit:0;stroke-opacity:1;paint-order:fill markers stroke"
         d="m 2063.3357,1683.2777 c -0.2413,-1.1864 3.4082,-0.2688 4.0187,-0.5741 3.5004,-1.7502 7.4149,-0.2628 10.3339,-1.7223 1.0717,-0.5358 2.9471,0.5358 4.0187,0 0.7552,-0.3776 1.5201,-0.8894 2.2965,-1.1482 0.8611,-0.2871 2.0093,0.287 2.8705,0 0.5717,-0.1906 1.1506,-0.9576 1.7223,-1.1482 0.3631,-0.1211 0.7851,0.121 1.1482,0 0.2568,-0.086 0.3321,-0.4531 0.5741,-0.5741 0.9906,-0.4953 2.0724,-0.175 2.8706,-0.5741 1.6102,-0.8052 2.0017,-1.1482 4.0187,-1.1482"
         id="path51" />
      <path
         style="fill:#0de9e6;fill-opacity:0;stroke:#d96b3b;stroke-width:5.02299;stroke-linecap:square;stroke-miterlimit:0;stroke-opacity:1;paint-order:fill markers stroke"
         d="m 2100.0784,1676.9626 c 3.6828,-2.3274 5.2798,-2.5221 6.8893,-5.7411 0.6577,-1.3154 -0.1565,-9.0809 -0.5741,-10.3339 -0.357,-1.071 -0.7151,-1.4301 -1.1482,-2.2964 -0.6121,-1.2241 0.4371,-3.2815 0,-4.5929 -0.2609,-0.7827 -0.5668,-3.43 -0.5741,-3.4446 -0.1211,-0.2421 -0.4886,-0.3174 -0.5741,-0.5741 -0.342,-1.026 0,-2.9038 0,-4.0187 0,-2.6599 0.594,-15.4411 0,-17.2232 -0.086,-0.2568 -0.4531,-0.3321 -0.5741,-0.5741 -0.5955,-1.1909 0,-12.8295 0,-14.9268 0,-11.0993 0,-22.1987 0,-33.2981 0,-2.155 -0.074,-3.7412 -0.5742,-5.741 -0.2151,-0.8606 0.2803,-2.0298 0,-2.8706 -0.085,-0.2567 -0.4885,-0.3173 -0.5741,-0.5741 -0.6362,-1.9088 0.4402,-3.7126 -0.5741,-5.741 -0.8714,-1.743 0.7195,-8.7496 0,-10.908 -0.085,-0.2568 -0.453,-0.3321 -0.5741,-0.5741 -0.3423,-0.6847 0.1502,-1.5459 0,-2.2965 -0.084,-0.4196 -0.4902,-0.7286 -0.5741,-1.1482 -0.6539,-3.2696 0.2558,-7.0092 0,-10.3339 -0.2845,-3.6994 -0.6308,-4.359 -1.1482,-7.4634 -0.2974,-1.7843 0,-3.9574 0,-5.741 0,-4.0188 0,-8.0375 0,-12.0562 0,-6.5066 0,-13.0131 0,-19.5196 0,-2.0642 -0.5824,-7.4386 0,-9.1857 0.8486,-2.5457 1.7655,-4.6791 2.8705,-6.8893 0.2297,-0.4593 -0.2296,-1.263 0,-1.7223 0.4187,-0.8373 0.9185,-0.9184 1.1483,-1.1482 0.2405,-0.2406 0.4001,-1.3744 0.5741,-1.7223 1.1946,-2.3893 -0.04,0.6137 1.1482,-0.5741 0.7654,-0.7655 -0.9569,-0.5741 0.5741,-0.5741"
         id="path52" />
      <path
         style="fill:#0de9e6;fill-opacity:0;stroke:#d96b3b;stroke-width:5.02299;stroke-linecap:square;stroke-miterlimit:0;stroke-opacity:1;paint-order:fill markers stroke"
         d="m 2105.8195,1473.1551 c 0.4366,-1.9058 2.6244,-1.4762 3.4446,-2.2965 0.1353,-0.1353 -0.1353,-0.4387 0,-0.5741 0.2706,-0.2706 0.8776,0.2707 1.1482,0 0.1353,-0.1353 -0.1353,-0.4388 0,-0.5741 0.3828,-0.3827 1.9137,0.3828 2.2964,0 0.2298,-0.2298 0.311,-0.7295 1.1483,-1.1482 0.3466,-0.1733 1.4569,0.2654 1.7223,0 0.1245,-0.1246 0.4621,-1.0922 0.5741,-1.1482 0.3423,-0.1712 0.7851,0.121 1.1482,0 0.5717,-0.1906 1.1506,-0.9576 1.7223,-1.1482 1.3776,-0.4592 0.9188,0.4592 2.2964,0 0.8184,-0.2728 0.8267,-0.8267 1.1482,-1.1482 0.2707,-0.2707 0.7852,0.121 1.1482,0 1.0711,-0.357 1.4302,-0.7151 2.2965,-1.1482 0.3423,-0.1712 0.7851,0.121 1.1482,0 4.7633,-1.5878 9.8616,-1.1482 15.5008,-1.1482 0.8956,0 5.6396,-0.6756 6.3152,0 0.1353,0.1353 -0.1353,0.4387 0,0.5741 0.1353,0.1353 0.4388,-0.1354 0.5741,0 0.1353,0.1353 -0.086,0.4029 0,0.5741 1.1946,2.3893 -0.04,-0.6138 1.1482,0.5741 1.1879,1.1878 -1.8152,-0.046 0.5741,1.1482 1.2408,0.6204 1.7223,-0.2715 1.7223,2.2964"
         id="path53" />
      <path
         style="fill:#0de9e6;fill-opacity:0;stroke:#d96b3b;stroke-width:5.02299;stroke-linecap:square;stroke-miterlimit:0;paint-order:fill markers stroke;stroke-opacity:1"
         d="m 1707.9887,1030.6998 c -2.8159,0.2825 -4.5825,9.5046 -5.9066,10.8287 -0.5939,0.5939 -3.4353,1.4459 -3.9377,2.9533 -0.3308,0.9923 -0.3498,2.3186 -0.9845,2.9533 -0.464,0.4641 -1.5048,-0.464 -1.9688,0 -0.2321,0.2321 0.232,0.7524 0,0.9845 -0.2321,0.232 -0.7524,-0.2321 -0.9845,0 -0.232,0.232 0.2321,0.7524 0,0.9844 -0.232,0.232 -0.7524,-0.232 -0.9844,0 -0.9998,0.9998 0.4024,1.2755 -2.9533,2.9533 -0.6563,0.3281 -1.2728,0.7524 -1.9689,0.9844 -0.6226,0.2076 -1.5048,-0.464 -1.9688,0 -0.6031,0.6031 -0.8381,2.5764 -1.9689,2.9533 -1.4249,0.475 -2.6429,0.337 -3.9377,0.9844 -1.7064,0.8533 -0.8693,2.2587 -2.9533,2.9533 -1.2452,0.4151 -2.7637,-0.587 -3.9377,0 -0.2935,0.1468 0.232,0.7524 0,0.9845 -1.3272,1.3271 -4.7967,0.8589 -5.9066,1.9688 -0.5189,0.5189 -0.4656,1.4501 -0.9844,1.9689 -0.668,0.6679 -3.0368,-0.4505 -3.9378,0 -1.6457,0.8228 -3.1941,2.3773 -4.9221,2.9533 -2.3394,0.7798 -1.788,-1.1653 -3.9378,0.9844 -1.3125,1.3126 2.0883,0.9446 -0.9844,1.9689 -1.0193,0.3398 -5.2374,0.3153 -5.9066,0.9844 -0.464,0.4641 0.4641,1.5048 0,1.9689 -0.4922,0.4922 -2.2149,-0.2461 -2.9533,0 -1.8583,0.6194 -3.1752,2.0798 -4.9221,2.9533"
         id="path1" />
      <path
         style="fill:#0de9e6;fill-opacity:0;stroke:#d96b3b;stroke-width:5.02299;stroke-linecap:square;stroke-miterlimit:0;paint-order:fill markers stroke;stroke-opacity:1"
         d="m 1639.0785,1076.9681 c -5.8547,4.0966 -13.6837,4.2725 -19.6887,7.8754 -0.7958,0.4775 -1.1966,1.4541 -1.9688,1.9689 -2.536,1.6907 -8.0668,-1.381 -10.8288,0 -0.6563,0.3281 -1.45,0.4656 -1.9688,0.9844 -0.2321,0.2321 0.2935,0.8377 0,0.9845 -1.0841,0.542 -2.7834,-0.3848 -3.9378,0 -3.2732,1.091 -2.1991,1.2147 -2.9533,1.9688 -0.464,0.4641 -1.3818,-0.2935 -1.9688,0 -1.4854,0.7427 -2.1012,1.3567 -3.9377,1.9689 -0.9845,0.3281 -1.9689,-0.6563 -2.9533,0 -0.6106,0.407 -0.3739,1.5618 -0.9845,1.9688 -0.375,0.2501 -3.8955,0.4712 -4.9221,0.9845 -4.097,2.0485 1.0524,-0.068 -0.9845,1.9688 -0.3643,0.3644 -4.9341,0 -5.9065,0 -2.7694,0 -11.2765,1.6561 -12.7977,3.9378 -2.1688,0.4957 -0.5203,2.0251 -0.9844,2.9533 -0.8089,1.6177 -2.7418,1.3708 -3.9377,1.9688 -1.5626,0.7813 -2.3037,3.2881 -2.9533,3.9377 -1.3126,1.3126 -0.9844,-1.6407 -0.9844,0.9845"
         id="path2" />
      <path
         style="fill:#0de9e6;fill-opacity:0;stroke:#d96b3b;stroke-width:5.02299;stroke-linecap:square;stroke-miterlimit:0;paint-order:fill markers stroke;stroke-opacity:1"
         d="m 1554.4174,1113.392 c -5.8892,2.5236 -3.5952,3.8945 -4.9222,7.8755 -0.3741,1.1224 -1.5947,1.8309 -1.9689,2.9533 -0.1037,0.3113 0.2935,0.8377 0,0.9844 -0.587,0.2935 -1.3818,-0.2935 -1.9688,0 -0.587,0.2935 0.464,1.5048 0,1.9689 -0.2321,0.232 -0.9049,-0.3184 -0.9845,0 0,9.8113 0.9282,1.097 -0.9844,4.9221 -1.4438,2.8877 1.4438,7.9411 0,10.8288 -0.5734,1.1467 -1.3955,1.8065 -1.9688,2.9533 -0.5251,1.05 0.525,2.8876 0,3.9377 -0.5734,1.1467 -1.3955,1.8066 -1.9689,2.9533 -0.2935,0.587 0.4641,1.5048 0,1.9689 -0.232,0.232 -0.7524,-0.2321 -0.9844,0 -0.5136,0.5135 0.343,3.4231 0,3.9377 -0.4071,0.6105 -1.4501,0.4656 -1.9689,0.9844 -1.6407,1.6407 1.6407,8.2036 0,9.8443 -0.232,0.2321 -0.8377,-0.2935 -0.9844,0 -1.4452,2.8904 1.0324,7.7314 0,10.8288 -0.1468,0.4402 -0.8719,0.5342 -0.9845,0.9844 -0.9784,3.9138 0,9.7364 0,13.7821"
         id="path3" />
      <path
         style="fill:#0de9e6;fill-opacity:0;stroke:#d96b3b;stroke-width:5.02299;stroke-linecap:square;stroke-miterlimit:0;paint-order:fill markers stroke;stroke-opacity:1"
         d="m 1534.7287,1195.0999 c 1.3126,0.9844 2.9533,4.2658 3.9378,2.9533 0.9844,-1.3126 -5.2503,-3.9378 -3.9378,-2.9533 3.589,2.6917 7.4977,3.7889 8.8599,7.8754 0.1038,0.3113 -0.232,0.7524 0,0.9844 0.232,0.2321 0.6909,-0.1467 0.9844,0 4.097,2.0485 -1.0523,-0.068 0.9845,1.9689 0.1086,0.1086 5.758,3.7396 5.9066,3.9377 0.6226,0.8302 0.5203,2.0252 0.9844,2.9533 0.7414,1.4827 2.7284,1.3642 3.9377,1.9689 2.4695,1.2347 4.8232,4.8231 6.891,6.891 1.4834,1.4834 3.5557,2.5712 4.9222,3.9377 0.232,0.2321 -0.232,0.7524 0,0.9845 0.4641,0.464 1.5048,-0.4641 1.9689,0 0.232,0.232 -0.2321,0.7524 0,0.9844 0.232,0.232 0.6563,0 0.9844,0 0.3281,0.3281 0.727,0.5983 0.9844,0.9844 0.9373,1.406 0.5821,3.0132 1.9689,3.9378 1.1143,0.7428 4.3717,0.434 4.9221,0.9844 0.2321,0.232 -0.1467,0.6909 0,0.9844 1.0884,2.1767 0.611,0.3055 1.9689,0.9845 1.6316,0.8157 1.8376,2.822 2.9533,3.9377 0.3282,0.3281 2.6252,0.6563 2.9533,0.9844 0.232,0.232 -0.232,0.7524 0,0.9844 0.5706,0.5706 3.3672,1.3983 3.9377,1.9689 0.2321,0.232 -0.232,0.7524 0,0.9844 0.9567,0.9567 2.9811,0.028 3.9378,0.9845 0.464,0.464 -0.2935,1.3818 0,1.9688 0.2935,0.587 1.5048,-0.464 1.9688,0 0.5706,0.5706 1.3983,3.3672 1.9689,3.9378 1.7386,1.7386 3.3094,1.1624 4.9221,1.9688 0.8805,0.4403 -0.3113,2.0194 0,2.9533 0.6091,1.8272 2.0938,0.2498 2.9533,1.9689 0.1468,0.2935 -0.232,0.7524 0,0.9844 0.2321,0.232 0.7524,-0.232 0.9845,0 0.6453,0.6454 0.4912,3.4445 0.9844,3.9377 0.232,0.2321 0.8377,-0.2935 0.9844,0 0.6587,1.3174 -1.0317,5.8593 0,6.8911 1.3126,1.3125 0.9845,-1.6408 0.9845,0.9844"
         id="path4" />
      <path
         style="fill:#0de9e6;fill-opacity:0;stroke:#d96b3b;stroke-width:5.02299;stroke-linecap:square;stroke-miterlimit:0;stroke-opacity:1;paint-order:fill markers stroke"
         d="m 1481.1503,1417.9845 c 1.2043,1.1697 12.0676,3.144 12.3971,4.1323 0.1244,0.3734 -0.176,0.8287 0,1.1807 0.1219,0.244 3.627,0.7604 4.1323,1.771 0.264,0.528 -0.1867,1.211 0,1.771 0.6082,1.8246 3.1326,2.6328 4.1323,4.1324 0.1092,0.1637 -0.1391,0.4511 0,0.5903 0.1968,0.1968 1.5743,0.3935 1.771,0.5903 0.6958,0.6957 1.331,1.4813 1.7711,2.3614 0.088,0.176 -0.1761,0.5023 0,0.5903 0.6671,0.3336 2.7859,0.4246 3.542,1.1807 0.1391,0.1391 -0.088,0.4143 0,0.5903 0.276,0.552 2.3859,1.5824 2.9516,1.771 0.3734,0.1245 0.8532,-0.2183 1.1807,0 0.3661,0.2441 0.2242,0.9366 0.5903,1.1807 0.6751,0.45 1.6863,0.1403 2.3614,0.5903 1.2472,-0.1538 0.2242,0.9366 0.5903,1.1807 0.7322,0.4881 1.5742,0.7871 2.3614,1.1807 0.352,0.176 0.9023,-0.2783 1.1806,0 0.4175,0.4174 -0.1867,1.2109 0,1.771 0.592,1.776 3.3301,1.9374 4.1324,3.542 0.661,1.3221 1.268,3.039 2.3613,4.1323 0.5535,0.5535 1.8377,0.9855 2.3614,1.771 0.244,0.3661 0.2792,0.8696 0.5903,1.1807 0.3111,0.3111 0.8695,0.2792 1.1807,0.5903 1.4338,1.4338 -0.1756,0.8669 1.1806,1.771 0.3661,0.2441 0.8696,0.2792 1.1807,0.5904 1.2692,1.2692 1.7306,3.5016 2.9517,4.7226 0.5737,0.5737 1.6356,0.2275 2.3613,0.5904 1.5664,0.7832 2.1273,2.2443 3.542,2.9516 0.9994,0.4998 2.5061,0.2451 3.542,0.5904 0.3936,0.1968 0.7871,0.3935 1.1807,0.5903 0,0.1968 -0.176,0.5024 0,0.5904 0.352,0.176 0.8073,-0.1245 1.1807,0 0.528,0.176 0.6828,0.9317 1.1806,1.1806 0.176,0.088 0.3936,0 0.5904,0 0.3935,0.1968 0.8145,0.3463 1.1806,0.5904 1.1332,0.7554 1.8614,2.1339 2.9517,2.9516 0.704,0.528 1.7391,0.5584 2.3614,1.1807 0.1391,0.1391 -0.1638,0.4812 0,0.5903 0.5177,0.3452 1.331,0.1504 1.771,0.5904 0.2782,0.2783 -0.2362,0.8658 0,1.1806 -0.5083,3.5335 1.739,0.5584 2.3613,1.1807 1.2214,1.2214 -1.8665,-0.048 0.5903,1.1807 0.7574,0.3787 2.9349,0.9614 3.542,1.771 0.3734,0.4978 0.2452,1.2532 0.5904,1.771 0.087,0.1312 1.636,0.4554 1.771,0.5903 0.881,0.881 2.0334,3.3978 2.9517,4.1324 0.6871,0.5497 1.6852,0.6173 2.3613,1.1806 0.545,0.4542 0.8634,1.1365 1.1807,1.771 0.088,0.176 -0.1638,0.4812 0,0.5904 0.5177,0.3452 1.2732,0.217 1.771,0.5903 1.6622,0.037 0.1503,1.331 0.5903,1.771 0.7618,0.7618 1.1807,-0.3687 1.1807,1.771"
         id="path5" />
      <path
         style="fill:#0de9e6;fill-opacity:0;stroke:#d96b3b;stroke-width:5.02299;stroke-linecap:square;stroke-miterlimit:0;stroke-opacity:1;paint-order:fill markers stroke"
         d="m 1394.3711,1371.348 c 0.7871,0.1968 2.1645,1.3775 2.3613,0.5904 0.1968,-0.7872 -3.0104,-1.0772 -2.3613,-0.5904 2.9947,2.246 5.5119,2.9517 8.855,2.9517 0.5903,0 1.243,-0.264 1.771,0 1.4811,0.7406 1.9702,2.1657 3.542,2.9517 0.528,0.264 1.1983,-0.1432 1.771,0 0.8538,0.2134 1.7391,0.5584 2.3614,1.1806 0.1391,0.1392 -0.1867,0.5282 0,0.5904 0.56,0.1867 1.1921,-0.1158 1.771,0 1.3883,0.2776 2.4784,1.6523 3.542,2.3613 0.7137,0.4758 1.9823,-0.056 2.9517,0.5904 0.1637,0.1091 -0.176,0.5023 0,0.5903 0.352,0.176 0.8073,-0.1245 1.1806,0 0.528,0.176 0.6829,0.9318 1.1807,1.1807 0.352,0.176 0.8287,-0.176 1.1807,0 0.9445,0.4722 1.4168,1.889 2.3613,2.3613 0.176,0.088 0.4512,-0.1391 0.5903,0 0.2399,0.2399 1.7557,2.944 1.771,2.9517 0.3521,0.176 0.8287,-0.176 1.1807,0 0.176,0.088 -0.1391,0.4512 0,0.5903 0.2783,0.2783 0.9024,-0.2783 1.1807,0 0.2952,0.2952 0.2952,0.8855 0.5903,1.1807 0.1392,0.1391 0.5024,-0.176 0.5904,0 0.528,0.4657 -0.264,1.243 0,1.771 0.4085,0.8171 2.8593,1.5864 3.542,2.9517 0.4116,0.8233 0.1786,2.1283 0.5903,2.9516 0.3144,0.6289 0.8662,0.5518 1.1807,1.1807 0.4152,0.8305 1.276,3.6373 1.771,4.1323 1.0152,1.0153 2.6664,1.6383 3.542,2.9517 0.3452,0.5178 0.1503,1.331 0.5903,1.771 0.5737,0.5737 1.6357,0.2275 2.3614,0.5904 1.5266,0.7633 2.6983,2.2346 4.1323,2.9516 0.7257,0.3629 1.6357,0.2275 2.3613,0.5904 1.3317,0.6658 2.7852,1.6877 4.1324,2.3613 0.4961,0.2481 2.0182,0.2473 2.3613,0.5903 1.0604,1.0605 -2.5471,0.4352 1.1807,1.1807 0.5789,0.1158 1.243,-0.264 1.771,0 0.3936,0.1968 0.2792,0.8696 0.5903,1.1807 0.1392,0.1391 0.4512,-0.1392 0.5904,0 0.3627,0.3627 0.39,1.3757 1.1806,1.771 0.176,0.088 0.4512,-0.1392 0.5904,0 0.1391,0.1391 -0.1392,0.4512 0,0.5903 0.44,0.44 1.2144,0.3121 1.771,0.5904"
         id="path6" />
      <path
         style="fill:#0de9e6;fill-opacity:0;stroke:#d96b3b;stroke-width:5.02299;stroke-linecap:square;stroke-miterlimit:0;stroke-opacity:1;paint-order:fill markers stroke"
         d="m 1463.4403,1418.5748 c 2.1819,-0.1832 5.2366,2.3359 7.084,2.9517 0.1867,0.062 0.4512,-0.1391 0.5903,0 0.2952,0.2952 0.2952,0.8855 0.5904,1.1807 0.1047,0.1047 2.7875,1.2785 2.9516,1.771 0.2566,0.7697 0.2275,1.6356 0.5904,2.3613 0.088,0.176 0.4143,-0.088 0.5903,0 0.4978,0.2489 0.7871,0.7871 1.1807,1.1807 0.878,0.878 1.5504,2.1407 2.3613,2.9517 0.3916,0.3915 2.3359,0.7188 2.9517,1.1806 1.2662,0.9496 1.3687,1.9591 2.3613,2.9517 1.0194,1.0194 4.6959,2.737 5.9034,3.542 0.6946,0.4631 1.0243,1.3977 1.771,1.771 0.6054,0.3027 1.756,0.2877 2.3613,0.5903 0.7907,0.3954 0.818,1.4084 1.1807,1.7711 1.2214,1.2214 -0.048,-1.8665 1.1807,0.5903 0.088,0.176 -0.1392,0.4512 0,0.5903 0.1391,0.1392 0.4329,-0.118 0.5903,0 1.1131,0.8349 2.1798,1.794 2.9517,2.9517 0.1091,0.1637 -0.176,0.5023 0,0.5903 0.352,0.176 0.8532,-0.2183 1.1806,0 0.3662,0.2441 0.2792,0.8696 0.5904,1.1807 0.3111,0.3111 0.9366,0.2242 1.1806,0.5903 0.2184,0.3275 -0.2782,0.9024 0,1.1807 0.2783,0.2783 0.8287,-0.176 1.1807,0 1.1807,0.5903 1.771,2.3613 2.9517,2.9517 0.176,0.088 0.4512,-0.1392 0.5903,0 0.1392,0.1391 -0.1391,0.4512 0,0.5903 1.3955,1.3955 3.1832,2.182 4.7227,2.9517 2.4568,1.2284 -0.6311,-0.041 0.5903,1.1807 0.4401,0.44 1.2533,0.2451 1.771,0.5903 1.1695,-0.059 0.2792,0.8695 0.5904,1.1807 0.1391,0.1391 0.4266,-0.1092 0.5903,0 1.532,1.0213 0.9,1.0547 1.771,2.3613 0.7008,1.0512 1.4125,0.2318 2.3614,1.1807 0.1391,0.1391 -0.1392,0.4512 0,0.5903 0.3111,0.3111 0.8695,0.2792 1.1806,0.5903 2.1776,2.1776 -1.4137,0.2383 1.771,2.3614 0.9161,0.6107 0.3841,-1.0028 1.1807,0.5903 0.088,0.176 -0.1391,0.4512 0,0.5904 0.2952,0.2951 1.4758,-0.2952 1.771,0 0.7871,0.7871 -1.2523,0.5664 0.5903,1.1806 0.3734,0.1245 0.8287,-0.176 1.1807,0 0.176,0.088 -0.1091,0.4266 0,0.5904 0.3087,0.4631 0.7087,0.8856 1.1807,1.1806 1.3453,0.8409 2.7133,1.6519 4.1323,2.3614 1.4154,0.7076 4.2241,0.9093 5.313,2.3613 0.3734,0.4978 0.2452,1.2533 0.5904,1.771 0.3452,0.5178 1.2532,0.2452 1.771,0.5903 0.9262,0.6175 1.6487,1.5062 2.3613,2.3614 0.4542,0.545 0.8634,1.1364 1.1807,1.771 0.088,0.176 -0.1392,0.4512 0,0.5903 1.1421,1.1421 3.3314,1.9401 4.1323,3.542 0.521,1.0419 -1.2528,0.3887 0.5904,1.771 0.4978,0.3734 1.2144,0.3121 1.771,0.5904 0.4978,0.2489 0.6828,0.9317 1.1806,1.1806 0.1761,0.088 0.5024,-0.176 0.5904,0 0.176,0.3521 -0.1245,0.8074 0,1.1807 0.264,0.792 1.2701,1.1031 1.771,1.771 0.264,0.352 0.2242,0.9366 0.5903,1.1807 0.3275,0.2183 0.8287,-0.176 1.1807,0 0.5566,0.2783 0.1503,1.331 0.5903,1.771 0.3056,0.3055 2.0558,0.2848 2.3614,0.5903 0.043,0.043 1.4207,2.3246 2.3613,2.9517 1.2218,0.8145 2.7564,0.7878 3.542,1.1807 0.176,0.088 -0.1867,0.5281 0,0.5903 0.5601,0.1867 1.2229,-0.2192 1.771,0 1.3608,0.5443 1.4916,2.0819 2.3614,2.9517 1.2511,1.2512 1.3544,0.058 2.9516,0.5903 0.1867,0.062 -0.1391,0.4512 0,0.5904 0.4918,0.4917 4.0633,1.9217 4.7227,2.3613 0.6947,0.4631 1.0243,1.3976 1.771,1.771 0.176,0.088 0.4512,-0.1391 0.5904,0 0.439,0.4391 0.3369,1.7988 1.1806,2.3613 0.7402,0.4935 2.428,0.657 2.9517,1.1807 0.3111,0.3111 0.2792,0.8695 0.5903,1.1807 0.7171,0.7171 2.6486,1.9146 3.542,2.3613 1.3104,0.6552 3.4529,0.9245 4.7227,1.771 0.1638,0.1092 -0.1391,0.4512 0,0.5904 0.6957,0.6957 1.428,1.4598 2.3614,1.771 0.855,0.285 2.1154,0.1722 2.9516,0.5903 0.6346,0.3173 1.1364,0.8634 1.771,1.1807 0.176,0.088 0.4512,-0.1392 0.5904,0 0.1391,0.1391 -0.1392,0.4512 0,0.5903 0.8516,0.8516 3.2945,0.3429 4.1323,1.1807 0.1392,0.1391 -0.1391,0.4512 0,0.5903 0.028,0.028 3.1295,0.3841 3.542,0.5903 0.2489,0.1245 0.3264,0.5024 0.5904,0.5904 0.3733,0.1244 0.8286,-0.176 1.1806,0 0.176,0.088 -0.1391,0.4512 0,0.5903 0.2783,0.2783 0.9024,-0.2783 1.1807,0 0.1391,0.1392 -0.1391,0.4512 0,0.5903 0.4824,0.4824 3.0596,0.108 3.542,0.5904 0.1392,0.1391 -0.1391,0.4512 0,0.5903 0.371,0.371 3.6283,0 4.1324,0"
         id="path7" />
      <path
         style="fill:#0de9e6;fill-opacity:0;stroke:#d96b3b;stroke-width:5.02299;stroke-linecap:square;stroke-miterlimit:0;stroke-opacity:1;paint-order:fill markers stroke"
         d="m 1619.879,1528.3771 c 2.3287,-0.4242 1.9995,2.5898 2.9517,3.542 0.1391,0.1392 0.5023,-0.176 0.5903,0 0.176,0.352 -0.2782,0.9024 0,1.1807 0.2783,0.2783 0.8073,-0.1245 1.1807,0 1.8426,0.6142 -0.1968,0.3936 0.5903,1.1807 1.2215,1.2214 -0.048,-1.8665 1.1807,0.5903 0.4072,0.8143 -0.7149,0.528 0.5903,1.1807 0.1761,0.088 0.4512,-0.1392 0.5904,0 0.44,0.44 0.1503,1.331 0.5903,1.771 0.1088,0.1088 1.6622,0.4815 1.771,0.5903 0.1392,0.1392 -0.1391,0.4512 0,0.5903 0.1392,0.1392 0.4144,-0.088 0.5904,0 2.4568,1.2285 -0.6311,-0.041 0.5903,1.1807 0.1391,0.1392 0.4512,-0.1391 0.5903,0 1.2215,1.2214 -1.8665,-0.048 0.5904,1.1807 1.1729,0.5865 0.6454,0.6454 1.1806,1.1807 0.1392,0.1391 0.4512,-0.1392 0.5904,0 0.44,0.44 0.1503,1.3309 0.5903,1.771 0.3679,0.3679 1.4332,0.5335 2.3613,1.771 0.4185,0.5579 1.585,3.3559 1.771,3.542 0.4902,0.4902 2.2697,2.0203 2.9517,2.3613 0.352,0.176 0.9024,-0.2783 1.1807,0 0.2598,0.2598 0.6191,2.0806 1.1807,2.3614 0.528,0.264 1.1983,-0.1432 1.771,0 0.6027,0.1506 0.9381,1.5285 1.1806,1.771 0.7057,0.7056 2.1652,1.3777 2.9517,1.771 0.9042,0.452 0.4617,1.0519 1.1807,1.771 0.2783,0.2783 0.8286,-0.176 1.1806,0 0.4979,0.2489 0.6829,0.9317 1.1807,1.1806 0.176,0.088 0.4512,-0.1391 0.5904,0 0.1391,0.1392 -0.1392,0.4512 0,0.5904 0.3142,0.3142 3.0242,1.5984 3.542,1.771 0.3733,0.1244 0.9023,-0.2783 1.1806,0 0.2783,0.2783 -0.176,0.8286 0,1.1806 0.069,0.1387 2.6167,0.8457 2.9517,1.1807 0.2952,0.2952 0.2952,0.8855 0.5903,1.1807 0.8615,0.8615 2.402,0.041 2.9517,0.5903 0.1392,0.1392 -0.176,0.5024 0,0.5904 0.5359,0.2679 3.3671,0.4154 3.542,0.5903 0.3112,0.3111 0.2243,0.9366 0.5904,1.1807 0.686,0.4573 2.9629,-0.5791 3.542,0 0.1391,0.1391 -0.1392,0.4512 0,0.5903 0.2783,0.2783 0.8073,-0.1245 1.1806,0 0.4175,0.1391 0.7633,0.4512 1.1807,0.5903 1.0008,0.3336 4.918,0.1953 5.313,0.5904 0.1392,0.1391 -0.176,0.5023 0,0.5903 0.352,0.176 0.8073,-0.1245 1.1807,0 0.264,0.088 0.3936,0.3936 0.5903,0.5903 0.3936,0.1968 0.7633,0.4512 1.1807,0.5904 1.2052,0.4017 2.9922,0.3255 4.1323,1.1806 0.3521,0.264 0.2792,0.8696 0.5904,1.1807 0.6859,0.6859 3.2907,0.7599 4.1323,1.1807 0.1151,0.058 0.4623,1.0526 0.5904,1.1806 0.2782,0.2783 0.8286,-0.176 1.1806,0 0.2489,0.1245 0.3415,0.4659 0.5904,0.5904 0.5405,0.2703 2.6445,-0.077 2.9516,0 1.2901,0.3225 1.2382,1.7997 2.3614,2.3613 0.6628,0.3314 2.4947,0.1334 2.9517,0.5904 0.128,0.128 0.4752,1.1231 0.5903,1.1806 0.528,0.264 1.243,-0.264 1.771,0 0.4978,0.2489 0.6527,1.0047 1.1807,1.1807 0.3733,0.1245 0.8286,-0.176 1.1806,0 0.176,0.088 0,0.3936 0,0.5903 0.3936,0.1968 0.7633,0.4512 1.1807,0.5904 0.1867,0.062 0.5023,-0.176 0.5903,0 0.176,0.352 -0.1244,0.8073 0,1.1806 0.096,0.2869 3.7924,2.3614 4.1324,2.3614"
         id="path8" />
      <path
         style="fill:#0de9e6;fill-opacity:0;stroke:#d96b3b;stroke-width:5.02299;stroke-linecap:square;stroke-miterlimit:0;stroke-opacity:1;paint-order:fill markers stroke"
         d="m 1713.7423,1588.5913 c 3.5436,-0.9617 2.0958,2.8189 3.542,3.542 0.8383,0.4191 2.8067,0.4454 3.542,1.1807 0.1391,0.1391 -0.088,0.4143 0,0.5903 0.3953,0.7907 1.4083,0.818 1.771,1.1807 0.1391,0.1391 -0.1391,0.4512 0,0.5903 0.5737,0.5737 1.6863,0.1403 2.3613,0.5903 0.1638,0.1092 -0.1391,0.4512 0,0.5904 0.2952,0.2951 1.4759,-0.2952 1.771,0 0.3112,0.3111 0.2793,0.8695 0.5904,1.1806 0.4562,0.4562 2.2342,0.2316 2.9517,0.5904 0.4978,0.2489 0.6828,0.9317 1.1806,1.1806 0.352,0.176 0.9024,-0.2782 1.1807,0 0.1391,0.1392 -0.1391,0.4512 0,0.5904 0.6379,0.6379 3.0805,0.1288 3.542,0.5903 0.1392,0.1392 -0.1391,0.4512 0,0.5903 0.683,0.683 3.5258,0.5742 4.1324,1.1807 0.3111,0.3111 0.2792,0.8696 0.5903,1.1807 0.409,0.409 2.5426,0.1813 2.9517,0.5903 0.2951,0.2952 0.2951,0.8855 0.5903,1.1807 0.2783,0.2783 0.8287,-0.176 1.1807,0 0.4405,0.2203 2.1677,0.987 2.3613,1.1807 0.6423,0.6423 -1.0475,0.7712 0.5903,1.1806 0.7637,0.1909 1.8048,-0.5565 2.3614,0 1.0965,1.0965 1.3817,2.4954 2.9517,3.542 0.6646,0.4431 3.1269,1.356 3.542,1.771 0.3111,0.3112 0.2792,0.8696 0.5903,1.1807 0.6185,0.6185 2.5037,0.7327 2.9517,1.1807 0.1391,0.1391 -0.1392,0.4512 0,0.5903 0.1003,0.1003 9.8241,1.5705 10.626,1.771 1.0299,0.2575 1.0999,1.0999 1.771,1.771 0.3397,0.3397 2.2743,0.842 2.9517,1.1807 0.6297,0.3148 1.7316,-0.3148 2.3613,0 1.4632,0.7316 2.2377,0.1555 3.542,0.5903 0.264,0.088 0.3415,0.4659 0.5904,0.5904 1.2565,0.6282 3.863,0 5.313,0"
         id="path9" />
      <path
         style="fill:#0de9e6;fill-opacity:0;stroke:#d96b3b;stroke-width:5.02299;stroke-linecap:square;stroke-miterlimit:0;stroke-opacity:1;paint-order:fill markers stroke"
         d="m 1788.7148,1621.65 c 0.7871,-0.1967 1.5658,-0.4312 2.3614,-0.5903 2.6995,-0.5399 14.2521,0.8434 15.939,0 0.2489,-0.1245 0.3204,-0.5228 0.5903,-0.5903 1.7343,-0.4336 14.9542,-0.3938 16.5294,0 2.8507,0.7126 -0.029,0.2805 1.771,1.1806 0.8474,0.4237 2.0336,0.2844 2.9517,0.5904 0.8349,0.2783 1.5076,0.9672 2.3613,1.1806 3.7035,0.9259 12.6969,-1.0807 15.9391,0 1.0429,0.3477 1.7364,1.4672 2.9516,1.771 0.5728,0.1432 1.507,-0.528 1.7711,0 0.5119,1.024 -0.2077,1.3083 1.1806,1.771 2.0751,0.6917 7.6282,0 10.0357,0 1.2601,0 1.9025,0.066 2.9517,0.5904 1.0044,0.5022 10.5587,0 12.397,0"
         id="path10" />
      <path
         style="fill:#0de9e6;fill-opacity:0;stroke:#d96b3b;stroke-width:5.02299;stroke-linecap:square;stroke-miterlimit:0;stroke-opacity:1;paint-order:fill markers stroke"
         d="m 1878.4457,1627.5534 c 2.2958,1.6494 1.8386,-1.4927 2.9517,-1.771 0.7636,-0.1909 1.6573,0.352 2.3613,0 2.145,-1.0725 4.9058,-0.092 5.9034,-0.5904 2.3799,-1.1899 6.5737,-0.5903 9.4453,-0.5903 1.6603,0 4.9917,-0.751 6.4937,0 0.2489,0.1245 0.3415,0.4659 0.5904,0.5903 0.3564,0.1783 1.4981,-0.2728 1.771,0 0.1391,0.1392 -0.1392,0.4512 0,0.5904 0.2783,0.2783 0.9024,-0.2783 1.1806,0 0.2363,0.2363 0.3198,0.7502 1.1807,1.1806 0.352,0.1761 0.9024,-0.2782 1.1807,0 0.1391,0.1392 -0.1392,0.4512 0,0.5904 0.2783,0.2783 0.7947,-0.077 1.1806,0 2.1331,0.4266 2.5033,0.9564 4.1324,1.771 0.8319,0.4159 2.0695,0.7396 2.9517,1.1807 0.6297,0.3148 1.7316,-0.3149 2.3613,0 0.3779,0.1889 2.121,0.9403 2.3613,1.1806 0.3112,0.3112 0.2792,0.8696 0.5904,1.1807 0.1391,0.1391 0.4143,-0.088 0.5903,0 0.4978,0.2489 0.6829,0.9318 1.1807,1.1807 0.9519,0.4759 1.9732,0.6914 2.9517,1.1806 0.7217,0.3609 2.143,-0.1347 2.9516,0 0.9898,0.165 1.962,0.4254 2.9517,0.5904 1.5037,0.2506 3.2465,-0.3691 4.7227,0 0.9475,0.2368 1.991,1.0205 2.9517,1.1806 0.7764,0.1294 1.5849,-0.1294 2.3613,0 1.7691,0.2949 0.755,0.9679 2.3613,1.771 0.7257,0.3629 1.6081,0.2891 2.3614,0.5904 0.2584,0.1033 0.3263,0.5023 0.5903,0.5903 0.3734,0.1245 0.8287,-0.176 1.1807,0 0.176,0.088 -0.1392,0.4512 0,0.5904 0.1391,0.1391 0.4512,-0.1392 0.5903,0 0.1392,0.1391 -0.088,0.4143 0,0.5903 0.5144,1.0288 2.579,0.5903 3.542,0.5903"
         id="path11" />
      <path
         style="fill:#0de9e6;fill-opacity:0;stroke:#d96b3b;stroke-width:5.02299;stroke-linecap:square;stroke-miterlimit:0;stroke-opacity:1;paint-order:fill markers stroke"
         d="m 1958.7313,1643.4924 c 1.3805,0.05 2.2614,1.4509 3.542,1.771 0.076,0.019 2.1849,-0.1763 2.3613,0 0.1392,0.1392 -0.1391,0.4512 0,0.5904 0.2474,0.2473 1.4132,0.4114 1.771,0.5903 1.5449,0.7725 3.0849,2.2966 4.7227,2.9517 0.3654,0.1461 0.8287,-0.176 1.1807,0 0.176,0.088 -0.1638,0.4812 0,0.5903 0.318,0.212 3.2967,0.3451 3.542,0.5903 0.3306,0.3307 0.3392,0.9002 1.1807,1.1807 0.43,0.1434 2.7389,0.165 2.9516,0.5903 0.5632,1.1264 -0.6765,1.1376 0.5904,1.7711 0.176,0.088 0.4512,-0.1392 0.5903,0 0.1391,0.1391 -0.176,0.5023 0,0.5903 1.073,0.5365 3.0992,0.074 4.1323,0.5903 0.8701,0.435 2.0557,2.1374 2.9517,2.3614 0.5727,0.1431 1.2798,-0.3275 1.771,0 0.3275,0.2183 -0.176,0.8286 0,1.1806 0.2496,0.4992 1.8532,0.3871 2.3614,0.5904 1.5405,0.6162 5.1961,3.2176 6.4936,3.542 1.3375,0.3343 3.425,-0.5191 4.7227,0 1.8339,0.7335 3.6772,1.5434 5.313,2.3613 0.4723,0.2362 1.2988,-0.2361 1.771,0 0.1761,0.088 -0.176,0.5024 0,0.5904 0.4657,0.528 1.243,-0.2641 1.7711,0 2.7401,1.37 5.4354,0.6392 8.2646,1.771 0.6558,0.2623 1.1341,0.8621 1.771,1.1806 1.1792,0.5896 4.4284,-0.8847 5.3131,0 0.2168,0.2168 1.565,2.3099 1.771,2.3614 0.7636,0.1909 1.6573,-0.352 2.3613,0 0.861,0.4304 0.9444,0.9443 1.1807,1.1806 0.2783,0.2783 0.8286,-0.176 1.1806,0 0.2673,0.1337 2.9408,1.7492 2.9517,1.771 0.176,0.352 -0.176,0.8287 0,1.1807 0.088,0.176 0.4143,-0.088 0.5904,0 1.3052,0.6526 0.1831,0.3664 0.5903,1.1807 1.2284,2.4568 -0.041,-0.6311 1.1807,0.5903 0.7871,0.7871 -1.2523,0.5665 0.5903,1.1807 0.5606,0.1869 1.6407,0.3298 1.771,0.5903 0.2361,0.4723 -0.2361,1.2988 0,1.771 0.4503,0.9006 1.3308,1.4809 1.771,2.3614 0.5714,1.1427 0,4.4668 0,5.9033 0,0.3936 0,0.7871 0,1.1807 0.1968,0 0.5023,-0.176 0.5903,0 0.5165,1.0329 0,3.5096 0,4.7227"
         id="path12" />
    </g>
  </g>
</svg>
