<?xml version="1.0" encoding="UTF-8" standalone="no"?>
<!-- Created with Inkscape (http://www.inkscape.org/) -->

<svg
   version="1.1"
   id="svg1"
   width="3200"
   height="2400"
   viewBox="0 0 3200 2400"
   sodipodi:docname="gimli-path.svg"
   inkscape:version="1.3.2 (091e20e, 2023-11-25, custom)"
   xmlns:inkscape="http://www.inkscape.org/namespaces/inkscape"
   xmlns:sodipodi="http://sodipodi.sourceforge.net/DTD/sodipodi-0.dtd"
   xmlns="http://www.w3.org/2000/svg"
   xmlns:svg="http://www.w3.org/2000/svg">
  <defs
     id="defs1" />
  <sodipodi:namedview
     id="namedview1"
     pagecolor="#ffffff"
     bordercolor="#999999"
     borderopacity="1"
     inkscape:showpageshadow="2"
     inkscape:pageopacity="0"
     inkscape:pagecheckerboard="0"
     inkscape:deskcolor="#d1d1d1"
     showgrid="false"
     inkscape:zoom="0.35355339"
     inkscape:cx="1299.6623"
     inkscape:cy="1438.2552"
     inkscape:window-width="1920"
     inkscape:window-height="974"
     inkscape:window-x="-11"
     inkscape:window-y="-11"
     inkscape:window-maximized="1"
     inkscape:current-layer="g1" />
  <g
     inkscape:groupmode="layer"
     inkscape:label="Image"
     id="g1">
    <g
       id="g2">
      <path
         style="fill:#0de9e6;fill-opacity:0;stroke:#a926f2;stroke-width:5.02299;stroke-linecap:square;stroke-miterlimit:0;stroke-dasharray:none;stroke-opacity:1;paint-order:fill markers stroke"
         d="m 1541.0014,645.06089 c 0.4421,4.26659 -0.6062,8.74732 0,12.99053 0.2203,1.54259 0.8545,3.01233 1.2178,4.4655 0.1274,0.50943 -0.1273,1.11438 0,1.62381 0.3815,1.52607 1.3734,2.34082 2.0298,3.65359 0.6481,1.29616 0.035,1.32279 0.4059,2.43572 0.1624,0.48715 1.0555,0.73072 1.2179,1.21786 0.5859,1.75763 -0.7761,-0.1492 0.406,1.62382 0.2123,0.31846 0.6407,0.46958 0.8119,0.81191 0.121,0.24206 -0.1211,0.56984 0,0.81191 0.1711,0.34233 0.6611,0.46011 0.8119,0.8119 0.5582,1.30255 1.212,4.05072 2.0297,5.27741 0.5359,0.80377 1.7204,2.72533 2.0298,3.65358 0.1218,0.36536 -0.1218,0.8525 0,1.21786 0.5787,1.73614 1.2543,3.32046 2.0298,4.87145 0.4472,0.89443 0.071,0.953 0.4059,1.62382 0.1712,0.34233 0.6408,0.46957 0.8119,0.81191 0.2421,0.48405 0.4461,1.66396 0.812,2.02977 0.096,0.0957 0.3102,-0.0957 0.4059,0 0.2871,0.28705 -0.1284,0.83274 0,1.21786 0.1836,0.55089 1.2374,2.43572 1.6238,2.43572"
         id="path10" />
      <path
         style="fill:#0de9e6;fill-opacity:0;stroke:#a926f2;stroke-width:5.02299;stroke-linecap:square;stroke-miterlimit:0;stroke-dasharray:none;stroke-opacity:1;paint-order:fill markers stroke"
         d="m 1558.4574,699.86468 c 0.3638,3.04529 0.7592,6.3002 0,9.33694 -0.2484,0.99341 0.083,1.05256 -0.406,2.02977 -0.1948,0.38962 0.13,1.23397 0,1.62382 -0.2732,0.81965 -1.609,1.5943 -2.0297,2.43572 -0.2082,0.4163 -0.1979,1.20753 -0.406,1.62382 -1.2042,2.40849 -3.0619,4.38984 -4.4655,6.49526 -0.5394,0.8091 -0.121,1.74482 -0.8119,2.43573 -0.096,0.0957 -0.3103,-0.0957 -0.406,0 -0.3666,0.3666 -0.57,1.54608 -0.8119,2.02977 -0.1711,0.34233 -0.6908,0.44881 -0.8119,0.81191 -0.4801,1.44045 0.6579,0.2054 -0.4059,1.62381 -0.3581,0.47743 -1.3381,1.05233 -1.6238,1.62382 -0.1776,0.35519 -0.2312,1.36168 -0.406,1.62381 -0.1678,0.25177 -0.5601,0.23812 -0.8119,0.40596 -0.9099,0.6066 -0.5318,1.34366 -1.2179,2.02977 -0.096,0.0957 -0.3102,-0.0957 -0.4059,0 -0.3548,0.3548 -0.2051,1.62793 -0.406,2.02977 -0.1353,0.27063 -0.6766,0.13532 -0.8119,0.40595 -0.121,0.24207 0.121,0.56985 0,0.81191 -0.8088,1.61758 -0.8123,0.002 -1.2178,1.62382 -0.5478,2.19084 1.3457,-1.16038 -0.812,2.43572 -0.3938,0.65648 -0.9325,0.0987 -1.2178,0.81191 -0.2563,0.64064 0.082,1.54187 -0.406,2.02977 -0.8399,0.83993 0.033,-1.28353 -0.8119,0.40595 -0.4205,0.84108 -1.3011,1.87368 -1.6238,2.84168 -0.086,0.25675 0.121,0.56984 0,0.81191 -0.3875,0.77498 -1.1432,1.30883 -1.6238,2.02977 -0.4314,0.64711 -1.0371,3.47283 -1.2179,3.65358 -0.096,0.0957 -0.3102,-0.0957 -0.4059,0 -0.1672,0.16722 -0.3158,0.94723 -0.406,1.21787 -0.811,2.43305 0.1039,-1.01964 -1.2178,1.62381 -0.1624,0.32477 0.1623,0.8931 0,1.21786 -0.6172,1.23433 -1.7984,2.3788 -2.4358,3.65359 -0.061,0.12103 0,0.27064 0,0.40595 -0.1353,0.27064 -0.2244,0.56985 -0.4059,0.81191 -0.3445,0.45929 -0.9611,0.70437 -1.2179,1.21786 -0.121,0.24207 0.1211,0.56985 0,0.81191 -0.1711,0.34233 -0.6407,0.46958 -0.8119,0.81191 -0.061,0.12103 0,0.27064 0,0.40595 -0.1353,0.27064 -0.2381,0.56015 -0.4059,0.81191 -0.2123,0.31846 -0.6408,0.46958 -0.812,0.81191 -0.061,0.12103 0.1211,0.34544 0,0.40595 -0.242,0.12104 -0.5698,-0.12103 -0.8119,0 -0.242,0.12104 0.1914,0.62054 0,0.81191 -0.5412,0.54127 -0.4059,-0.67659 -0.4059,0.40596"
         id="path11" />
      <path
         style="fill:#0de9e6;fill-opacity:0;stroke:#a926f2;stroke-width:5.02299;stroke-linecap:square;stroke-miterlimit:0;stroke-dasharray:none;stroke-opacity:1;paint-order:fill markers stroke"
         d="m 1522.3275,771.31259 c -0.4643,1.05361 0.3636,2.56262 0,3.65358 -0.3104,0.93104 -0.8727,0.58814 -1.2179,1.62382 -0.086,0.25675 0.121,0.56984 0,0.81191 -0.1712,0.34233 -0.6407,0.46957 -0.8119,0.8119 -0.2156,0.43114 -0.044,1.26194 -0.406,1.62382 -0.096,0.0957 -0.3102,-0.0957 -0.4059,0 -0.096,0.0957 0.061,0.28492 0,0.40595 -0.4132,0.82638 -1.2357,1.6595 -1.6238,2.43573 -0.2398,0.47958 -0.9193,0.77003 -1.2179,1.21786 -0.8944,0.20444 -0.2146,0.83512 -0.4059,1.21786 -0.1712,0.34233 -0.6408,0.46958 -0.8119,0.81191 -0.4402,0.88023 -0.8624,2.08017 -1.6239,2.84168 -0.2139,0.21395 -0.5979,0.19199 -0.8119,0.40595 -0.1913,0.19137 0.1211,0.56985 0,0.81191 -0.8447,1.68948 0.028,-0.43398 -0.8119,0.40595 -0.2353,0.23529 -0.5766,1.38853 -0.8119,1.62382 -0.5413,0.54127 -0.3895,-0.86116 -0.8119,0.40595 -0.086,0.25675 0.086,0.55516 0,0.81191 -0.121,0.3631 -0.6407,0.46958 -0.8119,0.81191 -0.061,0.12103 0.096,0.31027 0,0.40595 -0.2494,0.24941 -0.946,0.2682 -1.2179,0.81191 -0.1705,0.34116 -0.17,1.38789 -0.4059,1.62382 -0.096,0.0957 -0.2707,0 -0.406,0 -0.1353,0.13532 -0.2998,0.24672 -0.4059,0.40595 -0.2374,0.35605 -0.1686,0.86182 -0.406,1.21786 -0.2123,0.31846 -0.6407,0.46958 -0.8119,0.81191 -0.121,0.24207 0.086,0.55516 0,0.81191 -0.1818,0.54534 -1.6647,1.25879 -2.0298,1.62382 -0.8865,0.88651 -0.084,0.6591 -0.4059,1.62381 -0.2151,0.64527 -1.3172,1.01052 -1.6238,1.62382 -0.615,1.22988 -1.1673,2.50356 -2.0298,3.65358 0.041,0.80422 -0.5979,0.192 -0.8119,0.40596 -0.51,0.51 -0.1156,1.44904 -0.406,2.02977 -0.06,0.12103 -0.2933,-0.0751 -0.4059,0 -0.3185,0.2123 -0.5996,0.49345 -0.8119,0.81191 -0.1985,0.29764 -0.1745,1.3923 -0.406,1.62381 -0.096,0.0957 -0.3102,-0.0957 -0.4059,0 -0.2472,0.24714 -0.9301,3.48403 -1.2179,4.05954 -0.8447,1.68948 0.028,-0.43398 -0.8119,0.40595 -0.582,0.58203 -0.1798,1.64429 -0.406,2.43573 0.2447,0.73475 -0.6576,0.755 -0.8119,1.21786 -0.085,0.25675 0.086,0.55516 0,0.81191 -0.061,0.18155 -0.3075,0.24186 -0.4059,0.40595 -0.055,0.091 -0.902,2.52581 -1.2179,2.84168 -0.096,0.0957 -0.3102,-0.0957 -0.4059,0 -0.1582,0.15818 0,1.37609 0,1.62382"
         id="path13" />
      <path
         style="fill:#0de9e6;fill-opacity:0;stroke:#a926f2;stroke-width:5.02299;stroke-linecap:square;stroke-miterlimit:0;stroke-dasharray:none;stroke-opacity:1;paint-order:fill markers stroke"
         d="m 1492.6928,828.14614 c 1.3838,0.47548 -0.5038,2.08595 0,2.84168 1.2021,1.80303 3.5038,3.33301 5.6834,4.05954 0.6009,0.2003 1.4074,-0.12447 2.0298,0 1.5535,0.3107 2.613,1.33453 4.0595,1.62382 1.2226,0.24452 2.1783,0.27724 3.2476,0.81191 1.2932,0.6466 3.4872,-0.46142 4.8715,0 0.1815,0.0605 0.2183,0.36842 0.4059,0.40595 2.3926,0.47851 4.8851,0.002 7.3072,0.40595 1.9179,0.31966 3.2977,0.40596 5.2774,0.40596 0.1353,0 0.3103,-0.0957 0.406,0 0.096,0.0957 -0.096,0.31027 0,0.40595 0.3379,0.33797 2.5385,0 3.2476,0"
         id="path14" />
      <path
         style="fill:#0de9e6;fill-opacity:0;stroke:#a926f2;stroke-width:5.02299;stroke-linecap:square;stroke-miterlimit:0;stroke-dasharray:none;stroke-opacity:1;paint-order:fill markers stroke"
         d="m 1529.6346,839.51286 c 3.2477,0 6.4953,0 9.7429,0"
         id="path15" />
      <path
         style="fill:#0de9e6;fill-opacity:0;stroke:#a926f2;stroke-width:5.02299;stroke-linecap:square;stroke-miterlimit:0;stroke-dasharray:none;stroke-opacity:1;paint-order:fill markers stroke"
         d="m 1539.7835,839.1069 c -0.5413,0 -1.0931,-0.10615 -1.6238,0 -0.8916,0.17832 -2.7075,1.96266 -3.6536,2.43573 -0.4311,0.21556 -1.2619,0.0441 -1.6238,0.40595 -0.096,0.0957 0,0.27064 0,0.40595 -0.1353,0.13532 -0.2467,0.29981 -0.406,0.40596 -1.3634,0.90896 -2.7453,1.7786 -4.0595,2.43572 -1.6895,0.84474 0.434,-0.028 -0.406,0.81191 -0.6531,0.65317 -1.6695,0.30113 -2.4357,0.81191 -0.6634,0.44229 -2.2456,1.73174 -2.8417,2.02977 -0.242,0.12103 -0.6205,-0.19137 -0.8119,0 -0.096,0.0957 0.096,0.31027 0,0.40595 -0.096,0.0957 -0.2849,-0.0605 -0.4059,0 -0.9006,0.45029 -1.6081,1.47797 -2.4358,2.02977 -0.3875,0.25839 -1.1541,0.49878 -1.6238,0.81191 -0.5548,0.36987 -0.5813,0.75669 -0.8119,1.21786 -0.2797,0.55945 -0.9521,0.54612 -1.2178,0.81191 -0.2917,0.29168 -0.489,1.70683 -0.812,2.02977 -0.096,0.0957 -0.3102,-0.0957 -0.4059,0 -0.096,0.0957 0.061,0.28492 0,0.40595 -0.1442,0.28832 -0.6678,0.5236 -0.8119,0.81191 -0.3381,0.67619 -0.3048,2.74053 -0.8119,3.24763 -0.096,0.0957 -0.3103,-0.0957 -0.406,0 -0.3603,0.36037 -0.1549,1.93362 -0.4059,2.43573 -0.4297,0.8594 -0.5711,1.47244 -0.8119,2.43572 -0.1899,0.75954 -0.8949,2.3033 -1.2179,2.84168 -0.3869,0.64475 -1.2179,0.8023 -1.2179,1.62382 0,0.24715 -1.7802,3.56053 -2.0297,4.05954 -0.4872,0.97429 -1.9486,1.46143 -2.4358,2.43572 -0.4736,0.94723 0.5075,0.81191 -0.4059,0.81191"
         id="path16" />
      <path
         style="fill:#0de9e6;fill-opacity:0;stroke:#a926f2;stroke-width:5.02299;stroke-linecap:square;stroke-miterlimit:0;stroke-dasharray:none;stroke-opacity:1;paint-order:fill markers stroke"
         d="m 1502.8417,876.86062 c -1.8526,3.12109 -3.9448,4.6265 -6.0893,7.30718 -0.189,0.23627 -0.192,0.59795 -0.406,0.8119 -0.1914,0.19137 -0.6205,-0.19136 -0.8119,0 -0.3009,0.3009 0.098,1.11995 -0.4059,1.62382 -0.3858,0.38575 -1.7795,0.46687 -2.0298,1.21786 -0.086,0.25675 0.086,0.55516 0,0.81191 -0.2319,0.69573 -1.6405,1.44583 -2.0298,2.02977 -0.6952,1.04278 -1.0669,2.69076 -2.0298,3.65359 -0.096,0.0957 -0.3102,-0.0957 -0.4059,0 -1.0406,0.11408 -0.1492,0.87553 -0.406,1.21786 -1.3467,1.79561 -1.0831,0.54237 -2.0297,2.43572 -0.6355,1.2709 -3.253,6.08931 -4.8715,6.08931"
         id="path17" />
      <path
         style="fill:#0de9e6;fill-opacity:0;stroke:#a926f2;stroke-width:5.02299;stroke-linecap:square;stroke-miterlimit:0;stroke-dasharray:none;stroke-opacity:1;paint-order:fill markers stroke"
         d="m 1480.9202,903.65359 c 0,0.54127 0,1.08254 0,1.62381 -0.1354,0.27064 -0.3562,0.51345 -0.406,0.81191 -0.1313,0.7881 -0.2274,5.407 0,6.08931 0.2702,0.81049 1.3808,1.05751 1.6238,2.02977 0.1042,0.41674 0.094,1.31147 0.406,1.62382 0.096,0.0957 0.3103,-0.0957 0.4059,0 0.2543,0.25422 -0.016,0.79549 0.406,1.21786"
         id="path18" />
      <path
         style="fill:#0de9e6;fill-opacity:0;stroke:#a926f2;stroke-width:5.02299;stroke-linecap:square;stroke-miterlimit:0;stroke-dasharray:none;stroke-opacity:1;paint-order:fill markers stroke"
         d="m 1482.9499,917.86198 c 1.1791,3.08156 2.5454,3.24763 8.5251,3.24763 1.0584,0 4.5476,0.32377 5.2774,-0.40595 0.096,-0.0957 -0.096,-0.31027 0,-0.40596 0.287,-0.28705 0.8547,0.18155 1.2178,0 0.1211,-0.0605 -0.096,-0.31027 0,-0.40595 0.406,-0.40596 2.0298,0.40595 2.4358,0 0.096,-0.0957 -0.096,-0.31027 0,-0.40596 0.1192,-0.11927 3.6677,-1.89917 4.0595,-2.02977 0.7277,-0.24258 2.1748,-0.0725 2.8417,-0.40595 0.121,-0.0605 -0.096,-0.31027 0,-0.40595 0.287,-0.28706 0.824,0.0984 1.2178,0 1.1053,-0.27633 1.6884,-0.92953 2.8417,-1.21787 0.6271,-0.15678 1.4188,0.20367 2.0298,0 0.1815,-0.0605 0.2244,-0.34543 0.4059,-0.40595 0.3271,-0.10901 5.4306,-0.1264 5.6834,0 0.9053,0.45264 1.9613,0.77766 2.8417,1.21786 0.5118,0.2559 1.4852,0.13371 2.0297,0.40596 0.1712,0.0856 0.2244,0.34543 0.406,0.40595 0.5806,0.19352 1.8898,-0.091 2.4357,0 1.1155,0.18591 1.5884,0.79419 2.4357,1.21786 0.9698,0.48489 5.2431,0 6.4953,0 4.8715,0 9.7429,0 14.6144,0"
         id="path19" />
      <path
         style="fill:#0de9e6;fill-opacity:0;stroke:#a926f2;stroke-width:5.02299;stroke-linecap:square;stroke-miterlimit:0;stroke-dasharray:none;stroke-opacity:1;paint-order:fill markers stroke"
         d="m 1551.1502,917.86198 c 0.2706,0.54127 0.2706,1.89445 0.8119,1.62381 0.5413,-0.27063 -1.2398,-2.05173 -0.8119,-1.62381 0.14,0.14002 1.8898,3.10761 2.0298,3.24763 0.2583,0.25832 1.1055,0.55279 1.6238,0.81191 0.6529,0.32646 0.9006,1.71252 1.2179,2.02977 0.1913,0.19137 0.6205,-0.19137 0.8119,0 0.096,0.0957 -0.061,0.28492 0,0.40595 0.023,0.0465 2.3113,1.98832 2.4357,2.02977 0.2567,0.0856 0.6205,-0.19137 0.8119,0 1.1618,1.16181 -1.0129,0.50844 0.4059,1.21786 0.2302,0.11506 1.9409,1.1289 2.0298,1.21786 0.1914,0.19137 -0.121,0.56985 0,0.81191 0.2719,0.54372 0.9685,0.5625 1.2179,0.81191 0.2775,0.27751 1.0569,2.27478 1.2178,2.43572 0.096,0.0957 0.285,-0.0605 0.406,0 1.6895,0.84475 -0.434,-0.028 0.4059,0.81191 0.214,0.21396 0.598,0.192 0.812,0.40596 0.1701,0.17011 0.2829,0.97183 0.4059,1.21786 0.3222,0.64436 1.3559,0.94997 1.6238,1.21786 2.5589,2.55888 -3.4057,-1.74239 1.6238,2.02977 0.1083,0.0812 0.3103,-0.0957 0.406,0 0.096,0.0957 -0.096,0.31027 0,0.40595 0.214,0.21396 0.5979,0.192 0.8119,0.40596 0.214,0.21396 0.2381,0.56014 0.406,0.81191 0.3635,0.5453 1.5285,0.96723 2.0297,1.21786 0.7149,0.35745 0.5252,1.16202 1.2179,1.62381 0.2252,0.15013 0.5552,-0.0856 0.8119,0 0.373,0.12433 1.8616,1.5229 2.0298,1.62382 0.8361,0.50168 1.6507,0.69456 2.4357,1.21786 0.6006,0.40038 0.9811,1.30247 1.6238,1.62382 0.7548,0.37738 1.6259,0.81295 2.4357,1.21786"
         id="path20" />
      <path
         style="fill:#0de9e6;fill-opacity:0;stroke:#a926f2;stroke-width:5.02299;stroke-linecap:square;stroke-miterlimit:0;stroke-dasharray:none;stroke-opacity:1;paint-order:fill markers stroke"
         d="m 1586.8742,949.52639 c -0.2195,2.29743 0.8941,3.49437 1.6238,5.68335 0.1543,0.46286 0.6576,0.75501 0.8119,1.21787 0.2282,0.68472 -0.3206,1.79456 0,2.43572 0.061,0.12103 0.3103,-0.0957 0.4059,0 0.2828,0.28273 0.1501,2.05189 0.406,2.43572 0.1678,0.25177 0.5979,0.192 0.8119,0.40596 0.2359,0.23593 0.2354,1.28266 0.406,1.62381 0.3495,0.69909 1.3315,1.85123 1.6238,2.43573 0.121,0.24206 -0.086,0.55516 0,0.81191 0.1543,0.46285 0.6576,0.755 0.8119,1.21786 0.043,0.12837 -0.096,0.31027 0,0.40595 0.096,0.0957 0.3102,-0.0957 0.4059,0 0.3219,0.32184 -0.2065,1.61673 0,2.02977 0.929,1.85789 -0.1682,-1.72263 0.8119,1.21786 0.043,0.12838 0,0.27064 0,0.40596 0,0.27063 -0.085,0.55516 0,0.81191 0.1789,0.53662 0.9592,1.10636 1.2179,1.62381 0.3843,0.76868 0.3318,2.04156 0.8119,2.84168 0.1969,0.32819 0.5996,0.49345 0.8119,0.81191 0.6911,1.03664 0.8057,2.417 1.2179,3.65358 0.121,0.3631 0.5996,0.49346 0.8119,0.81191 0.4381,0.65711 0.5039,1.41376 0.8119,2.02977 0.8447,1.68949 -0.028,-0.43398 0.8119,0.40596 0.3026,0.30258 0.1686,0.86181 0.406,1.21786 0.432,0.64808 1.1266,0.72068 1.6238,1.21786 0.5161,0.51611 0.802,1.75585 1.6238,2.02977 0.2567,0.0856 0.6205,-0.19137 0.8119,0 0.1914,0.19137 -0.1914,0.62054 0,0.81191 0.3026,0.30258 0.8351,0.21458 1.2179,0.40595 0.6051,0.30258 1.0186,0.91528 1.6238,1.21786 0.5771,0.28858 3.101,0.66533 3.2476,0.81191 0.096,0.0957 -0.096,0.31027 0,0.40596 0.435,0.43499 2.6174,-0.21007 3.2476,0 0.1816,0.0605 0.2348,0.32037 0.406,0.40595 0.2421,0.12103 0.5698,-0.12103 0.8119,0 0.8416,0.4208 1.9811,0.78756 2.8417,1.21786 1.0741,0.53706 1.0971,0.97642 1.6238,2.02977 0.3916,0.78313 0.6871,0.14057 1.2179,0.40596 0.4653,0.23269 0.5646,0.84702 0.8119,1.21786 0.3698,0.5548 0.7566,0.58132 1.2178,0.81191 0.7048,0.35238 0.5853,1.21782 1.2179,1.21782"
         id="path21" />
      <path
         style="fill:#0de9e6;fill-opacity:0;stroke:#a926f2;stroke-width:5.02299;stroke-linecap:square;stroke-miterlimit:0;stroke-dasharray:none;stroke-opacity:1;paint-order:fill markers stroke"
         d="m 1625.8457,1000.6766 c 1.7536,0.7667 1.9598,3.2126 3.6536,4.0595 0.2461,0.123 1.0478,0.2359 1.2179,0.406 0.096,0.096 -0.096,0.3103 0,0.4059 0.096,0.096 0.3103,-0.096 0.4059,0 0.096,0.096 -0.096,0.3103 0,0.406 0.47,0.4699 1.814,0.9692 2.4358,1.2179 0.9574,0.3829 2.3542,0.3651 3.2476,0.8119 0.121,0.061 -0.096,0.3102 0,0.4059 0.1914,0.1914 0.5698,-0.121 0.8119,0 0.1712,0.086 0.2348,0.3204 0.406,0.406 0.9634,0.4817 2.5591,0.999 3.6535,1.2178 0.2654,0.053 0.5699,-0.121 0.812,0 0.121,0.06 -0.096,0.3103 0,0.406 0.1913,0.1914 0.5698,-0.121 0.8119,0 1.2403,0.6202 2.5952,1.2577 4.0595,1.6238 0.8832,0.2208 1.9807,-0.287 2.8417,0 0.9248,0.3083 3.086,0.3251 3.2476,0.406 0.121,0.061 -0.121,0.3454 0,0.4059 0.5413,0.2706 1.4885,-0.2706 2.0298,0 0.1711,0.086 0.2244,0.3454 0.4059,0.406 0.2568,0.086 0.5607,-0.1005 0.8119,0 0.6887,0.2754 6.1936,3.8621 6.4953,4.4655 0.3453,0.6906 -0.3938,0.824 0.406,1.6238 0.1913,0.1913 0.5698,-0.1211 0.8119,0 0.8366,0.4183 0.8466,1.6412 1.6238,2.0297 0.6638,0.332 1.4452,0.5197 2.0298,0.812 0.696,0.348 0.1664,0.7875 0.8119,1.2178 1.3081,0.8721 3.3859,0.9503 4.4655,2.0298 0.9585,0.9585 -2.2643,-0.2135 0.8119,0.8119 2.7011,0.9004 5.6273,0.8119 8.525,0.8119 1.4027,0 3.559,0.4375 4.8714,0 0.1816,-0.061 0.2348,-0.3204 0.406,-0.406 0.6141,-0.307 1.7648,-0.2382 2.4357,-0.4059 0.5871,-0.1468 1.0497,-0.6205 1.6238,-0.8119 0.2568,-0.086 0.6206,0.1914 0.8119,0 0.096,-0.096 -0.121,-0.3455 0,-0.406 0.2421,-0.121 0.5552,0.086 0.812,0 0.1815,-0.06 0.2244,-0.3454 0.4059,-0.4059 0.497,-0.1657 1.1161,0.1269 1.6238,0 1.5741,-0.3936 4.7798,-1.3838 6.4953,-0.8119 0.5741,0.1913 1.0367,0.6651 1.6238,0.8119 0.2626,0.066 0.5552,-0.086 0.8119,0 0.3631,0.121 0.4696,0.6407 0.8119,0.8119 0.2421,0.121 0.6206,-0.1914 0.8119,0 0.096,0.096 -0.096,0.3103 0,0.4059 0.6229,0.6229 1.2179,0.036 1.2179,0.8119"
         id="path22" />
      <path
         style="fill:#0de9e6;fill-opacity:0;stroke:#a926f2;stroke-width:5.02299;stroke-linecap:square;stroke-miterlimit:0;stroke-dasharray:none;stroke-opacity:1;paint-order:fill markers stroke"
         d="m 1707.8484,1028.2815 c 1.9771,1.4796 2.267,3.8345 3.6536,5.6833 0.2297,0.3062 0.5996,0.4935 0.8119,0.8119 0.1624,0.2436 -0.2029,1.0149 0,1.2179 0.096,0.096 0.3103,-0.096 0.406,0 0.3658,0.3658 0.5699,1.5457 0.8119,2.0298 0.1712,0.3423 0.6909,0.4488 0.8119,0.8119 0.1284,0.3851 -0.287,0.9308 0,1.2178 0.096,0.096 0.2849,-0.061 0.406,0 1.6894,0.8448 -0.434,-0.028 0.4059,0.8119 0.096,0.096 0.3103,-0.096 0.406,0 0.8044,0.8045 1.184,1.9622 1.6238,2.8417 0.2436,0.4872 0.9743,0.7307 1.2179,1.2179 0.061,0.121 -0.096,0.3102 0,0.4059 0.096,0.096 0.3102,-0.096 0.4059,0 0.1914,0.1914 -0.1914,0.6206 0,0.8119 0.096,0.096 0.3103,-0.096 0.406,0 0.2706,0.2707 -0.2707,1.3532 0,1.6239 0.096,0.096 0.3102,-0.096 0.4059,0 0.1877,0.1876 -0.1225,0.9727 0,1.2178 0.086,0.1712 0.3204,0.2348 0.406,0.406 0.3006,0.6013 0,2.1602 0,2.8416 0,0.5879 0.2572,1.9212 0,2.4358 -0.086,0.1711 -0.3204,0.2348 -0.406,0.4059 -0.1988,0.3977 -0.1698,6.3917 0,6.9012 0.5031,1.5092 1.1866,2.3889 2.0298,3.6536 0.4701,0.7051 1.221,0.6137 1.6238,1.2179 0.3978,0.5967 0.5859,1.2025 1.2179,1.6238 0.8024,0.535 0.9942,0.091 1.6238,0.406 0.696,0.348 0.1664,0.7875 0.8119,1.2178 1.1963,0.7976 3.0561,1.8383 4.0595,2.8417 1.1386,1.1386 -1.7059,-0.4552 0.406,0.8119 0.5189,0.3114 1.1512,0.4339 1.6238,0.8119 0.2363,0.189 0.2706,0.5413 0.4059,0.8119 0.2707,0.2707 0.4935,0.5996 0.812,0.8119 0.4874,0.325 1.3293,-0.4774 1.6238,0.406 0.086,0.2567 -0.1501,0.5867 0,0.8119 0.069,0.1031 5.8232,2.9116 6.4952,3.2476 0.2451,0.1226 1.0302,-0.1876 1.2179,0 0.096,0.096 -0.096,0.3103 0,0.406 0.2661,0.2661 1.4204,0.2026 1.6238,0.4059 0.096,0.096 -0.096,0.3103 0,0.406 0.4875,0.4875 2.9638,0.9879 3.6536,1.2179 0.9892,0.3297 1.7323,1.3464 2.8417,1.6238 0.2625,0.066 0.5698,-0.1211 0.8119,0 0.121,0.061 -0.096,0.3102 0,0.4059 0.2444,0.2445 2.4764,0.2234 2.8417,0.406 1.0112,0.5056 1.5725,0.1773 2.0297,0.4059 0.7471,0.3736 1.7122,0.8561 2.4358,1.2179 1.6894,0.8447 -0.434,-0.028 0.4059,0.8119 0.203,0.203 1.0149,-0.203 1.2179,0 0.2658,0.2658 0.2524,0.9381 0.8119,1.2179 0.6596,0.3298 3.733,2.1886 4.0595,2.8416 0.06,0.1211 -0.096,0.3103 0,0.406 0.096,0.096 0.2849,-0.061 0.406,0 0.4364,0.2182 0.8275,0.5192 1.2178,0.8119 0.2967,0.2225 0.722,1.1579 0.8119,1.2179 0.4757,0.317 1.563,0.3451 2.0298,0.8119 0.214,0.2139 0.2169,0.5756 0.406,0.8119 0.4059,0.4059 0.8119,0.8119 1.2178,1.2178 0.1353,0 0.2934,-0.075 0.406,0 2.3537,1.5692 0.3006,0.1953 0.8119,1.2179 0.3284,0.6567 1.1136,0.9627 1.6238,1.2179 1.6895,0.8447 -0.434,-0.028 0.406,0.8119 0.096,0.096 0.3102,-0.096 0.4059,0 0.2871,0.287 -0.1815,0.8547 0,1.2178 0.061,0.1211 0.2849,-0.061 0.406,0 1.6895,0.8448 -0.434,-0.028 0.4059,0.8119 0.096,0.096 0.3103,-0.096 0.406,0 0.1758,0.1759 0.6372,1.3619 0.8119,1.6239 0.5881,0.8821 1.8249,2.6368 2.4357,3.2476 0.214,0.2139 0.598,0.192 0.8119,0.4059 0.214,0.214 0.192,0.598 0.406,0.812 0.3026,0.3025 0.9153,0.1033 1.2178,0.4059 0.096,0.096 -0.096,0.3103 0,0.406 0.214,0.2139 0.5602,0.2381 0.8119,0.4059 0.6099,0.4066 0.9737,1.2988 1.6239,1.6238 0.444,0.2221 1.2048,0.393 1.6238,0.8119 0.096,0.096 -0.096,0.3103 0,0.406 0.096,0.096 0.3102,-0.096 0.4059,0 0.096,0.096 -0.096,0.3103 0,0.4059 0.096,0.096 0.3103,-0.096 0.406,0 0.1625,0.1625 0.2198,0.5159 0.8119,0.812 0.3631,0.1815 0.8327,-0.1284 1.2179,0 0.5982,0.1994 1.0401,1.0233 1.6238,1.2178 0.3851,0.1284 0.8327,-0.1284 1.2178,0 0.9882,0.3294 1.5924,0.7962 2.4358,1.2179 0.4259,0.2129 1.7057,-0.324 2.0297,0 0.096,0.096 0,0.2706 0,0.4059"
         id="path23" />
      <path
         style="fill:#0de9e6;fill-opacity:0;stroke:#a926f2;stroke-width:5.02299;stroke-linecap:square;stroke-miterlimit:0;stroke-dasharray:none;stroke-opacity:1;paint-order:fill markers stroke"
         d="m 1796.7524,1116.3735 c 0.7952,0.1459 2.862,0.8323 3.2476,1.2178 0.096,0.096 -0.121,0.3455 0,0.406 0.3248,0.1624 0.8931,-0.1624 1.2179,0 0.6443,0.3222 0.9499,1.3559 1.2178,1.6238 0.1353,0.1353 1.0826,0.2706 1.2179,0.406 0.096,0.096 -0.121,0.3454 0,0.4059 0.2421,0.1211 0.5551,-0.086 0.8119,0 0.7535,0.2512 0.103,0.8634 0.8119,1.2179 0.3827,0.1913 0.8351,0.2146 1.2179,0.4059 0.3423,0.1712 0.4695,0.6408 0.8119,0.8119 0.3631,0.1816 0.8327,-0.1283 1.2178,0 0.3631,0.1211 0.4488,0.6909 0.8119,0.812 0.5151,0.1717 2.0432,0.4193 2.4358,0.8119 0.096,0.096 -0.1284,0.3631 0,0.4059 0.3851,0.1284 0.8198,-0.08 1.2178,0 0.2967,0.059 0.5249,0.3103 0.8119,0.406 1.0513,0.3504 1.6661,-0.1819 2.8417,0.4059 1.0826,0.5413 2.977,-0.5413 4.0596,0 1.2009,0.6005 2.6896,0.6699 4.0595,1.2179 0.5619,0.2247 1.0367,0.6651 1.6238,0.8119 0.65,0.1625 1.5419,-0.082 2.0298,0.4059 0.096,0.096 -0.096,0.3103 0,0.406 0.096,0.096 0.3103,-0.096 0.4059,0 0.096,0.096 -0.061,0.2849 0,0.406 0.2719,0.5437 0.9685,0.5625 1.2179,0.8119 0.2494,0.2494 0.2682,0.946 0.8119,1.2178 0.3804,0.1902 1.3635,0.843 1.6238,1.6238 0.079,0.2372 -0.1186,0.8621 0,1.2179 0.337,1.0111 0.9375,3.4025 0.406,4.4655 -0.929,1.8579 0.1682,-1.7226 -0.8119,1.2179 -0.043,0.1283 0.096,0.3102 0,0.4059 -0.214,0.214 -0.6563,0.1465 -0.8119,0.406 -0.2871,0.4784 -0.1565,1.1248 -0.406,1.6238 -0.1712,0.3423 -0.5996,0.4934 -0.8119,0.8119 -0.1403,0.2105 -0.2423,1.0542 -0.406,1.2179 -0.096,0.096 -0.3102,-0.096 -0.4059,0 -0.1332,0.1331 -0.6604,1.3208 -0.8119,1.6238 -0.121,0.242 0.121,0.5698 0,0.8119 -0.3293,0.6585 -0.8727,1.3395 -1.2179,2.0297 -0.061,0.1211 0.096,0.3103 0,0.406 -0.096,0.096 -0.3102,-0.096 -0.4059,0 -0.096,0.096 0.061,0.2849 0,0.406 -0.2182,0.4363 -0.6307,0.7648 -0.8119,1.2178 -0.2801,0.7001 0.2388,1.7191 0,2.4357 -0.2761,0.8282 -0.8697,1.3334 -1.2179,2.0298 -0.4999,0.9999 1.1784,-0.3665 -0.406,1.2179 -0.096,0.096 -0.3102,-0.096 -0.4059,0 -0.3792,0.3792 -0.4327,1.6505 -0.8119,2.0297 -0.84,0.84 0.033,-1.2835 -0.8119,0.406 -0.2421,0.484 -0.4461,1.664 -0.8119,2.0298 -0.096,0.096 -0.3103,-0.096 -0.406,0 -0.1914,0.1913 0.121,0.5698 0,0.8119 -0.1515,0.3029 -0.6787,1.4906 -0.8119,1.6238 -0.096,0.096 -0.3103,-0.096 -0.406,0 -1.0229,1.0229 -1.0102,2.8324 -1.6238,4.0595 -0.2182,0.4364 -0.4669,0.8729 -0.8119,1.2179 -0.096,0.096 -0.3102,-0.096 -0.4059,0 -0.1959,0.1959 -0.2875,2.4863 -0.406,2.8417 -0.061,0.1815 -0.3204,0.2348 -0.4059,0.4059 -0.1211,0.2421 0.1913,0.6206 0,0.8119 -0.096,0.096 -0.3455,-0.121 -0.406,0 -0.1272,0.2544 -0.4059,4.1922 -0.4059,4.8715"
         id="path24" />
      <path
         style="fill:#0de9e6;fill-opacity:0;stroke:#a926f2;stroke-width:5.02299;stroke-linecap:square;stroke-miterlimit:0;stroke-dasharray:none;stroke-opacity:1;paint-order:fill markers stroke"
         d="m 1815.0203,1176.8606 c -0.4095,2.1514 0.7464,3.7975 1.2179,5.6834 0.066,0.2625 -0.1211,0.5698 0,0.8119 0.061,0.121 0.3102,-0.096 0.4059,0 0.1034,0.1033 0.2595,2.5487 0.406,2.8417 1.3276,2.6551 3.1127,5.4136 4.4655,8.119 0.061,0.1225 1.9325,2.3871 2.0297,2.4358 0.1211,0.06 0.3455,-0.1211 0.406,0 0.121,0.242 -0.086,0.5551 0,0.8119 0.2512,0.7535 0.8634,0.103 1.2179,0.8119 0.061,0.121 -0.096,0.3103 0,0.4059 0.7982,0.7983 3.1903,0.1163 4.0595,0.406 0.287,0.096 0.5184,0.3326 0.8119,0.4059 0.3938,0.099 0.8548,-0.1815 1.2179,0 0.9988,0.4995 1.5485,0.1654 2.0297,0.406 0.1211,0.061 -0.121,0.3454 0,0.406 0.433,0.2165 1.1908,-0.2166 1.6238,0 1.8195,0.9097 7.3648,1.392 9.337,0.4059 0.2451,-0.1225 1.0302,0.1877 1.2179,0 0.3109,-0.311 -0.132,-0.362 1.2178,-0.8119 0.6089,-0.203 0.406,0.406 1.2179,0 0.121,-0.061 -0.1211,-0.3454 0,-0.406 0.5412,-0.2706 1.4885,0.2707 2.0297,0 0.1211,-0.061 -0.096,-0.3102 0,-0.4059 0.3626,-0.3625 1.1376,-0.2439 1.6239,-0.406 1.1335,-0.3778 2.2691,-1.1345 3.2476,-1.6238 0.5118,-0.2559 1.4853,-0.1337 2.0298,-0.4059 0.5594,-0.2798 0.5461,-0.9521 0.8119,-1.2179 0.154,-0.154 2.0277,-1.0139 2.4357,-1.2179 0.2874,-1.2377 1.1248,-0.1564 1.6238,-0.4059 0.5518,-0.2759 1.0721,-0.942 1.6238,-1.2179 0.2421,-0.121 0.5699,0.1211 0.8119,0 0.303,-0.1514 1.4907,-0.6787 1.6238,-0.8119 0.096,-0.096 -0.096,-0.3102 0,-0.4059 0.1983,-0.1982 2.0743,-1.0372 2.4358,-1.2179 0.242,-0.121 0.5698,0.121 0.8119,0 0.4027,-0.2014 0.7973,-0.6717 1.2178,-0.8119 0.2568,-0.086 0.5552,0.086 0.812,0 0.9215,-0.3072 1.9618,-1.1839 2.8416,-1.6238 0.4577,-0.2289 1.4796,0 2.0298,0"
         id="path25" />
      <path
         style="fill:#0de9e6;fill-opacity:0;stroke:#a926f2;stroke-width:5.02299;stroke-linecap:square;stroke-miterlimit:0;stroke-dasharray:none;stroke-opacity:1;paint-order:fill markers stroke"
         d="m 1877.1313,1187.8214 c 0.4059,0.5413 0.7952,1.0955 1.2178,1.6238 0.4586,0.5732 1.2396,0.4495 1.6238,1.2179 0.2892,0.5782 1.3099,3.3396 1.6239,3.6535 0.096,0.096 0.3102,-0.096 0.4059,0 0.1653,0.1653 0.682,1.364 0.8119,1.6239 0.1226,0.2451 -0.1876,1.0302 0,1.2178 0.096,0.096 0.3103,-0.096 0.406,0 0.024,0.024 0.2956,5.4628 0.8119,6.4953 0.5064,1.0127 1.1174,2.2349 1.6238,3.2476 0.121,0.2421 -0.121,0.5699 0,0.8119 0.2603,0.5207 1.0377,1.0833 1.2179,1.6238 0.1283,0.3852 -0.2871,0.9309 0,1.2179 0.096,0.096 0.3102,-0.096 0.4059,0 0.1914,0.1914 0,0.5413 0,0.8119 0,1.002 0.3186,2.6979 0,3.6536 -0.01,0.028 -2.0247,2.4323 -2.0298,2.4357 -0.3708,0.2472 -0.9851,0.3465 -1.2178,0.8119 -0.061,0.1211 0.096,0.3103 0,0.406 -0.096,0.096 -0.3103,-0.096 -0.406,0 -0.096,0.096 0.096,0.3103 0,0.4059 -0.096,0.096 -0.3102,-0.096 -0.4059,0 -0.2658,0.2658 -0.2525,0.9382 -0.8119,1.2179 -0.1211,0.06 -0.2707,0 -0.406,0 -0.2706,0.1353 -0.5601,0.2381 -0.8119,0.406 -0.9099,0.6066 -1.4809,1.5523 -2.4357,2.0297 -0.1211,0.06 -0.3103,-0.096 -0.406,0 -0.096,0.096 0.096,0.3103 0,0.406 -0.1913,0.1913 -0.5698,-0.1211 -0.8119,0 -0.7772,0.3886 -0.7872,1.6114 -1.6238,2.0297 -0.5532,0.2766 -1.5164,0.2986 -2.0298,0.812 -0.096,0.096 0.096,0.3102 0,0.4059 -0.096,0.096 -0.2706,0 -0.4059,0 -0.1353,0.1353 -0.2998,0.2467 -0.406,0.406 -0.1678,0.2517 -0.1542,0.644 -0.4059,0.8119 -0.2252,0.1501 -0.5552,-0.086 -0.8119,0 -0.8008,0.2669 -0.9727,1.2178 -1.6239,1.2178"
         id="path26" />
      <path
         style="fill:#0de9e6;fill-opacity:0;stroke:#a926f2;stroke-width:5.02299;stroke-linecap:square;stroke-miterlimit:0;stroke-dasharray:none;stroke-opacity:1;paint-order:fill markers stroke"
         d="m 1869.0122,1229.2287 c -2.4504,-0.2075 0.082,1.5419 -0.406,2.0298 -0.096,0.096 -0.2849,-0.061 -0.4059,0 -0.6847,0.3423 -1.1457,1.026 -1.6238,1.6238 -0.1891,0.2363 -0.1697,0.6229 -0.406,0.8119 -0.6798,0.5438 -2.1687,0.9508 -2.8417,1.6238 -0.096,0.096 0.096,0.3103 0,0.406 -0.1913,0.1913 -0.5698,-0.1211 -0.8119,0 -0.4364,0.2181 -0.8728,0.4669 -1.2178,0.8119 -0.096,0.096 0.1125,0.3309 0,0.4059 -0.3561,0.2374 -0.8619,0.1686 -1.2179,0.406 -0.1126,0.075 0.096,0.3102 0,0.4059 -0.3619,0.3619 -1.1927,0.1904 -1.6238,0.406 -0.4287,0.2143 -0.8204,0.6132 -1.2179,0.8119 -0.5437,0.2718 -0.5625,0.9684 -0.8119,1.2178 -0.096,0.096 -0.3103,-0.096 -0.4059,0 -0.096,0.096 0.061,0.285 0,0.406 -0.1712,0.3423 -0.5996,0.4935 -0.812,0.8119 -1.0451,1.5678 -0.8119,4.2425 -0.8119,6.0893 0,0.2233 -0.027,4.8439 0,4.8715 0.096,0.096 0.3309,-0.1126 0.406,0 0.737,1.1055 0.9542,2.5375 1.6238,3.6536 1.0514,1.7523 0.9074,0.5492 1.6238,1.6238 0.3978,0.5966 0.5859,1.2025 1.2179,1.6238 0.8826,0.5884 3.5243,2.122 4.4655,2.4357 0.4718,0.1573 1.1939,0.191 1.6238,0.406 0.8083,0.4041 1.593,1.2024 2.4357,1.6238 0.829,0.4145 1.752,0.064 2.4357,0.4059 0.079,0.04 0.3179,0.7239 0.406,0.8119 0.1914,0.1914 0.5698,-0.121 0.8119,0 0.7324,0.3662 1.3179,1.2679 2.0298,1.6239 0.9998,0.4999 -0.3665,-1.1784 1.2178,0.4059 0.096,0.096 -0.096,0.3103 0,0.406 0.096,0.096 0.285,-0.061 0.406,0 0.4871,0.2435 0.7307,0.9743 1.2179,1.2178 0.8575,0.4288 1.5524,0.5113 2.4357,1.2179 0.2777,0.2221 1.1832,1.4769 1.6238,1.6238 0.3851,0.1284 0.8548,-0.1815 1.2179,0 0.2165,0.1083 1.1688,1.5257 1.2178,1.6238 0.3171,0.6341 1.2429,0.456 1.6238,1.2179 0.1211,0.242 -0.121,0.5698 0,0.8119 0.381,0.7618 1.3068,0.5838 1.6238,1.2179 0.1231,0.246 0.2359,1.0477 0.406,1.2178 0.096,0.096 0.3454,-0.121 0.406,0 0.4059,0.8119 -0.203,0.6089 0,1.2179 0.2524,0.7573 0.5056,1.0112 0.8119,1.6238 0.2165,0.433 -0.2165,1.1908 0,1.6238 0.061,0.121 0.3102,-0.096 0.4059,0 0.3994,0.3994 0.1678,1.5534 0.406,2.0298 1.4852,2.9704 0.8119,9.6932 0.8119,13.3965 0,1.9177 0.5014,14.0174 0,15.0203 -0.4561,0.9121 0.05,0.3056 -0.406,1.2178 -0.061,0.1211 -0.3102,-0.096 -0.4059,0 -0.1914,0.1914 0.121,0.5699 0,0.8119 -0.2707,0.5413 -0.4763,1.1203 -0.8119,1.6238 -0.075,0.1126 -0.3455,-0.121 -0.406,0 -0.121,0.2421 0.086,0.5552 0,0.812 -0.3071,0.9214 -1.6028,1.5818 -2.0298,2.4357 -0.2449,0.4899 -0.42,1.1013 -0.8119,1.6238 -0.4957,0.661 -1.6528,1.2759 -2.0297,2.0298 -0.2043,0.4085 -0.3584,1.9821 -0.8119,2.4357 -0.3345,0.3344 -0.812,-0.022 -0.812,0.8119"
         id="path27" />
      <path
         style="fill:#0de9e6;fill-opacity:0;stroke:#a926f2;stroke-width:5.02299;stroke-linecap:square;stroke-miterlimit:0;stroke-dasharray:none;stroke-opacity:1;paint-order:fill markers stroke"
         d="m 1880.3789,1326.2517 c 0,0.6766 0.096,1.36 0,2.0298 -0.082,0.574 -0.6272,1.4757 -0.8119,2.0297 -0.2554,0.7663 -0.02,1.6637 -0.406,2.4358 0.086,0.8439 -0.6303,0.1638 -0.8119,0.4059 -1.2291,1.6389 -0.21,1.638 -0.8119,2.8417 -0.3247,0.6495 -1.299,0.9743 -1.6238,1.6238 -0.3447,0.6893 -0.4475,1.7069 -0.8119,2.4357 -0.5931,1.1862 -1.4367,2.4675 -2.0298,3.6536 -0.6572,1.3145 -0.1135,1.2661 -0.4059,2.4357 -0.4901,1.9604 -0.1929,-0.02 -0.8119,1.2179 -0.1211,0.2421 0.085,0.5552 0,0.8119 -0.096,0.2871 -0.3103,0.5249 -0.406,0.8119 -0.086,0.2568 0.1914,0.6206 0,0.8119 -0.096,0.096 -0.3454,-0.121 -0.4059,0 -0.2236,0.4471 0.1586,1.1478 0,1.6238 -0.096,0.2871 -0.3326,0.5184 -0.406,0.8119 -0.2126,0.8503 0.1732,9.9162 0.406,10.1489 0.096,0.096 0.3454,-0.121 0.4059,0 0.2092,0.4184 -0.029,0.7539 0.406,1.6238 0.121,0.2421 -0.1914,0.6206 0,0.8119 0.096,0.096 0.3102,-0.096 0.4059,0 0.4367,0.4367 -0.1995,2.649 0,3.2477 0.061,0.1815 0.3455,0.2244 0.406,0.4059 0.5368,1.6106 -0.7536,4.1763 0,5.6834 0.4399,0.8798 0.5504,2.2015 0.8119,3.2476 0.098,0.3938 -0.1284,0.8327 0,1.2179 0.2881,0.8643 0.5238,1.5714 0.8119,2.4357 0.1565,0.4697 -0.2181,1.1876 0,1.6238 0.086,0.1712 0.3595,0.2203 0.4059,0.406 0.053,0.2112 -0.1858,1.658 0,2.0297 0.6579,1.3157 1.0317,2.9851 1.6239,4.4655 0.1803,0.451 0.5928,0.7798 0.8119,1.2179 0.2746,0.5493 -0.1968,1.4394 0,2.0297 0.5105,1.5317 1.3497,3.1054 2.0297,4.4655 0.2082,0.4163 0.1978,1.2076 0.406,1.6239 0.6661,1.3323 2.1223,2.4926 2.4357,4.0595 0.1913,0.9564 0.034,1.2851 0.406,2.0298 0.3755,0.751 1.4425,2.1163 1.6238,2.8416 0.1015,0.4061 0.2604,2.9567 0.4059,3.2477 0.4592,0.9183 0.4974,1.4921 0.8119,2.4357 0.061,0.1816 0.3455,0.2244 0.406,0.406 0.086,0.2567 -0.086,0.5551 0,0.8119 0.06,0.1815 0.2706,0.2706 0.4059,0.4059 0.1354,0.2707 0.3326,0.5184 0.406,0.8119 0.1313,0.5251 -0.1712,1.1103 0,1.6238 0.121,0.3631 0.6909,0.4489 0.8119,0.8119 0.086,0.2568 -0.086,0.5552 0,0.812 -0.1517,0.8843 0.6766,0.1353 0.8119,0.4059 0.1211,0.2421 -0.1005,0.5606 0,0.8119 0.1812,0.453 0.5937,0.7815 0.8119,1.2179 0.2573,0.5146 0.4322,2.056 0.8119,2.4357 0.096,0.096 0.3103,-0.096 0.406,0 0.096,0.096 -0.06,0.2849 0,0.406 0.3026,0.6051 0.8425,1.0608 1.2179,1.6238"
         id="path28" />
      <path
         style="fill:#0de9e6;fill-opacity:0;stroke:#a926f2;stroke-width:5.02299;stroke-linecap:square;stroke-miterlimit:0;stroke-dasharray:none;stroke-opacity:1;paint-order:fill markers stroke"
         d="m 1892.1516,1428.1461 c 0.6891,0.5027 0.5594,3.9606 0.8119,4.4655 0.1711,0.3424 0.6407,0.4696 0.8119,0.8119 0.206,0.412 0.3244,1.9483 0.4059,2.0298 0.096,0.096 0.3103,-0.096 0.406,0 0.3286,0.3287 0.7027,1.9988 0.8119,2.4357 0.4446,1.7786 -0.5794,9.3961 0,10.5548 0.5493,1.0988 0.075,1.4426 0.4059,2.4358 0.061,0.1815 0.3455,0.2244 0.406,0.4059 0.3248,0.9743 -0.3248,2.2734 0,3.2477 0.3429,1.0286 0.406,1.7549 0.406,2.8416"
         id="path29" />
      <path
         style="fill:#0de9e6;fill-opacity:0;stroke:#a926f2;stroke-width:5.02299;stroke-linecap:square;stroke-miterlimit:0;stroke-opacity:1;paint-order:fill markers stroke"
         d="m 1895.1227,1458.8024 c -0.5741,-0.9568 -1.1482,-1.9137 -1.7223,-2.8705 -0.1914,0 -0.4388,0.1353 -0.5741,0 -2.2406,-2.2406 0.1329,-0.3083 -0.5741,-1.7223 -0.6889,-1.3779 -2.7557,-2.0668 -3.4447,-3.4447 -0.085,-0.1711 0.1149,-0.421 0,-0.5741 -1.2857,-1.7143 -2.19,-1.6159 -3.4446,-2.8705 -0.3788,-0.3788 -0.811,-1.8408 -1.7223,-2.2964 -0.1712,-0.086 -0.4388,0.1353 -0.5741,0 -0.1353,-0.1353 0.1353,-0.4388 0,-0.5741 -2.2406,-2.2406 -0.3083,0.1329 -1.7223,-0.5741 -2.1666,-1.0833 -4.4506,-2.835 -6.8893,-3.4447 -0.3713,-0.093 -0.7851,0.1211 -1.1482,0 -0.2568,-0.086 -0.3174,-0.4885 -0.5741,-0.5741 -0.5167,-0.1722 -1.2056,0.1723 -1.7223,0 -3.1392,-1.0464 -6.4053,-0.2945 -9.7598,-0.5741 -1.9449,-0.162 -3.8014,-0.9327 -5.7411,-1.1482 -3.5922,-0.3991 -6.8124,-1.018 -10.3339,-1.7223 -2.3921,-0.4784 -5.0713,0.4784 -7.4634,0 -2.9811,-0.5962 -5.6827,-2.1383 -8.6115,-2.8705 -0.9467,-0.2367 -1.9646,-0.2117 -2.8706,-0.5741 -1.9137,-0.7655 2.1051,-0.5741 -0.5741,-0.5741"
         id="path1" />
      <path
         style="fill:#0de9e6;fill-opacity:0;stroke:#a926f2;stroke-width:5.02299;stroke-linecap:square;stroke-miterlimit:0;stroke-opacity:1;paint-order:fill markers stroke"
         d="m 1823.9336,1433.5418 c -1.9137,-1.7223 -3.8168,-3.4565 -5.741,-5.167 -2.0329,-1.807 -4.392,-3.2437 -6.3152,-5.1669 -0.4321,-0.4322 -1.4099,-2.5581 -1.7223,-2.8706 -0.1353,-0.1353 -0.403,0.086 -0.5741,0 -0.5598,-0.2798 -2.0363,-1.9496 -2.2965,-2.2964 -1.4103,-0.2047 -0.2384,-1.2188 -0.5741,-1.7223 -1.1482,-1.7223 -0.8611,-0.5741 -1.7223,-1.7223 -0.8229,-1.0972 -1.9027,-3.0509 -2.8705,-4.0188 -0.3026,-0.3025 -0.8456,-0.2715 -1.1482,-0.5741 -0.4487,-0.4486 -0.3847,-1.7282 -0.5741,-2.2964 -0.1712,-0.5135 -0.8235,-0.7152 -1.1482,-1.1482 -0.414,-0.552 -0.6604,-1.2344 -1.1482,-1.7223 -0.3026,-0.3026 -0.9109,-0.2181 -1.1483,-0.5741 -0.2123,-0.3185 0.1712,-0.8059 0,-1.1482 -0.2286,-0.4572 -2.2561,-3.1375 -2.8705,-3.4447 -0.1712,-0.085 -0.4388,0.1354 -0.5741,0 -0.4059,-0.4059 0.2568,-1.2088 0,-1.7223 -0.2421,-0.4841 -0.8234,-0.7152 -1.1482,-1.1482 -1.5698,-2.0931 -3.2924,-4.6134 -4.5928,-6.8893 -0.3003,-0.5254 -0.2111,-1.2381 -0.5742,-1.7223 -0.2567,-0.3423 -0.8456,-0.2715 -1.1482,-0.5741 -0.789,-0.789 -1.0252,-1.9992 -1.7223,-2.8705 -0.7655,-0.9568 -1.4299,-2.0041 -2.2964,-2.8705 -0.3026,-0.3026 -0.8456,-0.2716 -1.1482,-0.5741 -0.6052,-0.6052 -0.6735,-1.5844 -1.1482,-2.2965 -0.288,-0.432 -2.5478,-3.2832 -2.8706,-3.4446 -0.1711,-0.086 -0.4387,0.1353 -0.5741,0 -0.1353,-0.1353 0.1354,-0.4388 0,-0.5741 -0.6051,-0.6052 -1.6912,-0.5431 -2.2964,-1.1482 -1.7709,-1.771 -1.1896,-2.5427 -3.4446,-3.4446 -0.3554,-0.1422 -0.8059,0.1711 -1.1482,0 -1.1415,-0.5708 -1.8018,-2.158 -2.8706,-2.8706 -0.5035,-0.3357 -1.2944,-0.1462 -1.7223,-0.5741 -0.1058,-0.1058 -0.4683,-1.6165 -0.5741,-1.7223 -0.8756,-0.8756 -2.4457,-1.5472 -3.4446,-2.2964 -1.4463,-1.0847 -3.0371,-3.2409 -4.5929,-4.0188 -0.7882,-0.3941 -1.4624,-1.3053 -2.2964,-1.7223 -0.3423,-0.1711 -0.8776,0.2707 -1.1482,0 -0.1353,-0.1353 0,-0.3827 0,-0.5741"
         id="path3" />
      <path
         style="fill:#0de9e6;fill-opacity:0;stroke:#a926f2;stroke-width:5.02299;stroke-linecap:square;stroke-miterlimit:0;stroke-opacity:1;paint-order:fill markers stroke"
         d="m 1753.8927,1356.0375 c -2.105,-1.7223 -4.2101,-3.4446 -6.3151,-5.1669 -3.9684,-3.2469 -7.7776,-6.9074 -12.0563,-9.7598 -1.6299,-1.0867 -3.4912,-1.8652 -5.1669,-2.8706 -1.2402,-0.7441 -2.1183,-2.2073 -3.4446,-2.8705 -0.5413,-0.2706 -1.2382,-0.211 -1.7224,-0.5741 -0.3423,-0.2567 -0.2715,-0.8456 -0.5741,-1.1482 -0.2728,-0.2729 -2.0235,-0.8754 -2.2964,-1.1482 -0.1353,-0.1353 0.1353,-0.4388 0,-0.5741 -1.3123,-1.3123 -3.6191,-1.8387 -5.1669,-2.8706 -0.4504,-0.3002 -0.6641,-0.9061 -1.1483,-1.1482 -1.4139,-0.707 0.5183,1.6665 -1.7223,-0.5741 -0.1353,-0.1353 0,-0.3827 0,-0.5741 -0.1913,-0.1913 -0.3489,-0.424 -0.5741,-0.5741 -0.5035,-0.3357 -1.2188,-0.2384 -1.7223,-0.5741 -1.6448,-1.0966 -4.0064,-3.7255 -5.741,-4.5928 -0.7045,-0.3523 -1.5174,-0.6288 -2.2965,-1.1482 -1.1373,0.057 -0.2715,-0.8457 -0.5741,-1.1483 -0.3026,-0.3025 -0.8456,-0.2715 -1.1482,-0.5741 -0.1353,-0.1353 0.1353,-0.4387 0,-0.5741 -2.2406,-2.2405 -0.3083,0.1329 -1.7223,-0.5741 -1.0617,-0.5308 -1.9388,-2.3115 -2.8705,-2.8705 -0.3282,-0.1969 -0.8776,0.2706 -1.1482,0 -0.2707,-0.2706 0.2123,-0.8298 0,-1.1482 -0.5323,-0.7984 -2.6635,-1.1364 -3.4447,-1.7223 -1.3684,-1.0263 -3.3514,-3.4447 -5.1669,-3.4447"
         id="path12" />
      <path
         style="fill:#0de9e6;fill-opacity:0;stroke:#a926f2;stroke-width:5.02299;stroke-linecap:square;stroke-miterlimit:0;stroke-opacity:1;paint-order:fill markers stroke"
         d="m 1687.2965,1309.535 c -1.3396,-0.9569 -2.7952,-1.7693 -4.0188,-2.8706 -0.9108,-0.8197 -1.3161,-2.1353 -2.2964,-2.8705 -0.552,-0.414 -1.1052,-0.8396 -1.7223,-1.1482 -0.1712,-0.086 -0.4388,0.1353 -0.5741,0 -0.3446,-0.3446 -0.4698,-1.27 -1.1482,-1.7223 -1.839,-1.226 -3.8834,-2.2062 -5.7411,-3.4447 -0.6755,-0.4503 -1.0468,-1.2719 -1.7223,-1.7223 -1.0219,-0.6812 -2.3605,-1.1802 -3.4446,-1.7223 -0.689,-0.3445 -1.0334,-1.3778 -1.7224,-1.7223 -0.5134,-0.2568 -1.3163,0.4059 -1.7223,0 -0.1353,-0.1353 0.1353,-0.4388 0,-0.5741 -0.1353,-0.1353 -0.4029,0.086 -0.5741,0 -0.6125,-0.3063 -0.5356,-0.8419 -1.1482,-1.1482 -1.0803,-0.5402 -2.7365,-1.2949 -4.0187,-1.7223 -0.689,-0.2297 -1.6075,0.2296 -2.2965,0 -0.2567,-0.086 -0.3827,-0.3828 -0.5741,-0.5742 -0.3827,-0.1913 -0.733,-0.4703 -1.1482,-0.5741 -0.5569,-0.1392 -1.3163,0.406 -1.7223,0 -0.1353,-0.1353 0.1353,-0.4387 0,-0.5741 -0.4487,-0.4486 -1.7282,-0.3847 -2.2964,-0.5741 -0.6546,-0.2182 -1.0677,-0.93 -1.7223,-1.1482 -1.5501,-0.5167 -3.6169,0.5167 -5.167,0 -1.979,-0.6597 -0.4253,-0.5741 -1.7223,-0.5741"
         id="path30" />
      <path
         style="fill:#0de9e6;fill-opacity:0;stroke:#a926f2;stroke-width:5.02299;stroke-linecap:square;stroke-miterlimit:0;stroke-opacity:1;paint-order:fill markers stroke"
         d="m 1638.4303,1285.2503 c -1.0825,-0.8119 -2.0873,-1.7395 -3.2476,-2.4357 -0.2321,-0.1392 -0.5413,0 -0.8119,0 -0.5413,-0.2706 -1.1203,-0.4762 -1.6239,-0.8119 -1.1517,-0.7679 -1.0025,-1.8145 -1.6238,-2.4357 -0.1913,-0.1914 -0.6205,0.1913 -0.8119,0 -0.4279,-0.4279 -0.3084,-1.2882 -0.8119,-1.6238 -0.4504,-0.3003 -1.1397,0.242 -1.6238,0 -1.6069,-0.8035 -2.1003,-2.9123 -3.2476,-4.0596 -0.7203,-0.7203 -3.0415,-0.9451 -4.0596,-1.6238 -0.8956,-0.5971 -1.4765,-1.9561 -2.4357,-2.4357 -1.8599,-0.93 -4.4049,-1.6238 -6.4953,-1.6238"
         id="path31" />
      <path
         style="fill:#0de9e6;fill-opacity:0;stroke:#a926f2;stroke-width:5.02299;stroke-linecap:square;stroke-miterlimit:0;stroke-opacity:1;paint-order:fill markers stroke"
         d="m 1612.4492,1269.0122 c -5.8954,0.4805 -4.1785,2.5547 -4.8714,3.2476 -0.3521,0.3521 -3.6472,2.0234 -4.0595,2.4357 -0.886,0.886 -1.2066,4.4317 -1.6239,5.6834 -0.121,0.3631 -0.6407,0.4696 -0.8119,0.8119 -0.4311,0.8623 -0.088,2.5239 -0.8119,3.2476 -0.1913,0.1914 -0.6909,-0.242 -0.8119,0 -0.4018,0.8037 -0.1023,3.35 -0.8119,4.0596 -0.1914,0.1913 -0.6909,-0.2421 -0.8119,0 -0.2421,0.4841 0.2421,1.1396 0,1.6238 -0.121,0.242 -0.6205,-0.1914 -0.8119,0 -0.9202,0.9201 -1.0901,2.5748 -2.4357,3.2476 -0.2421,0.121 -0.6618,-0.2252 -0.8119,0 -0.9873,1.4809 -0.3403,3.5879 -1.6239,4.8715 -0.1913,0.1913 -0.6205,-0.1914 -0.8119,0 -0.458,0.4579 0.2163,2.5987 0,3.2476 -0.3827,1.1482 -1.3302,2.0734 -1.6238,3.2476 -0.1969,0.7877 0.5741,1.8616 0,2.4357 -0.1913,0.1914 -0.6205,-0.1913 -0.8119,0 -0.1294,0.1294 -0.505,3.1389 -0.8119,4.0596 -0.634,1.9021 0.3922,4.534 0,6.4952 -0.1187,0.5935 -0.6932,1.0305 -0.8119,1.6239 -0.304,1.5197 -0.2887,7.0726 -0.8119,8.119 -1.2093,2.4186 -1.7419,5.3437 -2.4357,8.1191 -0.1165,0.4658 0.4124,3.6471 0,4.0596 -0.1914,0.1913 -0.6206,-0.1914 -0.8119,0 -0.5742,0.5741 0,1.6238 0,2.4357 0,1.7907 -0.3782,2.3247 -0.812,4.0595 -0.7309,2.9238 0,7.4351 0,10.5548 0,10.5548 0,21.1096 0,31.6644 0,3.9769 0.7772,9.1047 0,12.9906 -0.797,3.9854 -0.2723,6.7781 -0.8119,10.5548 -0.3197,2.2381 -1.0936,4.3747 -1.6238,6.4952 -0.2625,1.0503 0.4842,2.2794 0,3.2477 -0.121,0.242 -0.6205,-0.1914 -0.8119,0 -0.6766,0.6766 0.6766,3.3829 0,4.0595 -0.1914,0.1914 -0.6205,-0.1914 -0.8119,0 -0.7364,0.7364 0.4601,3.9512 0,4.8715 -0.1712,0.3423 -0.5413,0.5412 -0.8119,0.8119 0,1.0825 0.2123,2.1861 0,3.2476 -0.075,0.3753 -0.6909,0.4488 -0.8119,0.8119 -1.4602,4.3805 1.1228,10.1233 0,14.6143 -0.1468,0.5871 -0.6932,1.0305 -0.8119,1.6239 -0.602,3.0098 0.9662,6.8442 0,9.7429 -0.121,0.3631 -0.6909,0.4488 -0.8119,0.8119 -0.8677,2.6031 0.452,6.2186 0,8.931 -0.1407,0.8441 -0.6712,1.5915 -0.8119,2.4357 -0.4736,2.8417 0.6315,2.5259 0,5.6833 -0.075,0.3753 -0.6408,0.4696 -0.8119,0.8119 -0.4607,0.9214 -0.3288,8.6023 0,8.931 0.1913,0.1914 0.6205,-0.1913 0.8119,0 0.6622,0.6623 0.054,4.1135 0.8119,4.8715 0.1913,0.1913 0.6205,-0.1914 0.8119,0 0.1178,0.1178 0.8119,3.0354 0.8119,3.2476"
         id="path32" />
      <path
         style="fill:#0de9e6;fill-opacity:0;stroke:#a926f2;stroke-width:5.02299;stroke-linecap:square;stroke-miterlimit:0;stroke-opacity:1;paint-order:fill markers stroke"
         d="m 1577.0682,1497.8416 c -1.6276,-2.0163 -4.6989,-2.4379 -6.3152,-4.5928 -0.2296,-0.3062 0.2123,-0.8298 0,-1.1483 -0.036,-1.6165 -1.2944,-0.1461 -1.7223,-0.5741 -0.5301,-0.5301 -1.8486,-2.1988 -2.2964,-2.8705 -0.1914,-0.1914 -0.3828,-0.3827 -0.5741,-0.5741 -0.1914,0 -0.4388,0.1353 -0.5741,0 -0.2049,-0.2049 -2.2267,-3.3749 -2.2965,-3.4446 -0.3826,-0.3827 -0.7655,0.3826 -1.1482,0 -0.1353,-0.1353 0.086,-0.403 0,-0.5741 -1.1946,-2.3893 0.04,0.6137 -1.1482,-0.5741 -0.1353,-0.1354 0.086,-0.403 0,-0.5741 -0.2774,-0.5549 -1.7416,-2.019 -2.2964,-2.2965 -0.1712,-0.086 -0.4388,0.1354 -0.5741,0 -0.1353,-0.1353 0.1353,-0.4388 0,-0.5741 -0.1353,-0.1353 -0.4388,0.1353 -0.5741,0 -0.3829,-0.3828 0.3828,-0.7653 0,-1.1482 -0.1353,-0.1353 -0.4388,0.1353 -0.5741,0 -0.3026,-0.3026 -0.2715,-0.8456 -0.5741,-1.1482 -0.2707,-0.2706 -0.8776,0.2706 -1.1482,0 -0.2871,-0.287 -0.2871,-0.8612 -0.5741,-1.1482 -0.1354,-0.1353 -0.4388,0.1353 -0.5741,0 -0.093,-0.093 -0.5046,-1.6875 -0.5741,-1.7223 -0.3424,-0.1712 -0.8059,0.1711 -1.1483,0 -1.1482,-0.5741 -1.7223,-2.2964 -2.8705,-2.8705 -0.5413,-0.2707 -1.2382,-0.2111 -1.7223,-0.5742 -0.3423,-0.2567 -0.2715,-0.8456 -0.5741,-1.1482 -1.0991,-1.099 -3.2909,-2.4681 -4.5929,-3.4446 -0.7681,-0.5761 -1.4104,-2.0011 -2.2964,-2.2964 -0.3631,-0.1211 -0.7769,0.093 -1.1482,0 -1.4311,-0.3578 -1.7267,-1.5339 -2.8705,-2.2964 -0.7121,-0.4748 -1.531,-0.7655 -2.2964,-1.1483 -0.5255,-0.2627 -1.9069,0.3896 -2.2965,0 -0.1353,-0.1353 0.1354,-0.4387 0,-0.5741 -0.2706,-0.2706 -0.8775,0.2707 -1.1482,0 -0.1353,-0.1353 0.1712,-0.4885 0,-0.5741 -0.5917,-0.2958 -1.0662,0.041 -2.2964,-0.5741 -1.0156,-0.5078 -3.5329,0 -4.5928,0 -1.0234,0 -6.0403,0.2993 -6.3152,0.5741 -0.4398,0.4398 0.1866,0.5119 -1.7223,1.1482 -0.8146,0.2716 -2.109,-0.3807 -2.8705,0 -3.6751,1.8376 -7.2379,3.4447 -11.4822,3.4447"
         id="path33" />
      <path
         style="fill:#0de9e6;fill-opacity:0;stroke:#a926f2;stroke-width:5.02299;stroke-linecap:square;stroke-miterlimit:0;stroke-opacity:1;paint-order:fill markers stroke"
         d="m 1500.7121,1463.3953 c -4.1348,-0.01 -8.1471,0.4154 -12.0562,-1.1482 -2.6407,-1.0563 -5.2754,-1.4466 -8.0375,-2.2965 -1.9699,-0.6061 -3.8111,-1.5727 -5.741,-2.2964 -1.0921,-0.4095 -2.933,-0.9672 -4.0188,-1.1482 -0.5663,-0.094 -1.3163,0.406 -1.7223,0 -0.1353,-0.1353 0.1353,-0.4388 0,-0.5741 -0.1353,-0.1353 -0.4388,0.1353 -0.5741,0 -0.1353,-0.1353 0.1353,-0.4388 0,-0.5741 -0.1353,-0.1353 -0.4388,0.1353 -0.5741,0 -0.036,-0.036 -1.5861,-2.598 -1.7223,-2.8705 -0.5062,-1.0125 -0.2512,-4.2699 -0.5741,-4.5929 -0.1353,-0.1353 -0.4388,0.1353 -0.5741,0 -0.2987,-0.2987 0,-1.811 0,-2.2964 0,-1.4371 -0.5043,-7.603 0,-8.6116 0.4186,-0.8373 0.9184,-0.9184 1.1482,-1.1482 0.2706,-0.2706 -0.1712,-0.8059 0,-1.1482 0.2421,-0.4841 0.9061,-0.6641 1.1482,-1.1482 0.086,-0.1712 -0.1353,-0.4388 0,-0.5741 0.1353,-0.1353 0.4388,0.1353 0.5741,0 0.2706,-0.2707 -0.2706,-0.8776 0,-1.1482 0.1353,-0.1354 0.403,0.085 0.5741,0 0.9843,-0.4922 0.2354,-1.1138 1.1482,-1.7224 0.5245,-0.3496 1.3933,-0.49 1.7223,-1.1482 0.3754,-0.7506 -0.5334,-1.1685 0.5742,-1.7223 0.1711,-0.086 0.4387,0.1353 0.5741,0 0.1353,-0.1353 -0.1354,-0.4388 0,-0.5741 0.6506,-0.6507 1.8206,-0.7708 2.2964,-1.7223 0.707,-1.414 -1.6665,0.5183 0.5741,-1.7223 0.02,-0.02 1.5179,-0.3697 1.7223,-0.5741 0.4407,-0.4407 0.3296,-1.8074 0.5741,-2.2965 0.086,-0.1711 0.4388,0.1354 0.5741,0 0.4237,-0.4236 0,-3.635 0,-4.0187"
         id="path34" />
      <path
         style="fill:#0de9e6;fill-opacity:0;stroke:#a926f2;stroke-width:5.02299;stroke-linecap:square;stroke-miterlimit:0;stroke-opacity:1;paint-order:fill markers stroke"
         d="m 1481.7666,1418.0409 c 0.1701,-4.8347 -2.4375,-0.4768 -3.4446,-1.1482 -0.7841,-0.5227 -3.9036,-3.2149 -4.5928,-3.4446 -0.3631,-0.1211 -0.8059,0.1711 -1.1482,0 -0.9552,-0.4776 -1.3952,-1.2717 -2.2965,-1.7223 -0.3466,-0.1734 -1.4569,0.2653 -1.7223,0 -1.1878,-1.1879 1.8152,0.046 -0.5741,-1.1483 -0.3423,-0.1711 -0.8776,0.2707 -1.1482,0 -0.1353,-0.1353 0.1353,-0.4387 0,-0.5741 -0.2706,-0.2706 -0.8059,0.1712 -1.1482,0 -0.4841,-0.242 -0.6979,-0.8479 -1.1482,-1.1482 -0.5174,-1.1398 -1.5907,-0.2212 -2.2964,-0.5741 -0.1712,-0.086 0.085,-0.4029 0,-0.5741 -0.7747,-1.5493 -0.2574,0.02 -1.1483,-0.5741 -0.4503,-0.3002 -0.6978,-0.848 -1.1482,-1.1482 -0.3444,-0.2296 -1.4352,0.2871 -1.7223,0 -0.1353,-0.1353 0.1353,-0.4388 0,-0.5741 -0.9894,-0.9894 -2.4518,-0.6518 -3.4446,-1.1482 -0.1712,-0.086 0.1353,-0.4388 0,-0.5741 -0.1353,-0.1353 -0.4388,0.1353 -0.5741,0 -0.1353,-0.1353 0.1353,-0.4388 0,-0.5741 -0.6766,-0.6766 -1.5003,-1.1916 -2.2964,-1.7223 -0.3185,-0.2123 -0.8776,0.2706 -1.1483,0 -0.1353,-0.1354 0.1354,-0.4388 0,-0.5741 -0.2314,-0.2315 -1.4246,-0.3757 -1.7223,-0.5742 -0.3827,-0.3827 -0.7654,-0.7654 -1.1482,-1.1482 0,-0.1913 0.1353,-0.4388 0,-0.5741 -0.589,-0.589 -2.3893,-0.667 -2.8705,-1.1482 -0.7126,-0.7126 -0.1486,-1.8709 -0.5741,-2.2964 -0.1353,-0.1353 -0.4388,0.1353 -0.5741,0 -0.1353,-0.1353 0.1353,-0.4388 0,-0.5741 -0.1353,-0.1353 -0.4388,0.1353 -0.5741,0 -0.059,-0.059 -1.5684,-2.6396 -1.7223,-2.8705 -0.3003,-0.4504 -0.9062,-0.6641 -1.1483,-1.1482 -0.086,-0.1712 0,-0.3828 0,-0.5742 -0.1913,-0.3827 -0.3367,-0.7921 -0.5741,-1.1482 -0.2317,-0.3476 -1.7103,-1.1242 -1.7223,-1.1482 -0.2157,-0.4314 -0.2206,-2.517 -0.5741,-2.8705 -0.1353,-0.1353 -0.4388,0.1353 -0.5741,0 -1.1878,-1.1878 1.8152,0.046 -0.5741,-1.1482 -0.1712,-0.086 -0.4388,0.1353 -0.5741,0 -0.1914,-0.1914 -0.3827,-1.531 -0.5741,-1.7223 -0.1353,-0.1354 -0.4388,0.1353 -0.5741,0 -0.5463,-0.5464 -1.3191,-3.6155 -1.7223,-4.0188 -0.5181,-0.518 -2.6501,0.1987 -3.4447,0 -0.4151,-0.1038 -0.7422,-0.4388 -1.1482,-0.5741 -0.5816,-0.1938 -2.4607,0.4098 -2.8705,0 -0.1353,-0.1353 0.1353,-0.4388 0,-0.5741 -0.191,-0.191 -2.1806,0.039 -2.2964,0 -0.2568,-0.086 -0.3321,-0.4531 -0.5741,-0.5741 -1.207,-0.6035 -3.3247,-0.067 -4.5929,-0.5741 -0.7946,-0.3178 -1.4735,-0.9131 -2.2964,-1.1482 -0.8609,-0.246 -4.7441,-0.076 -5.7411,-0.5741 -0.4841,-0.2421 -0.684,-0.8697 -1.1482,-1.1482 -1.0378,-0.6227 -2.4068,-0.5255 -3.4446,-1.1482 -0.4641,-0.2785 -0.6978,-0.848 -1.1482,-1.1482 -0.8119,-0.5413 -1.9978,-0.1378 -2.8705,-0.5742 -0.1712,-0.086 0.085,-0.4029 0,-0.5741 -0.5632,-1.1262 -1.1483,0.044 -1.1483,-1.1482"
         id="path35" />
      <path
         style="fill:#0de9e6;fill-opacity:0;stroke:#a926f2;stroke-width:5.02299;stroke-linecap:square;stroke-miterlimit:0;stroke-opacity:1;paint-order:fill markers stroke"
         d="m 1401.966,1369.816 c 0.7373,-1.5442 -0.7653,-4.2105 0,-5.741 0.4769,-0.9539 0.7697,-1.7351 1.1482,-2.8705 0.121,-0.3631 -0.2707,-0.8776 0,-1.1482 0.1353,-0.1354 0.4388,0.1353 0.5741,0 0.4649,-0.4649 -0.2227,-2.7766 0,-3.4447 0.086,-0.2567 0.4531,-0.332 0.5741,-0.5741 0.385,-0.77 0.2122,-2.1467 0.5741,-2.8705 0.4331,-0.8663 0.7912,-1.2254 1.1482,-2.2964 0.1082,-0.3247 -0.2306,-1.4918 0,-1.7224 0.1353,-0.1353 0.4388,0.1354 0.5741,0 0.2237,-0.2236 0,-1.946 0,-2.2964 0,-2.7282 0.6818,-11.159 0,-13.2044 -0.086,-0.2568 -0.4531,-0.332 -0.5741,-0.5741 -0.3012,-0.6023 0.4582,-2.4123 0,-2.8705 -0.1353,-0.1354 -0.4388,0.1353 -0.5741,0 -0.4457,-0.4457 0.2878,-2.2951 0,-2.8706 -0.086,-0.1711 -0.4388,0.1353 -0.5741,0 -0.2917,-0.2916 0.082,-2.5412 0,-2.8705 -0.3067,-1.2267 -0.5741,-1.6043 -0.5741,-2.8705 0,-2.1558 -0.5725,-11.4855 0,-12.6303 1.3551,-2.7102 1.7223,-5.5813 1.7223,-9.1857"
         id="path36" />
      <path
         style="fill:#0de9e6;fill-opacity:0;stroke:#a926f2;stroke-width:5.02299;stroke-linecap:square;stroke-miterlimit:0;stroke-opacity:1;paint-order:fill markers stroke"
         d="m 1405.4106,1299.2011 c 0.6579,3.0679 -2.6156,1.6269 -3.4446,2.8705 -1.1482,1.7223 0.5741,0.5741 0,1.7223 -0.4881,0.9762 -1.2567,1.9393 -1.7224,2.8705 -0.3368,0.6737 -0.01,2.3058 -0.5741,2.8706 -0.1353,0.1353 -0.4885,-0.1712 -0.5741,0 -0.2567,0.5135 0.2568,1.2088 0,1.7223 -0.121,0.242 -0.4885,0.3173 -0.5741,0.5741 -0.3201,0.9603 0.4526,2.5395 0,3.4446 -1.1482,2.2965 -1.7591,5.3512 -2.2964,8.0375 -0.1501,0.7506 0.3423,1.6118 0,2.2964 -0.086,0.1712 -0.4388,-0.1353 -0.5741,0 -0.5413,0.5413 0.1501,1.5458 0,2.2964 -0.084,0.4196 -0.4388,0.7423 -0.5741,1.1482 -0.6219,1.8656 0,12.9066 0,15.5009 0,2.7109 0.703,12.8177 0,14.9267 -0.086,0.2568 -0.4885,0.3174 -0.5741,0.5742 -0.6154,1.8461 0,8.5761 0,10.908"
         id="path37" />
      <path
         style="fill:#0de9e6;fill-opacity:0;stroke:#a926f2;stroke-width:5.02299;stroke-linecap:square;stroke-miterlimit:0;stroke-opacity:1;paint-order:fill markers stroke"
         d="m 1393.9285,1370.9643 c 0.5876,1.5682 3.6826,-0.9102 4.5928,0 0.4398,0.4398 -0.1866,0.5119 1.7223,1.1482 0.3631,0.121 0.8776,-0.2707 1.1483,0 0.1353,0.1353 -0.1354,0.4388 0,0.5741 0.103,0.103 2.0087,1.0523 2.2964,1.1482 1.8248,0.6083 3.7809,0.4948 5.741,1.1482 0.4842,0.1614 1.269,-0.2267 1.7224,0 0.7689,0.3845 0.7955,1.3696 1.1482,1.7223 0.3327,0.3328 1.9636,0.8155 2.2964,1.1482 2.2406,2.2406 -0.1329,0.3084 0.5741,1.7223 0.3827,0.7655 2.8199,1.621 3.4446,2.8706 0.3215,0.6429 0.2707,1.6895 0.5741,2.2964 0.086,0.1712 0.4388,-0.1353 0.5741,0 0.3026,0.3026 0.3828,0.7655 0.5741,1.1482 0.612,1.224 0.01,6.3414 0.5742,8.0375 0.086,0.2567 0.4885,0.3173 0.5741,0.5741 0.3781,1.1343 0.196,2.8844 0.5741,4.0187 0.085,0.2568 0.521,0.3088 0.5741,0.5741 0.3224,1.6123 -0.4,3.5672 0,5.167 0.8447,3.379 0.5741,-3.2805 0.5741,1.7223"
         id="path38" />
      <path
         style="fill:#0de9e6;fill-opacity:0;stroke:#a926f2;stroke-width:5.02299;stroke-linecap:square;stroke-miterlimit:0;stroke-opacity:1;paint-order:fill markers stroke"
         d="m 1424.3561,1410.0034 c 0,1.3396 -0.1662,2.6895 0,4.0188 0.034,0.2685 0.4736,0.3228 0.5741,0.5741 0.3388,0.847 0.1432,3.1569 0.5741,4.0187 0.121,0.2421 0.4885,0.3174 0.5741,0.5741 0.121,0.3631 -0.1712,0.8059 0,1.1482 0.086,0.1712 0.4388,-0.1353 0.5741,0 0.406,0.406 -0.1815,1.1777 0,1.7224 0.086,0.2567 0.3827,0.3827 0.5741,0.5741 0.1914,0.3827 0.4388,0.7422 0.5741,1.1482 0.1614,0.4841 -0.2267,1.2689 0,1.7223 0.4187,0.8373 0.9184,0.9184 1.1482,1.1482 0.3288,0.3288 0.3976,1.7667 0.5741,2.2964 0.3882,1.1646 1.3768,2.4081 1.7224,3.4447 0.121,0.3631 -0.1211,0.7851 0,1.1482 0.2972,0.8917 1.3855,1.8601 1.7223,2.8705 0.061,0.1816 -0.1353,0.4388 0,0.5741 0.3025,0.3026 0.8914,0.2318 1.1482,0.5741 1.6634,2.2179 -0.038,1.0334 0.5741,2.8705 0.5004,1.5013 2.7031,3.8873 3.4446,5.7411 0.1422,0.3554 -0.093,0.7769 0,1.1482 -0.346,1.0391 0.93,1.0677 1.1482,1.7223 0.1211,0.3631 -0.1711,0.8059 0,1.1482 0.086,0.1712 0.4388,-0.1353 0.5741,0 0.4879,0.4879 0.8397,1.1052 1.1482,1.7224 0.2297,0.4592 -0.2296,1.263 0,1.7223 0.3146,0.6291 0.8337,1.6673 1.1483,2.2964 0.242,0.4841 0.664,0.9061 1.1482,1.1482 0.1711,0.086 0.503,-0.1777 0.5741,0 0.3624,0.906 0.2655,1.9448 0.5741,2.8705 0.4737,1.4213 2.2284,2.7346 2.8705,4.0188 0.1712,0.3423 -0.1712,0.8059 0,1.1482 0.2421,0.4841 0.848,0.6978 1.1482,1.1482 0.6745,1.0117 1.0606,2.9159 1.7223,4.0187 0.5848,0.9747 1.7743,1.8263 2.2965,2.8706 0.2706,0.5412 0.2384,1.2188 0.5741,1.7223 0.1061,0.1592 0.4388,-0.1353 0.5741,0 0.1353,0.1353 -0.1353,0.4388 0,0.5741 0.3026,0.3026 0.8456,0.2715 1.1482,0.5741 0.287,0.287 -0.2871,1.4353 0,1.7223 0.1353,0.1353 0.4388,-0.1353 0.5741,0 0.789,0.789 1.0528,1.9778 1.7223,2.8705 3.7048,4.9398 9.2916,8.1081 14.3526,11.4821 1.4281,0.9521 0.066,0.132 0.5742,1.1483 1.1946,2.3893 -0.04,-0.6138 1.1482,0.5741 0.1353,0.1353 -0.1354,0.4388 0,0.5741 0.3527,0.3527 1.3378,0.3793 1.7223,1.1482 0.8535,1.7069 2.5625,3.4027 3.4446,5.1669 1.1947,2.3893 -0.04,-0.6137 1.1482,0.5741 3.0311,3.0311 -0.4864,-0.045 0.5741,1.7224 0.9846,1.6409 2.2196,3.1227 3.4447,4.5928 1.1775,1.4131 2.5915,3.5224 4.0187,4.5928 0.1531,0.1149 0.4388,-0.1353 0.5741,0 0.8838,0.8838 1.4127,2.5609 2.2964,3.4447 0.3026,0.3026 0.8915,0.2318 1.1482,0.5741 0.3631,0.4841 0.2111,1.2382 0.5741,1.7223 0.2568,0.3423 0.7655,0.3827 1.1483,0.5741 0.3827,0.3827 0.8336,0.7078 1.1482,1.1482 0.6486,0.908 0.9961,2.0233 1.7223,2.8705 4.3829,5.1135 -0.3241,-1.4722 2.8705,1.7224 0.3026,0.3025 0.2715,0.8456 0.5741,1.1482 0.2315,0.2314 1.4247,0.3756 1.7223,0.5741 2.8448,-0.7003 0.5963,1.3083 1.1483,1.7223 1.0269,0.7702 2.5368,0.8146 3.4446,1.7223 0.1353,0.1353 0,0.3828 0,0.5741 0.3827,0.3828 0.7152,0.8235 1.1482,1.1482 2.6007,1.9506 5.4403,3.6634 8.0375,5.7411 2.7295,2.1836 1.6611,1.9788 4.5928,3.4446 1.2658,0.6329 2.3536,2.6264 3.4447,3.4447 0.3061,0.2296 0.7851,-0.1211 1.1482,0 0.7316,0.2438 1.6864,0.8431 2.2964,1.1482 0.6889,0.3444 1.0334,1.3778 1.7223,1.7223 0.1712,0.086 0.3827,0 0.5741,0 0.3827,0.1914 0.8059,0.3173 1.1482,0.5741 4.1296,3.0971 -1.2116,-0.6375 1.7223,2.2964 0.3026,0.3026 0.8059,0.3174 1.1482,0.5741 1.371,1.0282 2.4716,3.2452 4.0188,4.0188 0.7919,0.3959 0.5135,-0.6953 1.1482,0.5741 0.086,0.1711 -0.1062,0.4148 0,0.5741 0.936,1.404 2.7533,1.4878 3.4446,2.8705 0.1712,0.3423 -0.1711,0.8059 0,1.1482 0.3956,0.7912 1.3465,0.7723 1.7224,1.1482 0.851,0.8511 1.4453,2.5936 2.2964,3.4447 0.7957,0.7957 2.2947,1.1447 2.8705,2.2964 0.4122,0.8244 1.5183,2.6665 2.2964,3.4446 0.1353,0.1353 0.4388,-0.1353 0.5741,0 0.2406,0.2406 0.4002,1.3744 0.5741,1.7223 0.9074,1.8147 2.4664,2.0623 3.4447,4.0188 0.2181,0.4363 0.9373,2.0855 1.1482,2.2964 0.3446,0.3446 1.27,0.4698 1.7223,1.1482 0.4747,0.7121 0.543,1.6913 1.1482,2.2964 0.1353,0.1353 0.4388,-0.1353 0.5741,0 0.1353,0.1353 -0.1353,0.4388 0,0.5741 0.1353,0.1353 0.4388,-0.1353 0.5741,0 0.8987,0.8987 1.2163,2.4326 1.7223,3.4447 0.4598,0.9194 1.7214,1.4339 2.2965,2.2964 0.7644,1.1467 0.95,2.989 1.7223,4.0187 0.2567,0.3424 0.7921,0.3368 1.1482,0.5741 0.8918,0.5946 0.729,2.0321 1.1482,2.8706 0.5188,1.0375 3.2065,3.066 3.4446,4.0187 0.1393,0.557 -0.2132,1.1893 0,1.7223 0.4255,1.0637 2.9918,3.6871 3.4447,4.5929 0.9242,1.8484 -0.6817,1.6147 1.1482,3.4446"
         id="path39" />
      <path
         style="fill:#0de9e6;fill-opacity:0;stroke:#a926f2;stroke-width:5.02299;stroke-linecap:square;stroke-miterlimit:0;stroke-opacity:1;paint-order:fill markers stroke"
         d="m 1576.4941,1607.4958 c 0.7655,0.1914 1.5638,0.281 2.2964,0.5741 0.5026,0.201 0.6641,0.9061 1.1482,1.1482 0.7093,0.3546 2.2373,0.1519 2.8705,0.5741 1.5408,1.0272 2.5947,1.9634 4.5929,2.2964 0.9438,0.1573 1.9628,-0.3026 2.8705,0 0.2568,0.086 0.3174,0.4886 0.5741,0.5741 0.3631,0.1211 0.7769,-0.093 1.1482,0 2.5434,0.6359 4.8211,2.4302 7.4634,2.8706 0.9438,0.1573 1.9423,-0.2321 2.8705,0 1.1861,0.2965 2.2809,0.7602 3.4447,1.1482 0.3247,0.1082 1.4917,-0.2306 1.7223,0 0.1353,0.1353 -0.1857,0.5277 0,0.5741 0.7426,0.1856 1.5413,-0.1259 2.2964,0 1.1901,0.1983 2.469,1.2345 3.4446,1.7223 0.5135,0.2567 1.1654,-0.1392 1.7224,0 2.5401,0.635 5.0343,2.473 7.4633,3.4446 0.3554,0.1422 0.8059,-0.1711 1.1482,0 1.6736,0.8368 2.9193,2.6079 4.5929,3.4447 1.4378,0.7189 3.8011,1.2037 5.1669,2.2964 0.3342,0.2673 0.2716,0.8456 0.5741,1.1482 0.6602,0.6602 2.198,0.6998 2.8706,1.1482 0.1592,0.1062 -0.1062,0.4149 0,0.5741 0.3002,0.4504 0.7152,0.8235 1.1482,1.1482 0.2678,0.2009 2.7782,1.63 2.8705,1.7223 1.7731,1.7731 2.837,3.4111 4.5929,5.167 0.2513,0.2513 1.7069,1.1251 1.7223,1.1482 1.7505,0.4064 0.2212,1.5907 0.5741,2.2964 0.3228,0.6456 1.4956,1.0423 1.7223,1.7223 0.1894,0.5683 0.1254,1.8478 0.5741,2.2965 0.1353,0.1353 0.5136,-0.1816 0.5741,0 0.6237,1.8712 -0.478,4.4033 0,6.3151 0.1105,0.442 1.0275,2.2668 1.1482,2.8706 0.1501,0.7506 -0.242,1.5702 0,2.2964 0.5108,1.5323 0.7586,3.0345 1.1482,4.5928 0.4379,1.7514 -0.2795,2.3115 0.5741,4.0188 1.1108,2.2216 -1.1123,10.9798 0,13.2044 0.4832,0.9663 0.5741,1.1158 0.5741,2.2964"
         id="path40" />
      <path
         style="fill:#0de9e6;fill-opacity:0;stroke:#a926f2;stroke-width:5.02299;stroke-linecap:square;stroke-miterlimit:0;stroke-opacity:1;paint-order:fill markers stroke"
         d="m 1654.5724,1682.7036 c 2.0121,1.6773 2.8091,4.5314 4.5929,6.3152 0.2706,0.2706 0.977,-0.3423 1.1482,0 0.1712,0.3423 -0.1712,0.8059 0,1.1482 0.086,0.1712 0.4388,-0.1353 0.5741,0 0.1353,0.1353 -0.1353,0.4388 0,0.5741 0.3026,0.3026 0.8456,0.2715 1.1482,0.5741 0.4308,0.4308 2.4052,2.1413 2.8705,2.2964 0.3631,0.1211 0.8059,-0.1711 1.1483,0 0.7261,0.3631 0.9961,1.3592 1.7223,1.7223 0.339,0.1695 2.106,0.9578 2.2964,1.1483 0.1353,0.1353 -0.1353,0.4387 0,0.5741 0.1353,0.1353 0.4029,-0.086 0.5741,0 0.4841,0.242 0.6641,0.9061 1.1482,1.1482 0.5558,0.2779 1.7992,0.2426 2.2964,0.5741 1.2933,0.8621 2.6442,2.7573 4.0188,3.4446 0.4529,0.5135 1.2088,-0.2567 1.7223,0 0.9515,0.4758 1.0716,1.6458 1.7223,2.2964 0.8152,0.8153 2.4801,1.0794 3.4446,1.7224 0.5741,0.3827 1.2345,0.6603 1.7224,1.1482 0.1353,0.1353 -0.1641,0.4756 0,0.5741 1.5944,0.9566 6.0661,2.6214 7.4633,4.0187 0.1354,0.1353 -0.1353,0.4388 0,0.5741 0.3828,0.3828 2.4188,-0.2259 2.8706,0 0.4841,0.2421 0.6978,0.848 1.1482,1.1482 0.6214,0.4143 2.0831,0.7545 2.8705,1.1482 0.9678,0.4839 2.5717,0.1377 3.4446,0.5741 1.0192,0.5096 1.8514,1.2128 2.8706,1.7224 0.5579,0.2789 1.7385,0.2951 2.2964,0.5741 0.3061,0.153 0.8421,0.9951 1.1482,1.1482 0.5135,0.2567 1.1777,-0.1816 1.7223,0 0.8924,0.2974 1.44,1.2941 2.2964,1.7223 0.3424,0.1712 0.8059,-0.1712 1.1482,0 0.1712,0.086 -0.1353,0.4388 0,0.5741 0.1058,0.1058 1.6166,0.4683 1.7224,0.5741 0.1353,0.1353 -0.1354,0.4388 0,0.5741 0.4019,0.4019 2.2791,0.8525 2.8705,1.1482 1.1119,0.556 0.6104,1.7405 1.7223,2.2964 0.8891,0.4446 0.8269,-0.3213 1.7223,0.5741"
         id="path41" />
      <path
         style="fill:#0de9e6;fill-opacity:0;stroke:#a926f2;stroke-width:5.02299;stroke-linecap:square;stroke-miterlimit:0;stroke-opacity:1;paint-order:fill markers stroke"
         d="m 1725.7615,1725.7615 c -0.013,2.8717 2.4141,4.254 3.4447,6.3152 0.1711,0.3423 -0.1712,0.8059 0,1.1482 0.4483,0.8968 1.7577,0.6449 2.2964,1.7223 0.2182,0.4364 0.9374,2.0856 1.1482,2.2965 0.1353,0.1353 0.4388,-0.1354 0.5741,0 0.3194,0.3193 2.1501,3.2983 2.2964,3.4446 0.3125,0.3124 2.4384,1.2902 2.8706,1.7223 0.6992,0.6993 0.2689,1.2827 1.1482,1.7223 0.5347,0.2674 2.8319,1.6451 2.8705,1.7223 0.1712,0.3424 -0.121,0.7852 0,1.1483 0.3002,0.9005 1.199,0.3632 1.7223,1.1482 1.1663,1.7493 1.7406,3.4719 2.8706,5.1669 0.4416,0.6624 1.2806,1.0599 1.7223,1.7223 1.2648,0.2891 0.3034,1.1811 0.5741,1.7223 0.3444,0.689 1.3778,1.0334 1.7223,1.7224 0.1712,0.3423 -0.2706,0.8775 0,1.1482 0.1353,0.1353 0.4885,-0.1712 0.5741,0 0.1712,0.3423 -0.1712,0.8059 0,1.1482 0.086,0.1712 0.4388,-0.1353 0.5741,0 0.2706,0.2706 -0.1712,0.8059 0,1.1482 0.2964,0.5929 1.0947,1.9826 1.7223,2.2964 0.1712,0.086 0.4388,-0.1353 0.5741,0 0.7225,0.7225 2.0933,5.5379 2.8706,6.3152 0.1353,0.1353 0.4885,-0.1712 0.5741,0 0.3964,0.7929 0.2893,2.0162 0.5741,2.8705 0.085,0.2568 0.453,0.3321 0.5741,0.5741 0.1711,0.3423 -0.1712,0.8059 0,1.1482 0.9976,1.9953 1.8862,4.3466 2.8705,6.3152 0.7318,1.4636 0.071,3.6582 0.5741,5.1669 0.3947,1.1843 1.42,2.2356 1.7223,3.4447 0.1393,0.5569 -0.2567,1.2088 0,1.7223 0.6232,1.2464 1.2474,2.5938 1.7223,4.0187 0.3832,1.1495 -0.2355,2.8409 0,4.0188 0.2633,1.3163 0.7222,2.7406 1.1482,4.0187 0.2871,0.8612 -0.287,2.0094 0,2.8705 0.086,0.2568 0.4886,0.3174 0.5742,0.5741 0.2342,0.7029 -0.1796,1.5784 0,2.2965 0.667,2.6682 1.0698,4.8536 1.7223,7.4633 0.4503,1.8012 -0.4503,3.94 0,5.7411 0.1467,0.5871 0.4554,1.1289 0.5741,1.7223 0.3869,1.9347 -0.6229,4.4467 0,6.3152 0.086,0.2567 0.4885,0.3173 0.5741,0.5741 0.475,1.425 -0.1586,1.4052 0.5741,2.8705 0.6124,1.2248 -0.6124,3.3681 0,4.5929 0.9736,1.9471 0.1332,4.1106 0.5741,6.3151 0.8593,4.2966 0.5741,8.7749 0.5741,13.2044 0,5.5497 0,11.0994 0,16.6491"
         id="path42" />
      <path
         style="fill:#0de9e6;fill-opacity:0;stroke:#a926f2;stroke-width:5.02299;stroke-linecap:square;stroke-miterlimit:0;stroke-opacity:1;paint-order:fill markers stroke"
         d="m 1772.8382,1874.4549 c 1.1629,3.8139 0.6165,8.1223 2.2964,11.4821 0.1712,0.3423 -0.1711,0.8059 0,1.1482 0.3956,0.7912 1.3465,0.7724 1.7223,1.1482 0.1354,0.1354 -0.1353,0.4388 0,0.5741 0.1354,0.1354 0.4388,-0.1353 0.5742,0 0.1353,0.1354 0,0.3828 0,0.5741 0.3827,0.3828 0.7151,0.8235 1.1482,1.1483 2.6407,1.9805 -0.603,-1.1675 2.8705,1.1482 0.1592,0.1061 -0.086,0.4029 0,0.5741 0.548,1.096 1.8198,1.666 2.8705,2.2964 0.8865,0.5319 1.337,0.094 2.2964,0.5741 0.1712,0.086 -0.1353,0.4388 0,0.5741 0.2707,0.2706 0.8059,-0.1712 1.1483,0 0.8757,0.4379 1.4402,1.2942 2.2964,1.7223 0.5887,0.2944 1.7077,0.2798 2.2964,0.5741 0.7803,0.3902 1.5161,1.3322 2.2964,1.7224 0.9783,0.4891 2.2767,1.333 3.4447,1.7223 0.883,0.2943 3.3552,0.4847 4.0187,1.1482 0.1353,0.1353 -0.1353,0.4388 0,0.5741 0.2337,0.2337 1.9289,0.9644 2.2964,1.1482 0.6062,0.3031 3.8348,0.3901 4.5929,1.1482 0.1353,0.1353 -0.1354,0.4388 0,0.5741 0.4802,0.4803 2.9019,0.031 3.4446,0.5741 0.1353,0.1353 -0.1353,0.4388 0,0.5741 0.4059,0.406 1.1653,-0.1392 1.7223,0 2.2426,0.5607 0.9767,1.1482 4.0188,1.1482"
         id="path43" />
      <path
         style="fill:#0de9e6;fill-opacity:0;stroke:#a926f2;stroke-width:5.02299;stroke-linecap:square;stroke-miterlimit:0;stroke-opacity:1;paint-order:fill markers stroke"
         d="m 1818.1926,1909.4753 c 3.603,0.012 5.9407,1.4852 9.1856,2.2965 2.5786,0.6446 10.7018,0 13.7786,0 9.5684,0 19.1368,0 28.7053,0 4.0191,0 8.8837,0.6747 12.6303,-0.5741 0.3247,-0.1083 1.4917,0.2305 1.7223,0 0.1353,-0.1354 -0.1353,-0.4388 0,-0.5741 0.2706,-0.2707 0.8059,0.1711 1.1482,0 0.8339,-0.417 1.2377,-0.8836 2.2964,-1.1483 0.557,-0.1392 1.2089,0.2568 1.7223,0 1.0443,-0.5221 1.8959,-1.7116 2.8706,-2.2964 1.7067,-1.024 4.3808,-2.2257 6.3151,-2.8705 0.8146,-0.2715 2.109,0.3808 2.8706,0 2.462,-1.231 6.2715,-0.5741 9.1857,-0.5741"
         id="path44" />
      <path
         style="fill:#0de9e6;fill-opacity:0;stroke:#a926f2;stroke-width:5.02299;stroke-linecap:square;stroke-miterlimit:0;stroke-opacity:1;paint-order:fill markers stroke"
         d="m 1911.1977,1904.8825 c 9.1857,0 18.3713,0 27.557,0 1.5206,0 5.9069,0.4912 6.8893,0 1.1664,-0.5832 1.3784,-0.5741 2.8705,-0.5741 1.6893,0 9.5606,0.6737 10.908,0 1.378,-0.689 3.1747,-1.0132 4.5929,-1.7223 0.7289,-0.3645 2.1075,0.2543 2.8705,0 1.0877,-0.3626 0.903,-0.5741 2.2964,-0.5741"
         id="path45" />
      <path
         style="fill:#0de9e6;fill-opacity:0;stroke:#a926f2;stroke-width:5.02299;stroke-linecap:square;stroke-miterlimit:0;stroke-opacity:1;paint-order:fill markers stroke"
         d="m 1969.1823,1902.012 c 3.3295,0.6669 10.3416,-0.9543 13.2045,0 3.404,1.1347 8.646,1.1367 12.0562,0 0.8349,-0.2783 2.0936,0.3884 2.8705,0 0.4841,-0.2421 0.6641,-0.9062 1.1482,-1.1482 0.7551,-0.3776 1.4654,-0.2971 2.2964,-0.5741 0.5135,-0.1712 0.6641,-0.9062 1.1483,-1.1483 0.3466,-0.1733 1.4569,0.2654 1.7223,0 0.1353,-0.1353 -0.1353,-0.4387 0,-0.5741 0.287,-0.287 0.8611,-0.287 1.1482,-0.5741 1.1878,-1.1878 -1.8152,0.047 0.5741,-1.1482 0.1712,-0.086 0.4388,0.1353 0.5741,0 0.1353,-0.1353 -0.1353,-0.4388 0,-0.5741 0.3759,-0.3759 1.3267,-0.357 1.7223,-1.1482 0.1712,-0.3423 -0.1712,-0.8059 0,-1.1482 0.5019,-1.0037 2.2144,-1.6403 2.8705,-2.2964 0.9196,-0.9196 0.937,-2.1908 2.2965,-2.8706 0.3423,-0.1711 0.7851,0.1211 1.1482,0 1.1424,-0.3808 0.2679,-0.5358 0.5741,-1.1482 0.4396,-0.8793 1.023,-0.4489 1.7223,-1.1482 1.1878,-1.1878 -1.8152,0.047 0.5741,-1.1482 0.7919,-0.3959 0.5135,0.6953 1.1482,-0.5741 0.707,-1.414 -1.6665,0.5183 0.5741,-1.7223 0.1353,-0.1353 0.403,0.086 0.5741,0 0.1852,-0.093 2.2446,-2.7151 2.2964,-2.8705 0.1211,-0.3631 -0.2123,-0.8298 0,-1.1483 0.2174,-0.326 1.859,-1.2848 2.2965,-1.7223 0.9169,-0.9169 1.3102,-2.4584 2.2964,-3.4446 0.09,-0.089 1.6328,-1.0587 1.7223,-1.1482 0.1115,-0.1115 1.5897,-3.1794 1.7223,-3.4446 0.3086,-0.6172 0.6603,-1.2345 1.1482,-1.7224 0.1354,-0.1353 0.4886,0.1712 0.5741,0 0.5135,-0.4529 -0.2567,-1.2088 0,-1.7223 0.2421,-0.4841 0.848,-0.6978 1.1483,-1.1482 1.2648,-0.2891 0.3034,-1.181 0.5741,-1.7223 0.1913,-0.3827 0.9568,-0.1914 1.1482,-0.5741 0.5678,-1.1356 0.02,-2.91 0.5741,-4.0188 0.5298,-1.0597 1.1938,-2.3876 1.7223,-3.4446 0.2421,-0.4841 0.9061,-0.6641 1.1482,-1.1482 0.385,-0.77 0.2122,-2.1467 0.5741,-2.8705 0.3086,-0.6172 0.892,-1.0817 1.1482,-1.7223 0.1422,-0.3554 -0.1711,-0.8059 0,-1.1483 0.086,-0.1711 0.4885,0.1712 0.5741,0 0.1712,-0.3423 -0.093,-0.7769 0,-1.1482 0.6931,-2.7723 0.2729,0.029 1.1482,-1.7223 0.1734,-0.3466 -0.2654,-1.4569 0,-1.7223 0.7655,-0.7655 0.5741,0.9568 0.5741,-0.5741"
         id="path46" />
      <path
         style="fill:#0de9e6;fill-opacity:0;stroke:#a926f2;stroke-width:5.02299;stroke-linecap:square;stroke-miterlimit:0;stroke-opacity:1;paint-order:fill markers stroke"
         d="m 2041.5196,1842.8791 c -0.17,-0.1984 0.4984,-10.2582 0.5741,-10.3339 0.1354,-0.1353 0.4388,0.1353 0.5742,0 0.2653,-0.2654 -0.1734,-1.3757 0,-1.7223 0.242,-0.4842 0.9061,-0.6641 1.1482,-1.1482 0.6505,-1.3011 1.0658,-2.7059 1.7223,-4.0188 0.1711,-0.3423 -0.2707,-0.8776 0,-1.1482 0.1353,-0.1353 0.4388,0.1353 0.5741,0 0.2706,-0.2706 -0.121,-0.7851 0,-1.1482 0.2776,-0.8329 1.1058,-2.8282 1.7223,-3.4446 0.1353,-0.1354 0.4885,0.1711 0.5741,0 0.5741,-1.1482 -0.287,-0.8612 0,-1.7223 0.6807,-2.042 2.4416,-3.5964 2.8705,-5.7411 0.6735,-3.3672 0.8308,-6.8285 2.2965,-9.7598 0.4742,-0.9485 0.1755,-4.5455 0.5741,-5.7411 0.061,-0.1815 0.4885,0.1712 0.5741,0 0.4394,-0.8788 -0.475,-6.4143 0,-6.8892 0.1353,-0.1353 0.4388,0.1353 0.5741,0 0.6766,-0.6766 0,-1.9137 0,-2.8706 0,-1.8957 0.6167,-9.1005 0,-10.3339 -0.4516,-0.9031 -0.5741,-0.6509 -0.5741,-1.7223"
         id="path47" />
      <path
         style="fill:#0de9e6;fill-opacity:0;stroke:#a926f2;stroke-width:5.02299;stroke-linecap:square;stroke-miterlimit:0;stroke-opacity:1;paint-order:fill markers stroke"
         d="m 2054.7241,1776.8569 c -1.448,0.2107 0.036,-5.1306 -0.5741,-5.741 -0.1354,-0.1353 -0.4886,0.1712 -0.5741,0 -0.1712,-0.3423 0.121,-0.7851 0,-1.1482 -0.086,-0.2568 -0.4886,-0.3174 -0.5741,-0.5741 -0.2803,-0.8408 0.2151,-2.01 0,-2.8706 -0.2694,-1.0773 -0.7032,-1.9805 -1.1483,-2.8705 -0.3827,-0.7655 0.3828,-2.105 0,-2.8705 -0.086,-0.1712 -0.5135,0.1815 -0.5741,0 -0.5636,-1.691 0.091,-3.7447 -0.5741,-5.7411 -0.8182,-2.4548 0.5653,-5.1846 -0.5741,-7.4633 -1.0462,-2.0925 0.8578,-8.9088 0,-11.4822 -0.086,-0.2567 -0.453,-0.332 -0.5741,-0.5741 -0.4205,-0.8409 0.2736,-2.3233 -0.5741,-4.0187 -0.6398,-1.2796 0,-6.9336 0,-8.6116 0,-1.3911 -0.4946,-6.4741 0,-7.4634 0.5793,-1.1584 1.3167,-2.2277 1.7223,-3.4446 0.1816,-0.5446 -0.2567,-1.2088 0,-1.7223 0.7095,-1.4189 0.5741,0.1982 0.5741,-1.1482"
         id="path48" />
      <path
         style="fill:#0de9e6;fill-opacity:0;stroke:#a926f2;stroke-width:5.02299;stroke-linecap:square;stroke-miterlimit:0;stroke-opacity:1;paint-order:fill markers stroke"
         d="m 2052.4277,1710.2607 c -1.817,-2.8217 1.9751,-2.6861 1.1482,-5.167 -0.7776,-2.3325 -0.3205,0.04 -1.7224,-2.2964 -0.3113,-0.5189 -0.211,-1.2382 -0.5741,-1.7223 -0.2567,-0.3423 -0.8456,-0.2715 -1.1482,-0.5741 -0.1353,-0.1353 0.086,-0.4029 0,-0.5741 -1.1946,-2.3893 0.04,0.6137 -1.1482,-0.5741 -0.1353,-0.1353 0.1353,-0.4388 0,-0.5741 -0.1353,-0.1353 -0.4388,0.1353 -0.5741,0 -0.3026,-0.3026 -0.2715,-0.8457 -0.5741,-1.1482 -0.1353,-0.1354 -0.4029,0.085 -0.5741,0 -0.8591,-0.4296 -2.1977,-1.6236 -2.8705,-2.2965"
         id="path49" />
      <path
         style="fill:#0de9e6;fill-opacity:0;stroke:#a926f2;stroke-width:5.02299;stroke-linecap:square;stroke-miterlimit:0;stroke-opacity:1;paint-order:fill markers stroke"
         d="m 2044.9643,1694.7598 c 0.7655,-0.3827 2.6791,-0.3827 2.2964,-1.1482 -0.3827,-0.7654 -3.0085,1.623 -2.2964,1.1482 1.2837,-0.8558 2.6387,-1.6064 4.0187,-2.2964 0.1712,-0.086 0.4388,0.1353 0.5741,0 0.1353,-0.1353 -0.1353,-0.4388 0,-0.5741 0.2707,-0.2706 0.9771,0.3423 1.1482,0 0.9166,-1.8331 -0.6294,-0.5464 1.7224,-1.7223 0.3759,-0.188 2.1347,-1.3989 2.2964,-1.7223 0.086,-0.1712 -0.1353,-0.4388 0,-0.5741 0.6995,-0.6996 2.1709,-1.0228 2.8705,-1.7223 0.1353,-0.1354 -0.1353,-0.4388 0,-0.5742 0.2654,-0.2653 1.3757,0.1734 1.7223,0 0.6172,-0.3085 1.2344,-0.6603 1.7223,-1.1482 0.1354,-0.1353 -0.1353,-0.4388 0,-0.5741 0.5356,-0.5355 2.5418,-1.7223 2.8706,-1.7223"
         id="path50" />
      <path
         style="fill:#0de9e6;fill-opacity:0;stroke:#a926f2;stroke-width:5.02299;stroke-linecap:square;stroke-miterlimit:0;stroke-opacity:1;paint-order:fill markers stroke"
         d="m 2063.3357,1683.2777 c -0.2413,-1.1864 3.4082,-0.2688 4.0187,-0.5741 3.5004,-1.7502 7.4149,-0.2628 10.3339,-1.7223 1.0717,-0.5358 2.9471,0.5358 4.0187,0 0.7552,-0.3776 1.5201,-0.8894 2.2965,-1.1482 0.8611,-0.2871 2.0093,0.287 2.8705,0 0.5717,-0.1906 1.1506,-0.9576 1.7223,-1.1482 0.3631,-0.1211 0.7851,0.121 1.1482,0 0.2568,-0.086 0.3321,-0.4531 0.5741,-0.5741 0.9906,-0.4953 2.0724,-0.175 2.8706,-0.5741 1.6102,-0.8052 2.0017,-1.1482 4.0187,-1.1482"
         id="path51" />
      <path
         style="fill:#0de9e6;fill-opacity:0;stroke:#a926f2;stroke-width:5.02299;stroke-linecap:square;stroke-miterlimit:0;stroke-opacity:1;paint-order:fill markers stroke"
         d="m 2100.0784,1676.9626 c 3.6828,-2.3274 5.2798,-2.5221 6.8893,-5.7411 0.6577,-1.3154 -0.1565,-9.0809 -0.5741,-10.3339 -0.357,-1.071 -0.7151,-1.4301 -1.1482,-2.2964 -0.6121,-1.2241 0.4371,-3.2815 0,-4.5929 -0.2609,-0.7827 -0.5668,-3.43 -0.5741,-3.4446 -0.1211,-0.2421 -0.4886,-0.3174 -0.5741,-0.5741 -0.342,-1.026 0,-2.9038 0,-4.0187 0,-2.6599 0.594,-15.4411 0,-17.2232 -0.086,-0.2568 -0.4531,-0.3321 -0.5741,-0.5741 -0.5955,-1.1909 0,-12.8295 0,-14.9268 0,-11.0993 0,-22.1987 0,-33.2981 0,-2.155 -0.074,-3.7412 -0.5742,-5.741 -0.2151,-0.8606 0.2803,-2.0298 0,-2.8706 -0.085,-0.2567 -0.4885,-0.3173 -0.5741,-0.5741 -0.6362,-1.9088 0.4402,-3.7126 -0.5741,-5.741 -0.8714,-1.743 0.7195,-8.7496 0,-10.908 -0.085,-0.2568 -0.453,-0.3321 -0.5741,-0.5741 -0.3423,-0.6847 0.1502,-1.5459 0,-2.2965 -0.084,-0.4196 -0.4902,-0.7286 -0.5741,-1.1482 -0.6539,-3.2696 0.2558,-7.0092 0,-10.3339 -0.2845,-3.6994 -0.6308,-4.359 -1.1482,-7.4634 -0.2974,-1.7843 0,-3.9574 0,-5.741 0,-4.0188 0,-8.0375 0,-12.0562 0,-6.5066 0,-13.0131 0,-19.5196 0,-2.0642 -0.5824,-7.4386 0,-9.1857 0.8486,-2.5457 1.7655,-4.6791 2.8705,-6.8893 0.2297,-0.4593 -0.2296,-1.263 0,-1.7223 0.4187,-0.8373 0.9185,-0.9184 1.1483,-1.1482 0.2405,-0.2406 0.4001,-1.3744 0.5741,-1.7223 1.1946,-2.3893 -0.04,0.6137 1.1482,-0.5741 0.7654,-0.7655 -0.9569,-0.5741 0.5741,-0.5741"
         id="path52" />
      <path
         style="fill:#0de9e6;fill-opacity:0;stroke:#a926f2;stroke-width:5.02299;stroke-linecap:square;stroke-miterlimit:0;stroke-opacity:1;paint-order:fill markers stroke"
         d="m 2105.8195,1473.1551 c 0.4366,-1.9058 2.6244,-1.4762 3.4446,-2.2965 0.1353,-0.1353 -0.1353,-0.4387 0,-0.5741 0.2706,-0.2706 0.8776,0.2707 1.1482,0 0.1353,-0.1353 -0.1353,-0.4388 0,-0.5741 0.3828,-0.3827 1.9137,0.3828 2.2964,0 0.2298,-0.2298 0.311,-0.7295 1.1483,-1.1482 0.3466,-0.1733 1.4569,0.2654 1.7223,0 0.1245,-0.1246 0.4621,-1.0922 0.5741,-1.1482 0.3423,-0.1712 0.7851,0.121 1.1482,0 0.5717,-0.1906 1.1506,-0.9576 1.7223,-1.1482 1.3776,-0.4592 0.9188,0.4592 2.2964,0 0.8184,-0.2728 0.8267,-0.8267 1.1482,-1.1482 0.2707,-0.2707 0.7852,0.121 1.1482,0 1.0711,-0.357 1.4302,-0.7151 2.2965,-1.1482 0.3423,-0.1712 0.7851,0.121 1.1482,0 4.7633,-1.5878 9.8616,-1.1482 15.5008,-1.1482 0.8956,0 5.6396,-0.6756 6.3152,0 0.1353,0.1353 -0.1353,0.4387 0,0.5741 0.1353,0.1353 0.4388,-0.1354 0.5741,0 0.1353,0.1353 -0.086,0.4029 0,0.5741 1.1946,2.3893 -0.04,-0.6138 1.1482,0.5741 1.1879,1.1878 -1.8152,-0.046 0.5741,1.1482 1.2408,0.6204 1.7223,-0.2715 1.7223,2.2964"
         id="path53" />
      <path
         style="fill:#0de9e6;fill-opacity:0;stroke:#a926f2;stroke-width:5.02299;stroke-linecap:square;stroke-miterlimit:0;stroke-dasharray:none;stroke-opacity:1;paint-order:fill markers stroke"
         d="m 1541.1749,645.18428 c 0.4421,4.26659 -0.6062,8.74732 0,12.99053 0.2202,1.54259 0.8545,3.01233 1.2178,4.4655 0.1274,0.50943 -0.1273,1.11438 0,1.62381 0.3815,1.52607 1.3734,2.34082 2.0298,3.65359 0.6481,1.29616 0.035,1.32279 0.4059,2.43572 0.1624,0.48715 1.0555,0.73072 1.2179,1.21786 0.5859,1.75763 -0.7762,-0.1492 0.4059,1.62382 0.2124,0.31846 0.6408,0.46958 0.812,0.81191 0.121,0.24206 -0.1211,0.56984 0,0.81191 0.1711,0.34233 0.6611,0.46011 0.8119,0.8119 0.5582,1.30255 1.212,4.05072 2.0297,5.27741 0.5359,0.80377 1.7204,2.72533 2.0298,3.65358 0.1218,0.36536 -0.1218,0.8525 0,1.21786 0.5787,1.73614 1.2543,3.32046 2.0298,4.87145 0.4472,0.89443 0.071,0.953 0.4059,1.62382 0.1712,0.34233 0.6408,0.46957 0.8119,0.81191 0.2421,0.48405 0.4461,1.66396 0.812,2.02977 0.096,0.0957 0.3102,-0.0957 0.4059,0 0.2871,0.28705 -0.1284,0.83274 0,1.21786 0.1836,0.55089 1.2374,2.43572 1.6238,2.43572"
         id="path10-6" />
      <path
         style="fill:#0de9e6;fill-opacity:0;stroke:#a926f2;stroke-width:5.02299;stroke-linecap:square;stroke-miterlimit:0;stroke-dasharray:none;stroke-opacity:1;paint-order:fill markers stroke"
         d="m 1558.6309,699.98807 c 0.3638,3.04529 0.7592,6.3002 0,9.33694 -0.2484,0.99341 0.083,1.05256 -0.406,2.02977 -0.1948,0.38962 0.13,1.23397 0,1.62382 -0.2732,0.81965 -1.609,1.5943 -2.0297,2.43572 -0.2082,0.4163 -0.1979,1.20753 -0.406,1.62382 -1.2042,2.40849 -3.0619,4.38984 -4.4655,6.49526 -0.5394,0.8091 -0.121,1.74482 -0.8119,2.43573 -0.096,0.0957 -0.3103,-0.0957 -0.406,0 -0.3666,0.3666 -0.57,1.54608 -0.8119,2.02977 -0.1711,0.34233 -0.6908,0.44881 -0.8119,0.81191 -0.4801,1.44045 0.6579,0.2054 -0.4059,1.62381 -0.3581,0.47743 -1.3381,1.05233 -1.6238,1.62382 -0.1776,0.35519 -0.2312,1.36168 -0.406,1.62381 -0.1678,0.25177 -0.5601,0.23812 -0.8119,0.40596 -0.9099,0.6066 -0.5318,1.34366 -1.2179,2.02977 -0.096,0.0957 -0.3102,-0.0957 -0.4059,0 -0.3548,0.3548 -0.2051,1.62793 -0.406,2.02977 -0.1353,0.27063 -0.6766,0.13532 -0.8119,0.40595 -0.121,0.24207 0.121,0.56985 0,0.81191 -0.8088,1.61758 -0.8123,0.002 -1.2178,1.62382 -0.5478,2.19084 1.3457,-1.16038 -0.812,2.43572 -0.3938,0.65648 -0.9325,0.0987 -1.2178,0.81191 -0.2563,0.64064 0.082,1.54187 -0.406,2.02977 -0.8399,0.83993 0.033,-1.28353 -0.8119,0.40595 -0.4205,0.84108 -1.3011,1.87368 -1.6238,2.84168 -0.086,0.25675 0.121,0.56984 0,0.81191 -0.3875,0.77498 -1.1432,1.30883 -1.6238,2.02977 -0.4314,0.64711 -1.0371,3.47283 -1.2179,3.65358 -0.096,0.0957 -0.3102,-0.0957 -0.4059,0 -0.1672,0.16722 -0.3158,0.94723 -0.406,1.21787 -0.811,2.43305 0.1039,-1.01964 -1.2178,1.62381 -0.1624,0.32477 0.1623,0.8931 0,1.21786 -0.6172,1.23433 -1.7984,2.3788 -2.4358,3.65359 -0.061,0.12103 0,0.27064 0,0.40595 -0.1353,0.27064 -0.2244,0.56985 -0.4059,0.81191 -0.3445,0.45929 -0.9611,0.70437 -1.2179,1.21786 -0.121,0.24207 0.1211,0.56985 0,0.81191 -0.1711,0.34233 -0.6407,0.46958 -0.8119,0.81191 -0.061,0.12103 0,0.27064 0,0.40595 -0.1353,0.27064 -0.2381,0.56015 -0.4059,0.81191 -0.2123,0.31846 -0.6408,0.46958 -0.812,0.81191 -0.061,0.12103 0.1211,0.34544 0,0.40595 -0.242,0.12104 -0.5698,-0.12103 -0.8119,0 -0.242,0.12104 0.1914,0.62054 0,0.81191 -0.5412,0.54127 -0.4059,-0.67659 -0.4059,0.40596"
         id="path11-7" />
      <path
         style="fill:#0de9e6;fill-opacity:0;stroke:#a926f2;stroke-width:5.02299;stroke-linecap:square;stroke-miterlimit:0;stroke-dasharray:none;stroke-opacity:1;paint-order:fill markers stroke"
         d="m 1522.501,771.43598 c -0.4643,1.05361 0.3636,2.56262 0,3.65358 -0.3104,0.93104 -0.8727,0.58814 -1.2179,1.62382 -0.086,0.25675 0.121,0.56984 0,0.81191 -0.1712,0.34233 -0.6407,0.46957 -0.812,0.8119 -0.2156,0.43114 -0.044,1.26194 -0.4059,1.62382 -0.096,0.0957 -0.3102,-0.0957 -0.4059,0 -0.096,0.0957 0.061,0.28492 0,0.40595 -0.4132,0.82638 -1.2357,1.6595 -1.6238,2.43573 -0.2398,0.47958 -0.9193,0.77003 -1.2179,1.21786 -0.8944,0.20444 -0.2146,0.83512 -0.4059,1.21786 -0.1712,0.34233 -0.6408,0.46958 -0.8119,0.81191 -0.4402,0.88023 -0.8624,2.08017 -1.6239,2.84168 -0.2139,0.21395 -0.5979,0.19199 -0.8119,0.40595 -0.1913,0.19137 0.1211,0.56985 0,0.81191 -0.8447,1.68948 0.028,-0.43398 -0.8119,0.40595 -0.2353,0.23529 -0.5766,1.38853 -0.812,1.62382 -0.5412,0.54127 -0.3894,-0.86116 -0.8118,0.40595 -0.086,0.25675 0.086,0.55516 0,0.81191 -0.121,0.3631 -0.6408,0.46958 -0.8119,0.81191 -0.061,0.12103 0.096,0.31027 0,0.40595 -0.2495,0.24941 -0.9461,0.2682 -1.2179,0.81191 -0.1705,0.34116 -0.1701,1.38789 -0.4059,1.62382 -0.096,0.0957 -0.2708,0 -0.406,0 -0.1354,0.13532 -0.2998,0.24672 -0.4059,0.40595 -0.2374,0.35605 -0.1686,0.86182 -0.406,1.21786 -0.2123,0.31846 -0.6407,0.46958 -0.8119,0.81191 -0.121,0.24207 0.086,0.55516 0,0.81191 -0.1818,0.54534 -1.6647,1.25879 -2.0298,1.62382 -0.8865,0.88651 -0.084,0.6591 -0.4059,1.62381 -0.2151,0.64527 -1.3172,1.01052 -1.6238,1.62382 -0.615,1.22988 -1.1673,2.50356 -2.0298,3.65358 0.041,0.80422 -0.5979,0.192 -0.8119,0.40596 -0.5101,0.51 -0.1156,1.44904 -0.406,2.02977 -0.06,0.12103 -0.2934,-0.0751 -0.4059,0 -0.3185,0.2123 -0.5996,0.49345 -0.8119,0.81191 -0.1985,0.29764 -0.1745,1.3923 -0.406,1.62381 -0.096,0.0957 -0.3102,-0.0957 -0.4059,0 -0.2472,0.24714 -0.9301,3.48403 -1.2179,4.05954 -0.8447,1.68948 0.028,-0.43398 -0.8119,0.40595 -0.582,0.58203 -0.1798,1.64429 -0.406,2.43573 0.2447,0.73475 -0.6576,0.755 -0.8119,1.21786 -0.085,0.25675 0.086,0.55516 0,0.81191 -0.061,0.18155 -0.3075,0.24186 -0.4059,0.40595 -0.055,0.091 -0.902,2.52581 -1.2179,2.84168 -0.096,0.0957 -0.3102,-0.0957 -0.4059,0 -0.1582,0.15818 0,1.37609 0,1.62382"
         id="path13-0" />
      <path
         style="fill:#0de9e6;fill-opacity:0;stroke:#a926f2;stroke-width:5.02299;stroke-linecap:square;stroke-miterlimit:0;stroke-dasharray:none;stroke-opacity:1;paint-order:fill markers stroke"
         d="m 1492.8663,828.26953 c 1.3838,0.47548 -0.5038,2.08595 0,2.84168 1.2021,1.80303 3.5038,3.33301 5.6834,4.05954 0.6008,0.2003 1.4074,-0.12447 2.0298,0 1.5535,0.3107 2.613,1.33453 4.0595,1.62382 1.2225,0.24452 2.1783,0.27724 3.2476,0.81191 1.2931,0.6466 3.4872,-0.46142 4.8715,0 0.1815,0.0605 0.2183,0.36842 0.4059,0.40595 2.3925,0.47851 4.885,0.002 7.3071,0.40595 1.9179,0.31966 3.2978,0.40596 5.2774,0.40596 0.1353,0 0.3104,-0.0957 0.406,0 0.096,0.0957 -0.096,0.31027 0,0.40595 0.3379,0.33797 2.5385,0 3.2477,0"
         id="path14-1" />
      <path
         style="fill:#0de9e6;fill-opacity:0;stroke:#a926f2;stroke-width:5.02299;stroke-linecap:square;stroke-miterlimit:0;stroke-dasharray:none;stroke-opacity:1;paint-order:fill markers stroke"
         d="m 1529.8081,839.63625 c 3.2477,0 6.4953,0 9.7428,0"
         id="path15-1" />
      <path
         style="fill:#0de9e6;fill-opacity:0;stroke:#a926f2;stroke-width:5.02299;stroke-linecap:square;stroke-miterlimit:0;stroke-dasharray:none;stroke-opacity:1;paint-order:fill markers stroke"
         d="m 1539.957,839.23029 c -0.5413,0 -1.0931,-0.10615 -1.6238,0 -0.8916,0.17832 -2.7075,1.96266 -3.6536,2.43573 -0.4311,0.21556 -1.2619,0.0441 -1.6238,0.40595 -0.096,0.0957 0,0.27064 0,0.40595 -0.1353,0.13532 -0.2467,0.29981 -0.406,0.40596 -1.3634,0.90896 -2.7453,1.7786 -4.0595,2.43572 -1.6895,0.84474 0.434,-0.028 -0.406,0.81191 -0.6531,0.65317 -1.6695,0.30113 -2.4357,0.81191 -0.6634,0.44229 -2.2456,1.73174 -2.8417,2.02977 -0.242,0.12103 -0.6205,-0.19137 -0.8119,0 -0.096,0.0957 0.096,0.31027 0,0.40595 -0.096,0.0957 -0.2849,-0.0605 -0.4059,0 -0.9006,0.45029 -1.6081,1.47797 -2.4358,2.02977 -0.3875,0.25839 -1.1541,0.49878 -1.6238,0.81191 -0.5548,0.36987 -0.5813,0.75669 -0.8119,1.21786 -0.2797,0.55945 -0.9521,0.54612 -1.2178,0.81191 -0.2917,0.29168 -0.489,1.70683 -0.812,2.02977 -0.096,0.0957 -0.3102,-0.0957 -0.4059,0 -0.096,0.0957 0.061,0.28492 0,0.40595 -0.1442,0.28832 -0.6678,0.5236 -0.8119,0.81191 -0.3381,0.67619 -0.3048,2.74053 -0.8119,3.24763 -0.096,0.0957 -0.3103,-0.0957 -0.406,0 -0.3603,0.36037 -0.1549,1.93362 -0.4059,2.43573 -0.4297,0.8594 -0.5711,1.47244 -0.8119,2.43572 -0.1899,0.75954 -0.8949,2.3033 -1.2179,2.84168 -0.3869,0.64475 -1.2179,0.8023 -1.2179,1.62382 0,0.24715 -1.7802,3.56053 -2.0297,4.05954 -0.4872,0.97429 -1.9486,1.46143 -2.4358,2.43572 -0.4736,0.94723 0.5075,0.81191 -0.4059,0.81191"
         id="path16-5" />
    </g>
  </g>
</svg>
