<?xml version="1.0" encoding="UTF-8" standalone="no"?>
<!-- Created with Inkscape (http://www.inkscape.org/) -->

<svg
   version="1.1"
   id="svg1"
   width="3200"
   height="2400"
   viewBox="0 0 3200 2400"
   sodipodi:docname="thorin-path.svg"
   inkscape:version="1.3.2 (091e20e, 2023-11-25, custom)"
   xmlns:inkscape="http://www.inkscape.org/namespaces/inkscape"
   xmlns:sodipodi="http://sodipodi.sourceforge.net/DTD/sodipodi-0.dtd"
   xmlns="http://www.w3.org/2000/svg"
   xmlns:svg="http://www.w3.org/2000/svg">
  <defs
     id="defs1" />
  <sodipodi:namedview
     id="namedview1"
     pagecolor="#ffffff"
     bordercolor="#999999"
     borderopacity="1"
     inkscape:showpageshadow="2"
     inkscape:pageopacity="0"
     inkscape:pagecheckerboard="0"
     inkscape:deskcolor="#d1d1d1"
     showgrid="false"
     inkscape:zoom="0.43545993"
     inkscape:cx="1209.0665"
     inkscape:cy="818.67464"
     inkscape:window-width="1920"
     inkscape:window-height="974"
     inkscape:window-x="-11"
     inkscape:window-y="-11"
     inkscape:window-maximized="1"
     inkscape:current-layer="g1" />
  <g
     inkscape:groupmode="layer"
     inkscape:label="Image"
     id="g1">
    <g
       id="g21">
      <path
         style="fill:#0de9e6;fill-opacity:0;stroke:#f71d1d;stroke-width:5.02299;stroke-linecap:square;stroke-miterlimit:0;stroke-opacity:1;paint-order:fill markers stroke"
         d="m 818.8092,662.92287 c 1.34771,2.46369 1.63228,4.88838 2.84168,7.30717 0.27588,0.55176 0.94198,1.07206 1.21786,1.62382 0.0605,0.12103 -0.0957,0.31027 0,0.40595 0.0957,0.0957 0.31027,-0.0957 0.40596,0 0.0957,0.0957 -0.12104,0.34544 0,0.40596 0.24206,0.12103 0.54935,-0.0656 0.8119,0 1.62118,0.40529 2.68832,1.36993 4.4655,1.62381 1.28801,0.184 2.75929,0 4.05954,0 1.6492,0 5.37383,0.50913 6.90122,0 3.39976,-1.13325 6.98694,-1.66668 10.14885,-3.24763 0.24206,-0.12103 0.54935,0.0656 0.8119,0 1.33885,-0.33471 2.70048,-0.99135 4.05954,-1.21786 0.40043,-0.0667 0.8198,0.0796 1.21787,0 0.90962,-0.18193 2.08285,-0.83845 2.84167,-1.21786 1.29617,-0.64808 1.32279,-0.035 2.43573,-0.40596 0.60862,-0.20287 1.35992,-0.94992 2.02977,-1.21786 0.98541,-0.39416 2.23088,-0.96368 3.24763,-1.21786 0.26256,-0.0656 0.56063,0.10051 0.81191,0 0.453,-0.1812 0.78147,-0.59372 1.21786,-0.81191 0.38274,-0.19137 0.85093,-0.18579 1.21786,-0.40595 0.3282,-0.19692 0.46958,-0.64075 0.81191,-0.81191 0.28121,-0.14061 2.44265,-0.51264 2.84168,-0.81191 0.24206,-0.18155 0.16389,-0.63036 0.40595,-0.81191 0.34233,-0.25675 0.85093,-0.18579 1.21786,-0.40595 0.3282,-0.19692 0.49346,-0.59961 0.81191,-0.81191 0.11259,-0.0751 0.31027,0.0957 0.40596,0 0.0957,-0.0957 -0.1126,-0.33089 0,-0.40595 0.71209,-0.47473 1.75106,-0.29842 2.43572,-0.81191 0.52686,-0.39515 0.83824,-1.36196 1.62382,-1.62382 0.25674,-0.0856 0.55516,0.0856 0.8119,0 0.46286,-0.15428 0.78148,-0.59371 1.21787,-0.81191 0.54127,-0.27063 1.06193,-0.58715 1.62381,-0.8119 0.12564,-0.0503 0.31027,0.0957 0.40596,0 0.0957,-0.0957 -0.0957,-0.31027 0,-0.40596 0.46936,-0.46937 1.51442,-0.55423 2.02977,-0.81191 0.81075,-0.40538 1.48063,-1.62381 2.43572,-1.62381"
         id="path1" />
      <path
         style="fill:#0de9e6;fill-opacity:0;stroke:#f71d1d;stroke-width:5.02299;stroke-linecap:square;stroke-miterlimit:0;stroke-opacity:1;paint-order:fill markers stroke"
         d="m 891.06901,652.36807 c 1.32247,-0.27896 8.00819,0.51684 8.52504,0 0.0957,-0.0957 -0.13128,-0.37314 0,-0.40596 0.78766,-0.19691 1.66548,0.25675 2.43572,0 0.3631,-0.12103 0.44881,-0.69087 0.81191,-0.81191 1.10195,-0.36731 2.56176,-0.042 3.65359,-0.40595 0.92543,-0.30848 1.60079,-0.8004 2.43572,-1.21786 0.65388,-0.32694 1.74491,-0.4665 2.43572,-0.81191 0.17117,-0.0856 0.22441,-0.34544 0.40596,-0.40595 0.56974,-0.18992 1.49515,0.2673 2.02977,0 1.17811,-0.58906 3.92747,-1.39883 5.2774,-1.62382 1.84012,-0.30669 3.85522,-0.0403 5.68335,-0.40595 1.36945,-0.27389 3.18268,-0.3843 4.4655,-0.81191 0.18155,-0.0605 0.2203,-0.35954 0.40595,-0.40596 1.35318,-0.33829 0.90212,0.22553 2.02977,0 1.09068,-0.21813 2.19741,-0.63687 3.24763,-0.8119 1.73216,-0.2887 1.56392,0.015 3.24764,-0.40596 1.40141,-0.35035 3.04728,0.28365 4.46549,0 1.03186,-0.20637 1.80982,-0.19958 2.84168,-0.40595 0.18765,-0.0375 0.2244,-0.34544 0.40595,-0.40596 0.60893,-0.20297 1.42084,0.20298 2.02977,0 0.83143,-0.27714 1.5901,-0.6005 2.43573,-0.8119 0.52511,-0.13128 1.11032,0.17116 1.62381,0 0.18155,-0.0605 0.2203,-0.35954 0.40596,-0.40596 0.39383,-0.0985 0.81979,0.0796 1.21786,0 0.2967,-0.0593 0.51344,-0.35621 0.81191,-0.40595 1.29827,-0.21638 2.751,0.14539 4.05954,0 4.60895,-0.51211 -0.26714,-0.40596 3.65358,-0.40596 1.26779,0 3.18019,0.25707 4.4655,0 0.2967,-0.0593 0.51836,-0.33256 0.8119,-0.40595 2.08041,-0.5201 5.83899,0 8.11908,0 4.87145,0 9.7429,0 14.61435,0 3.24763,0 6.49526,0 9.74289,0 0.99352,0 2.98962,-0.21399 4.05952,0 2.1274,0.42548 4.2985,1.30999 6.4953,1.62382 1.3709,0.19584 6.3072,1.02981 7.3072,2.02977 0.2139,0.21395 0.192,0.59795 0.4059,0.8119 0.2237,0.2237 2.3484,1.13053 2.4357,1.21787 0.1914,0.19136 -0.1501,0.58672 0,0.8119 0.3904,0.58557 1.9856,1.12941 2.4358,2.02977 0.121,0.24207 -0.086,0.55516 0,0.81191 0.1901,0.57045 2.1389,2.65401 2.4357,3.24763 0.3086,0.61715 0.097,1.41263 0.4059,2.02977 0.5589,1.11765 1.101,2.20197 1.6239,3.24764 0.242,0.48412 -0.1062,1.09305 0,1.62381 0.2304,1.15203 1.1302,2.26046 1.6238,3.24763 0.121,0.24207 -0.1211,0.56985 0,0.81191 0.619,1.23798 0.3218,-0.74247 0.8119,1.21786 0.222,0.88811 0.7248,3.56648 1.2178,4.05954 0.9585,0.9585 -0.2135,-2.26429 0.8119,0.81191 0.086,0.25675 -0.1913,0.62054 0,0.81191 0.096,0.0957 0.3103,-0.0957 0.406,0 0.2034,0.20338 0.1398,1.35768 0.406,1.62382 0.096,0.0957 0.3102,-0.0957 0.4059,0 0.096,0.0957 -0.061,0.28492 0,0.40595 1.141,2.28193 5.1102,3.65359 7.3072,3.65359"
         id="path2" />
      <path
         style="fill:#0de9e6;fill-opacity:0;stroke:#f71d1d;stroke-width:5.02299;stroke-linecap:square;stroke-miterlimit:0;stroke-opacity:1;paint-order:fill markers stroke"
         d="m 1040.866,675.9134 c 1.4813,-0.69911 2.879,-1.90688 4.4655,-2.43573 0.2568,-0.0856 0.6206,0.19137 0.8119,0 0.096,-0.0957 -0.121,-0.34543 0,-0.40595 0.2421,-0.12103 0.5699,0.12103 0.8119,0 0.6496,-0.32476 0.9743,-1.29905 1.6239,-1.62382 0.8816,-0.44084 1.9676,-0.52056 2.8416,-0.8119 0.4902,-0.16339 2.1505,-1.68415 2.8417,-2.02977 0.7578,-0.37889 2.0839,0.37889 2.8417,0 0.121,-0.0605 -0.096,-0.31027 0,-0.40596 0.163,-0.16305 0.9883,0.0765 1.2179,0 0.7796,-0.25988 1.6347,-0.65171 2.4357,-0.81191 0.3981,-0.0796 0.8327,0.12838 1.2178,0 0.1284,-0.0428 -0.1283,-0.36316 0,-0.40595 0.458,-0.5135 1.1104,0.17116 1.6239,0 0.9543,-0.3181 1.8214,-0.60785 2.8416,-0.81191 0.922,-0.18438 7.9147,-0.10079 8.5251,-0.40595 3.3621,-1.68108 14.6756,-0.81191 19.0798,-0.81191 7.4425,0 14.885,0 22.3275,0 3.2467,0 6.9734,-0.52924 10.1488,0 0.4221,0.0704 0.8028,0.30217 1.2179,0.40595 1.5283,0.38208 3.3431,-0.38207 4.8714,0 0.1857,0.0464 0.2172,0.3745 0.406,0.40596 1.3897,0.23161 3.0262,0 4.4655,0"
         id="path3" />
      <path
         style="fill:#0de9e6;fill-opacity:0;stroke:#f71d1d;stroke-width:5.02299;stroke-linecap:square;stroke-miterlimit:0;stroke-opacity:1;paint-order:fill markers stroke"
         d="m 1136.2652,665.35859 c 0.8765,0.57434 1.9228,-0.22973 2.8417,0 0.2935,0.0734 0.5413,0.27064 0.8119,0.40596 0.406,0.13532 0.8027,0.30217 1.2179,0.40595 0.5251,0.13128 1.093,-0.10615 1.6238,0 0.2967,0.0593 0.5184,0.33257 0.8119,0.40596 2.1416,0.53539 4.8147,-0.69552 6.9012,0 2.0051,0.66837 4.3311,-0.18012 6.0893,0.40595 3.3595,1.11982 10.6793,0.40595 14.6144,0.40595 2.0495,0 7.8601,0.49227 9.3369,0 0.1816,-0.0605 0.2348,-0.32037 0.406,-0.40595 0.5174,-0.25871 1.4662,0.14089 2.0297,0 0.2936,-0.0734 0.5413,-0.27064 0.8119,-0.40595 0.406,-0.13532 0.7983,-0.32204 1.2179,-0.40596 0.3981,-0.0796 0.8548,0.18155 1.2179,0 0.5198,-0.2599 1.0825,-0.63148 1.6238,-0.81191 0.9743,-0.32476 2.2733,0.32477 3.2476,0 0.1284,-0.0428 -0.121,-0.34543 0,-0.40595 0.4841,-0.24206 1.0987,0.13128 1.6238,0 1.0884,-0.27209 2.1198,-0.52995 3.2477,-0.81191 0.1312,-0.0328 0.2706,0 0.4059,0 0.2707,0 0.5494,0.0656 0.8119,0 0.2936,-0.0734 0.5152,-0.34661 0.8119,-0.40595 0.1418,-0.0284 1.6896,0.17009 2.0298,0 0.9433,-0.47163 1.5791,-0.5594 2.8417,-0.81191 0.8924,-0.17848 1.9846,0.28568 2.8417,0 0.1283,-0.0428 -0.1211,-0.34544 0,-0.40595 0.3202,-0.3631 0.8547,0.18154 1.2178,0 0.6985,-0.34927 1.3294,-0.46172 2.0298,-0.81191 0.3896,-0.19481 1.234,0.12995 1.6238,0 0.5136,-0.17121 1.8298,-1.06639 2.4357,-1.21786 0.2112,-0.0528 1.6581,0.18586 2.0298,0 1.0428,-0.52143 1.3903,-0.69515 2.4357,-1.21787 0.2421,-0.12103 0.5699,0.12104 0.8119,0 0.5413,-0.27063 1.1203,-0.47622 1.6238,-0.8119 0.1126,-0.0751 -0.1283,-0.36317 0,-0.40596 0.7191,-0.23967 1.712,-0.0441 2.4358,-0.40595 0.9494,-0.47471 2.1492,-1.34922 3.2476,-1.62382 1.0099,-0.25247 1.8924,-0.0895 2.8417,-0.40595 0.5787,-0.19289 0.5845,-0.58456 0.8119,-0.81191 0.411,-0.41105 2.4451,-0.95034 3.2476,-1.21786 0.609,-0.20298 1.4209,0.20297 2.0298,0 0.1284,-0.0428 -0.096,-0.31027 0,-0.40596 0.3026,-0.30258 0.7982,-0.32203 1.2179,-0.40595 0.5307,-0.10615 1.1103,0.17117 1.6238,0 0.65,-0.21667 3.9935,-0.74585 4.0595,-0.81191 0.096,-0.0957 -0.096,-0.31027 0,-0.40595 0,-0.004 1.726,-0.3047 2.0298,-0.40596 0.5927,-0.19757 2.0467,0.0778 2.4357,0 0.1877,-0.0375 0.2348,-0.32037 0.406,-0.40595 0.242,-0.12103 0.6205,0.19137 0.8119,0 0.096,-0.0957 -0.096,-0.31027 0,-0.40595 0.2081,-0.20817 1.9703,-0.65677 2.4357,-0.81191 0.8645,-0.28818 1.6802,-0.43417 2.4357,-0.81191 0.6052,-0.30258 1.3663,0.13269 2.0298,0 0.1876,-0.0375 0.2348,-0.32037 0.4059,-0.40595 0.2421,-0.12104 0.6206,0.19136 0.8119,0 0.096,-0.0957 -0.096,-0.31027 0,-0.40596 0.1914,-0.19137 0.5699,0.12103 0.812,0 0.882,-0.44103 2.3516,-1.32514 3.2476,-1.62381 0.5697,-0.18992 1.4951,0.2673 2.0298,0 0.7768,-0.38844 1.6588,-0.82943 2.4357,-1.21787 0.242,-0.12103 0.5698,0.12104 0.8119,0 1.0751,-0.53757 2.3886,-1.30756 3.6536,-1.62381 0.2625,-0.0656 0.5551,0.0856 0.8119,0 0.4042,-0.13476 0.8136,-0.67716 1.2178,-0.81191 0.2568,-0.0856 0.5552,0.0856 0.812,0 0.363,-0.12103 0.4695,-0.64074 0.8119,-0.81191 0.242,-0.12103 0.5698,0.12103 0.8119,0 1.2379,-0.61899 -0.7425,-0.32182 1.2178,-0.81191 1.8579,-0.46447 -0.4221,0.81998 2.0298,-0.40595 0.4364,-0.21819 0.7649,-0.63071 1.2179,-0.81191 0.2512,-0.10051 0.5551,0.0856 0.8119,0 0.1815,-0.0605 0.2706,-0.27063 0.4059,-0.40595 0.5413,-0.27064 1.0497,-0.62054 1.6238,-0.81191 0.2568,-0.0856 0.5552,0.0856 0.8119,0 2.3206,-0.77351 -2.4541,-0.0775 1.2179,-0.81191 0.3981,-0.0796 0.841,0.15077 1.2179,0 0.3127,-0.12508 2.6195,-1.97422 2.8416,-2.02977 0.3939,-0.0985 0.8198,0.0796 1.2179,0 0.9043,-0.18086 2.7718,-1.58888 3.6536,-2.02977 1.0683,-0.53415 2.1397,-0.36874 3.2476,-0.81191 1.6352,-0.65408 3.3946,-1.2913 4.8715,-2.02977 0.4856,-0.2428 1.5186,0.12779 2.0297,0 1.5696,-0.39239 2.9699,-1.12525 4.4655,-1.62381 0.9864,-0.32879 1.9094,-0.34574 2.8417,-0.81191 1.2291,-0.61454 4.9616,0.30675 6.4953,0 4.142,-0.82839 8.723,-0.40595 12.9905,-0.40595 9.8782,0 19.7564,0 29.6347,0 3.2476,0 6.4952,0 9.7428,0 1.4206,0 3.0745,-0.27822 4.4655,0 0.9383,0.18765 1.934,0.10337 2.8417,0.40595 0.1284,0.0428 -0.121,0.34544 0,0.40595 0.4471,0.22353 1.1478,-0.15867 1.6238,0 0.6734,0.22445 1.3787,0.81191 2.0298,0.81191"
         id="path4" />
      <path
         style="fill:#0de9e6;fill-opacity:0;stroke:#f71d1d;stroke-width:5.02299;stroke-linecap:square;stroke-miterlimit:0;stroke-opacity:1;paint-order:fill markers stroke"
         d="m 1377.4019,630.0406 c 2.2024,0.24131 4.9909,-0.5492 6.9012,0.40595 0.5155,0.25772 1.4903,-0.17984 2.0298,0 0.5511,0.18371 0.9497,0.64338 1.6238,0.81191 0.2626,0.0656 0.5552,-0.0856 0.8119,0 0.4629,0.15428 0.755,0.65762 1.2179,0.81191 0.2706,0.0902 1.0506,0.23874 1.2178,0.40595 0.096,0.0957 -0.121,0.34544 0,0.40595 0.4842,0.24207 1.0987,-0.13127 1.6238,0 1.6985,-0.73512 0.4696,0.64075 0.812,0.81191 0.3247,0.16238 0.8931,-0.16238 1.2178,0 2.7262,1.36308 4.4757,1.62382 7.7131,1.62382 1.0413,0 3.829,0.52125 4.8715,0 0.3797,-0.18983 2.1728,-1.09804 2.4357,-1.62382 0.06,-0.12103 -0.096,-0.31027 0,-0.40595 0.3887,-0.38865 2.3429,-0.62632 2.8417,-1.62382 0.123,-0.24603 0.2358,-1.04775 0.4059,-1.21786 0.1914,-0.19137 0.6206,0.19137 0.812,0 0.096,-0.0957 -0.075,-0.29336 0,-0.40595 0.3184,-0.47769 0.9611,-0.70437 1.2178,-1.21787 0.1151,-0.23011 1.1289,-1.9408 1.2179,-2.02977 0.2323,-0.23228 1.0259,-0.23615 1.2178,-0.8119 0.086,-0.25675 -0.086,-0.55516 0,-0.81191 0.1446,-0.43379 1.6135,-1.8216 2.0298,-2.02977 0.121,-0.0605 0.3103,0.0957 0.406,0 0.1758,-0.17581 0.6372,-1.36182 0.8119,-1.62382 0.4924,-0.73858 0.8218,-0.01 1.2178,-0.40595 0.8119,-0.81184 -0.8118,-7e-5 0,-0.81191 0.096,-0.0957 0.3103,0.0957 0.406,0 0.1905,-0.19051 0.8119,-1.66635 0.8119,-2.02977"
         id="path5" />
      <path
         style="fill:#0de9e6;fill-opacity:0;stroke:#f71d1d;stroke-width:5.02299;stroke-linecap:square;stroke-miterlimit:0;stroke-opacity:1;paint-order:fill markers stroke"
         d="m 1423.2747,618.26793 c 0.4318,1.70142 0.6852,3.27357 1.2179,4.87145 0.1141,0.34236 -0.1603,0.89728 0,1.21786 0.085,0.17117 0.3454,0.22441 0.4059,0.40595 0.4309,1.29272 -0.2222,3.13203 0,4.4655 0.151,0.90593 0.5188,1.96238 0.8119,2.84168 0.1712,0.51349 -0.1313,1.0987 0,1.62381 0.046,0.18566 0.3455,0.22441 0.406,0.40596 0.027,0.0819 -0.1351,1.48875 0,1.62381 0.096,0.0957 0.3102,-0.0957 0.4059,0 0.203,0.20298 -0.2029,1.01489 0,1.21786 0.096,0.0957 0.3103,-0.0957 0.406,0 0.32,0.32005 0.201,2.0259 0.4059,2.43573 0.018,0.0362 1.0367,0.44949 1.2179,0.81191 0.06,0.12103 -0.096,0.31027 0,0.40595 0.096,0.0957 0.2849,-0.0605 0.406,0 0.5174,0.25873 1.0871,1.03899 1.6238,1.21786 0.7307,0.24357 1.705,-0.24357 2.4357,0 1.9231,0.64104 4.0196,0.40596 6.0893,0.40596 0.5502,0 1.5721,-0.22885 2.0298,0 1.4871,0.74357 3.1961,0.47683 4.8714,0.8119 0.2967,0.0593 0.5152,0.34662 0.8119,0.40596 0.6635,0.13269 1.3879,-0.21396 2.0298,0 0.1815,0.0605 0.2244,0.34544 0.406,0.40595 0.8525,0.28417 1.9891,-0.28417 2.8416,0 1.4862,0.4954 2.8607,0.40596 4.4655,0.40596 0.7945,0 2.4447,-0.26767 3.2477,0 0.7691,0.25638 0.6385,0.40595 1.6238,0.40595"
         id="path6" />
      <path
         style="fill:#0de9e6;fill-opacity:0;stroke:#f71d1d;stroke-width:5.02299;stroke-linecap:square;stroke-miterlimit:0;stroke-opacity:1;paint-order:fill markers stroke"
         d="m 1461.0284,645.06089 c 2.1056,1.3564 4.5463,1.79346 6.9012,2.43573 3.4084,0.92956 1.5133,0.75663 3.2477,1.62381 0.3631,0.18155 0.824,-0.0985 1.2178,0 0.5871,0.14678 1.0368,0.66514 1.6238,0.81191 1.2736,0.3184 2.786,-0.31839 4.0596,0 2.0237,0.50593 0.5543,0.51265 3.2476,0.81191 1.9828,0.2203 4.1401,0.0161 6.0893,0.40595 0.6672,0.13344 1.3594,0.70018 2.0298,0.81191 0.8009,0.13348 1.6481,-0.19691 2.4357,0 1.8425,0.46062 3.7993,0.84105 5.6834,1.21786 0.7702,0.15404 1.6737,-0.1905 2.4357,0 1.3909,0.34773 2.7347,0.3703 4.0595,0.81191 1.0252,0.34173 3.0088,0 4.0596,0 3.9242,0 7.8484,0 11.7726,0 1.1144,0 10.4331,0.93365 10.9608,0.40596 0.096,-0.0957 -0.096,-0.31027 0,-0.40596 0.1914,-0.19137 0.5698,0.12103 0.8119,0 0.7016,-0.3508 1.3054,-0.92809 2.0298,-1.21786 0.5413,-0.13532 1.0825,-0.27064 1.6238,-0.40595 0,-0.13532 -0.096,-0.31027 0,-0.40596 0.203,-0.20298 1.0149,0.20298 1.2179,0 0.096,-0.0957 -0.096,-0.31027 0,-0.40595 0.3946,-0.39463 1.7354,-0.6292 2.0297,-1.21786 0.28,-0.55996 -0.4916,-0.36312 0.406,-0.81191 0.5308,-0.26539 0.8263,0.37717 1.2178,-0.40596 0.169,-0.33799 -0.2575,-1.36631 0,-1.62381 0.096,-0.0957 0.2707,0 0.406,0 0.1353,-0.13532 0.2998,-0.24673 0.406,-0.40596 0.1353,-0.27063 0.2706,-0.54127 0.4059,-0.8119 0,-0.13532 -0.061,-0.28493 0,-0.40596 0.2568,-0.51349 0.8994,-0.74018 1.2179,-1.21786 0.1501,-0.22518 -0.1914,-0.62054 0,-0.81191 0.096,-0.0957 0.3102,0.0957 0.4059,0 0.1099,-0.10984 1.1047,-1.39736 1.2179,-1.62381 0.5556,-1.11123 1.2015,-2.82535 2.0298,-3.65359"
         id="path7" />
      <path
         style="fill:#0de9e6;fill-opacity:0;stroke:#f71d1d;stroke-width:5.02299;stroke-linecap:square;stroke-miterlimit:0;stroke-opacity:1;paint-order:fill markers stroke"
         d="m 1545.4668,638.56563 c 1.0614,-1.25135 1.107,-3.39515 2.4358,-4.05954 0.121,-0.0605 0.3102,0.0957 0.4059,0 0.3666,-0.3666 0.5701,-1.54608 0.8119,-2.02977 0.3222,-0.64436 1.356,-0.94997 1.6239,-1.21786 0.096,-0.0957 -0.061,-0.28492 0,-0.40596 0.3833,-0.76678 1.8479,-1.32994 2.4357,-1.62381 0.7618,-0.38092 0.5837,-1.30677 1.2178,-1.62382 0.2461,-0.12301 1.0478,-0.23584 1.2179,-0.40595 0.096,-0.0957 -0.096,-0.31027 0,-0.40596 0.1914,-0.19136 0.6205,0.19137 0.8119,0 0.8399,-0.83993 -1.2835,0.0328 0.406,-0.8119 0.121,-0.0605 0.2706,0 0.4059,0 0.2707,-0.27064 0.4935,-0.59961 0.8119,-0.81191 0.2154,-0.14358 2.6363,-0.60653 2.8417,-0.81191 0.096,-0.0957 -0.096,-0.31027 0,-0.40595 0.096,-0.0957 0.3103,0.0957 0.406,0 0.1624,-0.1625 0.2198,-0.51589 0.8119,-0.81191 0.7271,-0.36359 1.6522,-0.1448 2.4357,-0.40596 0.4059,-0.13531 0.9153,-0.10337 1.2178,-0.40595 0.096,-0.0957 -0.121,-0.34544 0,-0.40595 0.2421,-0.12104 0.5552,0.0856 0.812,0 0.1815,-0.0605 0.2347,-0.32037 0.4059,-0.40596 0.2421,-0.12103 0.5699,0.12103 0.8119,0 0.7946,-0.39727 1.6736,-0.83681 2.4357,-1.21786 0.6223,-0.31112 1.7643,0.16786 2.4358,0 2.7344,-0.6836 0.01,-0.006 0.8119,-0.81191 0.135,-0.13506 1.5419,0.0273 1.6238,0 0.1815,-0.0605 0.2348,-0.32037 0.4059,-0.40595 0.3206,-0.16029 0.8755,0.11412 1.2179,0 0.2871,-0.0957 0.5184,-0.33257 0.8119,-0.40596 0.3938,-0.0985 0.9308,0.28706 1.2179,0 0.096,-0.0957 -0.096,-0.31027 0,-0.40595 0.1952,-0.19522 4.4414,-0.31994 4.8714,-0.40595 2.5924,-0.51848 5.353,-1.62382 8.1191,-1.62382"
         id="path8" />
      <path
         style="fill:#0de9e6;fill-opacity:0;stroke:#f71d1d;stroke-width:5.02299;stroke-linecap:square;stroke-miterlimit:0;stroke-opacity:1;paint-order:fill markers stroke"
         d="m 1591.7456,616.23816 c 2.9574,0.0619 6.0854,0.002 8.525,-1.21786 0.3631,-0.18155 0.8328,0.12837 1.2179,0 0.1815,-0.0605 0.2244,-0.34544 0.406,-0.40596 1.096,-0.36535 2.5575,0.36536 3.6535,0 0.2871,-0.0957 0.5249,-0.31027 0.8119,-0.40595 1.038,-0.34598 2.6835,0.48507 3.6536,0 1.3585,-0.67923 4.0748,-0.81191 5.6834,-0.81191"
         id="path11" />
      <path
         style="fill:#0de9e6;fill-opacity:0;stroke:#f71d1d;stroke-width:5.02299;stroke-linecap:square;stroke-miterlimit:0;stroke-opacity:1;paint-order:fill markers stroke"
         d="m 1615.6969,613.39648 c 0.6411,-1.37931 0.3837,-3.58681 0.8119,-4.87145 0.1402,-0.42049 0.6105,-0.81512 0.8119,-1.21786 0.1982,-0.39647 -0.075,-1.76581 0,-2.02977 0.1663,-0.58187 0.6205,-1.04971 0.8119,-1.62381 0.1284,-0.38512 -0.287,-0.93081 0,-1.21787 0.096,-0.0957 0.3455,0.12104 0.406,0 0.1815,-0.36309 -0.1816,-0.85476 0,-1.21786 0.2013,-0.40273 0.6717,-0.79736 0.8119,-1.21786 0.4977,-1.49314 0.3143,-3.37857 0.8119,-4.87145 0.5148,-1.54444 1.0947,-2.87815 1.6238,-4.46549 0.203,-0.60893 -0.203,-1.42084 0,-2.02977 0.061,-0.18155 0.3204,-0.23479 0.406,-0.40595 0.3126,-0.62522 0.093,-1.81052 0.4059,-2.43573 0.086,-0.17116 0.3595,-0.2203 0.406,-0.40595 0.056,-0.22585 0.2794,-2.58865 0.4059,-2.84168 0.06,-0.12103 0.3103,0.0957 0.406,0 0.3457,-0.34575 0.2205,-2.87673 0.4059,-3.24763 0.8448,-1.68949 -0.028,0.43398 0.8119,-0.40596 0.1914,-0.19137 -0.086,-0.55516 0,-0.8119 0.1263,-0.37879 0.5773,-1.79514 0.8119,-2.02977 0.2274,-0.22735 0.6191,-0.23324 0.8119,-0.81191 0.1284,-0.38512 -0.287,-0.93081 0,-1.21786 0.096,-0.0957 0.3103,0.0957 0.406,0 0.2849,-0.2849 0.2306,-1.36079 0.406,-1.62382 0.4929,-0.2465 0.9079,-0.34698 1.2178,-0.81191 1.182,-1.77302 -0.1799,0.13381 0.406,-1.62381 0.1603,-0.48088 0.9896,-0.76139 1.2178,-1.21787 0.2221,-0.44404 0.393,-1.20486 0.8119,-1.62381 0.096,-0.0957 0.3103,0.0957 0.406,0 0.4565,-0.45647 0.8564,-1.48763 1.2179,-2.02977 0.4303,-0.64545 0.8698,-0.11591 1.2178,-0.81191 0.1211,-0.24206 -0.1501,-0.58673 0,-0.81191 0.5171,-0.77558 1.6483,-0.86085 2.0298,-1.62381 0.121,-0.24207 -0.121,-0.56985 0,-0.81191 0.5283,-1.05668 1.8966,-1.08466 2.0298,-1.21786 0.4279,-0.42792 0.384,-1.19591 0.8119,-1.62382 0.2658,-0.26579 0.9381,-0.25246 1.2178,-0.81191 0.061,-0.12103 -0.096,-0.31027 0,-0.40595 0.096,-0.0957 0.3103,0.0957 0.406,0 0.2294,-0.22938 0.5095,-1.32141 0.8119,-1.62382 0.096,-0.0957 0.3103,0.0957 0.4059,0 0.072,-0.0721 0.5237,-0.9296 0.812,-1.21786 0.2139,-0.21396 0.5979,-0.192 0.8119,-0.40595 0.1913,-0.19137 -0.1914,-0.62054 0,-0.81191 0.4051,-0.40511 1.2178,-0.27929 1.2178,-1.21786"
         id="path12" />
      <path
         style="fill:#0de9e6;fill-opacity:0;stroke:#f71d1d;stroke-width:5.02299;stroke-linecap:square;stroke-miterlimit:0;stroke-opacity:1;paint-order:fill markers stroke"
         d="m 1643.3018,551.28552 c 2.1418,0.55777 13.1662,-0.72406 14.6143,0 0.1712,0.0856 0.2203,0.35954 0.406,0.40596 0.9733,0.24333 2.2921,-0.3185 3.2476,0 0.1815,0.0605 0.2244,0.34543 0.4059,0.40595 0.2568,0.0856 0.5494,-0.0656 0.812,0 0.811,0.20276 1.3627,0.88434 2.0297,1.21786 0.3625,0.18126 3.0018,0.68901 3.2477,0.81191 0.121,0.0605 -0.096,0.31027 0,0.40595 0.2029,0.20298 1.0148,-0.20297 1.2178,0 0.5413,0.54128 -0.6766,0.40596 0.406,0.40596"
         id="path13" />
      <path
         style="fill:#0de9e6;fill-opacity:0;stroke:#f71d1d;stroke-width:5.02299;stroke-linecap:square;stroke-miterlimit:0;stroke-opacity:1;paint-order:fill markers stroke"
         d="m 1668.065,554.93911 c 2.4391,0.66887 8.2708,-0.76131 10.5548,0 0.6871,0.22906 1.3286,0.63663 2.0297,0.81191 1.2736,0.31839 2.786,-0.3184 4.0596,0 0.1312,0.0328 -0.1211,0.34543 0,0.40595 0.6495,0.32476 1.7862,-0.32476 2.4357,0 0.121,0.0605 -0.096,0.31027 0,0.40595 0.1488,0.14885 1.0013,-0.0541 1.2179,0 1.0007,0.25018 1.8409,0.56173 2.8416,0.81191 0.5697,0.14243 1.505,-0.2624 2.0298,0 1.2414,0.6207 1.912,0.13882 3.2476,0.40596 3.4029,0.68057 7.048,0.40595 10.5548,0.40595 2.3904,0 9.2976,0.51728 11.3668,0 0.9895,-0.2474 2.001,-0.39157 2.8416,-0.81191 0.6465,-0.32326 1.7441,0.23055 2.4358,0 0.287,-0.0957 0.5183,-0.33257 0.8119,-0.40595 1.0188,-0.25472 2.2287,0.25471 3.2476,0 0.407,-0.10176 1.9794,-0.25386 2.4357,-0.40596 0.1816,-0.0605 0.2203,-0.35954 0.406,-0.40595 2.1661,-0.54153 4.709,0.43844 6.9012,0 0.869,-0.17381 1.4653,-0.40595 2.4357,-0.40595"
         id="path14" />
      <path
         style="fill:#0de9e6;fill-opacity:0;stroke:#f71d1d;stroke-width:5.02299;stroke-linecap:square;stroke-miterlimit:0;stroke-opacity:1;paint-order:fill markers stroke"
         d="m 1739.9188,555.34506 c 7.7131,0 15.4263,0 23.1394,0 2.0634,0 4.502,0.39865 6.4953,0 1.4833,-0.29667 3.3227,-0.12026 4.4654,-0.40595 0.2936,-0.0734 0.5249,-0.31027 0.812,-0.40596 0.728,-0.24269 1.6907,0.18624 2.4357,0 0.2935,-0.0734 0.5152,-0.34661 0.8119,-0.40595 0.3981,-0.0796 0.8327,0.12837 1.2178,0 0.1284,-0.0428 -0.096,-0.31027 0,-0.40595 0.2068,-0.20678 2.1826,0 2.4358,0 4.7361,0 9.4722,0 14.2084,0 4.534,0 9.7953,-0.69731 14.2084,0.40595 1.6733,0.41833 3.9604,0 5.6833,0 4.4655,0 8.931,0 13.3965,0"
         id="path15" />
      <path
         style="fill:#0de9e6;fill-opacity:0;stroke:#f71d1d;stroke-width:5.02299;stroke-linecap:square;stroke-miterlimit:0;stroke-opacity:1;paint-order:fill markers stroke"
         d="m 1830.0406,554.93911 c 6.3382,-0.10967 12.3492,0.40595 18.6739,0.40595 1.764,0 3.9906,0.42319 5.6833,0 0.1857,-0.0464 0.2244,-0.34544 0.406,-0.40595 1.3426,-0.44754 3.0872,0.34457 4.4655,0 0.2935,-0.0734 0.5183,-0.33257 0.8119,-0.40596 0.7413,-0.18533 1.7119,0.24127 2.4357,0 0.1816,-0.0605 0.2244,-0.34543 0.406,-0.40595 0.9933,-0.33112 2.239,-0.1538 3.2476,-0.40595 0.8839,-0.22097 1.4767,-0.65207 2.4357,-0.81191 0.5339,-0.089 1.0987,0.13128 1.6238,0 2.3281,-0.58201 4.5336,-1.15028 6.9013,-1.62382 1.8215,-0.36432 3.8617,0.36432 5.6833,0 0.2967,-0.0593 0.5184,-0.33257 0.8119,-0.40595 0.7551,-0.18876 1.6635,0.11031 2.4357,0 1.3104,-0.1872 2.1087,-0.62208 3.2477,-0.81191 1.7321,-0.28869 1.5639,0.015 3.2476,-0.40595 0.8311,-0.20776 2.0936,0.37404 2.8417,0 0.1712,-0.0856 0.2183,-0.36843 0.4059,-0.40596 1.5305,-0.30609 3.3528,0.37967 4.8715,0 2.5736,-0.64339 5.2497,-0.80266 7.7131,-1.62381 0.5135,-0.17117 1.0931,0.10615 1.6238,0 1.3465,-0.26929 2.7211,-0.95017 4.0596,-1.21787 2.1127,-0.42254 4.3809,0.12264 6.4952,-0.40595 0.1857,-0.0464 0.2203,-0.35954 0.406,-0.40595 0.3938,-0.0985 0.824,0.0984 1.2179,0 0.1615,-0.0404 1.7383,-0.73906 2.0297,-0.81191 1.2495,-0.31238 2.4676,-0.0106 3.6536,-0.40596 0.863,-0.28765 1.4883,-0.65401 2.4357,-0.8119 2.3935,-0.39891 4.9759,-0.0348 7.3072,-0.81191 0.5741,-0.19137 1.0497,-0.62054 1.6238,-0.81191 0.3643,-0.25675 0.8328,0.12837 1.2179,0 1.4368,-0.47894 2.4748,-0.95375 4.0595,-1.21786 0.7744,-0.12906 1.6756,0.19003 2.4357,0 4.3027,-1.07565 9.0023,-1.2974 13.3965,-2.02977 1.3166,-0.21944 2.743,0.21943 4.0596,0 1.1849,-0.19749 5.0035,-0.85594 6.0893,-1.21786 0.1815,-0.0605 0.2244,-0.34544 0.4059,-0.40596 1.5109,-0.50364 3.3053,0.1161 4.8715,-0.40595 0.3423,-0.11412 0.8973,0.16029 1.2178,0 1.7003,-0.85011 5.7278,-1.62382 7.7132,-1.62382"
         id="path16" />
      <path
         style="fill:#0de9e6;fill-opacity:0;stroke:#f71d1d;stroke-width:5.02299;stroke-linecap:square;stroke-miterlimit:0;stroke-opacity:1;paint-order:fill markers stroke"
         d="m 1983.8972,535.04736 c 0.8119,-0.13532 1.6238,-0.27063 2.4357,-0.40595 0.1353,-0.13532 0.2348,-0.32037 0.4059,-0.40596 0.2421,-0.12103 0.5699,0.12104 0.8119,0 0.6585,-0.32924 1.3395,-0.87272 2.0298,-1.21786 0.2451,-0.12255 1.0302,0.18766 1.2179,0 0.8399,-0.83993 -1.2835,0.0328 0.4059,-0.81191 0.7866,-0.39328 1.5855,-1.1987 2.4358,-1.62381 0.242,-0.12103 0.6205,0.19137 0.8119,0 0.096,-0.0957 -0.096,-0.31027 0,-0.40596 0.4946,-0.49466 1.5351,-0.72319 2.0297,-1.21786 0.096,-0.0957 -0.096,-0.31027 0,-0.40595 0.3602,-0.36015 1.5208,-0.47256 2.0298,-0.81191 0.4777,-0.31846 0.7586,-0.8734 1.2179,-1.21786 -0.046,-0.76905 0.9472,-0.27064 1.2178,-0.40596 1.6895,-0.84474 -0.434,0.028 0.406,-0.8119 0.096,-0.0957 0.3103,0.0957 0.4059,0 0.096,-0.0957 -0.096,-0.31027 0,-0.40596 0.025,-1.14306 0.9153,-0.10337 1.2179,-0.40595 0.096,-0.0957 0,-0.27064 0,-0.40596 0.1353,-0.13531 0.2467,-0.2998 0.406,-0.40595 0.5248,-0.34991 1.794,-0.91677 2.0297,-1.62382 0.086,-0.25674 -0.1913,-0.62054 0,-0.8119 0.6721,-0.67205 1.906,-0.56438 2.4357,-1.62382 0.6616,-1.32303 1.9538,-2.72772 2.8417,-4.05954 0.287,-0.43051 1.1641,-1.39396 1.6238,-1.62382 0.1211,-0.0605 0.3455,0.12104 0.406,0 0.1815,-0.36309 -0.2871,-0.9308 0,-1.21786 1.7437,-1.74369 -0.1199,0.93179 1.6238,-0.81191 0.5724,-0.57235 0.6524,-1.79052 0.8119,-2.02977 0.3357,-0.50352 1.1959,-0.38399 1.6238,-0.8119 0.214,-0.21396 0.2244,-0.56985 0.406,-0.81191 0.839,-1.11866 1.9698,-1.67917 2.8417,-2.84168 0.2296,-0.30619 0.5412,-0.54127 0.8119,-0.81191 0.4059,-0.27063 0.9251,-0.42159 1.2178,-0.81191 0.1624,-0.2165 -0.086,-0.55516 0,-0.8119 0.1897,-0.56892 1.7766,-1.43388 2.0298,-1.62382 0.5808,-0.43557 0.1592,-0.89151 0.8119,-1.21786 0.7186,-0.35932 0.1387,0.60383 0.8119,-0.40596 0.1089,-0.16332 1.1765,-1.98843 1.2179,-2.02977 0.2679,-0.26789 1.3016,-0.5735 1.6238,-1.21786 0.123,-0.24603 0.2358,-1.04775 0.406,-1.21786 0.096,-0.0957 0.2849,0.0605 0.4059,0 0.7382,-0.36908 3.7857,-4.37099 4.4655,-5.2774 0.6617,-0.8823 1.8738,-1.18691 2.4357,-2.02977 0.1089,-0.16333 1.1765,-1.98843 1.2179,-2.02977 0.8399,-0.83993 -0.033,1.28353 0.8119,-0.40595 0.1914,-0.38274 0.1386,-0.88372 0.406,-1.21787 2.0661,-2.58266 0.4115,0.40038 2.0297,-1.21786 0.214,-0.21396 0.2707,-0.54127 0.406,-0.81191 0.6766,-0.40595 1.4136,-0.72495 2.0297,-1.21786 0.1745,-0.13955 0.6481,-1.3389 1.2179,-1.62381 0.6518,-0.32589 1.3971,-0.45037 2.0298,-0.81191 0.6096,-0.34834 0.9884,-1.30612 1.6238,-1.62382 0.121,-0.0605 0.3103,0.0957 0.4059,0 0.84,-0.83993 -1.2835,0.0328 0.406,-0.81191 0.6908,-0.34538 1.3208,-0.10294 2.0298,-0.8119"
         id="path17" />
      <path
         style="fill:#0de9e6;fill-opacity:0;stroke:#f71d1d;stroke-width:5.02299;stroke-linecap:square;stroke-miterlimit:0;stroke-opacity:1;paint-order:fill markers stroke"
         d="m 2048.8498,476.18403 c 1.5427,-0.72173 2.2262,-1.20476 2.8417,-2.43572 0.061,-0.12103 -0.096,-0.31027 0,-0.40595 0.1353,-0.13532 1.0825,-0.27064 1.2178,-0.40596 0.428,-0.42791 0.4763,-1.12029 0.8119,-1.62381 0.3699,-0.55481 0.7567,-0.58132 1.2179,-0.81191 1.6895,-0.84474 -0.434,0.028 0.406,-0.81191 0.096,-0.0957 0.3102,0.0957 0.4059,0 0.2294,-0.22938 0.5095,-1.32141 0.8119,-1.62382 0.096,-0.0957 0.2849,0.0605 0.406,0 0.4654,-0.23269 0.5647,-0.84702 0.8119,-1.21786 -0.041,-0.80422 0.5979,-0.192 0.8119,-0.40595 0.1914,-0.19137 -0.1914,-0.62054 0,-0.81191 0.096,-0.0957 0.3103,0.0957 0.406,0 0.1758,-0.17581 0.6372,-1.36181 0.8119,-1.62382 0.1353,-0.13531 0.2706,-0.27063 0.4059,-0.40595 0.1353,0 0.3103,0.0957 0.406,0 0.2139,-0.21396 0.2381,-0.56015 0.4059,-0.81191 0.6017,-0.9025 1.953,-1.47019 2.4357,-2.43572 0.1231,-0.24604 0.2359,-1.04775 0.406,-1.21786 1.4975,-1.49746 0.1638,0.97215 1.6238,-1.21787 0.1501,-0.22518 -0.1914,-0.62054 0,-0.8119 0.5413,-0.54128 0.406,0.67659 0.406,-0.40596"
         id="path18" />
      <path
         style="fill:#0de9e6;fill-opacity:0;stroke:#f71d1d;stroke-width:5.02299;stroke-linecap:square;stroke-miterlimit:0;stroke-opacity:1;paint-order:fill markers stroke"
         d="m 2064.682,456.29229 c 0.3619,-2.38149 2.8585,-0.0168 3.6536,-0.81191 0.6766,-0.67659 -1.4885,-0.40595 0.8119,-0.40595 0.4976,0 1.7336,0.29617 2.0298,0 0.096,-0.0957 -0.096,-0.31027 0,-0.40596 0.2203,-0.22032 2.9058,-0.11394 3.2476,0 1.0636,0.35453 1.9735,1.37861 2.8417,2.02977 0.3903,0.29274 0.7815,0.59372 1.2178,0.81191 0.1211,0.0605 0.3103,-0.0957 0.406,0 0.096,0.0957 -0.096,0.31027 0,0.40595 0.096,0.0957 0.2849,-0.0605 0.4059,0 1.7786,0.88928 2.7988,3.35433 4.4655,4.4655 1.4214,0.94755 4.5757,0.98393 6.4953,1.62381 0.576,0.19201 1.4913,-0.26924 2.0298,0 0.6386,0.3193 0.4602,0.40596 1.2178,0.40596"
         id="path19" />
      <path
         style="fill:#0de9e6;fill-opacity:0;stroke:#f71d1d;stroke-width:5.02299;stroke-linecap:square;stroke-miterlimit:0;stroke-opacity:1;paint-order:fill markers stroke"
         d="m 2091.069,464.81732 c 1.6745,0.33492 3.6224,-0.41375 5.2774,0 0.2936,0.0734 0.5249,0.31027 0.8119,0.40596 0.7401,0.2467 2.0843,0 2.8417,0 3.9152,0 9.1947,-0.88301 12.5846,0.8119 0.6523,0.32619 1.7352,-0.23351 2.4357,0 0.4784,0.15945 3.1024,1.07262 3.2476,1.21787 0.096,0.0957 -0.096,0.31027 0,0.40595 0.1914,0.19137 0.6206,-0.19137 0.8119,0 0.096,0.0957 -0.096,0.31027 0,0.40595 0.6091,0.60905 1.6658,0.40596 2.4358,0.40596"
         id="path20" />
      <path
         style="fill:#0de9e6;fill-opacity:0;stroke:#f71d1d;stroke-width:5.02299;stroke-linecap:square;stroke-miterlimit:0;stroke-opacity:1;paint-order:fill markers stroke"
         d="m 2121.9215,469.28282 c 0.3801,-1.985 1.3521,-1.75803 2.4357,-2.84168 0.096,-0.0957 -0.096,-0.31027 0,-0.40596 0.096,-0.0957 0.3103,0.0957 0.406,0 0.1914,-0.19137 -0.1914,-0.62054 0,-0.8119 0.096,-0.0957 0.3103,0.0957 0.406,0 0.8399,-0.83994 -1.2836,0.0328 0.4059,-0.81191 0.121,-0.0605 0.3103,0.0957 0.406,0 0.096,-0.0957 -0.096,-0.31027 0,-0.40596 0.096,-0.0957 0.3102,0.0957 0.4059,0 0.096,-0.0957 -0.061,-0.28492 0,-0.40595 0.1712,-0.34233 0.6408,-0.46958 0.8119,-0.81191 0.1211,-0.24206 -0.242,-0.69087 0,-0.81191 0.2421,-0.12103 0.5699,0.12104 0.8119,0 0.1211,-0.0605 -0.096,-0.31027 0,-0.40595 0.096,-0.0957 0.3103,0.0957 0.406,0 0.1445,-0.14454 0.3917,-1.20358 0.4059,-1.21786 0.096,-0.0957 0.3103,0.0957 0.406,0 0.3086,-0.30859 0.193,-1.60389 0.4059,-2.02977 0.2961,-0.59205 0.6495,-0.64942 0.812,-0.81191 0.1913,-0.19137 -0.086,-0.55516 0,-0.81191 0.046,-0.13861 1.1596,-1.9716 1.2178,-2.02977 0.096,-0.0957 0.3103,0.0957 0.406,0 0.324,-0.32402 -0.213,-1.60387 0,-2.02977 0.293,-0.58611 0.5188,-1.0377 0.8119,-1.62381 0.1225,-0.24511 -0.1877,-1.03021 0,-1.21787 0.096,-0.0957 0.3102,0.0957 0.4059,0 0.203,-0.20297 -0.2029,-1.01488 0,-1.21786 0.096,-0.0957 0.3103,0.0957 0.406,0 0.1914,-0.19137 -0.121,-0.56984 0,-0.81191 0.1711,-0.34233 0.6909,-0.44881 0.8119,-0.8119 0.1284,-0.38513 -0.1816,-0.85477 0,-1.21787 0.1712,-0.34233 0.6407,-0.46957 0.8119,-0.8119 0.6692,-1.33848 -0.5196,0.15154 0.8119,-1.62382 0.5299,-0.70654 0.5522,-1.91621 0.8119,-2.43572 0.4948,-0.98953 1.1291,-1.85216 1.6238,-2.84168 0.1211,-0.24207 -0.1913,-0.62054 0,-0.81191 0.096,-0.0957 0.3103,0.0957 0.406,0 0.4114,-0.41141 0,-3.41309 0,-4.05954 0,-0.4876 0.2134,-1.60291 0,-2.02977 -0.1675,-0.33494 -0.7535,-1.5946 -0.8119,-1.62382 -0.2421,-0.12103 -0.5552,0.0856 -0.8119,0 -0.7652,-0.25505 -1.3297,-1.27377 -2.0298,-1.62381 -0.121,-0.0605 -0.3103,0.0957 -0.406,0 -0.096,-0.0957 0.096,-0.31027 0,-0.40596 -0.3666,-0.3666 -1.546,-0.57006 -2.0297,-0.8119 -0.6495,-0.32477 -0.9743,-1.29906 -1.6238,-1.62382 -0.3828,-0.19137 -0.8619,-0.16859 -1.2179,-0.40595 -0.1126,-0.0751 0.096,-0.31027 0,-0.40596 -0.3056,-0.30557 -1.8088,-0.99694 -2.0298,-1.21786 -0.096,-0.0957 0.096,-0.31027 0,-0.40595 -0.096,-0.0957 -0.3102,0.0957 -0.4059,0 -0.096,-0.0957 0.061,-0.28493 0,-0.40596 -0.3683,-0.73645 -2.0172,-2.02977 -2.4357,-2.02977"
         id="path21" />
    </g>
  </g>
</svg>
